<?xml version="1.0" encoding="UTF-8" standalone="no"?>
<svg
   width="128"
   height="128"
   viewBox="0 0 128 128"
   version="1.1"
   id="svg833"
   sodipodi:docname="archive-add.svg"
   inkscape:version="1.1-dev (9017afb, 2021-01-01)"
   xmlns:inkscape="http://www.inkscape.org/namespaces/inkscape"
   xmlns:sodipodi="http://sodipodi.sourceforge.net/DTD/sodipodi-0.dtd"
   xmlns="http://www.w3.org/2000/svg"
   xmlns:svg="http://www.w3.org/2000/svg"
   xmlns:rdf="http://www.w3.org/1999/02/22-rdf-syntax-ns#"
   xmlns:cc="http://creativecommons.org/ns#"
   xmlns:dc="http://purl.org/dc/elements/1.1/">
  <defs
     id="defs837" />
  <sodipodi:namedview
     id="namedview835"
     pagecolor="#ffffff"
     bordercolor="#666666"
     borderopacity="1.0"
     objecttolerance="10.0"
     gridtolerance="10.0"
     guidetolerance="10.0"
     inkscape:pageshadow="2"
     inkscape:pageopacity="0.0"
     inkscape:pagecheckerboard="0"
     showgrid="false"
     inkscape:zoom="2.8284271"
     inkscape:cx="-6.5407377"
     inkscape:cy="135.23417"
     inkscape:window-width="1280"
     inkscape:window-height="1387"
     inkscape:window-x="0"
     inkscape:window-y="25"
     inkscape:window-maximized="0"
     inkscape:current-layer="svg833" />
  <title
     id="title824">Combined Shape</title>
  <g
     id="Groups-Copy"
     transform="matrix(4.9328999,0,0,4.9328999,-315.83324,-333.09843)"
     style="fill:#000000;fill-rule:nonzero;stroke:none;stroke-width:1">
    <g
       id="Group"
       transform="translate(21,70)"
       style="fill:#000000" />
  </g>
  <metadata
     id="metadata839">
    <rdf:RDF>
      <cc:Work
         rdf:about="">
        <dc:title>Combined Shape</dc:title>
      </cc:Work>
    </rdf:RDF>
  </metadata>
  <path
     id="rect857"
     style="stroke-width:7;stroke-linecap:round"
     d="M 34.982941,48.992649 H 88 V 87 H 34.982941 Z m 58.03417,-5.999987 c 5.803414,0 10.446139,4.450485 10.446139,10.013592 v 0 47.842716 c 0,5.5631 -4.642725,10.01359 -10.446139,10.01359 v 0 H 34.982994 c -5.803414,0 -10.446141,-4.45049 -10.446141,-10.01359 v 0 -47.842716 c 0,-5.563107 4.642727,-10.013592 10.446141,-10.013592 v 0 z M 77.11576,58.235574 c -1.97316,0 -3.482045,1.446408 -3.482045,3.337866 v 0 5.118056 H 54.36639 V 61.57344 c 0,-1.891458 -1.508885,-3.337866 -3.482045,-3.337866 -1.973165,0 -3.482051,1.446408 -3.482051,3.337866 v 0 8.455922 c 0,1.891452 1.508886,3.337862 3.482051,3.337862 v 0 H 77.11576 c 1.973165,0 3.48205,-1.44641 3.48205,-3.337862 v 0 -8.455922 c 0,-1.891458 -1.508885,-3.337866 -3.48205,-3.337866 z M 93.362552,30.065063 c 1.99665,0 3.523501,1.40049 3.523501,3.2319 0,1.831409 -1.526851,3.2319 -3.523501,3.2319 v 0 H 34.637553 c -1.996651,0 -3.523502,-1.400491 -3.523502,-3.2319 0,-1.83141 1.526851,-3.2319 3.523502,-3.2319 v 0 z m -6.485284,-12.9276 c 1.944564,0 3.431582,1.40049 3.431582,3.2319 0,1.83141 -1.487018,3.2319 -3.431582,3.2319 v 0 H 41.122836 c -1.944564,0 -3.431582,-1.40049 -3.431582,-3.2319 0,-1.83141 1.487018,-3.2319 3.431582,-3.2319 v 0 z" />
  <path
     style="fill:#ffffff;stroke:#ffffff;stroke-width:8;stroke-linecap:round;stroke-linejoin:miter;stroke-miterlimit:4;stroke-dasharray:none;stroke-opacity:1"
     d="M 64,59.5 V 92"
     id="path2116" />
  <path
     style="fill:#ffffff;stroke:#ffffff;stroke-width:8;stroke-linecap:round;stroke-linejoin:miter;stroke-miterlimit:4;stroke-dasharray:none;stroke-opacity:1"
     d="m 47.75,75.75 h 32.5"
     id="path2330" />
</svg>
