<?xml version="1.0" encoding="UTF-8" standalone="no"?>
<svg
   xmlns:dc="http://purl.org/dc/elements/1.1/"
   xmlns:cc="http://creativecommons.org/ns#"
   xmlns:rdf="http://www.w3.org/1999/02/22-rdf-syntax-ns#"
   xmlns:svg="http://www.w3.org/2000/svg"
   xmlns="http://www.w3.org/2000/svg"
   xmlns:sodipodi="http://sodipodi.sourceforge.net/DTD/sodipodi-0.dtd"
   xmlns:inkscape="http://www.inkscape.org/namespaces/inkscape"
   width="128"
   height="128"
   viewBox="0 0 128 128"
   version="1.1"
   id="svg2"
   inkscape:version="0.91 r13725"
   sodipodi:docname="arrow.svg">
  <metadata
     id="metadata16">
    <rdf:RDF>
      <cc:Work
         rdf:about="">
        <dc:format>image/svg+xml</dc:format>
        <dc:type
           rdf:resource="http://purl.org/dc/dcmitype/StillImage" />
        <dc:title>Path Copy 2</dc:title>
      </cc:Work>
    </rdf:RDF>
  </metadata>
  <defs
     id="defs14" />
  <sodipodi:namedview
     pagecolor="#ffffff"
     bordercolor="#666666"
     borderopacity="1"
     objecttolerance="10"
     gridtolerance="10"
     guidetolerance="10"
     inkscape:pageopacity="0"
     inkscape:pageshadow="2"
     inkscape:window-width="1082"
     inkscape:window-height="643"
     id="namedview12"
     showgrid="false"
     inkscape:zoom="1"
     inkscape:cx="48.599437"
     inkscape:cy="72.207761"
     inkscape:window-x="790"
     inkscape:window-y="34"
     inkscape:window-maximized="0"
     inkscape:current-layer="svg2" />
  <!-- Generator: Sketch 52 (66869) - http://www.bohemiancoding.com/sketch -->
  <title
     id="title4">Path Copy 2</title>
  <desc
     id="desc6">Created with Sketch.</desc>
  <g
     id="Onepanel-for-provider"
     style="fill:#000000;fill-rule:evenodd;stroke:none;stroke-width:1"
     transform="matrix(3.2153137,0,0,3.2153137,23.728192,24.290876)">
    <g
       id="ONEPANEL-spaces-autocleaning-Copy"
       transform="translate(-1808,-432)"
       style="fill:#000000">
      <g
         id="Group-9-Copy-3"
         transform="translate(1261,420)"
         style="fill:#000000">
        <path
           d="m 557.65065,13.654397 1.24118,-1.255645 c 0.52554,-0.531669 1.37536,-0.531669 1.89531,0 l 10.8687,10.989718 c 0.52555,0.53167 0.52555,1.39139 0,1.917404 l -10.8687,10.995374 c -0.52554,0.531669 -1.37536,0.531669 -1.89531,0 l -1.24118,-1.255645 c -0.53113,-0.537325 -0.51995,-1.414014 0.0224,-1.940027 l 6.73702,-6.493153 -16.06823,0 C 547.59823,26.612423 547,26.007225 547,25.254969 l 0,-1.809938 c 0,-0.752256 0.59823,-1.357454 1.34181,-1.357454 l 16.06823,0 -6.73702,-6.493153 c -0.54791,-0.526013 -0.55909,-1.402702 -0.0224,-1.940027 z"
           id="Path-Copy-2"
           style="fill:#000000"
           inkscape:connector-curvature="0" />
      </g>
    </g>
  </g>
</svg>
