<?xml version="1.0" encoding="UTF-8" standalone="no"?>
<svg
   xmlns:dc="http://purl.org/dc/elements/1.1/"
   xmlns:cc="http://creativecommons.org/ns#"
   xmlns:rdf="http://www.w3.org/1999/02/22-rdf-syntax-ns#"
   xmlns:svg="http://www.w3.org/2000/svg"
   xmlns="http://www.w3.org/2000/svg"
   xmlns:sodipodi="http://sodipodi.sourceforge.net/DTD/sodipodi-0.dtd"
   xmlns:inkscape="http://www.inkscape.org/namespaces/inkscape"
   width="128"
   height="128"
   viewBox="0 0 128 128"
   version="1.1"
   id="svg873"
   sodipodi:docname="atm-inventory.svg"
   inkscape:version="0.92.3 (2405546, 2018-03-11)">
  <metadata
     id="metadata879">
    <rdf:RDF>
      <cc:Work
         rdf:about="">
        <dc:format>image/svg+xml</dc:format>
        <dc:type
           rdf:resource="http://purl.org/dc/dcmitype/StillImage" />
        <dc:title>icons/inventory </dc:title>
      </cc:Work>
    </rdf:RDF>
  </metadata>
  <defs
     id="defs877" />
  <sodipodi:namedview
     pagecolor="#ffffff"
     bordercolor="#666666"
     borderopacity="1"
     objecttolerance="10"
     gridtolerance="10"
     guidetolerance="10"
     inkscape:pageopacity="0"
     inkscape:pageshadow="2"
     inkscape:window-width="2560"
     inkscape:window-height="1414"
     id="namedview875"
     showgrid="false"
     inkscape:zoom="6.7838057"
     inkscape:cx="-2.7115338"
     inkscape:cy="45.167356"
     inkscape:window-x="0"
     inkscape:window-y="0"
     inkscape:window-maximized="1"
     inkscape:current-layer="svg873" />
  <title
     id="title867">icons/inventory </title>
  <g
     id="g923"
     transform="matrix(1.1165091,0,0,1.1165091,-7.4565813,-7.4565824)">
    <path
       sodipodi:nodetypes="sscscccccccccccccccccccscssscccccccccccccccccccscssscs"
       d="m 102.1008,61.994381 c 1.10793,0 2.0053,0.897375 2.0053,2.005306 0,9.344723 -4.00183,19.369366 -10.704565,26.817823 -7.566267,8.407241 -17.919908,13.03699 -29.149617,13.03699 -7.029847,0 -14.056562,-1.98588 -20.320007,-5.744573 -3.457272,-2.083637 -6.609987,-4.634762 -9.368535,-7.583187 v 0 l 0.248156,7.519895 v 0 l 0.0013,0.04324 c 0.02507,1.107303 -0.853508,2.025355 -1.960186,2.049795 -1.107304,0.025 -2.025358,-0.852879 -2.050424,-1.96081 v 0 L 30.372913,85.144373 c -0.309568,-0.748852 -0.138491,-1.609256 0.433648,-2.182647 0.572765,-0.572764 1.433793,-0.745721 2.182649,-0.437407 v 0 l 13.037617,0.429887 c 1.107305,0.03697 1.974599,0.9638 1.938253,2.070477 -0.03635,1.10668 -0.963172,1.974601 -2.069851,1.938881 v 0 l -9.423054,-0.310822 c 2.730975,3.158354 5.945729,5.863636 9.523319,8.016835 5.640547,3.385205 11.9535,5.173059 18.256424,5.173059 10.079164,0 19.371876,-4.158501 26.168605,-11.709101 6.05853,-6.73156 9.674967,-15.754179 9.674967,-24.133848 0,-1.107931 0.89738,-2.005306 2.00531,-2.005306 z M 63.748085,24.1455 c 7.029847,0 14.056561,1.986505 20.320006,5.744573 3.457273,2.082384 6.60999,4.634761 9.368537,7.58256 v 0 l -0.248143,-7.519895 v 0 l -0.0013,-0.04324 c -0.02501,-1.106677 0.853509,-2.024731 1.960185,-2.049798 1.107303,-0.02443 2.025359,0.852882 2.050426,1.960186 v 0 l 0.42926,13.034484 c 0.309568,0.748856 0.138501,1.609884 -0.433646,2.183276 -0.572767,0.573392 -1.433796,0.745723 -2.18265,0.437407 v 0 L 81.97319,45.044541 c -1.107305,-0.03572 -1.974601,-0.963173 -1.938253,-2.069851 0.03634,-1.107304 0.963173,-1.975226 2.06985,-1.938253 v 0 l 9.423056,0.310823 C 88.796852,38.188276 85.582098,35.482994 82.004508,33.330424 76.363962,29.945219 70.051012,28.15611 63.748085,28.15611 c -10.079165,0 -19.371875,4.159755 -26.168606,11.710356 -6.058528,6.730932 -9.674971,15.752924 -9.674971,24.133221 0,1.107303 -0.897374,2.005305 -2.005305,2.005305 -1.107931,0 -2.005305,-0.898002 -2.005305,-2.005305 0,-9.344097 4.001837,-19.368742 10.70457,-26.81657 C 42.164734,28.775875 52.518376,24.1455 63.748085,24.1455 Z"
       id="Combined-Shape"
       inkscape:connector-curvature="0"
       style="fill:#000000;fill-rule:evenodd;stroke:none;stroke-width:2.74858618" />
    <path
       sodipodi:nodetypes="cccccccccccccccccccccccccccccccccsssss"
       d="m 66.960205,43.012482 1.708493,5.122151 c 1.128648,0.331497 2.218491,0.782736 3.250682,1.34595 l 4.827241,-2.414728 4.187523,4.187526 -2.414726,4.828349 c 0.563214,1.029973 1.01334,2.118709 1.345951,3.25068 l 5.12215,1.707384 v 5.920411 l -5.12215,1.707384 c -0.332617,1.131972 -0.782737,2.220706 -1.345951,3.250679 l 2.414727,4.828351 -4.187524,4.186415 -4.827241,-2.413618 c -1.032191,0.563215 -2.122034,1.014449 -3.250682,1.345951 l -1.708493,5.122151 h -5.920412 l -1.708492,-5.122151 c -1.129753,-0.331498 -2.218488,-0.782736 -3.250679,-1.345951 l -4.827242,2.413618 -4.187525,-4.186415 2.414728,-4.828351 C 48.917368,70.888295 48.467242,69.79956 48.134632,68.667589 l -5.122151,-1.707384 v -5.920411 l 5.122151,-1.707384 c 0.332617,-1.131971 0.782736,-2.220707 1.345951,-3.25068 l -2.414728,-4.828349 4.187525,-4.187526 4.827242,2.414728 c 1.03219,-0.563214 2.120925,-1.014452 3.250679,-1.34595 l 1.708492,-5.122151 z M 64,54.205822 c -5.400505,0 -9.794174,4.393671 -9.794174,9.794177 0,5.400505 4.39367,9.794174 9.794174,9.794174 5.400505,0 9.794175,-4.393671 9.794175,-9.794174 0,-5.400506 -4.393671,-9.794177 -9.794175,-9.794177 z"
       id="Combined-Shape-7"
       inkscape:connector-curvature="0"
       style="fill:#000000;fill-rule:evenodd;stroke:none;stroke-width:3.4979198" />
  </g>
</svg>
