<?xml version="1.0" encoding="UTF-8" standalone="no"?>
<svg
   xmlns:dc="http://purl.org/dc/elements/1.1/"
   xmlns:cc="http://creativecommons.org/ns#"
   xmlns:rdf="http://www.w3.org/1999/02/22-rdf-syntax-ns#"
   xmlns:svg="http://www.w3.org/2000/svg"
   xmlns="http://www.w3.org/2000/svg"
   xmlns:sodipodi="http://sodipodi.sourceforge.net/DTD/sodipodi-0.dtd"
   xmlns:inkscape="http://www.inkscape.org/namespaces/inkscape"
   width="128"
   height="128"
   viewBox="0 0 128 128"
   version="1.1"
   id="svg6"
   sodipodi:docname="atm-workflow.svg"
   inkscape:version="0.92.3 (2405546, 2018-03-11)">
  <metadata
     id="metadata12">
    <rdf:RDF>
      <cc:Work
         rdf:about="">
        <dc:format>image/svg+xml</dc:format>
        <dc:type
           rdf:resource="http://purl.org/dc/dcmitype/StillImage" />
        <dc:title>icons/inventory </dc:title>
      </cc:Work>
    </rdf:RDF>
  </metadata>
  <defs
     id="defs10" />
  <sodipodi:namedview
     pagecolor="#ffffff"
     bordercolor="#666666"
     borderopacity="1"
     objecttolerance="10"
     gridtolerance="10"
     guidetolerance="10"
     inkscape:pageopacity="0"
     inkscape:pageshadow="2"
     inkscape:window-width="2560"
     inkscape:window-height="1414"
     id="namedview8"
     showgrid="false"
     inkscape:zoom="7.375"
     inkscape:cx="16.455557"
     inkscape:cy="66.203432"
     inkscape:window-x="0"
     inkscape:window-y="0"
     inkscape:window-maximized="1"
     inkscape:current-layer="icons/inventory-" />
  <title
     id="title2">icons/inventory </title>
  <g
     id="icons/inventory-"
     style="fill:none;fill-rule:evenodd;stroke:none;stroke-width:1"
     transform="matrix(2.5890454,0,0,2.5890454,22.781245,22.053514)">
    <path
       d="m 22.898183,1.2208735 c 0.492996,-0.49299605 1.302828,-0.48988561 1.799625,0.00691 v 0 l 6.32288,6.3228795 c 0.496798,0.4967978 0.499908,1.306629 0.0069,1.799625 v 0 l -6.274496,6.274496 c -0.08158,0.08158 -0.171834,0.149574 -0.26791,0.203995 l -10e-4,2.257725 c 3.506185,0.265047 6.271008,3.174994 6.271008,6.721863 0,3.721328 -3.043498,6.741537 -6.793523,6.741537 -3.750024,0 -6.793523,-3.020209 -6.793523,-6.741537 0,-3.546869 2.764824,-6.456816 6.271008,-6.721863 l -4.67e-4,-2.164679 c -0.177367,-0.06138 -0.343906,-0.162714 -0.485144,-0.303953 v 0 L 16.630601,9.2949938 C 16.525013,9.1894066 16.441727,9.0696792 16.380764,8.9418588 L 14.012773,8.9415082 C 13.758741,12.249702 11.095189,14.892773 7.7614404,15.144704 l 2.268e-4,2.922127 H 12.52294 c 0.83032,0 1.509672,0.674153 1.509672,1.498119 v 0 10.486836 c 0,0.823965 -0.679352,1.498119 -1.509672,1.498119 v 0 H 1.9552373 c -0.8303194,0 -1.50967167,-0.674154 -1.50967167,-1.498119 v 0 -10.486836 c 0,-0.823966 0.67935227,-1.498119 1.50967167,-1.498119 v 0 h 4.7612725 l 6.43e-5,-2.922139 C 3.210389,14.879645 0.44556563,11.969698 0.44556563,8.4228294 c 0,-3.7213285 3.04349827,-6.7415372 6.79352287,-6.7415372 3.5741655,0 6.5065155,2.7435808 6.7736845,6.2228585 l 2.338711,-6.988e-4 c 0.06125,-0.1487809 0.151975,-0.2878538 0.272204,-0.4080831 v 0 z"
       id="Combined-Shape"
       inkscape:connector-curvature="0"
       style="fill:#000000;stroke-width:1.03715956"
       sodipodi:nodetypes="sccsccsccssscccccccccsccsccsccsccccssccccs" />
  </g>
</svg>
