<?xml version="1.0" encoding="utf-8"?>
<!-- Generator: Adobe Illustrator 21.0.0, SVG Export Plug-In . SVG Version: 6.00 Build 0)  -->
<!DOCTYPE svg PUBLIC "-//W3C//DTD SVG 1.1//EN" "http://www.w3.org/Graphics/SVG/1.1/DTD/svg11.dtd">
<svg version="1.1"
	 id="Layer_1" inkscape:version="0.91 r13725" sodipodi:docname="space-default.svg" xmlns:cc="http://creativecommons.org/ns#" xmlns:dc="http://purl.org/dc/elements/1.1/" xmlns:inkscape="http://www.inkscape.org/namespaces/inkscape" xmlns:rdf="http://www.w3.org/1999/02/22-rdf-syntax-ns#" xmlns:sodipodi="http://sodipodi.sourceforge.net/DTD/sodipodi-0.dtd" xmlns:svg="http://www.w3.org/2000/svg"
	 xmlns="http://www.w3.org/2000/svg" xmlns:xlink="http://www.w3.org/1999/xlink" x="0px" y="0px" width="128px" height="128px"
	 viewBox="0 0 128 128" enable-background="new 0 0 128 128" xml:space="preserve">
	<path d="M64.5,25c-21.5,0-39,17.5-39,39c0,21.5,17.5,39,39,39c21.5,0,39-17.5,39-39C103.5,42.5,86,25,64.5,25L64.5,25z M64.5,93.2
		c-16.1,0-29.2-13.1-29.2-29.3c0-6.3,2-12.1,5.4-16.9l40.7,40.7C76.6,91.2,70.8,93.2,64.5,93.2L64.5,93.2z M88.3,80.9L47.6,40.2
		c4.8-3.4,10.6-5.4,16.9-5.4c16.1,0,29.3,13.1,29.3,29.2C93.7,70.3,91.7,76.1,88.3,80.9L88.3,80.9z M88.3,80.9"/>
</svg>
