<?xml version="1.0" encoding="UTF-8" standalone="no"?>
<svg
   width="128"
   height="128"
   viewBox="0 0 128 128"
   version="1.1"
   id="svg833"
   sodipodi:docname="archive.svg"
   inkscape:version="1.1-dev (9017afb, 2021-01-01)"
   xmlns:inkscape="http://www.inkscape.org/namespaces/inkscape"
   xmlns:sodipodi="http://sodipodi.sourceforge.net/DTD/sodipodi-0.dtd"
   xmlns="http://www.w3.org/2000/svg"
   xmlns:svg="http://www.w3.org/2000/svg"
   xmlns:rdf="http://www.w3.org/1999/02/22-rdf-syntax-ns#"
   xmlns:cc="http://creativecommons.org/ns#"
   xmlns:dc="http://purl.org/dc/elements/1.1/">
  <defs
     id="defs837" />
  <sodipodi:namedview
     id="namedview835"
     pagecolor="#ffffff"
     bordercolor="#666666"
     borderopacity="1.0"
     objecttolerance="10.0"
     gridtolerance="10.0"
     guidetolerance="10.0"
     inkscape:pageshadow="2"
     inkscape:pageopacity="0.0"
     inkscape:pagecheckerboard="0"
     showgrid="false"
     inkscape:zoom="1"
     inkscape:cx="32.5"
     inkscape:cy="36.5"
     inkscape:window-width="1280"
     inkscape:window-height="1395"
     inkscape:window-x="0"
     inkscape:window-y="23"
     inkscape:window-maximized="0"
     inkscape:current-layer="svg833" />
  <title
     id="title824">Combined Shape</title>
  <g
     id="Dataset"
     stroke="none"
     stroke-width="1"
     fill="none"
     fill-rule="evenodd"
     style="fill:#000000"
     transform="matrix(4.9328999,0,0,4.9328999,24.5368,17.13745)">
    <g
       transform="translate(-610,-334)"
       fill="#555D72"
       fill-rule="nonzero"
       id="Group-16"
       style="fill:#000000">
      <g
         transform="translate(180,-3)"
         id="g829"
         style="fill:#000000">
        <g
           id="Groups-Copy"
           transform="translate(361,266)"
           style="fill:#000000">
          <g
             id="Group"
             transform="translate(21,70)"
             style="fill:#000000">
            <path
               d="M 61.882353,6.2413793 C 63.058824,6.2413793 64,7.1435839 64,8.2713397 v 0 9.6987003 C 64,19.097795 63.058824,20 61.882353,20 v 0 H 50.117647 C 48.941176,20 48,19.097795 48,17.97004 v 0 -9.6987003 c 0,-1.1277558 0.941176,-2.0299604 2.117647,-2.0299604 v 0 z m -3.22353,3.0900509 c -0.4,0 -0.705882,0.2932165 -0.705882,0.6766538 v 0 1.037535 h -3.905882 v -1.037535 c 0,-0.3834373 -0.305882,-0.6766538 -0.705882,-0.6766538 -0.400001,0 -0.705883,0.2932165 -0.705883,0.6766538 v 0 1.714189 c 0,0.383436 0.305882,0.676653 0.705883,0.676653 v 0 h 5.317646 c 0.400001,0 0.705883,-0.293217 0.705883,-0.676653 v 0 -1.714189 c 0,-0.3834373 -0.305882,-0.6766538 -0.705883,-0.6766538 z m 3.293558,-5.7107405 c 0.404762,0 0.714286,0.283908 0.714286,0.6551724 0,0.3712643 -0.309524,0.6551724 -0.714286,0.6551724 v 0 H 50.047619 c -0.404762,0 -0.714286,-0.2839081 -0.714286,-0.6551724 0,-0.3712644 0.309524,-0.6551724 0.714286,-0.6551724 v 0 z M 60.637681,1 c 0.394203,0 0.695652,0.283908 0.695652,0.6551724 0,0.3712644 -0.301449,0.6551724 -0.695652,0.6551724 v 0 h -9.275362 c -0.394203,0 -0.695652,-0.283908 -0.695652,-0.6551724 C 50.666667,1.283908 50.968116,1 51.362319,1 v 0 z"
               id="Combined-Shape"
               style="fill:#000000" />
          </g>
        </g>
      </g>
    </g>
  </g>
  <metadata
     id="metadata839">
    <rdf:RDF>
      <cc:Work
         rdf:about="">
        <dc:title>Combined Shape</dc:title>
      </cc:Work>
    </rdf:RDF>
  </metadata>
</svg>
