<?xml version="1.0" encoding="UTF-8" standalone="no"?>
<svg
   xmlns:dc="http://purl.org/dc/elements/1.1/"
   xmlns:cc="http://creativecommons.org/ns#"
   xmlns:rdf="http://www.w3.org/1999/02/22-rdf-syntax-ns#"
   xmlns:svg="http://www.w3.org/2000/svg"
   xmlns="http://www.w3.org/2000/svg"
   xmlns:xlink="http://www.w3.org/1999/xlink"
   xmlns:sodipodi="http://sodipodi.sourceforge.net/DTD/sodipodi-0.dtd"
   xmlns:inkscape="http://www.inkscape.org/namespaces/inkscape"
   width="128"
   height="128"
   viewBox="0 0 128 128"
   version="1.1"
   id="svg2"
   inkscape:version="0.91 r13725"
   sodipodi:docname="browser-copy.svg">
  <metadata
     id="metadata511">
    <rdf:RDF>
      <cc:Work
         rdf:about="">
        <dc:format>image/svg+xml</dc:format>
        <dc:type
           rdf:resource="http://purl.org/dc/dcmitype/StillImage" />
        <dc:title>Tabs </dc:title>
      </cc:Work>
    </rdf:RDF>
  </metadata>
  <sodipodi:namedview
     pagecolor="#ffffff"
     bordercolor="#666666"
     borderopacity="1"
     objecttolerance="10"
     gridtolerance="10"
     guidetolerance="10"
     inkscape:pageopacity="0"
     inkscape:pageshadow="2"
     inkscape:window-width="2104"
     inkscape:window-height="1107"
     id="namedview509"
     showgrid="false"
     inkscape:zoom="0.96343298"
     inkscape:cx="-130.00272"
     inkscape:cy="-151.36886"
     inkscape:window-x="1484"
     inkscape:window-y="182"
     inkscape:window-maximized="0"
     inkscape:current-layer="svg2"
     showguides="false"
     fit-margin-top="10"
     fit-margin-left="10"
     fit-margin-right="10"
     fit-margin-bottom="10" />
  <!-- Generator: Sketch 55 (78076) - https://sketchapp.com -->
  <title
     id="title4">Tabs </title>
  <desc
     id="desc6">Created with Sketch.</desc>
  <defs
     id="defs8">
    <rect
       id="path-1"
       x="1"
       y="162"
       width="206.2522"
       height="66.974953" />
    <filter
       x="-0.0099999998"
       y="-0.029999999"
       width="1.0190001"
       height="1.0599999"
       filterUnits="objectBoundingBox"
       id="filter-2">
      <feGaussianBlur
         stdDeviation="1.5"
         in="SourceAlpha"
         result="shadowBlurInner1"
         id="feGaussianBlur12" />
      <feOffset
         dx="0"
         dy="1"
         in="shadowBlurInner1"
         result="shadowOffsetInner1"
         id="feOffset14" />
      <feComposite
         in="shadowOffsetInner1"
         in2="SourceAlpha"
         operator="arithmetic"
         k2="-1"
         k3="1"
         result="shadowInnerInner1"
         id="feComposite16"
         k1="0"
         k4="0" />
      <feColorMatrix
         values="0 0 0 0 0   0 0 0 0 0   0 0 0 0 0  0 0 0 0.5 0"
         type="matrix"
         in="shadowInnerInner1"
         id="feColorMatrix18" />
    </filter>
    <rect
       id="path-3"
       x="0"
       y="0"
       width="288"
       height="37"
       rx="5" />
    <mask
       fill="white"
       id="mask-4">
      <use
         height="100%"
         width="100%"
         y="0"
         x="0"
         id="use292"
         xlink:href="#path-3" />
    </mask>
  </defs>
  <path
     style="fill:#000000;fill-rule:evenodd;stroke:none;stroke-width:1"
     inkscape:connector-curvature="0"
     id="Combined-Shape"
     d="m 27.624689,103.99279 c -1.46685,0 -2.731959,-0.88944 -3.304746,-2.44859 C 24.111092,100.97257 24,100.31963 24,99.584726 l 0,-52.573115 c 0,-1.297859 1.619713,-2.938322 3.626911,-2.938322 l 17.431122,0 c 1.338429,0 2.418236,1.093671 2.418236,2.448586 l 0,16.839138 c 0,1.35496 1.079809,2.448587 2.417349,2.448587 l 16.536614,0 c 1.338428,0 2.418236,1.093672 2.418236,2.448631 l 0,32.061399 c 0,2.0327 -1.619712,3.67316 -3.626466,3.67316 l -37.595091,0 z M 53.537858,60.667314 c -0.666992,0 -1.219783,-0.544302 -1.211784,-1.218982 l 0,-14.226314 c 0,-0.730937 0.601671,-1.218406 1.227781,-1.218406 0.302169,0 0.601227,0.105314 0.853626,0.35727 l 3.307857,3.306656 10.916725,10.919658 c 0.253288,0.251955 0.359935,0.560967 0.359935,0.861269 0,0.625844 -0.487913,1.218983 -1.219338,1.218983 l -14.23258,0 z m 50.445692,-12.774127 0,0 0,32.425282 c 0,2.03506 -1.62415,3.678012 -3.63757,3.678012 l -25.313722,0 0,-24.777041 0,0 c 0,-1.585231 -0.607004,-3.138065 -1.763242,-4.306924 L 59.112867,40.604128 c -0.04444,-0.03999 -0.0711,-0.07332 -0.106648,-0.106204 l 0,-12.813277 c 0.0018,-2.03506 1.626821,-3.677434 3.640241,-3.677434 l 17.397795,0 c 1.342872,0 2.425346,1.094916 2.425346,2.45143 l 0,16.531727 c 0,1.356514 1.083808,2.45143 2.425791,2.45143 l 16.679258,0 c 1.34243,0 2.42535,1.094916 2.42535,2.451431 z M 89.802076,26.053115 103.56497,39.81569 c 0.74652,0.738757 0.22218,2.012398 -0.83319,2.012398 l -13.76289,0 c -0.652773,0 -1.179346,-0.526529 -1.179346,-1.179213 l 0,-13.763108 c 0,-1.053146 1.273552,-1.571942 2.012532,-0.832607 z" />
</svg>
