<?xml version="1.0" encoding="UTF-8"?>
<svg width="32px" height="32px" viewBox="0 0 32 32" version="1.1" xmlns="http://www.w3.org/2000/svg" xmlns:xlink="http://www.w3.org/1999/xlink">
    <title>icons/dataset</title>
    <g id="icons/dataset" stroke="none" stroke-width="1" fill="none" fill-rule="evenodd">
        <path d="M25,14.25 L25,24.75 C25,25.7125 24.2125,26.5 23.25,26.5 L23.25,26.5 L12.74125,26.5 C11.77875,26.5 11,25.7125 11,24.75 L11,24.75 L11.001,23.5 L20.25,23.5 C21.2125,23.5 22,22.7125 22,21.75 L22,11.25 L25,14.25 Z" id="Combined-Shape" fill="#000000"></path>
        <path d="M15.75,5 L8.75,5 C7.7875,5 7.00875,5.7875 7.00875,6.75 L7,20.75 C7,21.7125 7.77875,22.5 8.74125,22.5 L19.25,22.5 C20.2125,22.5 21,21.7125 21,20.75 L21,10.25 L15.75,5 L15.75,5 Z M17.5,19 L10.5,19 L10.5,17.25 L17.5,17.25 L17.5,19 L17.5,19 Z M17.5,15.5 L10.5,15.5 L10.5,13.75 L17.5,13.75 L17.5,15.5 L17.5,15.5 Z M14.875,11.125 L14.875,6.3125 L19.6875,11.125 L14.875,11.125 L14.875,11.125 Z" id="Shape-Copy-5" fill="#000000"></path>
    </g>
</svg>