<?xml version="1.0" encoding="UTF-8" standalone="no"?>
<svg
   xmlns:dc="http://purl.org/dc/elements/1.1/"
   xmlns:cc="http://creativecommons.org/ns#"
   xmlns:rdf="http://www.w3.org/1999/02/22-rdf-syntax-ns#"
   xmlns:svg="http://www.w3.org/2000/svg"
   xmlns="http://www.w3.org/2000/svg"
   xmlns:sodipodi="http://sodipodi.sourceforge.net/DTD/sodipodi-0.dtd"
   xmlns:inkscape="http://www.inkscape.org/namespaces/inkscape"
   width="128"
   height="128"
   viewBox="0 0 128 128"
   version="1.1"
   id="svg2"
   inkscape:version="0.92.5 (2060ec1f9f, 2020-04-08)"
   sodipodi:docname="browser-new-directory.svg">
  <metadata
     id="metadata511">
    <rdf:RDF>
      <cc:Work
         rdf:about="">
        <dc:format>image/svg+xml</dc:format>
        <dc:type
           rdf:resource="http://purl.org/dc/dcmitype/StillImage" />
        <dc:title>Tabs </dc:title>
      </cc:Work>
    </rdf:RDF>
  </metadata>
  <sodipodi:namedview
     pagecolor="#ffffff"
     bordercolor="#666666"
     borderopacity="1"
     objecttolerance="10"
     gridtolerance="10"
     guidetolerance="10"
     inkscape:pageopacity="0"
     inkscape:pageshadow="2"
     inkscape:window-width="1920"
     inkscape:window-height="1080"
     id="namedview509"
     showgrid="false"
     inkscape:zoom="0.48171649"
     inkscape:cx="142.55011"
     inkscape:cy="598.10646"
     inkscape:window-x="640"
     inkscape:window-y="251"
     inkscape:window-maximized="0"
     inkscape:current-layer="svg2" />
  <!-- Generator: Sketch 55 (78076) - https://sketchapp.com -->
  <title
     id="title4">Tabs </title>
  <desc
     id="desc6">Created with Sketch.</desc>
  <defs
     id="defs8" />
  <path
     style="fill:#000000;fill-rule:evenodd;stroke:none;stroke-width:1"
     inkscape:connector-curvature="0"
     id="path194"
     d="m 96,40 -32,0 -8,-8 -24,0 c -4.44,0 -7.96,3.56 -7.96,8 L 24,88 c 0,4.44 3.56,8 8,8 l 64,0 c 4.44,0 8,-3.56 8,-8 l 0,-40 c 0,-4.44 -3.56,-8 -8,-8 l 0,0 z m -4,32 -12,0 0,12 -8,0 0,-12 -12,0 0,-8 12,0 0,-12 8,0 0,12 12,0 0,8 0,0 z" />
</svg>
