<?xml version="1.0" encoding="UTF-8" standalone="no"?>
<svg
   xmlns:dc="http://purl.org/dc/elements/1.1/"
   xmlns:cc="http://creativecommons.org/ns#"
   xmlns:rdf="http://www.w3.org/1999/02/22-rdf-syntax-ns#"
   xmlns:svg="http://www.w3.org/2000/svg"
   xmlns="http://www.w3.org/2000/svg"
   xmlns:xlink="http://www.w3.org/1999/xlink"
   xmlns:sodipodi="http://sodipodi.sourceforge.net/DTD/sodipodi-0.dtd"
   xmlns:inkscape="http://www.inkscape.org/namespaces/inkscape"
   width="128"
   height="128"
   viewBox="0 0 128 128"
   version="1.1"
   id="svg833"
   sodipodi:docname="browser-archive-upload.svg"
   inkscape:version="0.92.3 (2405546, 2018-03-11)">
  <defs
     id="defs837">
    <rect
       height="66.974953"
       width="206.2522"
       y="162"
       x="1"
       id="path-1" />
    <filter
       id="filter-2"
       filterUnits="objectBoundingBox"
       height="1.0599999"
       width="1.0190001"
       y="-0.029999999"
       x="-0.0099999998">
      <feGaussianBlur
         id="feGaussianBlur12"
         result="shadowBlurInner1"
         in="SourceAlpha"
         stdDeviation="1.5" />
      <feOffset
         id="feOffset14"
         result="shadowOffsetInner1"
         in="shadowBlurInner1"
         dy="1"
         dx="0" />
      <feComposite
         k4="0"
         k1="0"
         id="feComposite16"
         result="shadowInnerInner1"
         k3="1"
         k2="-1"
         operator="arithmetic"
         in2="SourceAlpha"
         in="shadowOffsetInner1" />
      <feColorMatrix
         id="feColorMatrix18"
         in="shadowInnerInner1"
         type="matrix"
         values="0 0 0 0 0   0 0 0 0 0   0 0 0 0 0  0 0 0 0.5 0" />
    </filter>
    <rect
       rx="5"
       height="37"
       width="288"
       y="0"
       x="0"
       id="path-3" />
    <mask
       id="mask-4"
       fill="white">
      <use
         xlink:href="#path-3"
         id="use292"
         x="0"
         y="0"
         width="100%"
         height="100%" />
    </mask>
    <rect
       height="66.974953"
       width="206.2522"
       y="162"
       x="1"
       id="path-1-1" />
    <filter
       id="filter-2-7"
       filterUnits="objectBoundingBox"
       height="1.0599999"
       width="1.0190001"
       y="-0.029999999"
       x="-0.0099999998">
      <feGaussianBlur
         id="feGaussianBlur12-4"
         result="shadowBlurInner1"
         in="SourceAlpha"
         stdDeviation="1.5" />
      <feOffset
         id="feOffset14-3"
         result="shadowOffsetInner1"
         in="shadowBlurInner1"
         dy="1"
         dx="0" />
      <feComposite
         k4="0"
         k1="0"
         id="feComposite16-1"
         result="shadowInnerInner1"
         k3="1"
         k2="-1"
         operator="arithmetic"
         in2="SourceAlpha"
         in="shadowOffsetInner1" />
      <feColorMatrix
         id="feColorMatrix18-4"
         in="shadowInnerInner1"
         type="matrix"
         values="0 0 0 0 0   0 0 0 0 0   0 0 0 0 0  0 0 0 0.5 0" />
    </filter>
    <rect
       rx="5"
       height="37"
       width="288"
       y="0"
       x="0"
       id="path-3-6" />
    <mask
       id="mask-4-9"
       fill="white">
      <use
         xlink:href="#path-3-6"
         id="use292-4"
         x="0"
         y="0"
         width="100%"
         height="100%" />
    </mask>
  </defs>
  <sodipodi:namedview
     id="namedview835"
     pagecolor="#ffffff"
     bordercolor="#666666"
     borderopacity="1.0"
     objecttolerance="10.0"
     gridtolerance="10.0"
     guidetolerance="10.0"
     inkscape:pageshadow="2"
     inkscape:pageopacity="0.0"
     inkscape:pagecheckerboard="0"
     showgrid="false"
     inkscape:zoom="5.6568542"
     inkscape:cx="16.098221"
     inkscape:cy="25.662107"
     inkscape:window-width="2560"
     inkscape:window-height="1414"
     inkscape:window-x="0"
     inkscape:window-y="0"
     inkscape:window-maximized="1"
     inkscape:current-layer="svg833" />
  <title
     id="title824">Combined Shape</title>
  <g
     id="Groups-Copy"
     transform="matrix(4.9328999,0,0,4.9328999,-315.83324,-333.09843)"
     style="fill:#000000;fill-rule:nonzero;stroke:none;stroke-width:1">
    <g
       id="Group"
       transform="translate(21,70)"
       style="fill:#000000" />
  </g>
  <metadata
     id="metadata839">
    <rdf:RDF>
      <cc:Work
         rdf:about="">
        <dc:title>Combined Shape</dc:title>
        <dc:format>image/svg+xml</dc:format>
        <dc:type
           rdf:resource="http://purl.org/dc/dcmitype/StillImage" />
      </cc:Work>
    </rdf:RDF>
  </metadata>
  <path
     style="stroke-width:7;stroke-linecap:round"
     d="M 41.123047 17.136719 C 39.178483 17.136719 37.691406 18.537731 37.691406 20.369141 C 37.691406 22.200551 39.178483 23.601562 41.123047 23.601562 L 86.876953 23.601562 C 88.821517 23.601562 90.308594 22.200551 90.308594 20.369141 C 90.308594 18.537731 88.821517 17.136719 86.876953 17.136719 L 41.123047 17.136719 z M 34.636719 30.064453 C 32.640068 30.064453 31.113281 31.465465 31.113281 33.296875 C 31.113281 35.128284 32.640068 36.529297 34.636719 36.529297 L 93.363281 36.529297 C 95.359931 36.529297 96.886719 35.128284 96.886719 33.296875 C 96.886719 31.465465 95.359931 30.064453 93.363281 30.064453 L 34.636719 30.064453 z M 34.982422 42.992188 C 29.179008 42.992187 24.537109 47.442752 24.537109 53.005859 L 24.537109 100.84961 C 24.537109 106.41271 29.179008 110.86328 34.982422 110.86328 L 93.017578 110.86328 C 98.820992 110.86328 103.46289 106.41271 103.46289 100.84961 L 103.46289 53.005859 C 103.46289 47.442752 98.820992 42.992188 93.017578 42.992188 L 34.982422 42.992188 z M 64 58.1875 L 83.792969 77.978516 L 71.917969 77.978516 L 71.917969 93.8125 L 56.083984 93.8125 L 56.083984 77.978516 L 44.208984 77.978516 L 64 58.1875 z "
     id="rect857" />
  <g
     style="fill:none;fill-rule:evenodd;stroke:none;stroke-width:1"
     id="g384"
     transform="translate(1460.8457,-420.54625)">
    <g
       id="g386" />
  </g>
</svg>
