<?xml version="1.0" encoding="UTF-8" standalone="no"?>
<svg
   xmlns:dc="http://purl.org/dc/elements/1.1/"
   xmlns:cc="http://creativecommons.org/ns#"
   xmlns:rdf="http://www.w3.org/1999/02/22-rdf-syntax-ns#"
   xmlns:svg="http://www.w3.org/2000/svg"
   xmlns="http://www.w3.org/2000/svg"
   xmlns:sodipodi="http://sodipodi.sourceforge.net/DTD/sodipodi-0.dtd"
   xmlns:inkscape="http://www.inkscape.org/namespaces/inkscape"
   width="128"
   height="128"
   viewBox="0 0 128 128"
   version="1.1"
   id="svg2"
   inkscape:version="0.91 r13725"
   sodipodi:docname="browser-distribution.svg">
  <metadata
     id="metadata511">
    <rdf:RDF>
      <cc:Work
         rdf:about="">
        <dc:format>image/svg+xml</dc:format>
        <dc:type
           rdf:resource="http://purl.org/dc/dcmitype/StillImage" />
        <dc:title>Tabs </dc:title>
      </cc:Work>
    </rdf:RDF>
  </metadata>
  <sodipodi:namedview
     pagecolor="#ffffff"
     bordercolor="#666666"
     borderopacity="1"
     objecttolerance="10"
     gridtolerance="10"
     guidetolerance="10"
     inkscape:pageopacity="0"
     inkscape:pageshadow="2"
     inkscape:window-width="2104"
     inkscape:window-height="1107"
     id="namedview509"
     showgrid="false"
     inkscape:zoom="0.48171649"
     inkscape:cx="725.88076"
     inkscape:cy="598.10646"
     inkscape:window-x="1475"
     inkscape:window-y="227"
     inkscape:window-maximized="0"
     inkscape:current-layer="svg2" />
  <!-- Generator: Sketch 55 (78076) - https://sketchapp.com -->
  <title
     id="title4">Tabs </title>
  <desc
     id="desc6">Created with Sketch.</desc>
  <defs
     id="defs8">
    <rect
       id="path-1"
       x="1"
       y="162"
       width="206.2522"
       height="66.974953" />
    <filter
       x="-0.0099999998"
       y="-0.029999999"
       width="1.0190001"
       height="1.0599999"
       filterUnits="objectBoundingBox"
       id="filter-2">
      <feGaussianBlur
         stdDeviation="1.5"
         in="SourceAlpha"
         result="shadowBlurInner1"
         id="feGaussianBlur12" />
      <feOffset
         dx="0"
         dy="1"
         in="shadowBlurInner1"
         result="shadowOffsetInner1"
         id="feOffset14" />
      <feComposite
         in="shadowOffsetInner1"
         in2="SourceAlpha"
         operator="arithmetic"
         k2="-1"
         k3="1"
         result="shadowInnerInner1"
         id="feComposite16"
         k1="0"
         k4="0" />
      <feColorMatrix
         values="0 0 0 0 0   0 0 0 0 0   0 0 0 0 0  0 0 0 0.5 0"
         type="matrix"
         in="shadowInnerInner1"
         id="feColorMatrix18" />
    </filter>
    <rect
       id="path-3"
       x="0"
       y="0"
       width="288"
       height="37"
       rx="5" />
  </defs>
  <g
     style="fill:none;fill-rule:evenodd;stroke:none;stroke-width:1"
     id="Group-3"
     transform="translate(614,-546)" />
  <path
     style="fill:#000000;fill-rule:evenodd;stroke:none;stroke-width:1"
     inkscape:connector-curvature="0"
     id="path206"
     d="m 28.74215,46.57575 0,9.09091 c 0,7.12423 14.40997,15 35.25786,15 20.84834,0 35.25784,-7.87577 35.25784,-15 l 0,-9.09091 c -5.9783,6.36669 -19.4685,10.75759 -35.25784,10.75759 -15.78931,0 -29.27915,-4.3909 -35.25786,-10.75759 m 0,16.51515 0,3.63639 0,5.60605 c 0,7.12422 14.40997,14.99999 35.25786,14.99999 20.84834,0 35.25784,-7.87577 35.25784,-14.99999 l 0,-9.09092 c -5.9783,6.36665 -19.4685,10.75759 -35.25784,10.75759 -15.78931,0 -29.27915,-4.54548 -35.25786,-10.90911 m 0,16.66667 0,5.90908 0,3.33336 C 28.74215,96.12423 43.15212,104 64.00001,104 84.84835,104 99.25785,96.12423 99.25785,89.00001 l 0,-3.48185 0,-5.9121 c -5.9783,6.36363 -19.4685,10.75755 -35.25784,10.75755 -15.78931,0 -29.27915,-4.24241 -35.25786,-10.60604 m 0,-40.75758 C 28.74215,31.87879 43.15212,24 64.00001,24 c 20.84834,0 35.25784,7.87879 35.25784,14.99999 0,7.12423 -14.4095,15 -35.25784,15 -20.84789,0 -35.25786,-7.87577 -35.25786,-15" />
  <g
     id="Imported-Layers"
     transform="translate(1580,-271)"
     style="opacity:0.60261195;fill:none;fill-rule:evenodd;stroke:none;stroke-width:1">
    <g
       id="g384">
      <g
         id="g386" />
    </g>
  </g>
</svg>
