<?xml version="1.0" encoding="UTF-8" standalone="no"?>
<svg
   xmlns:dc="http://purl.org/dc/elements/1.1/"
   xmlns:cc="http://creativecommons.org/ns#"
   xmlns:rdf="http://www.w3.org/1999/02/22-rdf-syntax-ns#"
   xmlns:svg="http://www.w3.org/2000/svg"
   xmlns="http://www.w3.org/2000/svg"
   xmlns:sodipodi="http://sodipodi.sourceforge.net/DTD/sodipodi-0.dtd"
   xmlns:inkscape="http://www.inkscape.org/namespaces/inkscape"
   width="128"
   height="128"
   viewBox="0 0 128 128"
   version="1.1"
   id="svg913"
   sodipodi:docname="atribut.svg"
   inkscape:version="0.92.3 (2405546, 2018-03-11)">
  <metadata
     id="metadata919">
    <rdf:RDF>
      <cc:Work
         rdf:about="">
        <dc:format>image/svg+xml</dc:format>
        <dc:type
           rdf:resource="http://purl.org/dc/dcmitype/StillImage" />
        <dc:title>Shape</dc:title>
      </cc:Work>
    </rdf:RDF>
  </metadata>
  <defs
     id="defs917" />
  <sodipodi:namedview
     pagecolor="#ffffff"
     bordercolor="#666666"
     borderopacity="1"
     objecttolerance="10"
     gridtolerance="10"
     guidetolerance="10"
     inkscape:pageopacity="0"
     inkscape:pageshadow="2"
     inkscape:window-width="1920"
     inkscape:window-height="1052"
     id="namedview915"
     showgrid="false"
     inkscape:zoom="2.6074563"
     inkscape:cx="12.659389"
     inkscape:cy="40.744002"
     inkscape:window-x="0"
     inkscape:window-y="0"
     inkscape:window-maximized="1"
     inkscape:current-layer="svg913" />
  <!-- Generator: Sketch 55.2 (78181) - https://sketchapp.com -->
  <title
     id="title901">Shape</title>
  <desc
     id="desc903">Created with Sketch.</desc>
  <g
     id="Oneprovider----data-&amp;-transfer"
     style="fill:#000000;fill-rule:evenodd;stroke:none;stroke-width:1"
     transform="matrix(4.875,0,0,4.875,20.403197,25)">
    <g
       id="Data_ACL-Copy"
       transform="translate(-722,-1105)"
       style="fill:#000000">
      <g
         id="popup"
         transform="translate(-8,-97)"
         style="fill:#000000">
        <g
           id="Perimssion"
           transform="translate(651,572)"
           style="fill:#000000">
          <g
             id="POSIX"
             transform="translate(0,42)"
             style="fill:#000000">
            <g
               id="Atribut-expand"
               transform="translate(7,569)"
               style="fill:#000000">
              <g
                 id="Atribut"
                 transform="translate(0.942934,15)"
                 style="fill:#000000">
                <path
                   d="m 87.528,11.664 -7.2,-7.2 C 80.04,4.176 79.64,4 79.2,4 H 73.6 C 72.72,4 72,4.72 72,5.6 v 5.6 c 0,0.44 0.176,0.84 0.472,1.136 l 7.2,7.2 C 79.96,19.824 80.36,20 80.8,20 c 0.44,0 0.84,-0.176 1.128,-0.472 l 5.6,-5.6 C 87.824,13.64 88,13.24 88,12.8 88,12.36 87.816,11.952 87.528,11.664 Z M 74.8,8 C 74.136,8 73.6,7.464 73.6,6.8 73.6,6.136 74.136,5.6 74.8,5.6 75.464,5.6 76,6.136 76,6.8 76,7.464 75.464,8 74.8,8 Z"
                   id="Shape"
                   inkscape:connector-curvature="0"
                   style="fill:#000000" />
              </g>
            </g>
          </g>
        </g>
      </g>
    </g>
  </g>
</svg>
