<?xml version="1.0" encoding="UTF-8" standalone="no"?>
<svg
   xmlns:dc="http://purl.org/dc/elements/1.1/"
   xmlns:cc="http://creativecommons.org/ns#"
   xmlns:rdf="http://www.w3.org/1999/02/22-rdf-syntax-ns#"
   xmlns:svg="http://www.w3.org/2000/svg"
   xmlns="http://www.w3.org/2000/svg"
   xmlns:sodipodi="http://sodipodi.sourceforge.net/DTD/sodipodi-0.dtd"
   xmlns:inkscape="http://www.inkscape.org/namespaces/inkscape"
   width="128"
   height="128"
   viewBox="0 0 128 128"
   version="1.1"
   id="svg2"
   inkscape:version="0.92.5 (2060ec1f9f, 2020-04-08)"
   sodipodi:docname="browser-permissions.svg">
  <metadata
     id="metadata511">
    <rdf:RDF>
      <cc:Work
         rdf:about="">
        <dc:format>image/svg+xml</dc:format>
        <dc:type
           rdf:resource="http://purl.org/dc/dcmitype/StillImage" />
        <dc:title>Tabs </dc:title>
      </cc:Work>
    </rdf:RDF>
  </metadata>
  <sodipodi:namedview
     pagecolor="#ffffff"
     bordercolor="#666666"
     borderopacity="1"
     objecttolerance="10"
     gridtolerance="10"
     guidetolerance="10"
     inkscape:pageopacity="0"
     inkscape:pageshadow="2"
     inkscape:window-width="1920"
     inkscape:window-height="1080"
     id="namedview509"
     showgrid="false"
     inkscape:zoom="0.48171649"
     inkscape:cx="509.98614"
     inkscape:cy="598.10646"
     inkscape:window-x="640"
     inkscape:window-y="276"
     inkscape:window-maximized="0"
     inkscape:current-layer="svg2" />
  <!-- Generator: Sketch 55 (78076) - https://sketchapp.com -->
  <title
     id="title4">Tabs </title>
  <desc
     id="desc6">Created with Sketch.</desc>
  <defs
     id="defs8" />
  <path
     style="fill:#000000;fill-rule:evenodd;stroke:none;stroke-width:1"
     inkscape:connector-curvature="0"
     id="path208"
     d="m 86.8571,50.66667 -3.8095,0 0,-7.61905 C 83.0476,32.53333 74.5143,24 64,24 53.4857,24 44.9524,32.53333 44.9524,43.04762 l 0,7.61905 -3.8096,0 c -4.1904,0 -7.619,3.42857 -7.619,7.61904 l 0,38.09524 c 0,4.19048 3.4286,7.61905 7.619,7.61905 l 45.7143,0 c 4.1905,0 7.6191,-3.42857 7.6191,-7.61905 l 0,-38.09524 c 0,-4.19047 -3.4286,-7.61904 -7.6191,-7.61904 l 0,0 z M 64,84.95238 c -4.1905,0 -7.6191,-3.42857 -7.6191,-7.61905 0,-4.19047 3.4286,-7.61904 7.6191,-7.61904 4.1905,0 7.619,3.42857 7.619,7.61904 0,4.19048 -3.4285,7.61905 -7.619,7.61905 l 0,0 z m 11.8095,-34.28571 -23.619,0 0,-7.61905 c 0,-6.51429 5.2954,-11.80952 11.8095,-11.80952 6.5145,0 11.8095,5.29523 11.8095,11.80952 l 0,7.61905 0,0 z" />
</svg>
