<?xml version="1.0" encoding="UTF-8" standalone="no"?>
<svg
   xmlns:dc="http://purl.org/dc/elements/1.1/"
   xmlns:cc="http://creativecommons.org/ns#"
   xmlns:rdf="http://www.w3.org/1999/02/22-rdf-syntax-ns#"
   xmlns:svg="http://www.w3.org/2000/svg"
   xmlns="http://www.w3.org/2000/svg"
   xmlns:sodipodi="http://sodipodi.sourceforge.net/DTD/sodipodi-0.dtd"
   xmlns:inkscape="http://www.inkscape.org/namespaces/inkscape"
   width="128"
   height="128"
   viewBox="0 0 128 128"
   version="1.1"
   id="svg2"
   inkscape:version="0.92.5 (2060ec1f9f, 2020-04-08)"
   sodipodi:docname="browser-cut.svg">
  <metadata
     id="metadata511">
    <rdf:RDF>
      <cc:Work
         rdf:about="">
        <dc:format>image/svg+xml</dc:format>
        <dc:type
           rdf:resource="http://purl.org/dc/dcmitype/StillImage" />
        <dc:title>Tabs </dc:title>
      </cc:Work>
    </rdf:RDF>
  </metadata>
  <sodipodi:namedview
     pagecolor="#ffffff"
     bordercolor="#666666"
     borderopacity="1"
     objecttolerance="10"
     gridtolerance="10"
     guidetolerance="10"
     inkscape:pageopacity="0"
     inkscape:pageshadow="2"
     inkscape:window-width="1920"
     inkscape:window-height="1080"
     id="namedview509"
     showgrid="false"
     inkscape:zoom="0.48171649"
     inkscape:cx="242.19377"
     inkscape:cy="598.10646"
     inkscape:window-x="640"
     inkscape:window-y="177"
     inkscape:window-maximized="0"
     inkscape:current-layer="svg2" />
  <!-- Generator: Sketch 55 (78076) - https://sketchapp.com -->
  <title
     id="title4">Tabs </title>
  <desc
     id="desc6">Created with Sketch.</desc>
  <defs
     id="defs8" />
  <path
     style="fill:#000000;fill-rule:evenodd;stroke:none;stroke-width:1"
     inkscape:connector-curvature="0"
     id="path198"
     d="M 54.56,46.56 C 55.48,44.56 56,42.36 56,40 56,31.16 48.84,24 40,24 c -8.84,0 -16,7.16 -16,16 0,8.84 7.16,16 16,16 2.36,0 4.56,-0.519916 6.56,-1.44 L 56,64 46.56,73.44 C 44.56,72.52 42.36,72 40,72 c -8.84,0 -16,7.16 -16,16 0,8.84 7.16,16 16,16 8.84,0 16,-7.16 16,-16 0,-2.36 -0.52,-4.56 -1.44,-6.56 L 64,72 l 28,28 12,0 0,-4 -49.44,-49.44 0,0 z M 40,48 c -4.4,0 -8,-3.56 -8,-8 0,-4.44 3.6,-8 8,-8 4.4,0 8,3.56 8,8 0,4.44 -3.6,8 -8,8 l 0,0 z m 0,48 c -4.4,0 -8,-3.56 -8,-8 0,-4.44 3.6,-8 8,-8 4.4,0 8,3.56 8,8 0,4.44 -3.6,8 -8,8 l 0,0 z M 64,66 c -1.12,0 -2,-0.88 -2,-2 0,-1.12 0.88,-2 2,-2 1.12,0 2,0.88 2,2 0,1.12 -0.88,2 -2,2 l 0,0 z m 28,-38 -24,24 8,8 28,-28 0,-4 -12,0 z" />
</svg>
