<?xml version="1.0" encoding="UTF-8" standalone="no"?>
<svg
   xmlns:dc="http://purl.org/dc/elements/1.1/"
   xmlns:cc="http://creativecommons.org/ns#"
   xmlns:rdf="http://www.w3.org/1999/02/22-rdf-syntax-ns#"
   xmlns:svg="http://www.w3.org/2000/svg"
   xmlns="http://www.w3.org/2000/svg"
   xmlns:xlink="http://www.w3.org/1999/xlink"
   xmlns:sodipodi="http://sodipodi.sourceforge.net/DTD/sodipodi-0.dtd"
   xmlns:inkscape="http://www.inkscape.org/namespaces/inkscape"
   width="128"
   height="128"
   viewBox="0 0 128 128"
   version="1.1"
   id="svg2"
   inkscape:version="0.91 r13725"
   sodipodi:docname="browser-share.svg">
  <metadata
     id="metadata511">
    <rdf:RDF>
      <cc:Work
         rdf:about="">
        <dc:format>image/svg+xml</dc:format>
        <dc:type
           rdf:resource="http://purl.org/dc/dcmitype/StillImage" />
        <dc:title>Tabs </dc:title>
      </cc:Work>
    </rdf:RDF>
  </metadata>
  <sodipodi:namedview
     pagecolor="#ffffff"
     bordercolor="#666666"
     borderopacity="1"
     objecttolerance="10"
     gridtolerance="10"
     guidetolerance="10"
     inkscape:pageopacity="0"
     inkscape:pageshadow="2"
     inkscape:window-width="2104"
     inkscape:window-height="1107"
     id="namedview509"
     showgrid="false"
     inkscape:zoom="0.48171649"
     inkscape:cx="626.2371"
     inkscape:cy="598.10646"
     inkscape:window-x="1429"
     inkscape:window-y="283"
     inkscape:window-maximized="0"
     inkscape:current-layer="svg2" />
  <!-- Generator: Sketch 55 (78076) - https://sketchapp.com -->
  <title
     id="title4">Tabs </title>
  <desc
     id="desc6">Created with Sketch.</desc>
  <defs
     id="defs8">
    <rect
       id="path-1"
       x="1"
       y="162"
       width="206.2522"
       height="66.974953" />
    <filter
       x="-0.0099999998"
       y="-0.029999999"
       width="1.0190001"
       height="1.0599999"
       filterUnits="objectBoundingBox"
       id="filter-2">
      <feGaussianBlur
         stdDeviation="1.5"
         in="SourceAlpha"
         result="shadowBlurInner1"
         id="feGaussianBlur12" />
      <feOffset
         dx="0"
         dy="1"
         in="shadowBlurInner1"
         result="shadowOffsetInner1"
         id="feOffset14" />
      <feComposite
         in="shadowOffsetInner1"
         in2="SourceAlpha"
         operator="arithmetic"
         k2="-1"
         k3="1"
         result="shadowInnerInner1"
         id="feComposite16"
         k1="0"
         k4="0" />
      <feColorMatrix
         values="0 0 0 0 0   0 0 0 0 0   0 0 0 0 0  0 0 0 0.5 0"
         type="matrix"
         in="shadowInnerInner1"
         id="feColorMatrix18" />
    </filter>
    <rect
       id="path-3"
       x="0"
       y="0"
       width="288"
       height="37"
       rx="5" />
    <mask
       fill="white"
       id="mask-4">
      <use
         height="100%"
         width="100%"
         y="0"
         x="0"
         id="use292"
         xlink:href="#path-3" />
    </mask>
  </defs>
  <path
     style="fill:#000000;fill-rule:evenodd;stroke:none;stroke-width:1"
     inkscape:connector-curvature="0"
     id="path196"
     d="m 87.85975,80.5461 c -3.0223,0 -5.7263,1.2048 -7.794,3.0924 L 51.71245,66.9718 c 0.1979,-0.9236 0.3579,-1.8473 0.3579,-2.8112 0,-0.9638 -0.16,-1.8875 -0.3579,-2.8113 l 28.0349,-16.506 c 2.1474,2.0081 4.971,3.253 8.1124,3.253 6.6009,0 11.9297,-5.3815 11.9297,-12.0481 0,-6.6667 -5.3288,-12.0482 -11.9297,-12.0482 -6.6012,0 -11.93,5.3815 -11.93,12.0482 0,0.9638 0.16,1.8875 0.3579,2.8112 l -28.035,16.506 c -2.1474,-2.008 -4.971,-3.253 -8.1124,-3.253 -6.6008,0 -11.9297,5.3815 -11.9297,12.0482 0,6.6667 5.3289,12.0482 11.9297,12.0482 3.1414,0 5.965,-1.245 8.1124,-3.253 l 28.3132,16.7068 c -0.1978,0.8434 -0.3199,1.7269 -0.3199,2.6105 0,6.4658 5.2092,11.7269 11.6118,11.7269 6.4021,0 11.6113,-5.2611 11.6113,-11.7269 0,-6.4659 -5.2092,-11.727 -11.6113,-11.727 l 0,0 z" />
  <g
     style="fill:#000000;fill-rule:evenodd;stroke:none;stroke-width:1"
     id="g384"
     transform="translate(1580,-271)">
    <g
       id="g386"
       style="fill:#000000" />
  </g>
</svg>
