<?xml version="1.0" encoding="UTF-8" standalone="no"?>
<svg
   xmlns:dc="http://purl.org/dc/elements/1.1/"
   xmlns:cc="http://creativecommons.org/ns#"
   xmlns:rdf="http://www.w3.org/1999/02/22-rdf-syntax-ns#"
   xmlns:svg="http://www.w3.org/2000/svg"
   xmlns="http://www.w3.org/2000/svg"
   xmlns:xlink="http://www.w3.org/1999/xlink"
   xmlns:sodipodi="http://sodipodi.sourceforge.net/DTD/sodipodi-0.dtd"
   xmlns:inkscape="http://www.inkscape.org/namespaces/inkscape"
   width="128"
   height="128"
   viewBox="0 0 128 128"
   version="1.1"
   id="svg2"
   inkscape:version="0.91 r13725"
   sodipodi:docname="browser-metadata.svg">
  <metadata
     id="metadata511">
    <rdf:RDF>
      <cc:Work
         rdf:about="">
        <dc:format>image/svg+xml</dc:format>
        <dc:type
           rdf:resource="http://purl.org/dc/dcmitype/StillImage" />
        <dc:title>Tabs </dc:title>
      </cc:Work>
    </rdf:RDF>
  </metadata>
  <sodipodi:namedview
     pagecolor="#ffffff"
     bordercolor="#666666"
     borderopacity="1"
     objecttolerance="10"
     gridtolerance="10"
     guidetolerance="10"
     inkscape:pageopacity="0"
     inkscape:pageshadow="2"
     inkscape:window-width="2104"
     inkscape:window-height="1107"
     id="namedview509"
     showgrid="false"
     inkscape:zoom="0.48171649"
     inkscape:cx="993.67313"
     inkscape:cy="598.10646"
     inkscape:window-x="1444"
     inkscape:window-y="272"
     inkscape:window-maximized="0"
     inkscape:current-layer="svg2" />
  <!-- Generator: Sketch 55 (78076) - https://sketchapp.com -->
  <title
     id="title4">Tabs </title>
  <desc
     id="desc6">Created with Sketch.</desc>
  <defs
     id="defs8">
    <rect
       id="path-1"
       x="1"
       y="162"
       width="206.2522"
       height="66.974953" />
    <filter
       x="-0.0099999998"
       y="-0.029999999"
       width="1.0190001"
       height="1.0599999"
       filterUnits="objectBoundingBox"
       id="filter-2">
      <feGaussianBlur
         stdDeviation="1.5"
         in="SourceAlpha"
         result="shadowBlurInner1"
         id="feGaussianBlur12" />
      <feOffset
         dx="0"
         dy="1"
         in="shadowBlurInner1"
         result="shadowOffsetInner1"
         id="feOffset14" />
      <feComposite
         in="shadowOffsetInner1"
         in2="SourceAlpha"
         operator="arithmetic"
         k2="-1"
         k3="1"
         result="shadowInnerInner1"
         id="feComposite16"
         k1="0"
         k4="0" />
      <feColorMatrix
         values="0 0 0 0 0   0 0 0 0 0   0 0 0 0 0  0 0 0 0.5 0"
         type="matrix"
         in="shadowInnerInner1"
         id="feColorMatrix18" />
    </filter>
    <rect
       id="path-3"
       x="0"
       y="0"
       width="288"
       height="37"
       rx="5" />
    <mask
       fill="white"
       id="mask-4">
      <use
         height="100%"
         width="100%"
         y="0"
         x="0"
         id="use292"
         xlink:href="#path-3" />
    </mask>
  </defs>
  <path
     style="fill:#000000;fill-rule:evenodd;stroke:none;stroke-width:1"
     inkscape:connector-curvature="0"
     id="path204"
     d="m 91.1848,64.16917 c 0,1.08406 -0.6355,2.08033 -1.6189,2.539 l -14.4102,6.70161 c -0.374,0.17351 -0.7724,0.26145 -1.18067,0.26145 -0.53485,0 -1.05656,-0.15201 -1.50823,-0.43898 -0.80983,-0.5198 -1.29334,-1.40166 -1.29334,-2.36239 l 0,-0.0728 c 0,-1.08605 0.63552,-2.08332 1.61966,-2.54 l 9.01398,-4.18827 -9.01398,-4.18728 c -0.98414,-0.45868 -1.61966,-1.45594 -1.61966,-2.54095 l 0,-0.072 c 0,-0.96272 0.48351,-1.84458 1.29413,-2.36144 0.44889,-0.28692 0.9718,-0.43699 1.51022,-0.43699 0.40549,0 0.81299,0.0887 1.17679,0.25867 l 14.4093,6.70061 c 0.9846,0.45868 1.6209,1.45395 1.6209,2.53996 l 0,0.20017 z M 61.95652,79.56293 c -0.37407,1.16198 -1.44495,1.94518 -2.66706,1.94518 l -0.0716,0 c -0.89141,0 -1.73706,-0.42911 -2.26275,-1.14916 -0.5245,-0.7191 -0.67651,-1.65519 -0.40631,-2.50347 l 9.49311,-29.41742 c 0.37408,-1.16297 1.44616,-1.94617 2.66826,-1.94617 l 0.0716,0 c 0.88982,0 1.73626,0.43006 2.26275,1.14816 0.5249,0.72304 0.67771,1.66013 0.40352,2.50845 l -9.49231,29.41443 z m -6.42411,-6.33072 c -0.45207,0.28693 -0.97259,0.43894 -1.50744,0.43894 -0.4083,0 -0.80585,-0.0879 -1.17873,-0.26026 L 38.43486,66.70929 C 37.45073,66.24866 36.8152,65.25339 36.8152,64.16933 l 0,-0.20017 c 0,-1.08601 0.63553,-2.08132 1.61966,-2.54 l 14.41059,-6.70057 c 0.36611,-0.16953 0.77202,-0.25867 1.17753,-0.25867 0.53962,0 1.06134,0.15082 1.50943,0.43699 0.81062,0.51686 1.29612,1.39872 1.29612,2.36144 l 0,0.072 c 0,1.086 -0.63831,2.08227 -1.62284,2.53996 l -9.01278,4.18827 9.01278,4.18823 c 0.98453,0.45673 1.62284,1.45395 1.62284,2.54 l 0,0.0728 c 0,0.96073 -0.4855,1.84259 -1.29612,2.36243 l 0,0 z M 63.9996,24 C 41.90897,24 24,41.90909 24,63.99952 24,86.09191 41.90897,104 63.9996,104 86.091,104 104,86.09191 104,63.99952 104,41.90909 86.091,24 63.9996,24 l 0,0 z" />
  <g
     style="fill:none;fill-rule:evenodd;stroke:none;stroke-width:1"
     id="g384"
     transform="translate(1580,-271)">
    <g
       id="g386" />
  </g>
</svg>
