<?xml version="1.0" encoding="UTF-8" standalone="no"?>
<svg
   xmlns:dc="http://purl.org/dc/elements/1.1/"
   xmlns:cc="http://creativecommons.org/ns#"
   xmlns:rdf="http://www.w3.org/1999/02/22-rdf-syntax-ns#"
   xmlns:svg="http://www.w3.org/2000/svg"
   xmlns="http://www.w3.org/2000/svg"
   xmlns:sodipodi="http://sodipodi.sourceforge.net/DTD/sodipodi-0.dtd"
   xmlns:inkscape="http://www.inkscape.org/namespaces/inkscape"
   width="128"
   height="128"
   viewBox="0 0 128 128"
   version="1.1"
   id="svg2"
   inkscape:version="0.91 r13725"
   sodipodi:docname="browser-file-new.svg">
  <metadata
     id="metadata16">
    <rdf:RDF>
      <cc:Work
         rdf:about="">
        <dc:format>image/svg+xml</dc:format>
        <dc:type
           rdf:resource="http://purl.org/dc/dcmitype/StillImage" />
        <dc:title>Shape</dc:title>
      </cc:Work>
    </rdf:RDF>
  </metadata>
  <defs
     id="defs14" />
  <sodipodi:namedview
     pagecolor="#ffffff"
     bordercolor="#666666"
     borderopacity="1"
     objecttolerance="10"
     gridtolerance="10"
     guidetolerance="10"
     inkscape:pageopacity="0"
     inkscape:pageshadow="2"
     inkscape:window-width="1381"
     inkscape:window-height="914"
     id="namedview12"
     showgrid="false"
     inkscape:zoom="2.3177389"
     inkscape:cx="31.859204"
     inkscape:cy="86.548096"
     inkscape:window-x="518"
     inkscape:window-y="230"
     inkscape:window-maximized="0"
     inkscape:current-layer="svg2" />
  <!-- Generator: Sketch 55.2 (78181) - https://sketchapp.com -->
  <title
     id="title4">Shape</title>
  <desc
     id="desc6">Created with Sketch.</desc>
  <g
     id="Oneprovider----data-&amp;-transfer"
     style="fill:#000000;fill-rule:evenodd;stroke:none;stroke-width:1"
     transform="matrix(5.1428571,0,0,5.1428571,28.001286,19)">
    <g
       id="Data_Tabs-_upload"
       transform="translate(-569,-475)"
       style="fill:#000000">
      <g
         id="Group-16"
         transform="translate(177,0)"
         style="fill:#000000">
        <path
           d="m 400.75,475 -7,0 c -0.9625,0 -1.74125,0.7875 -1.74125,1.75 l -0.009,14 c 0,0.9625 0.77875,1.75 1.74125,1.75 l 10.50875,0 c 0.9625,0 1.75,-0.7875 1.75,-1.75 l 0,-10.5 -5.25,-5.25 0,0 z m 1.75,14 -7,0 0,-1.75 7,0 0,1.75 0,0 z m 0,-3.5 -7,0 0,-1.75 7,0 0,1.75 0,0 z m -2.625,-4.375 0,-4.8125 4.8125,4.8125 -4.8125,0 0,0 z"
           id="Shape"
           style="fill:#000000"
           inkscape:connector-curvature="0" />
      </g>
    </g>
  </g>
</svg>
