<?xml version="1.0" encoding="UTF-8" standalone="no"?>
<!-- Created with Inkscape (http://www.inkscape.org/) -->

<svg
   xmlns:dc="http://purl.org/dc/elements/1.1/"
   xmlns:cc="http://creativecommons.org/ns#"
   xmlns:rdf="http://www.w3.org/1999/02/22-rdf-syntax-ns#"
   xmlns:svg="http://www.w3.org/2000/svg"
   xmlns="http://www.w3.org/2000/svg"
   xmlns:sodipodi="http://sodipodi.sourceforge.net/DTD/sodipodi-0.dtd"
   xmlns:inkscape="http://www.inkscape.org/namespaces/inkscape"
   version="1.1"
   width="128"
   height="128"
   id="svg2"
   xml:space="preserve"
   sodipodi:docname="ceph.svg"
   inkscape:version="0.92.2 2405546, 2018-03-11"><sodipodi:namedview
     pagecolor="#ffffff"
     bordercolor="#666666"
     borderopacity="1"
     objecttolerance="10"
     gridtolerance="10"
     guidetolerance="10"
     inkscape:pageopacity="0"
     inkscape:pageshadow="2"
     inkscape:window-width="1920"
     inkscape:window-height="1015"
     id="namedview14"
     showgrid="false"
     inkscape:zoom="1.5119968"
     inkscape:cx="-6.8218496"
     inkscape:cy="14.970216"
     inkscape:window-x="0"
     inkscape:window-y="0"
     inkscape:window-maximized="1"
     inkscape:current-layer="svg2" /><metadata
     id="metadata8"><rdf:RDF><cc:Work
         rdf:about=""><dc:format>image/svg+xml</dc:format><dc:type
           rdf:resource="http://purl.org/dc/dcmitype/StillImage" /><dc:title></dc:title></cc:Work></rdf:RDF></metadata><defs
     id="defs6" /><g
     id="g839"
     transform="matrix(0.58459042,0,0,0.58459042,17.089673,79.071108)"
     style="fill:#000000"><path
       inkscape:connector-curvature="0"
       style="fill:#000000;fill-opacity:1;fill-rule:nonzero;stroke:none;stroke-width:0.125"
       id="path14"
       d="m 123.48438,28.417997 c -4.86675,-2.58937 -7.64651,-5.50787 -8.26176,-8.67675 -0.59325,-3.06837 0.77538,-6.481 4.1885,-10.4361201 C 127.5675,-0.05250305 132.06,-12.073753 132.06,-24.546253 c 0,-28.4425 -23.141,-51.58625 -51.586375,-51.58625 -0.04637,0 -0.2275,0.0025 -0.2275,0.0025 0,0 -0.185625,-0.0025 -0.234375,-0.0025 -28.446375,0 -51.584,23.14375 -51.584,51.58625 0,12.4725 4.491625,24.49374995 12.650875,33.8553799 3.4385,3.9813701 4.774375,7.2558701 4.204125,10.2963701 -0.591875,3.1655 -3.378,6.1245 -8.287625,8.8085 C 29.46725,22.139627 22.8105,13.756877 18.704125,5.3491219 16.477,0.78624695 14.76275,-4.0325031 13.606875,-8.9725031 12.416987,-14.050003 11.8208,-19.290003 11.8208,-24.546253 c 0,-9.19875 1.799825,-18.13375 5.35695,-26.5475 3.438,-8.1175 8.352,-15.4125 14.61625,-21.6725 6.25725,-6.26125 13.55175,-11.175 21.671875,-14.61125 8.412,-3.5575 17.34225,-5.36 26.545875,-5.36 0.04875,0 0.2275,0 0.2275,0 0,0 0.188,0 0.234375,0 9.203625,0 18.13525,1.8025 26.548375,5.36 8.11762,3.43625 15.41162,8.35 21.67175,14.61125 6.25875,6.26 11.1775,13.555 14.61375,21.6725 3.5575,8.41375 5.36125,17.34875 5.36125,26.5475 0,5.25625 -0.6025,10.49625 -1.78875,15.5737499 -1.155,4.94 -2.87,9.75875005 -5.1,14.321625 -4.10625,8.4111251 -10.7575,16.7930051 -18.29562,23.0688751" /><path
       inkscape:connector-curvature="0"
       style="fill:#000000;fill-opacity:1;fill-rule:nonzero;stroke:none;stroke-width:0.125"
       id="path16"
       d="m 98.32225,41.176247 c -0.7925,-0.4985 -3.5,-2.51263 -6.139125,-6.16887 -2.53175,-3.49375 -5.51075,-9.28963 -5.355,-17.05138 0.09762,-4.67137 1.034125,-9.2201201 2.789125,-13.5146251 1.742125,-4.25762495 4.240625,-8.158875 7.42325,-11.591375 l 0.0195,-0.02625 c 0.234375,-0.2725 0.466375,-0.54375 0.703125,-0.8125 1.20125,-1.39375 2.442495,-2.8324999 3.432625,-4.5162499 1.22075,-2.07 2.10937,-4.245 2.63775,-6.47 0.813,-3.43625 0.86087,-7.08375 0.13325,-10.54375 -0.67138,-3.18125 -2.02388,-6.26375 -3.9125,-8.92125 -1.829625,-2.575 -4.2125,-4.82125 -6.894625,-6.49375 -2.795375,-1.74625 -6.00675,-2.915 -9.27775,-3.37875 -1.1075,-0.15875 -2.248625,-0.24 -3.395,-0.24 -0.07863,0 -0.1665,0 -0.245625,0 -0.07862,0 -0.16025,0 -0.24375,0 -1.144,0 -2.2875,0.08125 -3.3915,0.24 -3.269125,0.46375 -6.48,1.6325 -9.278375,3.37875 -2.681625,1.6725 -5.069375,3.91875 -6.8975,6.49375 -1.888125,2.6575 -3.234375,5.74 -3.911625,8.92125 -0.7255,3.46 -0.681625,7.1075 0.13725,10.54375 0.526375,2.225 1.415,4.4 2.633375,6.47 0.995,1.68375 2.234375,3.1224999 3.436,4.5162499 0.23625,0.26875 0.46625,0.54 0.705,0.8125 l 0.01425,0.02625 c 3.188,3.4325 5.684,7.33375005 7.42625,11.591375 1.753875,4.294505 2.693875,8.8432551 2.786625,13.5146251 0.15775,7.76175 -2.82175,13.55763 -5.350625,17.05138 -2.6445,3.65624 -5.349625,5.67037 -6.143,6.16887 -1.327625,-0.355 -2.651875,-0.75388 -3.953625,-1.18987 -3.9185,-1.31401 -7.734875,-2.99513 -11.361375,-5.00788 6.234375,-3.354 10.19675,-9.90187 10.19675,-17.03812 0,-4.72213 -1.835375,-9.2518801 -5.454125,-13.4570051 -0.05363,-0.064 -0.109375,-0.11575 -0.150875,-0.15775 -0.0073,-0.01063 -0.019,-0.017 -0.02775,-0.02875 -0.3555,-0.3955 -0.7075,-0.78175 -1.05375,-1.15775 -1.0395,-1.141625 -2.024875,-2.22037495 -2.90475,-3.40162495 -3.28325,-4.38500005 -5.6885,-9.52750005 -6.958,-14.86874995 -1.379875,-5.8075 -1.457,-11.9675 -0.224625,-17.81375 1.13425,-5.39 3.42675,-10.6175 6.621125,-15.115 3.09025,-4.35125 7.118125,-8.14375 11.646875,-10.9675 4.744625,-2.96 10.183125,-4.93875 15.725625,-5.72875 1.877,-0.27 3.799875,-0.40125 5.72075,-0.40125 0.081,0 0.2695,0 0.2695,0 0.07913,0 0.162125,0 0.243125,0 1.921375,0 3.849625,0.13125 5.724125,0.40125 5.5445,0.79 10.98,2.76875 15.725125,5.72875 4.52887,2.82375 8.55812,6.61625 11.64887,10.9675 3.1925,4.4975 5.48488,9.725 6.62363,15.115 1.228,5.84625 1.14887,12.00625 -0.22713,17.81375 -1.27287,5.3412499 -3.67525,10.4837499 -6.96287,14.86874995 -0.88138,1.18125 -1.86275,2.25999995 -2.90625,3.40162495 -0.34175,0.376 -0.69238,0.76225 -1.04875,1.15775 -0.0122,0.0093 -0.0205,0.01812 -0.0327,0.02875 -0.0415,0.042 -0.10013,0.09625 -0.15037,0.166125 -3.668,4.38963 -5.45263,8.7905001 -5.45263,13.4486301 0,7.13625 3.96238,13.68412 10.20363,17.03812 -3.628,2.01275 -7.44488,3.69387 -11.36338,5.00788 -1.30125,0.43599 -2.630875,0.83487 -3.9575,1.18987" /><path
       inkscape:connector-curvature="0"
       style="fill:#000000;fill-opacity:1;fill-rule:nonzero;stroke:none;stroke-width:0.125"
       id="path18"
       d="m 80.24125,-10.433753 c -7.421875,0 -13.463375,-6.04 -13.463375,-13.46375 0,-7.425 6.0415,-13.465 13.463375,-13.465 7.421875,0 13.460375,6.04 13.460375,13.465 0,7.42375 -6.0385,13.46375 -13.460375,13.46375" /></g></svg>