<?xml version="1.0" encoding="UTF-8" standalone="no"?>
<!-- Generator: Adobe Illustrator 22.1.0, SVG Export Plug-In . SVG Version: 6.00 Build 0)  -->

<svg
   xmlns:dc="http://purl.org/dc/elements/1.1/"
   xmlns:cc="http://creativecommons.org/ns#"
   xmlns:rdf="http://www.w3.org/1999/02/22-rdf-syntax-ns#"
   xmlns:svg="http://www.w3.org/2000/svg"
   xmlns="http://www.w3.org/2000/svg"
   xmlns:sodipodi="http://sodipodi.sourceforge.net/DTD/sodipodi-0.dtd"
   xmlns:inkscape="http://www.inkscape.org/namespaces/inkscape"
   version="1.1"
   id="Layer_1"
   inkscape:version="0.92.5 (2060ec1f9f, 2020-04-08)"
   sodipodi:docname="certificate.svg"
   x="0px"
   y="0px"
   viewBox="0 0 128 128"
   enable-background="new 0 0 128 128"
   xml:space="preserve"><metadata
     id="metadata700"><rdf:RDF><cc:Work
         rdf:about=""><dc:format>image/svg+xml</dc:format><dc:type
           rdf:resource="http://purl.org/dc/dcmitype/StillImage" /></cc:Work></rdf:RDF></metadata><defs
     id="defs698" /><sodipodi:namedview
     pagecolor="#ffffff"
     bordercolor="#666666"
     borderopacity="1"
     objecttolerance="10"
     gridtolerance="10"
     guidetolerance="10"
     inkscape:pageopacity="0"
     inkscape:pageshadow="2"
     inkscape:window-width="640"
     inkscape:window-height="480"
     id="namedview696"
     showgrid="false"
     inkscape:zoom="9.5703125"
     inkscape:cx="39.549388"
     inkscape:cy="64"
     inkscape:current-layer="Layer_1" /><g
     id="g693"><path
       d="m 75.1,82.4 v 14.7 c 0,0.3 0.2,0.6 0.4,0.7 0.3,0.1 0.6,0.1 0.9,0 l 5.3,-3.5 c 0.6,-0.4 1.5,-0.4 2.1,0 l 5.3,3.5 c 0.2,0.2 0.6,0.2 0.9,0 0.3,-0.1 0.4,-0.4 0.4,-0.7 V 82.4 c -2.2,1.4 -4.9,2.2 -7.7,2.2 -2.8,0 -5.4,-0.8 -7.6,-2.2 z m 0,0"
       id="path687"
       inkscape:connector-curvature="0" /><path
       d="M 96.9,30.5 H 32.1 c -3.8,0 -6.9,3.1 -6.9,6.9 v 46.5 c 0,3.8 3.1,6.9 6.9,6.9 H 71.2 V 79 c -2,-2.5 -3.3,-5.8 -3.3,-9.3 0,-8.2 6.6,-14.8 14.8,-14.8 8.2,0 14.8,6.7 14.8,14.8 0,3.5 -1.2,6.7 -3.2,9.3 v 11.8 h 2.6 c 3.8,0 6.9,-3.1 6.9,-6.9 V 37.4 c 0,-3.8 -3.1,-6.9 -6.9,-6.9 z M 60.6,67.4 H 33.2 C 32,67.4 31,66.4 31,65.2 31,64 32,63 33.2,63 h 27.4 c 1.2,0 2.2,1 2.2,2.2 0,1.2 -1,2.2 -2.2,2.2 z m 0,-9.1 H 33.2 c -1.2,0 -2.2,-1 -2.2,-2.2 0,-1.2 1,-2.2 2.2,-2.2 h 27.4 c 1.2,0 2.2,1 2.2,2.2 0,1.2 -1,2.2 -2.2,2.2 z m 0,-9.1 H 33.2 C 32,49.2 31,48.2 31,47 c 0,-1.2 1,-2.2 2.2,-2.2 h 27.4 c 1.2,0 2.2,1 2.2,2.2 0,1.2 -1,2.2 -2.2,2.2 z m 0,0"
       id="path689"
       inkscape:connector-curvature="0" /><path
       d="m 82.8,58.8 c -6,0 -10.9,4.9 -10.9,11 0,6 4.9,11 10.9,11 6,0 10.9,-4.9 10.9,-11 0,-6.1 -4.9,-11 -10.9,-11 z m 0,0"
       id="path691"
       inkscape:connector-curvature="0" /></g></svg>