<?xml version="1.0" encoding="utf-8"?>
<!-- Generator: Adobe Illustrator 19.2.1, SVG Export Plug-In . SVG Version: 6.00 Build 0)  -->
<!DOCTYPE svg PUBLIC "-//W3C//DTD SVG 1.1//EN" "http://www.w3.org/Graphics/SVG/1.1/DTD/svg11.dtd">
<svg version="1.1"
	 id="Warstwa_1" inkscape:version="0.91 r13725" sodipodi:docname="space.svg" xmlns:cc="http://creativecommons.org/ns#" xmlns:dc="http://purl.org/dc/elements/1.1/" xmlns:inkscape="http://www.inkscape.org/namespaces/inkscape" xmlns:rdf="http://www.w3.org/1999/02/22-rdf-syntax-ns#" xmlns:sodipodi="http://sodipodi.sourceforge.net/DTD/sodipodi-0.dtd" xmlns:svg="http://www.w3.org/2000/svg"
	 xmlns="http://www.w3.org/2000/svg" xmlns:xlink="http://www.w3.org/1999/xlink" x="0px" y="0px" width="128px" height="128px"
	 viewBox="0 0 128 128" enable-background="new 0 0 128 128" xml:space="preserve">
<sodipodi:namedview  bordercolor="#666666" borderopacity="1" gridtolerance="10" guidetolerance="10" id="namedview5" inkscape:current-layer="Warstwa_1" inkscape:cx="63.746962" inkscape:cy="58.435996" inkscape:pageopacity="0" inkscape:pageshadow="2" inkscape:window-height="916" inkscape:window-maximized="0" inkscape:window-width="1568" inkscape:window-x="102" inkscape:window-y="234" inkscape:zoom="2" objecttolerance="10" pagecolor="#ffffff" showgrid="false">
	</sodipodi:namedview>
<path id="path3" inkscape:connector-curvature="0" display="none" d="M102.5,58.8C102.5,57.2,102.5,57.2,102.5,58.8
	c0-18.1-13.1-32.8-31.2-32.8c-11.5,0-23,6.6-27.9,18.1c-1.6-1.6-4.9-1.6-6.6-1.6c-8.2,0-14.8,4.9-16.4,13.1C10.6,58.8,4,67,4,78.5
	c0,13.1,11.5,24.6,24.6,24.6h73.9l0,0c11.5,0,21.3-9.8,21.3-23C125.5,68.7,115.6,58.8,102.5,58.8z"/>
<g id="g2990" transform="matrix(2.9266757,0,0,2.9266757,-6640.1412,-477.24768)" display="none">
	<path id="path3_1_" inkscape:connector-curvature="0" display="inline" d="M2301,195.6l-5.7-4.1h7l2.1-6.6l2.2,6.6h3.9
		c0.5-1,0.7-2.1,0.7-3.2c0.1-4.1-3.3-7.4-7.4-7.4c0-0.1,0-0.2,0-0.3c0-5.9-4.7-10.6-10.6-10.6c-4.2,0-7.9,2.5-9.6,6
		c-0.8-0.3-1.6-0.6-2.5-0.6c-2.7,0-4.9,2-5.4,4.6c-3.2,1.1-5.5,4.2-5.5,7.7c0,4.5,3.7,8.2,8.2,8.2h22.5L2301,195.6L2301,195.6z"/>
	<g id="g5" transform="translate(0.09999974,-0.1)" display="inline">
		<polygon id="polygon7" points="2304.5,188.2 2305.9,192.7 2310.6,192.7 2306.8,195.4 2308.3,199.9 2304.5,197.1 2300.7,199.9 
			2302.2,195.4 2298.3,192.7 2303.1,192.7 		"/>
	</g>
</g>
<g display="none">
	<path display="inline" d="M65.9,55.2c20.1,0,33.9-7.7,33.9-14.6S86,26,65.9,26S32,33.7,32,40.6S45.8,55.2,65.9,55.2z"/>
	<path display="inline" d="M32,80.3V86v3.2c0,6.9,13.9,14.6,33.9,14.6s33.9-7.7,33.9-14.6v-3.4v-5.8c-5.8,6.2-18.7,10.5-33.9,10.5
		S37.7,86.5,32,80.3z"/>
	<path display="inline" d="M32,64.1v3.5v5.5c0,6.9,13.9,14.6,33.9,14.6S99.8,80,99.8,73.1v-8.9c-5.8,6.2-18.7,10.5-33.9,10.5
		S37.7,70.3,32,64.1z"/>
	<path display="inline" d="M32,48v8.9c0,6.9,13.9,14.6,33.9,14.6s33.9-7.7,33.9-14.6V48c-5.8,6.2-18.7,10.5-33.9,10.5
		S37.7,54.2,32,48z"/>
</g>
<g>
	<path fill="#050505" d="M38.7,38.6c-13.8,14.3-13.8,37.5,0,51.8s36.2,14.3,50,0s13.8-37.5,0-51.8S52.5,24.3,38.7,38.6z M86.7,88.3
		c-12.7,13.2-33.3,13.2-46,0s-12.7-34.5,0-47.7s33.3-13.2,46,0S99.3,75.2,86.7,88.3z"/>
	<polygon fill="#050505" points="49.7,47.9 47.7,50 61.7,64.5 47.8,78.9 49.8,81 63.7,66.6 77.7,81.1 79.7,79 65.7,64.5 79.7,50 
		77.7,47.9 63.7,62.4 	"/>
</g>
</svg>
