<?xml version="1.0" encoding="UTF-8" standalone="no"?>
<svg
   xmlns:dc="http://purl.org/dc/elements/1.1/"
   xmlns:cc="http://creativecommons.org/ns#"
   xmlns:rdf="http://www.w3.org/1999/02/22-rdf-syntax-ns#"
   xmlns:svg="http://www.w3.org/2000/svg"
   xmlns="http://www.w3.org/2000/svg"
   xmlns:sodipodi="http://sodipodi.sourceforge.net/DTD/sodipodi-0.dtd"
   xmlns:inkscape="http://www.inkscape.org/namespaces/inkscape"
   width="128"
   height="128"
   viewBox="0 0 128 128"
   version="1.1"
   id="svg13"
   sodipodi:docname="checkbox-pending.svg"
   inkscape:version="0.91 r13725">
  <metadata
     id="metadata17">
    <rdf:RDF>
      <cc:Work
         rdf:about="">
        <dc:format>image/svg+xml</dc:format>
        <dc:type
           rdf:resource="http://purl.org/dc/dcmitype/StillImage" />
        <dc:title>Fill 1 Copy 3</dc:title>
      </cc:Work>
    </rdf:RDF>
  </metadata>
  <sodipodi:namedview
     pagecolor="#ffffff"
     bordercolor="#666666"
     borderopacity="1"
     objecttolerance="10"
     gridtolerance="10"
     guidetolerance="10"
     inkscape:pageopacity="0"
     inkscape:pageshadow="2"
     inkscape:window-width="1440"
     inkscape:window-height="855"
     id="namedview15"
     showgrid="false"
     inkscape:zoom="3.1052632"
     inkscape:cx="39.1872"
     inkscape:cy="37.852405"
     inkscape:window-x="0"
     inkscape:window-y="1"
     inkscape:window-maximized="1"
     inkscape:current-layer="Onepanel-for-provider" />
  <!-- Generator: Sketch 46.2 (44496) - http://www.bohemiancoding.com/sketch -->
  <title
     id="title2">Fill 1 Copy 3</title>
  <desc
     id="desc4">Created with Sketch.</desc>
  <defs
     id="defs6" />
  <g
     id="Onepanel-for-provider"
     style="fill:#000000;fill-rule:evenodd;stroke:none;stroke-width:1"
     transform="matrix(4.1263158,0,0,4.1263158,24.8,24.8)">
    <path
       style="fill:#000000;fill-opacity:1;stroke:none;stroke-width:20;stroke-miterlimit:4;stroke-dasharray:none;stroke-opacity:1"
       d="M 64 24.800781 A 39.199001 39.199001 0 0 0 24.800781 64 A 39.199001 39.199001 0 0 0 64 103.19922 A 39.199001 39.199001 0 0 0 103.19922 64 A 39.199001 39.199001 0 0 0 64 24.800781 z M 63.21875 31.990234 C 63.692657 31.99008 64.165425 32.11181 64.597656 32.355469 C 65.462945 32.843199 65.978516 33.715945 65.978516 34.691406 L 65.978516 35.984375 C 72.904537 36.443634 79.384193 39.318392 84.324219 44.144531 C 89.7528 49.448085 92.742188 56.498771 92.742188 64 C 92.742187 71.500817 89.7528 78.55274 84.324219 83.855469 C 83.540219 84.621313 82.496588 85.044922 81.388672 85.044922 C 80.280343 85.044922 79.239078 84.621313 78.455078 83.855469 C 77.672316 83.091275 77.240234 82.07463 77.240234 80.990234 C 77.240234 79.906664 77.672316 78.888066 78.455078 78.123047 C 82.316484 74.351182 84.443359 69.334501 84.443359 64 C 84.443359 58.665086 82.316484 53.649231 78.455078 49.876953 C 75.081815 46.580852 70.68788 44.563022 65.978516 44.121094 L 65.978516 45.257812 C 65.978516 46.232861 65.464485 47.106432 64.599609 47.59375 C 63.734734 48.081481 62.700703 48.079115 61.837891 47.591797 L 52.474609 42.310547 C 51.610559 41.822816 51.09375 40.949658 51.09375 39.974609 C 51.09375 38.999974 51.609018 38.125577 52.472656 37.638672 L 61.839844 32.355469 C 62.270837 32.111603 62.744843 31.990389 63.21875 31.990234 z M 46.611328 42.958984 C 47.673837 42.958984 48.736037 43.353968 49.544922 44.144531 C 50.328351 44.909399 50.759766 45.927972 50.759766 47.011719 C 50.759766 48.096018 50.328351 49.112085 49.544922 49.876953 C 45.684338 53.649341 43.558594 58.665824 43.558594 64 C 43.558594 69.334727 45.684338 74.350109 49.544922 78.123047 C 52.91961 81.419606 57.311598 83.438737 62.019531 83.880859 L 62.019531 82.744141 C 62.019531 81.768713 62.536071 80.895641 63.400391 80.408203 C 64.263578 79.920213 65.297225 79.921567 66.162109 80.410156 L 75.525391 85.691406 C 76.389709 86.178848 76.905685 87.052469 76.90625 88.027344 C 76.906815 89.002772 76.390275 89.875844 75.525391 90.363281 L 66.160156 95.646484 C 65.739313 95.883582 65.26262 96.009766 64.78125 96.009766 C 64.299313 96.009766 63.820414 95.882166 63.398438 95.644531 C 62.535249 95.157647 62.019531 94.285418 62.019531 93.310547 L 62.019531 92.015625 C 55.093105 91.556317 48.615632 88.683709 43.675781 83.857422 C 38.247206 78.553641 35.257813 71.500564 35.257812 64 C 35.257814 56.499989 38.247206 49.448864 43.675781 44.144531 C 44.484948 43.353966 45.548819 42.958984 46.611328 42.958984 z "
       transform="matrix(0.24234694,0,0,0.24234694,-6.0102041,-6.0102041)"
       id="path4892" />
  </g>
</svg>
