<?xml version="1.0" encoding="UTF-8" standalone="no"?>
<svg
   xmlns:dc="http://purl.org/dc/elements/1.1/"
   xmlns:cc="http://creativecommons.org/ns#"
   xmlns:rdf="http://www.w3.org/1999/02/22-rdf-syntax-ns#"
   xmlns:svg="http://www.w3.org/2000/svg"
   xmlns="http://www.w3.org/2000/svg"
   xmlns:sodipodi="http://sodipodi.sourceforge.net/DTD/sodipodi-0.dtd"
   xmlns:inkscape="http://www.inkscape.org/namespaces/inkscape"
   width="128"
   height="128"
   viewBox="0 0 128 128"
   version="1.1"
   id="svg13"
   sodipodi:docname="circle-not-available.svg"
   inkscape:version="1.0 (4035a4f, 2020-05-01)">
  <metadata
     id="metadata17">
    <rdf:RDF>
      <cc:Work
         rdf:about="">
        <dc:format>image/svg+xml</dc:format>
        <dc:type
           rdf:resource="http://purl.org/dc/dcmitype/StillImage" />
        <dc:title>Fill 1 Copy 3</dc:title>
      </cc:Work>
    </rdf:RDF>
  </metadata>
  <sodipodi:namedview
     pagecolor="#ffffff"
     bordercolor="#666666"
     borderopacity="1"
     objecttolerance="10"
     gridtolerance="10"
     guidetolerance="10"
     inkscape:pageopacity="0"
     inkscape:pageshadow="2"
     inkscape:window-width="1280"
     inkscape:window-height="979"
     id="namedview15"
     showgrid="false"
     inkscape:zoom="4.1622445"
     inkscape:cx="49.649522"
     inkscape:cy="74.874789"
     inkscape:window-x="2720"
     inkscape:window-y="31"
     inkscape:window-maximized="0"
     inkscape:current-layer="layer1"
     inkscape:document-rotation="0" />
  <!-- Generator: Sketch 46.2 (44496) - http://www.bohemiancoding.com/sketch -->
  <title
     id="title2">Fill 1 Copy 3</title>
  <desc
     id="desc4">Created with Sketch.</desc>
  <defs
     id="defs6" />
  <g
     inkscape:groupmode="layer"
     id="layer1"
     inkscape:label="Layer 1">
    <text
       xml:space="preserve"
       style="font-style:normal;font-weight:normal;font-size:40px;line-height:1.25;font-family:sans-serif;fill:#000000;fill-opacity:1;stroke:none"
       x="46.833454"
       y="42.713844"
       id="text129"><tspan
         sodipodi:role="line"
         id="tspan127"
         x="46.833454"
         y="42.713844" /></text>
    <path
       d="M 64 25 A 39 39 0 0 0 25 64 A 39 39 0 0 0 64 103 A 39 39 0 0 0 103 64 A 39 39 0 0 0 64 25 z M 67.300781 40.095703 L 73.316406 40.095703 L 62.675781 83.904297 L 56.71875 83.904297 L 67.300781 40.095703 z M 47.427734 52.4375 C 49.774958 52.4375 51.608289 53.138237 52.927734 54.541016 C 54.261069 55.929906 54.927734 58.083331 54.927734 61 L 54.927734 75.0625 L 46.40625 75.0625 L 46.40625 62.896484 C 46.40625 61.507594 46.148655 60.528429 45.634766 59.958984 C 45.120876 59.37565 44.399306 59.083984 43.46875 59.083984 C 42.440971 59.083984 41.607639 59.472221 40.96875 60.25 C 40.329861 61.027778 40.009766 62.423609 40.009766 64.4375 L 40.009766 75.0625 L 31.53125 75.0625 L 31.53125 52.9375 L 39.427734 52.9375 L 39.427734 56.541016 C 40.608291 55.068793 41.801432 54.021485 43.009766 53.396484 C 44.2181 52.757595 45.691622 52.4375 47.427734 52.4375 z M 84.294922 52.4375 C 86.836591 52.4375 88.878254 52.583333 90.419922 52.875 C 91.96159 53.152778 93.24566 53.743706 94.273438 54.646484 C 94.99566 55.271484 95.565755 56.159721 95.982422 57.3125 C 96.399089 58.45139 96.607422 59.542317 96.607422 60.583984 L 96.607422 70.353516 C 96.607422 71.395183 96.669921 72.215277 96.794922 72.8125 C 96.933811 73.395834 97.225477 74.145833 97.669922 75.0625 L 89.710938 75.0625 C 89.391492 74.493055 89.18316 74.063151 89.085938 73.771484 C 88.988715 73.465928 88.892145 72.992405 88.794922 72.353516 C 87.68381 73.422961 86.579645 74.18815 85.482422 74.646484 C 83.982421 75.257596 82.238065 75.5625 80.251953 75.5625 C 77.613062 75.5625 75.607423 74.950739 74.232422 73.728516 C 72.87131 72.506293 72.189453 71.000652 72.189453 69.208984 C 72.189453 67.528427 72.683811 66.145834 73.669922 65.0625 C 74.656034 63.979166 76.474173 63.174262 79.126953 62.646484 C 82.307511 62.007595 84.370008 61.562501 85.314453 61.3125 C 86.258898 61.048611 87.258896 60.707683 88.314453 60.291016 C 88.314453 59.249348 88.100478 58.520182 87.669922 58.103516 C 87.239366 57.686848 86.481771 57.478516 85.398438 57.478516 C 84.009546 57.478516 82.967883 57.70204 82.273438 58.146484 C 81.731769 58.493707 81.294269 59.145182 80.960938 60.103516 L 72.857422 59.25 C 73.162977 57.833332 73.600477 56.721572 74.169922 55.916016 C 74.753255 55.09657 75.586587 54.388238 76.669922 53.791016 C 77.4477 53.36046 78.515841 53.027127 79.876953 52.791016 C 81.238065 52.554904 82.711587 52.4375 84.294922 52.4375 z M 88.314453 64.5625 C 87.147785 64.979167 85.933811 65.346571 84.669922 65.666016 C 82.947697 66.12435 81.856771 66.57704 81.398438 67.021484 C 80.926215 67.479818 80.689453 68.00065 80.689453 68.583984 C 80.689453 69.250652 80.91862 69.79796 81.376953 70.228516 C 81.849175 70.645182 82.536674 70.853516 83.439453 70.853516 C 84.383899 70.853516 85.258898 70.624349 86.064453 70.166016 C 86.883898 69.707682 87.461588 69.152778 87.794922 68.5 C 88.142145 67.833333 88.314453 66.971572 88.314453 65.916016 L 88.314453 64.5625 z "
       style="fill:#000000"
       id="path1583" />
  </g>
</svg>
