<?xml version="1.0" encoding="UTF-8" standalone="no"?>
<svg
   xmlns:dc="http://purl.org/dc/elements/1.1/"
   xmlns:cc="http://creativecommons.org/ns#"
   xmlns:rdf="http://www.w3.org/1999/02/22-rdf-syntax-ns#"
   xmlns:svg="http://www.w3.org/2000/svg"
   xmlns="http://www.w3.org/2000/svg"
   xmlns:sodipodi="http://sodipodi.sourceforge.net/DTD/sodipodi-0.dtd"
   xmlns:inkscape="http://www.inkscape.org/namespaces/inkscape"
   width="128"
   height="128"
   viewBox="0 0 128 128"
   version="1.1"
   id="svg13"
   sodipodi:docname="circle-copy.svg"
   inkscape:version="1.0 (4035a4f, 2020-05-01)">
  <metadata
     id="metadata17">
    <rdf:RDF>
      <cc:Work
         rdf:about="">
        <dc:format>image/svg+xml</dc:format>
        <dc:type
           rdf:resource="http://purl.org/dc/dcmitype/StillImage" />
        <dc:title>Fill 1 Copy 3</dc:title>
      </cc:Work>
    </rdf:RDF>
  </metadata>
  <sodipodi:namedview
     pagecolor="#ffffff"
     bordercolor="#666666"
     borderopacity="1"
     objecttolerance="10"
     gridtolerance="10"
     guidetolerance="10"
     inkscape:pageopacity="0"
     inkscape:pageshadow="2"
     inkscape:window-width="2560"
     inkscape:window-height="1395"
     id="namedview15"
     showgrid="false"
     inkscape:zoom="4.2983036"
     inkscape:cx="46.363044"
     inkscape:cy="125.99466"
     inkscape:window-x="0"
     inkscape:window-y="23"
     inkscape:window-maximized="1"
     inkscape:current-layer="layer1"
     inkscape:document-rotation="0" />
  <!-- Generator: Sketch 46.2 (44496) - http://www.bohemiancoding.com/sketch -->
  <title
     id="title2">Fill 1 Copy 3</title>
  <desc
     id="desc4">Created with Sketch.</desc>
  <defs
     id="defs6" />
  <g
     inkscape:groupmode="layer"
     id="layer1"
     inkscape:label="Layer 1">
    <text
       xml:space="preserve"
       style="font-style:normal;font-weight:normal;font-size:40px;line-height:1.25;font-family:sans-serif;fill:#000000;fill-opacity:1;stroke:none"
       x="46.833454"
       y="42.713844"
       id="text129"><tspan
         sodipodi:role="line"
         id="tspan127"
         x="46.833454"
         y="42.713844" /></text>
    <path
       d="M 64 25 A 39 39 0 0 0 25 64 A 39 39 0 0 0 64 103 A 39 39 0 0 0 103 64 A 39 39 0 0 0 64 25 z M 65.234375 39.400391 L 75.066406 39.400391 C 75.825272 39.400391 76.4375 40.018582 76.4375 40.785156 L 76.4375 50.126953 C 76.4375 50.893528 77.050231 51.511719 77.808594 51.511719 L 87.234375 51.511719 C 87.99299 51.511719 88.603516 52.131861 88.603516 52.898438 L 88.595703 52.898438 L 88.595703 71.220703 C 88.595703 72.370729 87.676859 73.300781 86.539062 73.300781 L 72.234375 73.300781 L 72.234375 59.298828 C 72.234375 58.403004 71.891678 57.525764 71.238281 56.865234 L 63.238281 48.779297 C 63.213171 48.756687 63.197824 48.73734 63.177734 48.71875 L 63.177734 41.478516 C 63.178734 40.32849 64.096577 39.400391 65.234375 39.400391 z M 80.037109 40.365234 C 80.22479 40.343517 80.423477 40.399964 80.580078 40.556641 L 88.359375 48.333984 C 88.781239 48.751461 88.483117 49.470703 87.886719 49.470703 L 80.109375 49.470703 C 79.74049 49.470703 79.443359 49.173523 79.443359 48.804688 L 79.443359 41.027344 C 79.443359 40.655382 79.724308 40.40143 80.037109 40.365234 z M 60.097656 50.699219 C 60.268414 50.699219 60.437447 50.759958 60.580078 50.902344 L 62.449219 52.769531 L 68.617188 58.941406 C 68.760323 59.083788 68.820312 59.25803 68.820312 59.427734 C 68.820312 59.781401 68.546144 60.117188 68.132812 60.117188 L 60.089844 60.117188 L 60.087891 60.117188 C 59.710968 60.117188 59.397824 59.809001 59.402344 59.427734 L 59.402344 51.388672 C 59.402344 50.975614 59.743838 50.699219 60.097656 50.699219 z M 45.445312 50.740234 L 55.294922 50.740234 C 56.051277 50.740234 56.662109 51.357376 56.662109 52.123047 L 56.662109 61.638672 C 56.662109 62.404369 57.273444 63.023438 58.029297 63.023438 L 67.373047 63.023438 C 68.129401 63.023438 68.740234 63.640553 68.740234 64.40625 L 68.740234 82.525391 C 68.740234 83.674083 67.825435 84.599609 66.691406 84.599609 L 45.445312 84.599609 L 45.443359 84.599609 C 44.614432 84.599609 43.899857 84.097885 43.576172 83.216797 C 43.458148 82.893766 43.396484 82.524679 43.396484 82.109375 L 43.396484 52.400391 C 43.396484 51.666962 44.311031 50.740234 45.445312 50.740234 z "
       style="fill:#000000"
       id="path1583" />
  </g>
</svg>
