<?xml version="1.0" encoding="UTF-8" standalone="no"?>
<svg
   xmlns:dc="http://purl.org/dc/elements/1.1/"
   xmlns:cc="http://creativecommons.org/ns#"
   xmlns:rdf="http://www.w3.org/1999/02/22-rdf-syntax-ns#"
   xmlns:svg="http://www.w3.org/2000/svg"
   xmlns="http://www.w3.org/2000/svg"
   xmlns:sodipodi="http://sodipodi.sourceforge.net/DTD/sodipodi-0.dtd"
   xmlns:inkscape="http://www.inkscape.org/namespaces/inkscape"
   viewBox="0 0 128 128"
   version="1.1"
   id="svg8"
   sodipodi:docname="miotla.svg"
   width="128"
   height="128"
   inkscape:version="0.92.3 (2405546, 2018-03-11)">
  <metadata
     id="metadata14">
    <rdf:RDF>
      <cc:Work
         rdf:about="">
        <dc:format>image/svg+xml</dc:format>
        <dc:type
           rdf:resource="http://purl.org/dc/dcmitype/StillImage" />
        <dc:title></dc:title>
      </cc:Work>
    </rdf:RDF>
  </metadata>
  <defs
     id="defs12" />
  <sodipodi:namedview
     pagecolor="#ffffff"
     bordercolor="#666666"
     borderopacity="1"
     objecttolerance="10"
     gridtolerance="10"
     guidetolerance="10"
     inkscape:pageopacity="0"
     inkscape:pageshadow="2"
     inkscape:window-width="2493"
     inkscape:window-height="1385"
     id="namedview10"
     showgrid="false"
     inkscape:zoom="1.8537429"
     inkscape:cx="63.654999"
     inkscape:cy="63.654999"
     inkscape:window-x="67"
     inkscape:window-y="27"
     inkscape:window-maximized="1"
     inkscape:current-layer="svg8" />
  <g
     id="Warstwa_2"
     data-name="Warstwa 2"
     transform="matrix(0.61734213,0,0,0.61734213,24.706173,24.7)">
    <g
       id="svg14">
      <path
         d="m 53,51 a 2.48,2.48 0 0 0 1.29,3.21 L 79.26,68 a 2.47,2.47 0 0 0 3.39,-0.62 l 0.87,-1.6 -29.69,-16.34 z"
         id="path2"
         inkscape:connector-curvature="0" />
      <path
         d="M 63.66,0 A 63.66,63.66 0 1 0 127.31,63.66 63.66,63.66 0 0 0 63.66,0 Z m 27.58,22.61 -15.54,27.86 10.87,6 A 3.37,3.37 0 0 1 87.91,61 l -3,5.47 -0.48,-0.27 -0.87,1.6 a 3,3 0 0 1 -2.85,1.41 v 0 c -0.59,9.45 -2,21.13 -2.62,30.58 a 46.67,46.67 0 0 1 -11.7,-0.54 v 0 C 69,88.66 72.15,77.19 74.93,66.55 l -0.9,-0.49 C 70.92,76.79 67.51,88.21 64.56,98.94 A 54.67,54.67 0 0 1 52.26,94.85 C 57.44,84.22 62.76,73.36 68,62.74 l -0.9,-0.5 C 61.57,72.74 56,83.48 50.49,94 A 54.79,54.79 0 0 1 38.14,85.36 c 7.26,-8.74 14.78,-18.07 22,-26.93 l -0.91,-0.5 c -7.3,8.54 -15,17.71 -22.41,26.12 A 48.44,48.44 0 0 1 28,72.34 C 35.56,66.83 44.42,58.68 52,53.12 a 2.82,2.82 0 0 1 0,-2.59 l 0.87,-1.59 -0.44,-0.24 3,-5.48 a 3.41,3.41 0 0 1 4.6,-1.34 l 10.87,6 L 86.48,20 a 2.5,2.5 0 0 1 3.44,-0.63 2.49,2.49 0 0 1 1.32,3.24 z"
         id="path4"
         inkscape:connector-curvature="0" />
    </g>
  </g>
</svg>
