<?xml version="1.0" encoding="UTF-8" standalone="no"?>
<svg
   xmlns:dc="http://purl.org/dc/elements/1.1/"
   xmlns:cc="http://creativecommons.org/ns#"
   xmlns:rdf="http://www.w3.org/1999/02/22-rdf-syntax-ns#"
   xmlns:svg="http://www.w3.org/2000/svg"
   xmlns="http://www.w3.org/2000/svg"
   xmlns:sodipodi="http://sodipodi.sourceforge.net/DTD/sodipodi-0.dtd"
   xmlns:inkscape="http://www.inkscape.org/namespaces/inkscape"
   viewBox="0 0 128 128"
   version="1.1"
   id="svg14"
   sodipodi:docname="clean.svg"
   width="128"
   height="128"
   inkscape:version="0.92.3 (2405546, 2018-03-11)">
  <metadata
     id="metadata18">
    <rdf:RDF>
      <cc:Work
         rdf:about="">
        <dc:format>image/svg+xml</dc:format>
        <dc:type
           rdf:resource="http://purl.org/dc/dcmitype/StillImage" />
        <dc:title>Zasób 6</dc:title>
      </cc:Work>
    </rdf:RDF>
  </metadata>
  <sodipodi:namedview
     pagecolor="#ffffff"
     bordercolor="#666666"
     borderopacity="1"
     objecttolerance="10"
     gridtolerance="10"
     guidetolerance="10"
     inkscape:pageopacity="0"
     inkscape:pageshadow="2"
     inkscape:window-width="2493"
     inkscape:window-height="1385"
     id="namedview16"
     showgrid="false"
     inkscape:zoom="5.4677981"
     inkscape:cx="-15.629187"
     inkscape:cy="30.04542"
     inkscape:window-x="67"
     inkscape:window-y="27"
     inkscape:window-maximized="1"
     inkscape:current-layer="Layer_22" />
  <defs
     id="defs4">
    <style
       id="style2">.cls-1{fill:#fff;}</style>
  </defs>
  <title
     id="title6">Zasób 6</title>
  <g
     id="Layer_22"
     transform="matrix(0.16229751,0,0,0.16229751,-136.3876,230.0532)">
    <path
       id="path3354"
       d="m 1279.8808,-752.48044 c 28.1489,4.72752 55.3258,5.74234 79.5101,3.65909 4.0342,-64.21266 13.7733,-143.64058 17.8165,-207.87108 h -0.018 c 8.2132,0.41983 15.7422,-2.94089 19.3656,-9.59438 l 5.9549,-10.85933 3.2393,1.78841 20.4161,-37.19117 c 6.114,-11.1362 2.0333,-25.1116 -9.1066,-31.2059 l -73.891,-40.5554 105.6254,-189.4066 c 4.011,-7.3003 -0.017,-17.1592 -8.9476,-22.0635 -8.9316,-4.9044 -19.3997,-2.9587 -23.3964,4.3076 l -105.6254,189.387 -73.8963,-40.6073 c -11.1452,-6.0603 -25.1098,-1.9956 -31.213,9.1048 l -20.4359,37.2305 3.0034,1.6097 -5.9443,10.8559 c -2.9426,5.3939 -2.7067,11.7491 0.017,17.5629 -51.6399,37.8397 -111.8861,93.24413 -163.3152,130.7194 13.8341,26.40335 33.9966,54.17699 59.4155,79.41 50.2194,-57.17317 102.7188,-119.45803 152.3612,-177.5425 l 6.2159,3.3982 c -48.7849,60.2177 -99.8656,123.69615 -149.2614,183.0901 24.4539,22.76569 53.1371,42.9389 83.9552,58.73479 37.2108,-71.41114 75.3687,-144.41237 112.7242,-215.76999 l 6.1497,3.3644 c -35.4349,72.19537 -71.6113,146.07392 -106.7907,218.32302 27.193,12.77999 55.7279,22.14926 83.614,27.80582 20.041,-72.93335 43.207,-150.59244 64.352,-223.54547 l 6.1533,3.3643 c -18.8832,72.34197 -40.316,150.29944 -58.0469,222.49669 z m -85.4437,-338.86926 201.9091,110.84285 -5.9532,10.85394 c -3.9557,7.18065 -14.2968,9.07091 -23.0694,4.25761 l -170.0582,-93.3155 c -8.7831,-4.7974 -12.721,-14.5846 -8.7831,-21.7794 z"
       inkscape:connector-curvature="0"
       sodipodi:nodetypes="cccccccccccscccccccccccccccccccccccccccc"
       style="stroke-width:1.7866627" />
  </g>
</svg>
