<?xml version="1.0" encoding="UTF-8" standalone="no"?>
<svg
   xmlns:dc="http://purl.org/dc/elements/1.1/"
   xmlns:cc="http://creativecommons.org/ns#"
   xmlns:rdf="http://www.w3.org/1999/02/22-rdf-syntax-ns#"
   xmlns:svg="http://www.w3.org/2000/svg"
   xmlns="http://www.w3.org/2000/svg"
   xmlns:sodipodi="http://sodipodi.sourceforge.net/DTD/sodipodi-0.dtd"
   xmlns:inkscape="http://www.inkscape.org/namespaces/inkscape"
   viewBox="0 0 128 127.99999"
   id="svg2"
   version="1.1"
   inkscape:version="0.91 r13725"
   sodipodi:docname="invalidate.svg"
   width="128"
   height="128">
  <metadata
     id="metadata68">
    <rdf:RDF>
      <cc:Work
         rdf:about="">
        <dc:format>image/svg+xml</dc:format>
        <dc:type
           rdf:resource="http://purl.org/dc/dcmitype/StillImage" />
        <dc:title>Zasób 44</dc:title>
      </cc:Work>
    </rdf:RDF>
  </metadata>
  <sodipodi:namedview
     pagecolor="#ffffff"
     bordercolor="#666666"
     borderopacity="1"
     objecttolerance="10"
     gridtolerance="10"
     guidetolerance="10"
     inkscape:pageopacity="0"
     inkscape:pageshadow="2"
     inkscape:window-width="2021"
     inkscape:window-height="1060"
     id="namedview66"
     showgrid="false"
     inkscape:zoom="4.4405852"
     inkscape:cx="61.880341"
     inkscape:cy="43.322673"
     inkscape:window-x="3"
     inkscape:window-y="0"
     inkscape:window-maximized="0"
     inkscape:current-layer="svg2" />
  <defs
     id="defs4">
    <style
       id="style6">.cls-1{fill:none;}.cls-2{fill:#fff;}</style>
  </defs>
  <title
     id="title8">Zasób 44</title>
  <g
     id="g4486"
     transform="matrix(2.1141736,0,0,2.1287919,24,23.999996)">
    <path
       id="polygon50"
       d="m 6.25,0 0,3.0898438 0,1.6210937 0,1.3398437 0,2.5488282 0,22.9902346 1.2207031,0 21.5898439,0 1.759765,0 0.878907,0 6.140625,0 L 37.839844,0 6.25,0 Z m 16.359375,6.7304688 a 9.48,9.48 0 0 1 9.470703,9.4687502 9.47,9.47 0 1 1 -9.470703,-9.4687502 z m -3.039063,4.6601562 -1.769531,1.769531 3,3 -3,3 1.769531,1.769532 3,-3 3,3 1.769532,-1.769532 -3,-3 3,-3 -1.769532,-1.769531 -3,3 -3,-3 z"
       inkscape:connector-curvature="0" />
    <rect
       style="fill:none"
       id="rect12"
       height="31.85"
       width="31.790001"
       y="4.6199999"
       x="0.16"
       class="cls-1" />
    <polygon
       id="polygon14"
       points="0.77,37.58 1.41,37.58 5.3,33.69 4.66,33.69 4.66,33.69 " />
    <polygon
       id="polygon16"
       points="0,30.24 0,30.89 4.26,26.62 4.26,25.98 4.26,25.98 " />
    <polygon
       id="polygon18"
       points="0,35.7 0,36.35 4.26,32.09 4.26,31.44 4.26,31.44 " />
    <polygon
       id="polygon20"
       points="0,32.96 0,33.61 4.26,29.35 4.26,28.7 4.26,28.7 " />
    <polygon
       id="polygon22"
       points="0,27.48 0,28.13 4.26,23.86 4.26,23.21 4.26,23.21 " />
    <polygon
       id="polygon24"
       points="0,25.02 0,25.67 4.26,21.41 4.26,20.76 4.26,20.76 " />
    <polygon
       id="polygon26"
       points="0,16.82 0,17.47 4.26,13.21 4.26,12.56 4.26,12.56 " />
    <polygon
       id="polygon28"
       points="0,5.95 0,6.6 0.8,5.8 0.15,5.8 0.15,5.8 " />
    <polygon
       id="polygon30"
       points="0,8.71 0,9.36 3.56,5.8 2.91,5.8 2.91,5.8 " />
    <polygon
       id="polygon32"
       points="0,14.18 0,14.83 4.26,10.56 4.26,9.92 4.26,9.92 " />
    <polygon
       id="polygon34"
       points="0,11.44 0,12.08 4.26,7.82 4.26,7.17 4.26,7.17 " />
    <polygon
       id="polygon36"
       points="0,19.59 0,20.23 4.26,15.97 4.26,15.32 4.26,15.32 " />
    <polygon
       id="polygon38"
       points="0,22.36 0,23 4.26,18.74 4.26,18.1 4.26,18.1 " />
    <polygon
       id="polygon40"
       points="24.96,37.58 25.61,37.58 29.5,33.69 28.86,33.69 28.86,33.69 " />
    <polygon
       id="polygon42"
       points="22.2,37.58 22.85,37.58 26.74,33.69 26.1,33.69 26.1,33.69 " />
    <polygon
       id="polygon44"
       points="3.53,37.58 4.17,37.58 8.07,33.69 7.42,33.69 7.42,33.69 " />
    <polygon
       id="polygon46"
       points="31.82,36.84 31.82,36.19 30.43,37.58 31.08,37.58 31.08,37.58 " />
    <polygon
       id="polygon48"
       points="31.58,33.69 27.69,37.58 27.69,37.58 28.34,37.58 31.82,34.1 31.82,33.69 " />
    <polygon
       id="polygon52"
       points="19.56,37.58 20.2,37.58 24.1,33.69 23.45,33.69 23.45,33.69 " />
    <polygon
       id="polygon54"
       points="8.99,37.58 9.64,37.58 13.53,33.69 12.88,33.69 12.88,33.69 " />
    <polygon
       id="polygon56"
       points="6.25,37.58 6.9,37.58 10.79,33.69 10.14,33.69 10.14,33.69 " />
    <polygon
       id="polygon58"
       points="16.82,37.58 17.46,37.58 21.36,33.69 20.71,33.69 20.71,33.69 " />
    <polygon
       id="polygon60"
       points="14.09,37.58 14.74,37.58 18.63,33.69 17.98,33.69 17.98,33.69 " />
    <polygon
       id="polygon62"
       points="11.33,37.58 11.98,37.58 15.87,33.69 15.22,33.69 15.22,33.69 " />
  </g>
</svg>
