<?xml version="1.0" encoding="UTF-8" standalone="no"?>
<!-- Generator: Adobe Illustrator 19.2.1, SVG Export Plug-In . SVG Version: 6.00 Build 0)  -->

<svg
   xmlns:dc="http://purl.org/dc/elements/1.1/"
   xmlns:cc="http://creativecommons.org/ns#"
   xmlns:rdf="http://www.w3.org/1999/02/22-rdf-syntax-ns#"
   xmlns:svg="http://www.w3.org/2000/svg"
   xmlns="http://www.w3.org/2000/svg"
   xmlns:sodipodi="http://sodipodi.sourceforge.net/DTD/sodipodi-0.dtd"
   xmlns:inkscape="http://www.inkscape.org/namespaces/inkscape"
   version="1.1"
   id="Layer_1"
   inkscape:version="0.92.5 (2060ec1f9f, 2020-04-08)"
   sodipodi:docname="flatten.svg"
   x="0px"
   y="0px"
   width="128px"
   height="128px"
   viewBox="0 0 128 128"
   enable-background="new 0 0 128 128"
   xml:space="preserve"><metadata
   id="metadata132"><rdf:RDF><cc:Work
       rdf:about=""><dc:format>image/svg+xml</dc:format><dc:type
         rdf:resource="http://purl.org/dc/dcmitype/StillImage" /><dc:title></dc:title></cc:Work></rdf:RDF></metadata><defs
   id="defs130">
</defs><sodipodi:namedview
   pagecolor="#ffffff"
   bordercolor="#666666"
   borderopacity="1"
   objecttolerance="10"
   gridtolerance="10"
   guidetolerance="10"
   inkscape:pageopacity="0"
   inkscape:pageshadow="2"
   inkscape:window-width="2560"
   inkscape:window-height="1403"
   id="namedview128"
   showgrid="false"
   inkscape:zoom="3.6875"
   inkscape:cx="-27.258554"
   inkscape:cy="48.132332"
   inkscape:window-x="0"
   inkscape:window-y="0"
   inkscape:window-maximized="1"
   inkscape:current-layer="g2591" />
<g
   id="g1809"
   transform="translate(1.3032544,27.257326)"><g
     id="g2591"><g
       id="g2663"
       transform="translate(-1.1509099,1.2533895)"><path
         sodipodi:nodetypes="ccccccccccccccccccccccccccccccc"
         inkscape:connector-curvature="0"
         id="rect1534-0-10-62-1"
         transform="translate(-1.3032544,-27.257326)"
         d="m 69.271484,56.578125 v 4.001953 l 1.587891,0.664063 2.845703,-2.845703 -4.050781,-1.69336 c -0.119393,-0.0499 -0.257055,-0.08275 -0.382813,-0.126953 z m -10.298828,1.572266 -2.914062,1.691406 2.68164,2.75 0.232422,-0.136719 z m 23.806641,4.041015 C 82.663593,63.32614 82.21038,64.431512 81.376953,65.3125 l -0.0059,0.0039 -0.222656,0.228516 20.068363,8.386719 c 0.28598,0.11953 0.29736,0.27608 0.0293,0.43164 L 65.560547,95.070312 c -0.268106,0.155561 -0.585102,0.176201 -0.871094,0.05664 L 29.085938,80.244141 C 28.799945,80.124601 28.788533,79.96806 29.056641,79.8125 L 49.605469,67.890625 47.146484,65.367188 C 47.066374,65.29656 46.990936,65.22174 46.916016,65.146484 L 24.744141,78.009766 c -2.438048,1.41461 -2.30382,3.495031 0.296875,4.582031 l 35.605468,14.880859 c 2.600694,1.08701 6.786562,0.815001 9.22461,-0.599609 L 105.55859,76.166016 c 2.43804,-1.4146 2.30188,-3.493068 -0.29882,-4.580078 z"
         style="color:#000000;font-style:normal;font-variant:normal;font-weight:normal;font-stretch:normal;font-size:medium;line-height:normal;font-family:sans-serif;font-variant-ligatures:normal;font-variant-position:normal;font-variant-caps:normal;font-variant-numeric:normal;font-variant-alternates:normal;font-feature-settings:normal;text-indent:0;text-align:start;text-decoration:none;text-decoration-line:none;text-decoration-style:solid;text-decoration-color:#000000;letter-spacing:normal;word-spacing:normal;text-transform:none;writing-mode:lr-tb;direction:ltr;text-orientation:mixed;dominant-baseline:auto;baseline-shift:baseline;text-anchor:start;white-space:normal;shape-padding:0;clip-rule:nonzero;display:inline;overflow:visible;visibility:visible;opacity:1;isolation:auto;mix-blend-mode:normal;color-interpolation:sRGB;color-interpolation-filters:linearRGB;solid-color:#000000;solid-opacity:1;vector-effect:none;fill:#000000;fill-opacity:1;fill-rule:nonzero;stroke:none;stroke-width:4.17199993;stroke-linecap:butt;stroke-linejoin:round;stroke-miterlimit:4;stroke-dasharray:none;stroke-dashoffset:0;stroke-opacity:1;paint-order:normal;color-rendering:auto;image-rendering:auto;shape-rendering:auto;text-rendering:auto;enable-background:accumulate" /><path
         style="stroke-width:1.14049149"
         d="M 66.096444,51.331711 79.610611,37.471896 a 4.3020103,4.4120391 0 0 0 0,-6.144518 4.2006541,4.3080907 0 0 0 -5.980017,0 l -6.36292,6.363964 V 4.4855467 a 4.2794875,4.3889402 0 1 0 -8.558975,0 V 37.725993 l -6.239044,-6.398615 a 4.2006541,4.3080907 0 0 0 -5.923711,-0.06929 3.9078473,4.0077947 0 0 0 -1.351417,3.141554 3.9979415,4.1001934 0 0 0 1.441513,3.118458 l 13.412813,13.755861 a 3.9078473,4.0077947 0 0 0 3.051951,1.374424 4.3470577,4.4582387 0 0 0 2.99564,-1.316671 z"
         id="path4-5"
         inkscape:connector-curvature="0" /></g></g></g></svg>
