<?xml version="1.0" encoding="UTF-8" standalone="no"?>
<svg
   xmlns:dc="http://purl.org/dc/elements/1.1/"
   xmlns:cc="http://creativecommons.org/ns#"
   xmlns:rdf="http://www.w3.org/1999/02/22-rdf-syntax-ns#"
   xmlns:svg="http://www.w3.org/2000/svg"
   xmlns="http://www.w3.org/2000/svg"
   xmlns:xlink="http://www.w3.org/1999/xlink"
   xmlns:sodipodi="http://sodipodi.sourceforge.net/DTD/sodipodi-0.dtd"
   xmlns:inkscape="http://www.inkscape.org/namespaces/inkscape"
   inkscape:version="1.0 (4035a4f, 2020-05-01)"
   sodipodi:docname="globe-filled.svg"
   id="svg39"
   version="1.1"
   viewBox="0 0 128 128"
   height="128"
   width="128">
  <metadata
     id="metadata43">
    <rdf:RDF>
      <cc:Work
         rdf:about="">
        <dc:format>image/svg+xml</dc:format>
        <dc:type
           rdf:resource="http://purl.org/dc/dcmitype/StillImage" />
        <dc:title>Group 42</dc:title>
      </cc:Work>
    </rdf:RDF>
  </metadata>
  <sodipodi:namedview
     inkscape:current-layer="svg39"
     inkscape:window-maximized="0"
     inkscape:window-y="23"
     inkscape:window-x="1280"
     inkscape:cy="160.66872"
     inkscape:cx="60.178175"
     inkscape:zoom="2"
     showgrid="false"
     id="namedview41"
     inkscape:window-height="1395"
     inkscape:window-width="1280"
     inkscape:pageshadow="2"
     inkscape:pageopacity="0"
     guidetolerance="10"
     gridtolerance="10"
     objecttolerance="10"
     borderopacity="1"
     bordercolor="#666666"
     pagecolor="#ffffff" />
  <title
     id="title10">Group 42</title>
  <defs
     id="defs13">
    <polygon
       points="3.3076923,3.3076923 0,3.3076923 0,2.0673077e-05 3.3076923,2.0673077e-05 "
       id="path-1" />
  </defs>
  <g
     style="fill:#000000"
     transform="matrix(2.3484587,0,0,2.3484587,13.508137,15.450132)"
     fill-rule="evenodd"
     fill="none"
     stroke-width="1"
     stroke="none"
     id="Share-New-2020">
    <g
       style="fill:#000000"
       transform="translate(-181,-61)"
       id="Shared-public-_open-data-">
      <g
         style="fill:#000000"
         transform="translate(181,61)"
         id="Group-42">
        <path
           style="fill:#000000"
           fill="#1d1d1b"
           id="Fill-1"
           d="m 22.326923,19.846154 h 9.096154 C 31.366151,16.896332 31.003193,13.963029 30.341831,11.102509 27.71972,10.381014 25.030893,9.9851784 22.326923,9.9230769 Z" />
        <path
           style="fill:#000000"
           fill="#1d1d1b"
           id="Fill-3"
           d="m 22.326923,0 v 8.2341917 c 2.502255,0.04561 4.994567,0.3342774 7.442308,0.8619622 C 28.109937,4.0967737 25.392485,0.58865141 22.326923,0" />
        <path
           style="fill:#000000"
           fill="#1d1d1b"
           id="Fill-5"
           d="m 27.288461,0.82692308 c 2.363134,2.59939942 4.049862,5.74028092 4.91228,9.14588962 3.405132,0.8619413 6.546013,2.5486693 9.145413,4.9118023 C 39.308719,8.1413959 34.032157,2.8643578 27.288461,0.82692308" />
        <path
           style="fill:#000000"
           fill="#1d1d1b"
           id="Fill-7"
           d="m 22.326923,31.423077 c 2.70397,-0.06259 5.392797,-0.458038 8.014908,-1.179373 0.661362,-2.860874 1.02432,-5.79403 1.081246,-8.743704 h -9.096154 z" />
        <path
           style="fill:#000000"
           fill="#1d1d1b"
           id="Fill-9"
           d="m 33.938544,21.5 c -0.04562,2.502562 -0.333863,4.994723 -0.861621,7.442308 C 38.075616,27.28281 41.584805,24.565939 42.173077,21.5 Z" />
        <path
           style="fill:#000000"
           fill="#1d1d1b"
           id="Fill-11"
           d="m 27.288461,40.519231 c 6.743735,-2.037107 12.020415,-7.314249 14.057693,-14.057693 -2.599166,2.362635 -5.739622,4.049091 -9.144174,4.911489 -0.86242,3.405418 -2.549752,6.546746 -4.913519,9.146204" />
        <path
           style="fill:#000000"
           fill="#1d1d1b"
           id="Fill-13"
           d="m 22.326923,41.346154 c 3.065562,-0.589143 5.783014,-4.097906 7.442308,-9.096154 -2.447741,0.527712 -4.940053,0.816394 -7.442308,0.86189 z" />
        <path
           style="fill:#000000"
           fill="#1d1d1b"
           id="Fill-15"
           d="m 33.076923,12.403846 c 0.527758,2.447735 0.816005,4.940163 0.861621,7.442308 h 8.234533 c -0.588272,-3.066127 -4.097461,-5.782708 -9.096154,-7.442308" />
        <path
           style="fill:#000000"
           fill="#1d1d1b"
           id="Fill-17"
           d="m 11.576923,19.846154 h 9.096154 V 9.9230769 c -2.70397,0.062102 -5.392797,0.4579371 -8.014908,1.1794321 -0.661362,2.86052 -1.02432,5.793823 -1.081246,8.743645" />
        <path
           style="fill:#000000"
           fill="#1d1d1b"
           id="Fill-19"
           d="M 1.6538461,26.461538 C 3.691022,33.205101 8.967866,38.482124 15.711539,40.519231 13.348824,37.92025 11.662192,34.779874 10.799884,31.374932 7.3943503,30.512534 4.2529154,28.825125 1.6538461,26.461538" />
        <path
           style="fill:#000000"
           fill="#1d1d1b"
           id="Fill-21"
           d="M 10.799884,9.9726936 C 11.662192,6.567204 13.348824,3.4263225 15.711539,0.82692308 8.9682232,2.8638815 3.6914983,8.1409196 1.6538461,14.884615 4.2533916,12.521482 7.3943503,10.834278 10.799884,9.9726936" />
        <path
           style="fill:#000000"
           fill="#1d1d1b"
           id="Fill-23"
           d="m 9.0614454,19.846154 c 0.045616,-2.502145 0.3338664,-4.994573 0.8616315,-7.442308 -4.998756,1.6596 -8.5078747,4.376181 -9.09615382,7.442308 z" />
        <path
           style="fill:#000000"
           fill="#1d1d1b"
           id="Fill-25"
           d="M 20.673077,0 C 17.607515,0.58945968 14.890063,4.0976974 13.230769,9.0961539 15.67851,8.5680072 18.170822,8.2788775 20.673077,8.2333835 Z" />
        <path
           style="fill:#000000"
           fill="#1d1d1b"
           id="Fill-27"
           d="M 9.9230769,28.942308 C 9.3953118,26.494723 9.1070619,24.002448 9.0614454,21.5 H 0.82692308 c 0.58827912,3.065824 4.09739782,5.782696 9.09615382,7.442308" />
        <path
           style="fill:#000000"
           fill="#1d1d1b"
           id="Fill-29"
           d="M 20.673077,41.346154 V 33.112082 C 18.170822,33.066582 15.67851,32.777874 13.230769,32.25 c 1.659294,4.999155 4.376746,8.507882 7.442308,9.096154" />
        <path
           style="fill:#000000"
           fill="#1d1d1b"
           id="Fill-31"
           d="m 12.658169,30.243704 c 2.622111,0.721459 5.310938,1.116778 8.014908,1.179373 V 21.5 h -9.096154 c 0.05693,2.949674 0.419884,5.88283 1.081246,8.743704" />
        <g
           style="fill:#000000"
           transform="translate(19.846154,49.615385)"
           id="Group-41">
          <mask
             fill="#ffffff"
             id="mask-2">
            <use
               height="100%"
               width="100%"
               y="0"
               x="0"
               id="use31"
               xlink:href="#path-1" />
          </mask>
          <g
             style="fill:#000000"
             id="Clip-40" />
        </g>
      </g>
    </g>
  </g>
</svg>
