<?xml version="1.0" encoding="UTF-8" standalone="no"?>
<svg
   xmlns:dc="http://purl.org/dc/elements/1.1/"
   xmlns:cc="http://creativecommons.org/ns#"
   xmlns:rdf="http://www.w3.org/1999/02/22-rdf-syntax-ns#"
   xmlns:svg="http://www.w3.org/2000/svg"
   xmlns="http://www.w3.org/2000/svg"
   xmlns:sodipodi="http://sodipodi.sourceforge.net/DTD/sodipodi-0.dtd"
   xmlns:inkscape="http://www.inkscape.org/namespaces/inkscape"
   width="128"
   height="128"
   viewBox="0 0 128 128"
   version="1.1"
   id="svg2"
   inkscape:version="0.92.5 (2060ec1f9f, 2020-04-08)"
   sodipodi:docname="globe.svg">
  <metadata
     id="metadata511">
    <rdf:RDF>
      <cc:Work
         rdf:about="">
        <dc:format>image/svg+xml</dc:format>
        <dc:type
           rdf:resource="http://purl.org/dc/dcmitype/StillImage" />
        <dc:title>Tabs </dc:title>
      </cc:Work>
    </rdf:RDF>
  </metadata>
  <sodipodi:namedview
     pagecolor="#ffffff"
     bordercolor="#666666"
     borderopacity="1"
     objecttolerance="10"
     gridtolerance="10"
     guidetolerance="10"
     inkscape:pageopacity="0"
     inkscape:pageshadow="2"
     inkscape:window-width="1280"
     inkscape:window-height="979"
     id="namedview509"
     showgrid="false"
     inkscape:zoom="0.96343298"
     inkscape:cx="-32.508147"
     inkscape:cy="187.16109"
     inkscape:window-x="0"
     inkscape:window-y="0"
     inkscape:window-maximized="0"
     inkscape:current-layer="svg2" />
  <!-- Generator: Sketch 55 (78076) - https://sketchapp.com -->
  <defs
     id="defs8" />
  <path
     d="m 108.07738,53.716737 0.14855,-0.157838 c 0.0619,0.246972 0.11762,0.506942 0.17951,0.773969 l -0.32806,-0.615883 z m -58.15045,-11.744973 0.414715,-0.427713 0.695112,0.427713 -0.55708,0.458043 -0.55708,-0.458043 z m 1.33142,1.211958 v 0.886005 h -1.440979 l -0.396146,-0.57565 V 42.67678 h 0.117606 l 1.718282,0.506942 z m -6.145827,-1.499659 h 1.502258 l -1.919448,2.693728 -0.794768,-0.427713 0.167124,-1.132977 1.043596,-1.132976 z m 3.599973,1.810261 v 0.883467 l -0.646832,0.646708 h -1.450883 l 0.229023,-0.98535 0.685207,-0.06189 0.142365,-0.338581 1.043596,-0.147937 z m -0.427095,-2.17942 v -1.074421 l 0.937133,0.845277 -0.937133,0.229021 z m 0.766295,0.368911 v 0.903832 l -0.677161,0.437616 -0.852951,0.15784 v -1.499597 h 1.530113 z m -1.242288,-1.303566 v 0.934408 h -2.724119 l -1.015743,-0.277302 0.25997,-0.656858 1.301091,-0.537273 h 1.782036 v 0.537273 h 0.396146 z m -6.316664,-3.401529 1.186579,-0.567601 1.072069,0.259969 -0.365197,1.441042 -1.163059,0.368911 -0.728537,-1.502197 z m 65.849296,14.451392 h -3.6204 l -2.20727,-1.64221 -2.326742,0.219118 v 1.423214 h -0.735962 l -0.796622,-0.567601 -4.017786,-1.02348 v -2.607195 l -5.102223,0.399861 -1.580877,0.85295 h -2.029 l -0.993462,-0.10956 -2.459195,1.374873 v 2.563867 l -5.020529,3.620523 0.414715,1.553077 h 1.026266 l -0.272352,1.471618 -0.715533,0.267399 -0.0619,3.849606 4.335938,4.952068 h 1.899642 l 0.11142,-0.308251 h 3.401895 l 0.97489,-0.903832 h 1.929972 l 1.05412,1.054058 2.874533,0.30825 -0.377581,3.80894 3.192686,5.629291 -1.680519,3.213111 0.11142,1.509811 1.323985,1.313779 v 3.640826 l 1.728805,2.327107 v 3.022218 h 1.501631 c -8.332661,10.245322 -21.032228,16.809032 -35.24395,16.809032 -25.065492,0 -45.440993,-20.388825 -45.440993,-45.452151 0,-6.304037 1.291188,-12.322912 3.617924,-17.781676 v -1.423214 l 1.632243,-1.9681 c 0.56946,-1.06427 1.163678,-2.108175 1.809891,-3.124041 l 0.08047,0.824972 -1.88912,2.299069 c -0.588028,1.102398 -1.133348,2.227761 -1.621721,3.391314 v 2.584232 l 1.881073,0.906431 v 3.600096 l 1.81051,3.083313 1.481832,0.229022 0.185692,-1.054057 -1.741182,-2.686116 -0.340439,-2.604594 h 1.015742 l 0.427095,2.683514 2.515524,3.661253 -0.656735,1.183917 1.601295,2.446757 3.968883,0.972538 v -0.636495 l 1.581488,0.229021 -0.148555,1.125363 1.252811,0.226546 1.919448,0.52675 2.716692,3.103677 3.480511,0.259969 0.340437,2.831204 -2.378111,1.662574 -0.105227,2.528213 -0.352818,1.550539 3.442753,4.305359 0.27235,1.474157 c 0,0 1.242287,0.336105 1.389604,0.336105 0.148556,0 2.79592,1.998678 2.79592,1.998678 v 7.78587 l 0.94456,0.262447 -0.64683,3.58988 1.59139,2.118325 -0.284728,3.549219 2.08781,3.69178 2.696266,2.34493 2.703693,0.0495 0.259971,-0.86565 -1.978252,-1.6804 0.111416,-0.82496 0.359007,-1.02602 0.06808,-1.0337 -1.3438,-0.0371 -0.674685,-0.845337 1.112302,-1.084571 0.148555,-0.807085 -1.245383,-0.356533 0.07428,-0.756208 1.780179,-0.269867 2.703694,-1.290883 0.906183,-1.662572 2.833679,-3.630673 -0.646831,-2.833741 0.865949,-1.512347 2.607133,0.08171 1.759134,-1.382548 0.569459,-5.471452 1.940495,-2.474734 0.346627,-1.583654 -1.779559,-0.575648 -1.173583,-1.922296 -3.997356,-0.03715 -3.172259,-1.201745 -0.148555,-2.271029 -1.064023,-1.845914 -2.864627,-0.04333 -1.659479,-2.607133 -1.474403,-0.725626 -0.07428,0.79687 -2.678317,0.15784 -0.982936,-1.362123 -2.795301,-0.565125 -2.306929,2.652998 -3.620399,-0.605979 -0.27235,-4.086426 -2.645511,-0.458044 1.064642,-1.998616 -0.309489,-1.153403 -3.469987,2.327107 -2.187467,-0.269873 -0.776197,-1.710978 0.470423,-1.75932 1.211957,-2.227761 2.774876,-1.402912 h 5.359107 v 1.632057 l 1.926877,0.903832 -0.148554,-2.793013 1.382176,-1.40285 2.803349,-1.840839 0.198072,-1.293354 2.795303,-2.912722 2.963665,-1.64221 -0.259971,-0.219118 2.0092,-1.889181 0.735346,0.190646 0.340437,0.425238 0.763818,-0.845277 0.191883,-0.08913 -0.837477,-0.119463 -0.85295,-0.277302 v -0.81476 l 0.458043,-0.368911 h 0.985412 l 0.458044,0.198693 0.396145,0.796933 0.476613,-0.0786 v -0.07119 l 0.142366,0.04951 1.392698,-0.208595 0.198072,-0.687437 0.796626,0.198692 v 0.745991 l -0.737823,0.509419 0.111416,0.804547 2.518,0.776569 v 0.03096 l 0.57565,-0.04951 0.06189,-1.094786 -1.998679,-0.903892 -0.111416,-0.526751 1.659479,-0.567602 0.06808,-1.591268 -1.738708,-1.054057 -0.111416,-2.675901 -2.375015,1.163554 h -0.868426 l 0.216641,-2.039406 -3.231061,-0.763819 -1.34442,1.013328 v 3.093465 l -2.405965,0.756203 -0.962509,2.018981 -1.056595,0.168363 v -2.576619 l -2.258031,-0.318153 -1.132729,-0.735779 -0.458042,-1.670249 4.048113,-2.367774 1.99125,-0.605979 0.198072,1.334082 1.1024,-0.04951 0.08047,-0.677223 1.15625,-0.15784 v -0.239544 l -0.495182,-0.208595 -0.111416,-0.705263 1.423649,-0.119464 0.855426,-0.896217 0.06189,-0.06189 v 0 l 0.25997,-0.269874 2.984091,-0.376958 1.320897,1.122825 -3.459464,1.840777 4.39412,1.043906 0.57565,-1.47162 h 1.919448 l 0.687684,-1.283201 -1.364844,-0.348484 v -1.619308 l -4.267231,-1.889181 -2.943238,0.336106 -1.660098,0.875852 0.111416,2.108113 -1.741184,-0.256875 -0.26616,-1.173705 1.670001,-1.512348 -3.024323,-0.150411 -0.863474,0.269874 -0.377577,1.013328 1.132729,0.190645 -0.229022,1.132975 -1.929971,0.119464 -0.29711,0.745991 -2.79592,0.07861 c 0,0 -0.06809,-1.581116 -0.185694,-1.581116 -0.111415,0 2.186848,-0.04332 2.186848,-0.04332 l 1.67062,-1.629458 -0.91423,-0.44814 -1.204531,1.173705 -2.008581,-0.119462 -1.201436,-1.659975 h -2.56628 l -2.686361,1.998618 h 2.456721 l 0.229021,0.725626 -0.636927,0.585553 2.714216,0.08171 0.414714,0.982749 -3.062699,-0.119462 -0.148555,-0.753667 -1.920069,-0.420286 -1.025645,-0.565126 -2.286504,0.01857 c 7.497676,-5.461299 16.71982,-8.692238 26.694642,-8.692238 11.495031,0 21.987315,4.295208 30.004315,11.347776 l -0.538515,0.962385 -2.09771,0.827512 -0.885756,0.954771 0.198066,1.122764 1.084457,0.150412 0.656729,1.629519 1.858796,-0.756203 0.309485,2.17942 h -0.557077 l -1.530113,-0.229023 -1.700952,0.287825 -1.642148,2.327107 -2.355205,0.368912 -0.340438,2.008828 0.992838,0.239545 -0.284734,1.293415 -2.336633,-0.468566 -2.13919,0.468566 -0.445667,1.181318 0.37139,2.507912 1.25281,0.585552 2.107614,-0.01238 1.423648,-0.12751 0.439476,-1.135575 2.2277,-2.884683 1.461405,0.300204 1.440981,-1.303566 0.272353,1.013327 3.549218,2.398352 -0.433286,0.575649 -1.601299,-0.0786 0.61898,0.865641 0.98541,0.219117 1.153157,-0.478469 v -1.3927 l 0.507561,-0.256876 -0.408523,-0.438235 -2.368209,-1.31378 -0.6264,-1.75932 h 1.970819 l 0.626409,0.626343 1.700938,1.461406 0.06805,1.761919 1.748611,1.868756 0.65735,-2.556192 1.21444,-0.667071 0.22902,2.100499 1.19153,1.301029 2.36759,-0.03715 c 0.45804,1.173706 0.86595,2.37545 1.22434,3.600098 l -0.24759,0.229021 z M 38.888086,31.766931 c 0,0 0.985411,-0.168362 1.074545,-0.168362 0.08047,0 0,0.992964 0,0.992964 l -2.237603,0.139888 -0.427096,-0.506943 1.590773,-0.458043 z m -1.590773,-2.20746 v -0.07861 h 0.995317 l 0.08047,-0.33858 h 1.629767 v 0.705263 l -0.464232,0.615882 h -2.237604 v -0.90383 z m 59.731331,5.49949 v -2.21761 c 0.776814,0.824911 1.532576,1.6804 2.248118,2.556253 l -0.896282,1.331607 -3.110979,-0.03096 -0.198066,-0.646709 1.947918,-0.995501 z m 7.161556,8.643835 0.28474,-0.328057 c 0.37757,0.735778 0.72543,1.481769 1.06401,2.227761 l -0.47042,-0.01238 -0.8839,0.119462 v -2.008828 z m 9.31871,19.790505 c 0,-1.451255 -0.0867,-2.894896 -0.22902,-4.305359 -0.45804,-4.71531 -1.58087,-9.239663 -3.2713,-13.486468 -0.12998,-0.308251 -0.24759,-0.636494 -0.37757,-0.944559 -2.24566,-5.321286 -5.42038,-10.166396 -9.28776,-14.352107 C 100.09567,30.134935 99.8357,29.867536 99.576967,29.597662 98.841,28.844056 98.095133,28.098065 97.310892,27.390265 88.506558,19.375311 76.810358,14.481799 64.00124,14.481799 c -12.920535,0 -24.706486,4.982583 -33.528153,13.117246 -2.056862,1.899395 -3.948457,3.969317 -5.656835,6.176715 -6.474504,8.37396 -10.334448,18.856096 -10.334448,30.224236 0,27.311514 22.218815,49.518214 49.519436,49.518214 19.211823,0 35.880884,-11.00154 44.09656,-27.021292 1.74923,-3.421894 3.12151,-7.070394 4.03822,-10.899636 0.2352,-0.977738 0.43947,-1.950274 0.61897,-2.943239 0.49519,-2.8083 0.7632,-5.700658 0.7632,-8.654047 0,-0.168361 0,-0.338581 0,-0.506943 v 0 z"
     id="path219"
     inkscape:connector-curvature="0"
     style="fill:#000000;fill-rule:evenodd;stroke:none;stroke-width:1" />
</svg>
