<?xml version="1.0" encoding="UTF-8" standalone="no"?>
<svg
   xmlns:dc="http://purl.org/dc/elements/1.1/"
   xmlns:cc="http://creativecommons.org/ns#"
   xmlns:rdf="http://www.w3.org/1999/02/22-rdf-syntax-ns#"
   xmlns:svg="http://www.w3.org/2000/svg"
   xmlns="http://www.w3.org/2000/svg"
   xmlns:sodipodi="http://sodipodi.sourceforge.net/DTD/sodipodi-0.dtd"
   xmlns:inkscape="http://www.inkscape.org/namespaces/inkscape"
   width="128"
   height="128"
   viewBox="0 0 128 128"
   version="1.1"
   id="svg11"
   sodipodi:docname="hierarchy.svg"
   inkscape:version="0.92.2 2405546, 2018-03-11">
  <metadata
     id="metadata15">
    <rdf:RDF>
      <cc:Work
         rdf:about="">
        <dc:format>image/svg+xml</dc:format>
        <dc:type
           rdf:resource="http://purl.org/dc/dcmitype/StillImage" />
        <dc:title>Combined Shape</dc:title>
      </cc:Work>
    </rdf:RDF>
  </metadata>
  <sodipodi:namedview
     pagecolor="#ffffff"
     bordercolor="#666666"
     borderopacity="1"
     objecttolerance="10"
     gridtolerance="10"
     guidetolerance="10"
     inkscape:pageopacity="0"
     inkscape:pageshadow="2"
     inkscape:window-width="1920"
     inkscape:window-height="1006"
     id="namedview13"
     showgrid="false"
     inkscape:zoom="2.6953125"
     inkscape:cx="55.466667"
     inkscape:cy="61.980654"
     inkscape:window-x="0"
     inkscape:window-y="0"
     inkscape:window-maximized="1"
     inkscape:current-layer="svg11" />
  <!-- Generator: Sketch 50.2 (55047) - http://www.bohemiancoding.com/sketch -->
  <title
     id="title2">Combined Shape</title>
  <desc
     id="desc4">Created with Sketch.</desc>
  <defs
     id="defs6" />
  <g
     id="Onepanel-for-provider---zone-"
     style="fill:#000000;fill-rule:evenodd;stroke:none;stroke-width:1"
     transform="matrix(3.1313437,0,0,3.1313437,13.898501,33.898988)">
    <g
       id="Group-expand-Copy-2"
       transform="translate(-247,-453)"
       style="fill:#000000">
      <path
         d="m 259.17622,462.61281 c 0,1.59015 -1.29369,2.88385 -2.88384,2.88385 h -6.40854 c -1.59015,0 -2.88384,-1.2937 -2.88384,-2.88385 0,-1.59015 1.29369,-2.88384 2.88384,-2.88384 h 6.40854 c 1.59015,0 2.88384,1.29369 2.88384,2.88384 z m -1.37542,-3.82773 c 1.72896,-3.13294 4.81787,-5.06082 8.16409,-5.06082 v 2.43525 c -2.55604,0 -4.92849,1.57438 -6.19449,4.10934 -0.49263,-0.67027 -1.17578,-1.19211 -1.9696,-1.48377 z m 2.0737,6.37278 c 1.28908,2.41678 3.60269,3.90818 6.09035,3.90818 v 2.43524 c -3.24381,0 -6.24595,-1.81162 -8.0017,-4.7766 0.78075,-0.32395 1.44526,-0.87329 1.91135,-1.56682 z m 0.72227,-2.37091 c 0,-0.42309 -0.0628,-0.83158 -0.17816,-1.21763 h 5.54627 v 2.43525 h -5.54627 c 0.11536,-0.38605 0.17816,-0.79453 0.17816,-1.21762 z m 6.22701,9.43867 v -5.12683 H 279 v 5.12683 z m 0,-7.04946 v -5.12677 H 279 v 5.12677 z m 0,-7.04933 V 453 H 279 v 5.12683 z"
         id="Combined-Shape"
         style="fill:#000000"
         inkscape:connector-curvature="0" />
    </g>
  </g>
</svg>
