<?xml version="1.0" encoding="UTF-8" standalone="no"?>
<svg
   inkscape:version="1.1.2 (0a00cf5339, 2022-02-04)"
   sodipodi:docname="info-modal.svg"
   id="svg78"
   version="1.1"
   viewBox="0 0 16 13"
   height="128px"
   width="128px"
   xmlns:inkscape="http://www.inkscape.org/namespaces/inkscape"
   xmlns:sodipodi="http://sodipodi.sourceforge.net/DTD/sodipodi-0.dtd"
   xmlns="http://www.w3.org/2000/svg"
   xmlns:svg="http://www.w3.org/2000/svg"
   xmlns:rdf="http://www.w3.org/1999/02/22-rdf-syntax-ns#"
   xmlns:cc="http://creativecommons.org/ns#"
   xmlns:dc="http://purl.org/dc/elements/1.1/">
  <metadata
     id="metadata84">
    <rdf:RDF>
      <cc:Work
         rdf:about="">
        <dc:format>image/svg+xml</dc:format>
        <dc:type
           rdf:resource="http://purl.org/dc/dcmitype/StillImage" />
        <dc:title>Shape</dc:title>
      </cc:Work>
    </rdf:RDF>
  </metadata>
  <defs
     id="defs82" />
  <sodipodi:namedview
     inkscape:current-layer="g3138"
     inkscape:window-maximized="1"
     inkscape:window-y="27"
     inkscape:window-x="0"
     inkscape:cy="-26.75"
     inkscape:cx="198.5"
     inkscape:zoom="2"
     showgrid="false"
     id="namedview80"
     inkscape:window-height="1376"
     inkscape:window-width="2560"
     inkscape:pageshadow="2"
     inkscape:pageopacity="0"
     guidetolerance="10"
     gridtolerance="10"
     objecttolerance="10"
     borderopacity="1"
     bordercolor="#666666"
     pagecolor="#ffffff"
     inkscape:pagecheckerboard="0" />
  <title
     id="title73">Shape</title>
  <g
     id="g3138"
     transform="translate(-0.02099085,-0.56899691)">
    <path
       id="rect1436"
       style="color:#000000;fill:#000000;stroke-width:8;stroke-linecap:round;-inkscape-stroke:none"
       d="M 36.269531 24.181641 C 27.474729 24.181641 20.269531 31.386838 20.269531 40.181641 L 20.269531 87.822266 C 20.269531 96.617066 27.474729 103.82227 36.269531 103.82227 L 91.722656 103.82227 C 100.51746 103.82227 107.72266 96.617066 107.72266 87.822266 L 107.72266 40.181641 C 107.72266 31.386838 100.51746 24.181641 91.722656 24.181641 L 36.269531 24.181641 z M 28.269531 48.457031 L 99.722656 48.457031 L 99.722656 87.822266 C 99.722656 92.32345 96.22384 95.822266 91.722656 95.822266 L 36.269531 95.822266 C 31.768346 95.822266 28.269531 92.32345 28.269531 87.822266 L 28.269531 48.457031 z "
       transform="matrix(0.125,0,0,0.125,0.02099085,-0.93100309)" />
  </g>
  <g
     id="g3144"
     transform="translate(-0.01006877,-0.38539648)">
    <rect
       style="fill:#000000;fill-opacity:1;stroke:none;stroke-width:1;stroke-linecap:round;stroke-miterlimit:4;stroke-dasharray:none;stroke-opacity:1"
       id="rect2742"
       width="1.0088432"
       height="2.791338"
       x="7.5056472"
       y="7.1886225"
       ry="0.5" />
    <rect
       style="fill:#000000;fill-opacity:1;stroke:none;stroke-width:1;stroke-linecap:round;stroke-miterlimit:4;stroke-dasharray:none;stroke-opacity:1"
       id="rect2824"
       width="1.029"
       height="1.029"
       x="7.4955688"
       y="5.6629376"
       ry="0.5" />
  </g>
</svg>
