<?xml version="1.0" encoding="UTF-8" standalone="no"?>
<svg
   xmlns:dc="http://purl.org/dc/elements/1.1/"
   xmlns:cc="http://creativecommons.org/ns#"
   xmlns:rdf="http://www.w3.org/1999/02/22-rdf-syntax-ns#"
   xmlns:svg="http://www.w3.org/2000/svg"
   xmlns="http://www.w3.org/2000/svg"
   xmlns:sodipodi="http://sodipodi.sourceforge.net/DTD/sodipodi-0.dtd"
   xmlns:inkscape="http://www.inkscape.org/namespaces/inkscape"
   viewBox="0 0 128 127.99999"
   id="svg2"
   version="1.1"
   inkscape:version="0.92.5 (2060ec1f9f, 2020-04-08)"
   sodipodi:docname="invalidate.svg"
   width="128"
   height="128">
  <metadata
     id="metadata68">
    <rdf:RDF>
      <cc:Work
         rdf:about="">
        <dc:format>image/svg+xml</dc:format>
        <dc:type
           rdf:resource="http://purl.org/dc/dcmitype/StillImage" />
        <dc:title>Zasób 44</dc:title>
      </cc:Work>
    </rdf:RDF>
  </metadata>
  <sodipodi:namedview
     pagecolor="#ffffff"
     bordercolor="#666666"
     borderopacity="1"
     objecttolerance="10"
     gridtolerance="10"
     guidetolerance="10"
     inkscape:pageopacity="0"
     inkscape:pageshadow="2"
     inkscape:window-width="2021"
     inkscape:window-height="1060"
     id="namedview66"
     showgrid="false"
     inkscape:zoom="4.4405852"
     inkscape:cx="-40.921425"
     inkscape:cy="43.322673"
     inkscape:window-x="3"
     inkscape:window-y="0"
     inkscape:window-maximized="0"
     inkscape:current-layer="svg2" />
  <defs
     id="defs4" />
  <path
     inkscape:connector-curvature="0"
     d="M 37.213585,23.999996 V 30.57763 34.028602 36.88085 42.306775 91.2482 H 39.794363 85.439041 89.15949 91.017652 104 V 23.999996 Z m 34.586559,14.327767 a 20.042366,20.180947 0 0 1 20.02271,20.156999 20.021224,20.159659 0 1 1 -20.02271,-20.156999 z m -6.425107,9.920503 -3.741096,3.766963 6.342521,6.386376 -6.342521,6.386376 3.741096,3.766965 6.342521,-6.386375 6.342521,6.386375 3.741097,-3.766965 -6.34252,-6.386376 6.34252,-6.386376 -3.741097,-3.766963 -6.342521,6.386376 z"
     id="polygon50" />
  <path
     transform="matrix(2.1141736,0,0,2.1287919,24,23.999996)"
     style=""
     d="M 1.41,37.58 5.3,33.69 H 4.66 l -3.89,3.89 z"
     id="polygon14" />
  <path
     transform="matrix(2.1141736,0,0,2.1287919,24,23.999996)"
     style=""
     d="M 0,30.89 4.26,26.62 V 25.98 L 0,30.24 Z"
     id="polygon16" />
  <path
     transform="matrix(2.1141736,0,0,2.1287919,24,23.999996)"
     style=""
     d="M 0,36.35 4.26,32.09 V 31.44 L 0,35.7 Z"
     id="polygon18" />
  <path
     transform="matrix(2.1141736,0,0,2.1287919,24,23.999996)"
     style=""
     d="M 0,33.61 4.26,29.35 V 28.7 L 0,32.96 Z"
     id="polygon20" />
  <path
     transform="matrix(2.1141736,0,0,2.1287919,24,23.999996)"
     style=""
     d="M 0,28.13 4.26,23.86 V 23.21 L 0,27.48 Z"
     id="polygon22" />
  <path
     transform="matrix(2.1141736,0,0,2.1287919,24,23.999996)"
     style=""
     d="M 0,25.67 4.26,21.41 V 20.76 L 0,25.02 Z"
     id="polygon24" />
  <path
     transform="matrix(2.1141736,0,0,2.1287919,24,23.999996)"
     style=""
     d="M 0,17.47 4.26,13.21 V 12.56 L 0,16.82 Z"
     id="polygon26" />
  <path
     transform="matrix(2.1141736,0,0,2.1287919,24,23.999996)"
     style=""
     d="M 0,6.6 0.8,5.8 H 0.15 L 0,5.95 Z"
     id="polygon28" />
  <path
     transform="matrix(2.1141736,0,0,2.1287919,24,23.999996)"
     style=""
     d="M 0,9.36 3.56,5.8 H 2.91 L 0,8.71 Z"
     id="polygon30" />
  <path
     transform="matrix(2.1141736,0,0,2.1287919,24,23.999996)"
     style=""
     d="M 0,14.83 4.26,10.56 V 9.92 L 0,14.18 Z"
     id="polygon32" />
  <path
     transform="matrix(2.1141736,0,0,2.1287919,24,23.999996)"
     style=""
     d="M 0,12.08 4.26,7.82 V 7.17 L 0,11.44 Z"
     id="polygon34" />
  <path
     transform="matrix(2.1141736,0,0,2.1287919,24,23.999996)"
     style=""
     d="M 0,20.23 4.26,15.97 V 15.32 L 0,19.59 Z"
     id="polygon36" />
  <path
     transform="matrix(2.1141736,0,0,2.1287919,24,23.999996)"
     style=""
     d="M 0,23 4.26,18.74 V 18.1 L 0,22.36 Z"
     id="polygon38" />
  <path
     transform="matrix(2.1141736,0,0,2.1287919,24,23.999996)"
     style=""
     d="m 25.61,37.58 3.89,-3.89 h -0.64 l -3.9,3.89 z"
     id="polygon40" />
  <path
     transform="matrix(2.1141736,0,0,2.1287919,24,23.999996)"
     style=""
     d="m 22.85,37.58 3.89,-3.89 H 26.1 l -3.9,3.89 z"
     id="polygon42" />
  <path
     transform="matrix(2.1141736,0,0,2.1287919,24,23.999996)"
     style=""
     d="m 4.17,37.58 3.9,-3.89 H 7.42 l -3.89,3.89 z"
     id="polygon44" />
  <path
     transform="matrix(2.1141736,0,0,2.1287919,24,23.999996)"
     style=""
     d="m 31.82,36.19 -1.39,1.39 h 0.65 l 0.74,-0.74 z"
     id="polygon46" />
  <path
     transform="matrix(2.1141736,0,0,2.1287919,24,23.999996)"
     style=""
     d="m 31.82,33.69 h -0.24 l -3.89,3.89 h 0.65 l 3.48,-3.48 z"
     id="polygon48" />
  <path
     transform="matrix(2.1141736,0,0,2.1287919,24,23.999996)"
     style=""
     d="m 20.2,37.58 3.9,-3.89 h -0.65 l -3.89,3.89 z"
     id="polygon52" />
  <path
     transform="matrix(2.1141736,0,0,2.1287919,24,23.999996)"
     style=""
     d="m 9.64,37.58 3.89,-3.89 h -0.65 l -3.89,3.89 z"
     id="polygon54" />
  <path
     transform="matrix(2.1141736,0,0,2.1287919,24,23.999996)"
     style=""
     d="m 6.9,37.58 3.89,-3.89 h -0.65 l -3.89,3.89 z"
     id="polygon56" />
  <path
     transform="matrix(2.1141736,0,0,2.1287919,24,23.999996)"
     style=""
     d="m 17.46,37.58 3.9,-3.89 h -0.65 l -3.89,3.89 z"
     id="polygon58" />
  <path
     transform="matrix(2.1141736,0,0,2.1287919,24,23.999996)"
     style=""
     d="m 14.74,37.58 3.89,-3.89 h -0.65 l -3.89,3.89 z"
     id="polygon60" />
  <path
     transform="matrix(2.1141736,0,0,2.1287919,24,23.999996)"
     style=""
     d="m 11.98,37.58 3.89,-3.89 h -0.65 l -3.89,3.89 z"
     id="polygon62" />
</svg>
