<?xml version="1.0" encoding="utf-8"?>
<!-- Generator: Adobe Illustrator 21.1.0, SVG Export Plug-In . SVG Version: 6.00 Build 0)  -->
<!DOCTYPE svg PUBLIC "-//W3C//DTD SVG 1.1//EN" "http://www.w3.org/Graphics/SVG/1.1/DTD/svg11.dtd">
<svg version="1.1"
	 id="svg12" inkscape:version="0.92.2 5c3e80d, 2017-08-06" sodipodi:docname="createnewspace.svg" xmlns:cc="http://creativecommons.org/ns#" xmlns:dc="http://purl.org/dc/elements/1.1/" xmlns:inkscape="http://www.inkscape.org/namespaces/inkscape" xmlns:rdf="http://www.w3.org/1999/02/22-rdf-syntax-ns#" xmlns:sodipodi="http://sodipodi.sourceforge.net/DTD/sodipodi-0.dtd" xmlns:svg="http://www.w3.org/2000/svg"
	 xmlns="http://www.w3.org/2000/svg" xmlns:xlink="http://www.w3.org/1999/xlink" x="0px" y="0px" width="128px" height="128px"
	 viewBox="0 0 128 128" enable-background="new 0 0 128 128" xml:space="preserve">
<g id="Warstwa_2" transform="matrix(2.5636008,0,0,2.5636008,24.7,24.7)" display="none">
	<g id="Warstwa_1-2" display="inline">
		<path id="path8" inkscape:connector-curvature="0" fill="#050505" d="M15.3,0C6.9,0,0,6.9,0,15.3s6.9,15.3,15.3,15.3
			s15.3-6.9,15.3-15.3S23.8,0,15.3,0C15.3,0,15.3,0,15.3,0z M24.6,17.2h-7.3v7.3h-3.9v-7.3H6.2v-3.9h7.2V6.1h3.9v7.2h7.3V17.2z"/>
	</g>
</g>
<path d="M64.3,24.7c-21.8,0-39.5,17.7-39.5,39.5s17.7,39.5,39.5,39.5s39.5-17.7,39.5-39.5S86.1,24.7,64.3,24.7z M69.3,68.5L63,74.9
	l1.2,1.2c1.4,1.4,1.4,3.6,0,5c-3.6,3.6-8.7,4.6-13.2,3.2L48.3,87c-1.1,1.1-2.6,1.7-4.2,1.7c-1.6,0-3.1-0.6-4.2-1.7
	c-1.1-1.1-1.7-2.6-1.7-4.2c0-1.6,0.6-3.1,1.7-4.2l2.8-2.8c-0.4-1.3-0.6-2.6-0.6-4c0-3.4,1.4-6.8,3.8-9.2l0,0c0.7-0.7,1.6-1,2.5-1
	c0.9,0,1.8,0.4,2.5,1l1.2,1.2l6.3-6.3c0.7-0.7,1.8-0.7,2.5,0c0.7,0.7,0.7,1.8,0,2.5l-6.3,6.3l6,6l6.3-6.3c0.7-0.7,1.8-0.7,2.5,0
	C70,66.7,70,67.8,69.3,68.5z M88.8,46.5L86,49.3c1.4,4.5,0.4,9.6-3.2,13.2c-1.4,1.4-3.6,1.4-5,0L64.5,49.1c-1.4-1.4-1.4-3.6,0-5
	c3.6-3.6,8.7-4.6,13.2-3.2l2.8-2.8c2.3-2.3,6.1-2.3,8.4,0C91.1,40.5,91.1,44.2,88.8,46.5z"/>
</svg>
