<?xml version="1.0" encoding="UTF-8" standalone="no"?>
<!-- Created with Inkscape (http://www.inkscape.org/) -->

<svg
   xmlns:dc="http://purl.org/dc/elements/1.1/"
   xmlns:cc="http://creativecommons.org/ns#"
   xmlns:rdf="http://www.w3.org/1999/02/22-rdf-syntax-ns#"
   xmlns:svg="http://www.w3.org/2000/svg"
   xmlns="http://www.w3.org/2000/svg"
   xmlns:sodipodi="http://sodipodi.sourceforge.net/DTD/sodipodi-0.dtd"
   xmlns:inkscape="http://www.inkscape.org/namespaces/inkscape"
   width="128"
   height="128"
   viewBox="0 0 33.866666 33.866668"
   version="1.1"
   id="svg8"
   inkscape:version="0.92.4 5da689c313, 2019-01-14"
   sodipodi:docname="light-bulb.svg">
  <defs
     id="defs2" />
  <sodipodi:namedview
     id="base"
     pagecolor="#ffffff"
     bordercolor="#666666"
     borderopacity="1.0"
     inkscape:pageopacity="0.0"
     inkscape:pageshadow="2"
     inkscape:zoom="2.8"
     inkscape:cx="147.26677"
     inkscape:cy="121.73467"
     inkscape:document-units="mm"
     inkscape:current-layer="layer1"
     showgrid="false"
     units="px"
     inkscape:window-width="1920"
     inkscape:window-height="1006"
     inkscape:window-x="0"
     inkscape:window-y="0"
     inkscape:window-maximized="1" />
  <metadata
     id="metadata5">
    <rdf:RDF>
      <cc:Work
         rdf:about="">
        <dc:format>image/svg+xml</dc:format>
        <dc:type
           rdf:resource="http://purl.org/dc/dcmitype/StillImage" />
        <dc:title></dc:title>
      </cc:Work>
    </rdf:RDF>
  </metadata>
  <g
     inkscape:label="Layer 1"
     inkscape:groupmode="layer"
     id="layer1"
     transform="translate(0,-263.13332)">
    <g
       id="Page-1"
       transform="matrix(0.72787142,0,0,0.72787142,6.6145834,270.24039)"
       style="fill:#000000;fill-rule:evenodd;stroke:none;stroke-width:1">
      <g
         transform="translate(-27,-723)"
         id="First-screen--Join-a-group-Copy-4"
         style="fill:#000000">
        <g
           transform="translate(-11)"
           id="Menu-Fix"
           style="fill:#000000">
          <g
             transform="translate(29,655)"
             id="Cluster"
             style="fill:#000000">
            <path
               id="Shape"
               d="m 12.286396,89.960859 1.817184,1.817184 2.306921,-2.319809 -1.817184,-1.817184 z M 21.887828,95 h 2.577566 V 91.198091 H 21.887828 Z M 12.866348,79.599045 H 9 v 2.577566 h 3.866348 z m 14.176611,-5.4 V 68 h -7.732697 v 6.199045 c -2.306921,1.340334 -3.866348,3.827685 -3.866348,6.688783 0,4.265871 3.466826,7.732697 7.732697,7.732697 4.265871,0 7.732697,-3.466826 7.732697,-7.732697 0,-2.861098 -1.559427,-5.348449 -3.866349,-6.688783 z m 6.443915,5.4 v 2.577566 h 3.866348 v -2.577566 z m -3.557041,9.872077 2.306921,2.319809 1.817184,-1.817184 -2.319809,-2.306921 z"
               inkscape:connector-curvature="0"
               style="fill:#000000" />
          </g>
        </g>
      </g>
    </g>
  </g>
</svg>
