<?xml version="1.0" encoding="UTF-8" standalone="no"?>
<!-- Generator: Adobe Illustrator 22.1.0, SVG Export Plug-In . SVG Version: 6.00 Build 0)  -->

<svg
   xmlns:dc="http://purl.org/dc/elements/1.1/"
   xmlns:cc="http://creativecommons.org/ns#"
   xmlns:rdf="http://www.w3.org/1999/02/22-rdf-syntax-ns#"
   xmlns:svg="http://www.w3.org/2000/svg"
   xmlns="http://www.w3.org/2000/svg"
   xmlns:sodipodi="http://sodipodi.sourceforge.net/DTD/sodipodi-0.dtd"
   xmlns:inkscape="http://www.inkscape.org/namespaces/inkscape"
   version="1.1"
   id="Layer_1"
   inkscape:version="0.92.5 (2060ec1f9f, 2020-04-08)"
   sodipodi:docname="link-external.svg"
   x="0px"
   y="0px"
   viewBox="0 0 128 128"
   enable-background="new 0 0 128 128"
   xml:space="preserve"><metadata
   id="metadata712"><rdf:RDF><cc:Work
       rdf:about=""><dc:format>image/svg+xml</dc:format><dc:type
         rdf:resource="http://purl.org/dc/dcmitype/StillImage" /></cc:Work></rdf:RDF></metadata><defs
   id="defs710">
	
	
</defs><sodipodi:namedview
   pagecolor="#ffffff"
   bordercolor="#666666"
   borderopacity="1"
   objecttolerance="10"
   gridtolerance="10"
   guidetolerance="10"
   inkscape:pageopacity="0"
   inkscape:pageshadow="2"
   inkscape:window-width="640"
   inkscape:window-height="480"
   id="namedview708"
   showgrid="false"
   inkscape:zoom="1.6918082"
   inkscape:cx="-250.72911"
   inkscape:cy="-69.955314"
   inkscape:current-layer="Layer_1" />
<path
   inkscape:connector-curvature="0"
   id="path701"
   d="m 89.5,70.8 h -3.3 c -0.5,0 -0.9,0.2 -1.2,0.5 -0.3,0.3 -0.5,0.7 -0.5,1.2 v 16.4 c 0,2.3 -0.8,4.2 -2.4,5.8 -1.6,1.6 -3.5,2.4 -5.8,2.4 H 33.7 c -2.3,0 -4.2,-0.8 -5.8,-2.4 -1.6,-1.6 -2.4,-3.5 -2.4,-5.8 V 46.3 c 0,-2.3 0.8,-4.2 2.4,-5.8 1.6,-1.6 3.5,-2.4 5.8,-2.4 h 36.1 c 0.5,0 0.9,-0.2 1.2,-0.5 0.3,-0.3 0.5,-0.7 0.5,-1.2 v -3.3 c 0,-0.5 -0.2,-0.9 -0.5,-1.2 -0.3,-0.3 -0.7,-0.5 -1.2,-0.5 H 33.7 c -4.1,0 -7.5,1.4 -10.4,4.3 -2.9,2.9 -4.3,6.4 -4.3,10.4 v 42.6 c 0,4.1 1.4,7.5 4.3,10.4 2.9,2.9 6.4,4.3 10.4,4.3 h 42.6 c 4.1,0 7.5,-1.4 10.4,-4.3 C 89.6,96.2 91,92.7 91,88.7 V 72.5 C 91,72 90.8,71.6 90.5,71.3 90.3,71 89.9,70.8 89.5,70.8 Z m 0,0" /><path
   inkscape:connector-curvature="0"
   id="path703"
   d="m 109.8,25.9 c -0.7,-0.6 -1.4,-1 -2.3,-1 H 81.3 c -0.9,0 -1.7,0.3 -2.3,1 -0.7,0.6 -1,1.4 -1,2.3 0,0.9 0.3,1.7 1,2.3 l 9,9 -33.4,33.4 c -0.3,0.3 -0.5,0.7 -0.5,1.2 0,0.4 0.2,0.8 0.5,1.2 l 5.8,5.8 c 0.3,0.3 0.7,0.5 1.2,0.5 0.4,0 0.8,-0.2 1.2,-0.5 l 33.4,-33.4 9,9 c 0.6,0.6 1.4,1 2.3,1 0.9,0 1.7,-0.3 2.3,-1 0.6,-0.6 1,-1.4 1,-2.3 V 28.2 c 0,-0.9 -0.4,-1.6 -1,-2.3 z m 0,0" />
</svg>