<?xml version="1.0" encoding="UTF-8" standalone="no"?>
<!-- Generator: Adobe Illustrator 20.1.0, SVG Export Plug-In . SVG Version: 6.00 Build 0)  -->

<svg
   xmlns:ns="&amp;ns_sfw;"
   xmlns:dc="http://purl.org/dc/elements/1.1/"
   xmlns:cc="http://creativecommons.org/ns#"
   xmlns:rdf="http://www.w3.org/1999/02/22-rdf-syntax-ns#"
   xmlns:svg="http://www.w3.org/2000/svg"
   xmlns="http://www.w3.org/2000/svg"
   xmlns:sodipodi="http://sodipodi.sourceforge.net/DTD/sodipodi-0.dtd"
   xmlns:inkscape="http://www.inkscape.org/namespaces/inkscape"
   version="1.1"
   id="Warstwa_1"
   x="0px"
   y="0px"
   viewBox="0 0 128 128"
   xml:space="preserve"
   inkscape:version="0.91 r13725"
   sodipodi:docname="logout.svg"
   width="128"
   height="128"><defs
     id="defs13" /><sodipodi:namedview
     pagecolor="#ffffff"
     bordercolor="#666666"
     borderopacity="1"
     objecttolerance="10"
     gridtolerance="10"
     guidetolerance="10"
     inkscape:pageopacity="0"
     inkscape:pageshadow="2"
     inkscape:window-width="1368"
     inkscape:window-height="639"
     id="namedview11"
     showgrid="false"
     inkscape:zoom="2"
     inkscape:cx="49.099998"
     inkscape:cy="76.348247"
     inkscape:window-x="2054"
     inkscape:window-y="459"
     inkscape:window-maximized="0"
     inkscape:current-layer="Warstwa_1" /><metadata
     id="metadata3"><ns:sfw><ns:slices /><ns:sliceSourceBounds
         bottomLeftOrigin="true"
         height="96"
         width="98.2"
         x="110"
         y="192" /></ns:sfw><rdf:RDF><cc:Work
         rdf:about=""><dc:format>image/svg+xml</dc:format><dc:type
           rdf:resource="http://purl.org/dc/dcmitype/StillImage" /><dc:title></dc:title></cc:Work></rdf:RDF></metadata><g
     id="g5"
     transform="matrix(0.90835031,0,0,0.90835031,33.230508,24.471828)"><path
       d="m 59.2,63.2 c 0,1.4 -1,2.4 -2.4,2.4 l -14.2,0 0,-40.7 c 0,-1.8 -1,-3.4 -2.6,-4.2 l -21.5,-11 38.2,0 c 1.4,0 2.4,1 2.4,2.4 l 0,9.4 9.6,0 0,-0.1 0,-16.6 C 68.8,2.2 66.6,0 64,0 L 4.8,0 C 2.2,0 0,2.2 0,4.8 l 0,67.8 c 0,1.8 1,3.4 2.6,4.2 l 36.4,19 c 1.6,0.8 3.5,-0.3 3.5,-2.2 l 0,-18.4 21.5,0 c 2.6,0 4.8,-2.2 4.8,-4.8 l 0,-26.2 -9.6,0 0,19 z"
       id="path7"
       inkscape:connector-curvature="0" /><path
       d="M 96.7,29.1 81.1,13.5 c -2,-2 -5.1,-2.1 -7,-0.2 -1.9,1.8 -1.7,5.1 0.2,7 0.1,0 7,7 7,7 l -27.3,0 c -0.8,0 -1.7,0.2 -2.4,0.6 -2.9,1.6 -3.4,5.8 -1.2,8.2 0.9,1 2.2,1.6 3.6,1.6 l 27.3,0 -7,7 c -1.8,1.9 -2.1,5.1 -0.2,7 2,2 5,1.9 7,-0.1 L 96.7,36 c 2,-1.9 2,-4.9 0,-6.9 z"
       id="path9"
       inkscape:connector-curvature="0" /></g></svg>