<?xml version="1.0" encoding="UTF-8" standalone="no"?>
<svg
   xmlns:dc="http://purl.org/dc/elements/1.1/"
   xmlns:cc="http://creativecommons.org/ns#"
   xmlns:rdf="http://www.w3.org/1999/02/22-rdf-syntax-ns#"
   xmlns:svg="http://www.w3.org/2000/svg"
   xmlns="http://www.w3.org/2000/svg"
   xmlns:sodipodi="http://sodipodi.sourceforge.net/DTD/sodipodi-0.dtd"
   xmlns:inkscape="http://www.inkscape.org/namespaces/inkscape"
   viewBox="0 0 128 128"
   version="1.1"
   id="svg60"
   sodipodi:docname="Zasób 39.svg"
   width="128"
   height="128"
   inkscape:version="0.92.2 5c3e80d, 2017-08-06">
  <metadata
     id="metadata64">
    <rdf:RDF>
      <cc:Work
         rdf:about="">
        <dc:format>image/svg+xml</dc:format>
        <dc:type
           rdf:resource="http://purl.org/dc/dcmitype/StillImage" />
        <dc:title>Zasób 39</dc:title>
      </cc:Work>
    </rdf:RDF>
  </metadata>
  <sodipodi:namedview
     pagecolor="#ffffff"
     bordercolor="#666666"
     borderopacity="1"
     objecttolerance="10"
     gridtolerance="10"
     guidetolerance="10"
     inkscape:pageopacity="0"
     inkscape:pageshadow="2"
     inkscape:window-width="1920"
     inkscape:window-height="1019"
     id="namedview62"
     showgrid="false"
     inkscape:zoom="1.7101449"
     inkscape:cx="70.731982"
     inkscape:cy="97.078955"
     inkscape:window-x="0"
     inkscape:window-y="0"
     inkscape:window-maximized="1"
     inkscape:current-layer="svg60" />
  <defs
     id="defs4">
    <style
       id="style2">.cls-1{fill:#5c5c5c;}</style>
  </defs>
  <title
     id="title6">Zasób 39</title>
  <g
     id="Warstwa_2-3"
     data-name="Warstwa 2"
     transform="matrix(2.3188406,0,0,2.3188406,24,24)"
     style="fill:#000000">
    <g
       id="Warstwa_1-2-6"
       data-name="Warstwa 1"
       style="fill:#000000">
      <path
         class="cls-1"
         d="M 5.92,0 V 13.39 A 9.91,9.91 0 0 1 12,11.61 V 8 l 8.61,6.14 -8.61,6.1 v -3.61 c -2.16,0 -4.22,0.07 -6.12,1.32 V 28.78 H 34.5 V 0 Z"
         id="path8-7"
         inkscape:connector-curvature="0"
         style="fill:#000000" />
      <path
         class="cls-1"
         d="m 3.33,18.15 q 0.09,-0.4 0.22,-0.79 L 3.88,16.31 0,20.21 v 1.35 l 3.31,-3.34 z"
         id="path10-3"
         inkscape:connector-curvature="0"
         style="fill:#000000" />
      <path
         class="cls-1"
         d="m 3,20.94 c 0,-0.19 0,-0.4 0,-0.61 v -0.71 l -3,3.09 v 1.35 l 3,-3 z"
         id="path12-5"
         inkscape:connector-curvature="0"
         style="fill:#000000" />
      <polygon
         class="cls-1"
         points="5.71,30.42 4.37,30.42 0.32,34.5 1.66,34.5 "
         id="polygon14-6"
         style="fill:#000000" />
      <polygon
         class="cls-1"
         points="4.39,23.01 0.08,27.35 0,27.43 0,28.78 4.31,24.44 4.39,24.36 "
         id="polygon16-7"
         style="fill:#000000" />
      <polygon
         class="cls-1"
         points="4.39,27.99 0.08,32.33 0,32.41 0,33.76 4.31,29.41 4.39,29.34 "
         id="polygon18-5"
         style="fill:#000000" />
      <polygon
         class="cls-1"
         points="4.39,25.49 0.08,29.83 0,29.91 0,31.26 4.31,26.92 4.39,26.84 "
         id="polygon20-3"
         style="fill:#000000" />
      <polygon
         class="cls-1"
         points="4.39,20.5 0.08,24.84 0,24.92 0,26.27 4.31,21.92 4.39,21.85 "
         id="polygon22-5"
         style="fill:#000000" />
      <polygon
         class="cls-1"
         points="4.39,12.14 4.39,10.79 0,15.21 0,16.56 "
         id="polygon24-6"
         style="fill:#000000" />
      <polygon
         class="cls-1"
         points="1.63,5.01 0.29,5.01 0,5.31 0,6.66 "
         id="polygon26-2"
         style="fill:#000000" />
      <polygon
         class="cls-1"
         points="4.13,5.01 2.79,5.01 0,7.83 0,9.18 "
         id="polygon28-9"
         style="fill:#000000" />
      <polygon
         class="cls-1"
         points="4.39,9.73 4.39,8.38 0,12.8 0,14.15 "
         id="polygon30-1"
         style="fill:#000000" />
      <polygon
         class="cls-1"
         points="4.39,7.24 4.39,5.89 0,10.31 0,11.65 "
         id="polygon32-2"
         style="fill:#000000" />
      <polygon
         class="cls-1"
         points="4.39,14.66 4.39,13.31 0,17.73 0,19.08 "
         id="polygon34-7"
         style="fill:#000000" />
      <polygon
         class="cls-1"
         points="27.6,30.42 26.26,30.42 22.21,34.5 23.55,34.5 "
         id="polygon36-0"
         style="fill:#000000" />
      <polygon
         class="cls-1"
         points="25.1,30.42 23.77,30.42 19.71,34.5 21.05,34.5 "
         id="polygon38-9"
         style="fill:#000000" />
      <polygon
         class="cls-1"
         points="8.21,30.42 6.87,30.42 2.81,34.5 4.16,34.5 "
         id="polygon40-3"
         style="fill:#000000" />
      <polygon
         class="cls-1"
         points="27.16,34.5 28.49,34.5 29.32,33.66 29.32,32.32 "
         id="polygon42-6"
         style="fill:#000000" />
      <polygon
         class="cls-1"
         points="24.67,34.5 26.01,34.5 29.32,31.17 29.32,30.42 28.73,30.42 "
         id="polygon44-0"
         style="fill:#000000" />
      <polygon
         class="cls-1"
         points="22.71,30.42 21.37,30.42 17.32,34.5 18.66,34.5 "
         id="polygon46-6"
         style="fill:#000000" />
      <polygon
         class="cls-1"
         points="13.15,30.42 11.81,30.42 7.76,34.5 9.1,34.5 "
         id="polygon48-2"
         style="fill:#000000" />
      <polygon
         class="cls-1"
         points="10.67,30.42 9.33,30.42 5.28,34.5 6.62,34.5 "
         id="polygon50-6"
         style="fill:#000000" />
      <polygon
         class="cls-1"
         points="20.23,30.42 18.89,30.42 14.84,34.5 16.18,34.5 "
         id="polygon52-1"
         style="fill:#000000" />
      <polygon
         class="cls-1"
         points="17.77,30.42 16.43,30.42 12.38,34.5 13.71,34.5 "
         id="polygon54-8"
         style="fill:#000000" />
      <polygon
         class="cls-1"
         points="15.27,30.42 13.93,30.42 9.88,34.5 11.22,34.5 "
         id="polygon56-7"
         style="fill:#000000" />
    </g>
  </g>
</svg>
