<?xml version="1.0" encoding="UTF-8" standalone="no"?>
<!-- Generator: Adobe Illustrator 19.2.1, SVG Export Plug-In . SVG Version: 6.00 Build 0)  -->

<svg
   xmlns:dc="http://purl.org/dc/elements/1.1/"
   xmlns:cc="http://creativecommons.org/ns#"
   xmlns:rdf="http://www.w3.org/1999/02/22-rdf-syntax-ns#"
   xmlns:svg="http://www.w3.org/2000/svg"
   xmlns="http://www.w3.org/2000/svg"
   xmlns:sodipodi="http://sodipodi.sourceforge.net/DTD/sodipodi-0.dtd"
   xmlns:inkscape="http://www.inkscape.org/namespaces/inkscape"
   version="1.1"
   id="Layer_1"
   inkscape:version="0.92.3 (2405546, 2018-03-11)"
   sodipodi:docname="move-down.svg"
   x="0px"
   y="0px"
   width="128px"
   height="128px"
   viewBox="0 0 128 128"
   enable-background="new 0 0 128 128"
   xml:space="preserve"><metadata
   id="metadata56"><rdf:RDF><cc:Work
       rdf:about=""><dc:format>image/svg+xml</dc:format><dc:type
         rdf:resource="http://purl.org/dc/dcmitype/StillImage" /></cc:Work></rdf:RDF></metadata><defs
   id="defs54" /><sodipodi:namedview
   pagecolor="#ffffff"
   bordercolor="#666666"
   borderopacity="1"
   objecttolerance="10"
   gridtolerance="10"
   guidetolerance="10"
   inkscape:pageopacity="0"
   inkscape:pageshadow="2"
   inkscape:window-width="2560"
   inkscape:window-height="1414"
   id="namedview52"
   showgrid="false"
   showguides="true"
   inkscape:guide-bbox="true"
   inkscape:zoom="2.6074563"
   inkscape:cx="-108.41116"
   inkscape:cy="76.343985"
   inkscape:window-x="0"
   inkscape:window-y="0"
   inkscape:window-maximized="1"
   inkscape:current-layer="g49" />
<g
   id="g2990"
   transform="matrix(2.9266757,0,0,2.9266757,-6640.1412,-477.24768)"
   display="none">
	<path
   id="path3"
   inkscape:connector-curvature="0"
   display="inline"
   d="M2301,195.6l-5.7-4.1h7l2.1-6.6l2.2,6.6h3.9   c0.5-1,0.7-2.1,0.7-3.2c0.1-4.1-3.3-7.4-7.4-7.4c0-0.1,0-0.2,0-0.3c0-5.9-4.7-10.6-10.6-10.6c-4.2,0-7.9,2.5-9.6,6   c-0.8-0.3-1.6-0.6-2.5-0.6c-2.7,0-4.9,2-5.4,4.6c-3.2,1.1-5.5,4.2-5.5,7.7c0,4.5,3.7,8.2,8.2,8.2h22.5L2301,195.6L2301,195.6z" />
	<g
   id="g5"
   transform="translate(0.09999974,-0.1)"
   display="inline">
		<polygon
   id="polygon7"
   points="2304.5,188.2 2305.9,192.7 2310.6,192.7 2306.8,195.4 2308.3,199.9 2304.5,197.1 2300.7,199.9     2302.2,195.4 2298.3,192.7 2303.1,192.7   " />
	</g>
</g>
<path
   display="none"
   d="M102.2,52.3c0-0.4,0-0.6,0-1c0-17.2-13.8-30.9-30.9-30.9c-12.4,0-22.9,7.2-27.9,17.6c-2.2-1-4.6-1.8-7.2-1.8  c-8,0-14.4,5.8-15.8,13.4C11,52.7,4.3,61.7,4.3,72.1C4.3,85.2,15,96,28.2,96h74l0,0c12,0,21.7-9.8,21.7-21.9  C124.1,62.1,114.4,52.3,102.2,52.3z"
   id="path6" />
<path
   display="none"
   d="M101.9,52.4c0-0.4,0-0.6,0-1c0-17-13.7-30.7-30.7-30.7c-12.3,0-22.8,7.1-27.7,17.4c-2.2-1-4.6-1.8-7.1-1.8  c-7.9,0-14.3,5.7-15.6,13.3c-9.3,3.2-16,12.1-16,22.4c0,13.1,10.7,23.8,23.8,23.8h73.4l0,0c11.9,0,21.6-9.7,21.6-21.8  C123.7,62.1,114,52.4,101.9,52.4z M64.3,82c-9.9,0-17.8-7.9-17.8-17.8s7.9-17.8,17.8-17.8v-5.9L79.1,49l-14.8,8.5v-7.3  c-7.7,0-13.9,6.1-13.9,13.9s6.1,13.9,13.9,13.9S78.2,71.8,78.2,64h4C82.1,73.9,74,82,64.3,82z"
   id="path8" />
<path
   display="none"
   d="M102.3,52.4c0-0.4,0-0.6,0-1c0-17.1-13.7-30.7-30.7-30.7c-12.3,0-22.8,7.1-27.8,17.4c-2.2-1-4.6-1.8-7.1-1.8  c-7.9,0-14.3,5.7-15.7,13.3C11.6,52.8,4.9,61.7,4.9,72c0,13.1,10.7,23.8,23.8,23.8h16.1h7.7h11.9V61.5L50.1,75.8L47.3,73l19-19  l19,19l-2.8,2.8L68.4,61.5V96h11.9h5.2h16.7l0,0c11.9,0,21.6-9.7,21.6-21.8C124.1,62.1,114.4,52.4,102.3,52.4z"
   id="path10" />
<path
   display="none"
   d="M102.4,53.3c0-0.4,0-0.6,0-1c0-17.1-13.7-30.7-30.7-30.7c-12.3,0-22.8,7.1-27.8,17.5c-2.2-1-4.6-1.8-7.1-1.8  c-7.9,0-14.3,5.8-15.7,13.3C11.7,53.7,5,62.6,5,72.9C5,86,15.7,96.7,28.8,96.7h73.6c11.9,0,21.6-9.7,21.6-21.8  C124.2,63,114.5,53.3,102.4,53.3z M83.4,67.3H68.7v14.8h-4.1V67.3H49.9v-4.1h14.7V48.5h4.1v14.8h14.8V67.3z"
   id="path12" />
<path
   display="none"
   fill="#050505"
   d="M71.7,25.6c14.7,0,26.7,12.1,26.7,26.7v0.2c0,0.2,0,0.4,0,0.6l-0.2,4h4  c9.7,0,17.8,8.1,17.8,17.8s-7.9,17.8-17.8,17.8h-0.8H28.9C18,92.7,9.1,83.8,9.1,72.9c0-8.5,5.3-16,13.5-18.8l2.2-0.8l0.4-2.4  c1-5.7,5.9-9.9,11.7-9.9c1.8,0,3.6,0.4,5.3,1.2l3.6,1.8l1.8-3.6C51.9,31.5,61.4,25.6,71.7,25.6 M71.7,21.6  C59.4,21.6,48.9,28.7,44,39c-2.2-1-4.6-1.8-7.1-1.8c-7.9,0-14.3,5.7-15.7,13.3c-9.3,3.2-16,12.1-16,22.4c0,13.1,10.7,23.8,23.8,23.8  h73.5l0,0c11.9,0,21.6-9.7,21.6-21.8s-9.7-21.8-21.8-21.8c0-0.4,0-0.6,0-1C102.4,35.3,88.6,21.6,71.7,21.6L71.7,21.6z"
   id="path14" />
<g
   display="none"
   id="g24">
	<path
   display="inline"
   d="M64,54.3c20.1,0,33.9-7.7,33.9-14.6S84.1,25.1,64,25.1s-33.9,7.7-33.9,14.6S43.9,54.3,64,54.3z"
   id="path16" />
	<path
   display="inline"
   d="M30.1,79.4v5.7v3.2c0,6.9,13.9,14.6,33.9,14.6s33.9-7.7,33.9-14.6v-3.4v-5.8C92.1,85.3,79.2,89.6,64,89.6   S35.8,85.6,30.1,79.4z"
   id="path18" />
	<path
   display="inline"
   d="M30.1,63.2v3.5v5.5c0,6.9,13.9,14.6,33.9,14.6s33.9-7.7,33.9-14.6v-8.9C92.1,69.5,79.2,73.8,64,73.8   S35.8,69.4,30.1,63.2z"
   id="path20" />
	<path
   display="inline"
   d="M30.1,47.1V56c0,6.9,13.9,14.6,33.9,14.6S97.9,62.9,97.9,56v-8.9C92.1,53.3,79.2,57.6,64,57.6   S35.8,53.3,30.1,47.1z"
   id="path22" />
</g>
<g
   id="g3"
   transform="matrix(1.0191083,0,0,1.0191083,-0.6114656,0.50955353)"
   display="none">
	<g
   id="g5_1_"
   display="inline">
		<polygon
   id="polygon7_1_"
   points="100.2,105 87.4,114.3 92.3,99.4 79.6,90.1 95.4,90.1 100.2,75.1 105.1,90.1 120.9,90.1     108.2,99.4 113.1,114.3   " />
	</g>
	<g
   id="g9"
   transform="translate(6.0837499e-7,-0.49999939)"
   display="inline">
		<path
   id="path11"
   inkscape:connector-curvature="0"
   d="M63.2,53.1c19.7,0,33.4-7.6,33.4-14.4S82.9,24.4,63.2,24.4    S29.8,32,29.8,38.8S43.4,53.1,63.2,53.1z" />
		<path
   id="path13"
   inkscape:connector-curvature="0"
   d="M90.6,86.7l1.9-5.7c-3.9,2.5-9.1,4.5-15.4,5.7    C77.1,86.7,90.6,86.7,90.6,86.7z" />
		<path
   id="path15"
   inkscape:connector-curvature="0"
   d="M63.2,85.1c14.7,0,26-4.2,30.9-9.1l2.5-7.8v-6.1    c-5.7,6.1-18.4,10.3-33.4,10.3s-27.8-4.5-33.4-10.6v3.5v5.4C29.8,77.5,43.4,85.1,63.2,85.1z" />
		<path
   id="path17"
   inkscape:connector-curvature="0"
   d="M63.2,69.1c19.7,0,33.4-7.6,33.4-14.4V46c-5.7,6.1-18.4,10.3-33.4,10.3    S35.5,52.1,29.8,46v8.7C29.8,61.5,43.4,69.1,63.2,69.1z" />
		<path
   id="path19"
   inkscape:connector-curvature="0"
   d="M71.9,87.5c-2.8,0.3-5.7,0.4-8.7,0.4c-15,0-27.7-4.1-33.4-10.2v5.7v3.2    c0,6.8,13.6,14.4,33.4,14.4c8.9,0,16.6-1.6,22.4-3.9C85.5,97.1,71.9,87.5,71.9,87.5z" />
	</g>
</g>
<g
   display="none"
   id="g43">
	<g
   display="inline"
   id="g37">
		<path
   d="M97,38.1l-4.4-4.4c-2.7-2.7-6.9-2.7-9.6,0l-1.7,1.7l13.9,13.9l1.7-1.7C99.7,45,99.7,40.7,97,38.1L97,38.1z M97,38.1"
   id="path35" />
	</g>
	<path
   display="inline"
   d="M78,38.8L39.3,77.5l13.9,13.9L92,52.7l0.2-0.2L78.3,38.5L78,38.8z M78,38.8"
   id="path39" />
	<path
   display="inline"
   d="M29,101.7l21.2-6.9L35.9,80.5L29,101.7z M45.2,93.6l-6.9,2.3l-3.4-3.4l2.2-6.9L45.2,93.6z M45.2,93.6"
   id="path41" />
</g>
<path
   display="none"
   fill="#050505"
   d="M101.5,98.9L79.1,76.4c4.5-5.5,7.3-12.4,7.3-20C86.3,39,72.3,25,54.9,25S23.5,39,23.5,56.4  s14,31.4,31.4,31.4c7.6,0,14.5-2.6,20-7.3L97.4,103L101.5,98.9z M26.9,56.2c0-15.5,12.6-28.1,28.1-28.1S83,40.7,83,56.2  S70.5,84.3,54.9,84.3S26.9,71.8,26.9,56.2z"
   id="path45" />
<g
   id="g49">
	<path
   style="fill:#050505;stroke-width:0.87349683"
   d="M 69.857253,83.94777 69.587485,24.9 57.795329,24.921949 58.065095,83.969719 34.372382,60.3186 26.040898,68.856707 64.047147,103.1 101.9591,68.586916 93.594896,60.079937 Z"
   id="polygon47"
   inkscape:connector-curvature="0"
   sodipodi:nodetypes="cccccccccc" />
</g>
</svg>