<?xml version="1.0" encoding="UTF-8" standalone="no"?>
<!-- Generator: Adobe Illustrator 21.0.0, SVG Export Plug-In . SVG Version: 6.00 Build 0)  -->

<svg
   xmlns:dc="http://purl.org/dc/elements/1.1/"
   xmlns:cc="http://creativecommons.org/ns#"
   xmlns:rdf="http://www.w3.org/1999/02/22-rdf-syntax-ns#"
   xmlns:svg="http://www.w3.org/2000/svg"
   xmlns="http://www.w3.org/2000/svg"
   xmlns:sodipodi="http://sodipodi.sourceforge.net/DTD/sodipodi-0.dtd"
   xmlns:inkscape="http://www.inkscape.org/namespaces/inkscape"
   version="1.1"
   id="Warstwa_1"
   x="0px"
   y="0px"
   width="128"
   height="128"
   viewBox="0 0 128 128"
   xml:space="preserve"
   inkscape:version="0.91 r13725"
   sodipodi:docname="onepanel-logo.svg"><metadata
     id="metadata43"><rdf:RDF><cc:Work
         rdf:about=""><dc:format>image/svg+xml</dc:format><dc:type
           rdf:resource="http://purl.org/dc/dcmitype/StillImage" /><dc:title></dc:title></cc:Work></rdf:RDF></metadata><defs
     id="defs41" /><sodipodi:namedview
     pagecolor="#ffffff"
     bordercolor="#666666"
     borderopacity="1"
     objecttolerance="10"
     gridtolerance="10"
     guidetolerance="10"
     inkscape:pageopacity="0"
     inkscape:pageshadow="2"
     inkscape:window-width="966"
     inkscape:window-height="480"
     id="namedview39"
     showgrid="false"
     inkscape:zoom="1"
     inkscape:cx="32.667091"
     inkscape:cy="36.299999"
     inkscape:window-x="624"
     inkscape:window-y="354"
     inkscape:window-maximized="0"
     inkscape:current-layer="Warstwa_1" /><style
     type="text/css"
     id="style3">
	.st0{fill:#1E1E1C;}
	.st1{fill:#595959;}
	.st2{fill:#E84040;}
</style><g
     id="g23"
     transform="matrix(1.4277974,0,0,1.4277974,-4.2158234,-1.4645086)"
     style="fill:#000000"><g
       id="g25"
       style="fill:#000000"><path
         class="st1"
         d="M 45.4,39.8 23.2,62 c -0.8,0.8 -1.2,1.8 -1.2,3 0,1.2 0.4,2.2 1.2,2.9 l 3.5,3.5 c 0.8,0.8 1.8,1.2 3,1.2 1.2,0 2.1,-0.4 2.9,-1.2 L 54.9,49.1 c -2.1,-0.8 -4,-2.1 -5.7,-3.7 -1.7,-1.6 -2.9,-3.5 -3.8,-5.6 l 0,0 z M 33.2,64.3 c -0.4,0.4 -0.9,0.6 -1.5,0.6 -0.6,0 -1.1,-0.2 -1.5,-0.6 -0.4,-0.4 -0.6,-0.9 -0.6,-1.5 0,-0.6 0.2,-1.1 0.6,-1.5 0.4,-0.4 0.9,-0.6 1.5,-0.6 0.6,0 1.1,0.2 1.5,0.6 0.4,0.4 0.6,0.9 0.6,1.5 0,0.6 -0.2,1.1 -0.6,1.5 l 0,0 z m 0,0"
         id="path27"
         inkscape:connector-curvature="0"
         style="fill:#000000" /><path
         class="st2"
         d="m 75.2,34.1 c -0.2,-0.2 -0.4,-0.3 -0.8,-0.3 -0.2,0 -1,0.4 -2.3,1.2 -1.3,0.8 -2.8,1.7 -4.4,2.6 -1.6,1 -2.5,1.5 -2.6,1.6 l -6.3,-3.5 0,-7.3 9.6,-5.5 c 0.3,-0.2 0.5,-0.5 0.5,-0.9 0,-0.4 -0.2,-0.7 -0.5,-0.9 -1,-0.7 -2.1,-1.2 -3.5,-1.5 -1.4,-0.4 -2.7,-0.5 -4,-0.5 -4,0 -7.5,1.4 -10.3,4.3 -2.9,2.9 -4.3,6.3 -4.3,10.3 0,4 1.4,7.5 4.3,10.3 2.9,2.9 6.3,4.3 10.3,4.3 3.1,0 5.9,-0.9 8.4,-2.7 2.6,-1.8 4.3,-4.2 5.4,-7.1 0.5,-1.5 0.7,-2.6 0.7,-3.5 0.1,-0.4 0,-0.6 -0.2,-0.9 l 0,0 z m 0,0"
         id="path29"
         inkscape:connector-curvature="0"
         style="fill:#000000" /></g></g></svg>