<?xml version="1.0" encoding="UTF-8" standalone="no"?>
<!-- Generator: Adobe Illustrator 22.1.0, SVG Export Plug-In . SVG Version: 6.00 Build 0)  -->

<svg
   xmlns:dc="http://purl.org/dc/elements/1.1/"
   xmlns:cc="http://creativecommons.org/ns#"
   xmlns:rdf="http://www.w3.org/1999/02/22-rdf-syntax-ns#"
   xmlns:svg="http://www.w3.org/2000/svg"
   xmlns="http://www.w3.org/2000/svg"
   xmlns:sodipodi="http://sodipodi.sourceforge.net/DTD/sodipodi-0.dtd"
   xmlns:inkscape="http://www.inkscape.org/namespaces/inkscape"
   version="1.1"
   id="Warstwa_1"
   x="0px"
   y="0px"
   viewBox="0 0 128 128"
   enable-background="new 0 0 14.4 26.2"
   xml:space="preserve"
   sodipodi:docname="close.svg"
   width="128"
   height="128"
   inkscape:version="0.92.2 2405546, 2018-03-11"><metadata
   id="metadata11"><rdf:RDF><cc:Work
       rdf:about=""><dc:format>image/svg+xml</dc:format><dc:type
         rdf:resource="http://purl.org/dc/dcmitype/StillImage" /><dc:title></dc:title></cc:Work></rdf:RDF></metadata><defs
   id="defs9" /><sodipodi:namedview
   pagecolor="#ffffff"
   bordercolor="#666666"
   borderopacity="1"
   objecttolerance="10"
   gridtolerance="10"
   guidetolerance="10"
   inkscape:pageopacity="0"
   inkscape:pageshadow="2"
   inkscape:window-width="1920"
   inkscape:window-height="1015"
   id="namedview7"
   showgrid="false"
   inkscape:zoom="4.5038167"
   inkscape:cx="13.099046"
   inkscape:cy="65.574141"
   inkscape:window-x="0"
   inkscape:window-y="0"
   inkscape:window-maximized="1"
   inkscape:current-layer="Warstwa_1" />
<g
   id="g4"
   transform="matrix(3.4220532,0,0,3.4220532,39.53232,19)">
	<path
   d="M 11.4,13.7 C 12.7,12.3 13.2,10.3 12.5,8.5 12,7.2 11,6.1 9.8,5.6 9.8,5.3 9.9,5.1 9.9,4.8 9.8,2.1 7.7,0 5.1,0 2.5,0 0.4,2.1 0.4,4.8 c 0,1 0.3,1.9 0.8,2.7 -0.7,0.8 -1.2,2 -1.2,3.2 0,2 1.1,3.7 2.8,4.6 v 2.3 c 0,0 1.8,0.1 1.8,1.3 0,0.8 -0.9,1.1 -1.5,1.4 -0.2,0.1 -0.8,0.4 0,0.8 0.4,0.2 1.4,0.5 1.4,1.5 0,1 -1.7,1.5 -1.7,1.5 L 5,26.3 7.4,24 v -8 l 0.5,1.4 c 0,0 1.7,-0.5 2.1,0.5 0.3,0.7 -0.5,1.3 -0.9,1.8 -0.1,0.3 -0.5,0.8 0.3,0.9 0.5,0.1 1.5,-0.1 1.8,0.9 0.3,0.9 -1.1,2 -1.1,2 l 2.9,1.3 1.3,-2.9 z M 5.1,0.8 c 2.2,0 4,1.8 4,4 C 9,5 9,5.1 9,5.3 8,5 6.9,5.1 5.9,5.4 5.7,5.5 5.6,5.6 5.4,5.7 5.3,5.7 5.2,5.7 5.1,5.7 3.8,5.7 2.7,6.2 1.8,7 1.4,6.3 1.1,5.5 1.1,4.8 c 0,-2.2 1.8,-4 4,-4 z m 1,9.3 H 4 C 4,9.9 4,9.6 4.1,9.4 4.4,9.5 4.8,9.5 5.1,9.5 6.2,9.5 7.2,9.1 8,8.5 8.2,8.7 8.4,9 8.5,9.3 Z M 5.7,7.1 C 6.4,7.3 7,7.5 7.5,7.9 6.8,8.4 6,8.8 5.1,8.8 4.8,8.8 4.6,8.8 4.3,8.7 4.6,8.1 5.1,7.5 5.7,7.1 Z M 3,8.1 C 2.9,8.1 2.8,8 2.7,7.9 2.9,7.7 3.1,7.6 3.3,7.5 3.2,7.7 3.1,7.9 3,8.1 Z M 8.4,6.9 C 8.3,6.8 8.2,6.7 8,6.6 c 0.2,0 0.3,0 0.5,0.1 0,0 0,0.1 -0.1,0.2 z m -7,3.2 C 1.5,9.5 1.8,9 2.2,8.5 2.4,8.6 2.6,8.8 2.8,8.9 2.7,9.3 2.6,9.7 2.6,10.1 Z M 9.8,8.8 C 9.6,8.3 9.3,7.9 9,7.5 9.1,7.3 9.2,7.2 9.3,7 10,7.3 10.5,7.8 10.9,8.4 Z m 0,0"
   id="path2"
   inkscape:connector-curvature="0" />
</g>
</svg>