<?xml version="1.0" encoding="UTF-8" standalone="no"?>
<svg
   version="1.1"
   id="svg12"
   inkscape:version="1.1-dev (9017afb, 2021-01-01)"
   sodipodi:docname="plug-in.svg"
   x="0px"
   y="0px"
   width="128px"
   height="128px"
   viewBox="0 0 128 128"
   enable-background="new 0 0 128 128"
   xml:space="preserve"
   xmlns:inkscape="http://www.inkscape.org/namespaces/inkscape"
   xmlns:sodipodi="http://sodipodi.sourceforge.net/DTD/sodipodi-0.dtd"
   xmlns="http://www.w3.org/2000/svg"
   xmlns:svg="http://www.w3.org/2000/svg"><defs
   id="defs832" /><sodipodi:namedview
   id="namedview830"
   pagecolor="#ffffff"
   bordercolor="#666666"
   borderopacity="1.0"
   objecttolerance="10.0"
   gridtolerance="10.0"
   guidetolerance="10.0"
   inkscape:pageshadow="2"
   inkscape:pageopacity="0.0"
   inkscape:pagecheckerboard="0"
   showgrid="false"
   inkscape:zoom="1.125"
   inkscape:cx="30.666667"
   inkscape:cy="113.33333"
   inkscape:window-width="1280"
   inkscape:window-height="971"
   inkscape:window-x="81"
   inkscape:window-y="25"
   inkscape:window-maximized="0"
   inkscape:current-layer="layer2" />
<g
   id="Warstwa_2"
   transform="matrix(2.5636008,0,0,2.5636008,24.7,24.7)"
   display="none">
	<g
   id="Warstwa_1-2"
   display="inline">
		<path
   id="path8"
   inkscape:connector-curvature="0"
   fill="#050505"
   d="M15.3,0C6.9,0,0,6.9,0,15.3s6.9,15.3,15.3,15.3    s15.3-6.9,15.3-15.3S23.8,0,15.3,0C15.3,0,15.3,0,15.3,0z M24.6,17.2h-7.3v7.3h-3.9v-7.3H6.2v-3.9h7.2V6.1h3.9v7.2h7.3V17.2z" />
	</g>
</g>

<g
   inkscape:groupmode="layer"
   id="layer2"
   inkscape:label="Layer 2"
   style="display:inline"><g
     id="g2191"
     transform="translate(-3.1111098,3.999999)"><path
       id="rect1103"
       style="fill:#000000;fill-opacity:1;stroke-width:1.6812"
       d="m 68.179693,41.224444 c -0.756541,0 -1.513082,0.294868 -2.101505,0.883289 L 55.48529,52.700631 53.469159,50.681216 c -1.176842,-1.008723 -2.689927,-1.681204 -4.203009,-1.681204 -1.513084,0 -3.026168,0.504361 -4.20301,1.681204 -4.03489,4.03489 -6.38989,9.752954 -6.38989,15.469047 0,2.353686 0.335585,4.539251 1.008067,6.724817 l -4.705402,4.7054 c -1.849323,1.849324 -2.860016,4.373101 -2.860016,7.063027 0,2.689928 1.010693,5.210417 2.860016,7.059745 1.849326,1.84933 4.369817,2.85674 7.059743,2.85674 2.689926,0 5.213702,-1.00741 7.063027,-2.85674 l 4.537937,-4.537942 c 7.565418,2.353689 16.138246,0.670513 22.190579,-5.38182 2.353686,-2.353685 2.353686,-6.052333 0,-8.406019 L 73.81107,71.36134 84.403968,60.600977 c 1.176842,-1.176843 1.176187,-3.026166 0.167465,-4.20301 -1.176843,-1.176843 -3.026168,-1.176843 -4.203011,0 L 69.775522,66.990865 59.6883,56.903642 70.281199,46.310743 c 1.176843,-1.176843 1.176843,-3.026167 0,-4.20301 -0.588422,-0.588421 -1.344964,-0.883289 -2.101506,-0.883289 z"
       sodipodi:nodetypes="ssccssscssssscsscccsccsss" /><path
       d="m 92.289643,25.44001 c -2.563828,0 -5.12635,0.966036 -7.059745,2.899421 l -4.708684,4.708685 C 72.955799,30.69443 64.382972,32.37432 58.330638,38.426653 c -2.353685,2.353686 -2.353685,6.052336 0,8.40602 l 22.361324,22.52879 c 2.35369,2.353685 6.052337,2.353685 8.406023,0 6.052338,-6.052334 7.732228,-14.625161 5.378542,-22.190578 l 4.708686,-4.708684 c 3.866767,-3.866769 3.866117,-10.087882 0.16745,-14.122771 -1.9334,-1.933385 -4.499201,-2.89942 -7.063028,-2.89942 z"
       style="fill:#000000;fill-opacity:1;stroke-width:1.6812"
       id="path1956" /></g></g><g
   inkscape:groupmode="layer"
   id="layer1"
   inkscape:label="Layer 1"
   style="display:inline" /></svg>
