<?xml version="1.0" encoding="UTF-8" standalone="no"?>
<svg
   version="1.1"
   id="svg12"
   inkscape:version="1.1-dev (9017afb, 2021-01-01)"
   sodipodi:docname="plug-out.svg"
   x="0px"
   y="0px"
   width="128px"
   height="128px"
   viewBox="0 0 128 128"
   enable-background="new 0 0 128 128"
   xml:space="preserve"
   xmlns:inkscape="http://www.inkscape.org/namespaces/inkscape"
   xmlns:sodipodi="http://sodipodi.sourceforge.net/DTD/sodipodi-0.dtd"
   xmlns="http://www.w3.org/2000/svg"
   xmlns:svg="http://www.w3.org/2000/svg"><defs
   id="defs832" /><sodipodi:namedview
   id="namedview830"
   pagecolor="#ffffff"
   bordercolor="#666666"
   borderopacity="1.0"
   objecttolerance="10.0"
   gridtolerance="10.0"
   guidetolerance="10.0"
   inkscape:pageshadow="2"
   inkscape:pageopacity="0.0"
   inkscape:pagecheckerboard="0"
   showgrid="false"
   inkscape:zoom="1.125"
   inkscape:cx="30.666667"
   inkscape:cy="113.33333"
   inkscape:window-width="1280"
   inkscape:window-height="971"
   inkscape:window-x="81"
   inkscape:window-y="25"
   inkscape:window-maximized="0"
   inkscape:current-layer="layer2" />
<g
   id="Warstwa_2"
   transform="matrix(2.5636008,0,0,2.5636008,24.7,24.7)"
   display="none">
	<g
   id="Warstwa_1-2"
   display="inline">
		<path
   id="path8"
   inkscape:connector-curvature="0"
   fill="#050505"
   d="M15.3,0C6.9,0,0,6.9,0,15.3s6.9,15.3,15.3,15.3    s15.3-6.9,15.3-15.3S23.8,0,15.3,0C15.3,0,15.3,0,15.3,0z M24.6,17.2h-7.3v7.3h-3.9v-7.3H6.2v-3.9h7.2V6.1h3.9v7.2h7.3V17.2z" />
	</g>
</g>

<g
   inkscape:groupmode="layer"
   id="layer2"
   inkscape:label="Layer 2"
   style="display:inline"><g
     id="g902"
     transform="matrix(0.79086786,0,0,0.79086786,7.2332626,19.359903)"><path
       id="rect1103"
       style="fill:#000000;fill-opacity:1;stroke-width:2.12577"
       d="m 65.823312,40.009615 c -0.956596,0 -1.913193,0.372842 -2.657214,1.116861 L 49.77208,54.520493 47.222816,51.967077 c -1.488039,-1.275463 -3.401234,-2.125771 -5.314427,-2.125771 -1.913194,0 -3.826388,0.637731 -5.314427,2.125771 -5.101851,5.101851 -8.079593,12.331964 -8.079593,19.559585 0,2.97608 0.424325,5.739582 1.274634,8.503085 l -5.949668,5.949667 c -2.338347,2.338348 -3.616301,5.529496 -3.616301,8.93073 0,3.401235 1.277954,6.588226 3.616301,8.926576 2.338349,2.33836 5.525343,3.61216 8.926576,3.61216 3.401234,0 6.592381,-1.2738 8.93073,-3.61216 l 5.737921,-5.737924 c 9.565969,2.976084 20.405742,0.847819 28.058517,-6.804954 2.97608,-2.976079 2.97608,-7.652775 0,-10.628855 L 72.943814,78.115724 86.337832,64.509957 c 1.488039,-1.48804 1.487211,-3.826386 0.211748,-5.314427 -1.48804,-1.48804 -3.826388,-1.48804 -5.314428,0 L 67.841132,72.589548 55.086507,59.834922 68.480527,46.440903 c 1.488039,-1.48804 1.488039,-3.826387 0,-5.314427 -0.744021,-0.744019 -1.700618,-1.116861 -2.657215,-1.116861 z"
       sodipodi:nodetypes="ssccssscssssscsscccsccsss" /><path
       d="m 110.91998,5.4400103 c -3.24179,0 -6.48193,1.221488 -8.92658,3.666125 l -5.953819,5.9538207 c -9.565965,-2.97608 -20.405737,-0.851971 -28.058512,6.800804 -2.976079,2.976079 -2.976079,7.652777 0,10.628855 l 28.274412,28.486162 c 2.976085,2.976079 7.652779,2.976079 10.628859,0 7.65278,-7.652776 9.77689,-18.492547 6.80081,-28.058516 l 5.95382,-5.953819 c 4.88928,-4.889273 4.88845,-12.755458 0.21173,-17.8573077 -2.44465,-2.444637 -5.68894,-3.666125 -8.93073,-3.666125 z"
       style="fill:#000000;fill-opacity:1;stroke-width:2.12577"
       id="path1956" /></g></g><g
   inkscape:groupmode="layer"
   id="layer1"
   inkscape:label="Layer 1"
   style="display:inline" /></svg>
