<?xml version="1.0" encoding="UTF-8" standalone="no"?>
<svg
   width="128"
   height="128"
   viewBox="0 0 128 128"
   version="1.1"
   id="svg7739"
   sodipodi:docname="properties.svg"
   inkscape:version="1.1.1 (3bf5ae0d25, 2021-09-20)"
   xmlns:inkscape="http://www.inkscape.org/namespaces/inkscape"
   xmlns:sodipodi="http://sodipodi.sourceforge.net/DTD/sodipodi-0.dtd"
   xmlns="http://www.w3.org/2000/svg"
   xmlns:svg="http://www.w3.org/2000/svg"
   xmlns:rdf="http://www.w3.org/1999/02/22-rdf-syntax-ns#"
   xmlns:cc="http://creativecommons.org/ns#"
   xmlns:dc="http://purl.org/dc/elements/1.1/">
  <metadata
     id="metadata7745">
    <rdf:RDF>
      <cc:Work
         rdf:about="">
        <dc:format>image/svg+xml</dc:format>
        <dc:type
           rdf:resource="http://purl.org/dc/dcmitype/StillImage" />
        <dc:title>Shape</dc:title>
      </cc:Work>
    </rdf:RDF>
  </metadata>
  <defs
     id="defs7743" />
  <sodipodi:namedview
     pagecolor="#ffffff"
     bordercolor="#666666"
     borderopacity="1"
     objecttolerance="10"
     gridtolerance="10"
     guidetolerance="10"
     inkscape:pageopacity="0"
     inkscape:pageshadow="2"
     inkscape:window-width="2560"
     inkscape:window-height="1376"
     id="namedview7741"
     showgrid="false"
     inkscape:zoom="2.6074563"
     inkscape:cx="136.33978"
     inkscape:cy="85.332208"
     inkscape:window-x="0"
     inkscape:window-y="27"
     inkscape:window-maximized="1"
     inkscape:current-layer="svg7739"
     inkscape:pagecheckerboard="0" />
  <!-- Generator: Sketch 57.1 (83088) - https://sketch.com -->
  <title
     id="title7730">Shape</title>
  <path
     id="rect3508"
     style="fill:#000000;fill-opacity:1;stroke:none;stroke-width:8;stroke-linejoin:miter;stroke-miterlimit:4;stroke-dasharray:none;stroke-opacity:1"
     d="M 33.492188 21 C 26.571014 21 21 26.571014 21 33.492188 L 21 94.507812 C 21 101.42899 26.571014 107 33.492188 107 L 94.507812 107 C 101.42899 107 107 101.42899 107 94.507812 L 107 33.492188 C 107 26.571014 101.42899 21 94.507812 21 L 33.492188 21 z M 34 40 L 44 40 L 44 50 L 34 50 L 34 40 z M 54 40 L 94 40 L 94 50 L 54 50 L 54 40 z M 34 59 L 44 59 L 44 69 L 34 69 L 34 59 z M 54 59 L 94 59 L 94 69 L 54 69 L 54 59 z M 34 78 L 44 78 L 44 88 L 34 88 L 34 78 z M 54 78 L 94 78 L 94 88 L 54 88 L 54 78 z " />
  <desc
     id="desc7732">Created with Sketch.</desc>
</svg>
