<?xml version="1.0" encoding="utf-8"?>
<!-- Generator: Adobe Illustrator 19.2.1, SVG Export Plug-In . SVG Version: 6.00 Build 0)  -->
<!DOCTYPE svg PUBLIC "-//W3C//DTD SVG 1.1//EN" "http://www.w3.org/Graphics/SVG/1.1/DTD/svg11.dtd">
<svg version="1.1"
	 id="Layer_1" inkscape:version="0.91 r13725" sodipodi:docname="space-default.svg" xmlns:cc="http://creativecommons.org/ns#" xmlns:dc="http://purl.org/dc/elements/1.1/" xmlns:inkscape="http://www.inkscape.org/namespaces/inkscape" xmlns:rdf="http://www.w3.org/1999/02/22-rdf-syntax-ns#" xmlns:sodipodi="http://sodipodi.sourceforge.net/DTD/sodipodi-0.dtd" xmlns:svg="http://www.w3.org/2000/svg"
	 xmlns="http://www.w3.org/2000/svg" xmlns:xlink="http://www.w3.org/1999/xlink" x="0px" y="0px" width="128px" height="128px"
	 viewBox="0 0 128 128" enable-background="new 0 0 128 128" xml:space="preserve">
<g id="g2990" transform="matrix(2.9266757,0,0,2.9266757,-6640.1412,-477.24768)" display="none">
	<path id="path3" inkscape:connector-curvature="0" display="inline" d="M2301,195.6l-5.7-4.1h7l2.1-6.6l2.2,6.6h3.9
		c0.5-1,0.7-2.1,0.7-3.2c0.1-4.1-3.3-7.4-7.4-7.4c0-0.1,0-0.2,0-0.3c0-5.9-4.7-10.6-10.6-10.6c-4.2,0-7.9,2.5-9.6,6
		c-0.8-0.3-1.6-0.6-2.5-0.6c-2.7,0-4.9,2-5.4,4.6c-3.2,1.1-5.5,4.2-5.5,7.7c0,4.5,3.7,8.2,8.2,8.2h22.5L2301,195.6L2301,195.6z"/>
	<g id="g5" transform="translate(0.09999974,-0.1)" display="inline">
		<polygon id="polygon7" points="2304.5,188.2 2305.9,192.7 2310.6,192.7 2306.8,195.4 2308.3,199.9 2304.5,197.1 2300.7,199.9 
			2302.2,195.4 2298.3,192.7 2303.1,192.7 		"/>
	</g>
</g>
<path display="none" d="M102.2,52.3c0-0.4,0-0.6,0-1c0-17.2-13.8-30.9-30.9-30.9c-12.4,0-22.9,7.2-27.9,17.6c-2.2-1-4.6-1.8-7.2-1.8
	c-8,0-14.4,5.8-15.8,13.4C11,52.7,4.3,61.7,4.3,72.1C4.3,85.2,15,96,28.2,96h74l0,0c12,0,21.7-9.8,21.7-21.9
	C124.1,62.1,114.4,52.3,102.2,52.3z"/>
<path display="none" d="M101.9,52.4c0-0.4,0-0.6,0-1c0-17-13.7-30.7-30.7-30.7c-12.3,0-22.8,7.1-27.7,17.4c-2.2-1-4.6-1.8-7.1-1.8
	c-7.9,0-14.3,5.7-15.6,13.3c-9.3,3.2-16,12.1-16,22.4c0,13.1,10.7,23.8,23.8,23.8h73.4l0,0c11.9,0,21.6-9.7,21.6-21.8
	C123.7,62.1,114,52.4,101.9,52.4z M64.3,82c-9.9,0-17.8-7.9-17.8-17.8s7.9-17.8,17.8-17.8v-5.9L79.1,49l-14.8,8.5v-7.3
	c-7.7,0-13.9,6.1-13.9,13.9s6.1,13.9,13.9,13.9S78.2,71.8,78.2,64h4C82.1,73.9,74,82,64.3,82z"/>
<path display="none" d="M102.3,52.4c0-0.4,0-0.6,0-1c0-17.1-13.7-30.7-30.7-30.7c-12.3,0-22.8,7.1-27.8,17.4c-2.2-1-4.6-1.8-7.1-1.8
	c-7.9,0-14.3,5.7-15.7,13.3C11.6,52.8,4.9,61.7,4.9,72c0,13.1,10.7,23.8,23.8,23.8h16.1h7.7h11.9V61.5L50.1,75.8L47.3,73l19-19
	l19,19l-2.8,2.8L68.4,61.5V96h11.9h5.2h16.7l0,0c11.9,0,21.6-9.7,21.6-21.8C124.1,62.1,114.4,52.4,102.3,52.4z"/>
<path display="none" d="M102.3,52.6c0-0.4,0-0.6,0-1c0-17.1-13.7-30.7-30.7-30.7c-12.3,0-22.8,7.1-27.8,17.5c-2.2-1-4.6-1.8-7.1-1.8
	c-7.9,0-14.3,5.8-15.7,13.3C11.7,53,4.9,61.9,4.9,72.2C4.9,85.3,15.6,96,28.7,96h73.6c11.9,0,21.6-9.7,21.6-21.8
	C124.1,62.3,114.4,52.6,102.3,52.6z M83.4,66.7H68.6v14.8h-4.1V66.7H49.8v-4.1h14.7V47.8h4.1v14.8h14.8V66.7z"/>
<g>
	<path d="M64,54.3c20.1,0,33.9-7.7,33.9-14.6S84.1,25.1,64,25.1s-33.9,7.7-33.9,14.6S43.9,54.3,64,54.3z"/>
	<path d="M30.1,79.4v5.7v3.2c0,6.9,13.9,14.6,33.9,14.6s33.9-7.7,33.9-14.6v-3.4v-5.8C92.1,85.3,79.2,89.6,64,89.6
		S35.8,85.6,30.1,79.4z"/>
	<path d="M30.1,63.2v3.5v5.5c0,6.9,13.9,14.6,33.9,14.6s33.9-7.7,33.9-14.6v-8.9C92.1,69.5,79.2,73.8,64,73.8S35.8,69.4,30.1,63.2z"
		/>
	<path d="M30.1,47.1V56c0,6.9,13.9,14.6,33.9,14.6S97.9,62.9,97.9,56v-8.9C92.1,53.3,79.2,57.6,64,57.6S35.8,53.3,30.1,47.1z"/>
</g>
<g id="g3" transform="matrix(1.0191083,0,0,1.0191083,-0.6114656,0.50955353)" display="none">
	<g id="g5_1_" display="inline">
		<polygon id="polygon7_1_" points="86.7,98.5 73.9,107.8 78.8,92.9 66.1,83.6 81.9,83.6 86.7,68.6 91.6,83.6 107.4,83.6 94.7,92.9 
			99.6,107.8 		"/>
	</g>
	<g id="g9" transform="translate(6.0837499e-7,-0.49999939)" display="inline">
		<path id="path11" inkscape:connector-curvature="0" d="M49.7,46.6c19.7,0,33.4-7.6,33.4-14.4S69.4,17.9,49.7,17.9
			s-33.4,7.6-33.4,14.4S29.9,46.6,49.7,46.6z"/>
		<path id="path13" inkscape:connector-curvature="0" d="M77.1,80.2l1.9-5.7c-3.9,2.5-9.1,4.5-15.4,5.7
			C63.6,80.2,77.1,80.2,77.1,80.2z"/>
		<path id="path15" inkscape:connector-curvature="0" d="M49.7,78.6c14.7,0,26-4.2,30.9-9.1l2.5-7.8v-6.1
			c-5.7,6.1-18.4,10.3-33.4,10.3s-27.8-4.5-33.4-10.6v3.5v5.4C16.3,71,29.9,78.6,49.7,78.6z"/>
		<path id="path17" inkscape:connector-curvature="0" d="M49.7,62.6c19.7,0,33.4-7.6,33.4-14.4v-8.7c-5.7,6.1-18.4,10.3-33.4,10.3
			S22,45.6,16.3,39.5v8.7C16.3,55,29.9,62.6,49.7,62.6z"/>
		<path id="path19" inkscape:connector-curvature="0" d="M58.4,81c-2.8,0.3-5.7,0.4-8.7,0.4c-15,0-27.7-4.1-33.4-10.2v5.7v3.2
			c0,6.8,13.6,14.4,33.4,14.4c8.9,0,16.6-1.6,22.4-3.9C72,90.6,58.4,81,58.4,81z"/>
	</g>
</g>
</svg>
