<?xml version="1.0" encoding="UTF-8" standalone="no"?>
<svg
   xmlns:dc="http://purl.org/dc/elements/1.1/"
   xmlns:cc="http://creativecommons.org/ns#"
   xmlns:rdf="http://www.w3.org/1999/02/22-rdf-syntax-ns#"
   xmlns:svg="http://www.w3.org/2000/svg"
   xmlns="http://www.w3.org/2000/svg"
   xmlns:sodipodi="http://sodipodi.sourceforge.net/DTD/sodipodi-0.dtd"
   xmlns:inkscape="http://www.inkscape.org/namespaces/inkscape"
   width="128"
   height="128"
   viewBox="0 0 128 128"
   version="1.1"
   id="svg12"
   sodipodi:docname="providers.svg"
   inkscape:version="0.92.2 5c3e80d, 2017-08-06">
  <metadata
     id="metadata16">
    <rdf:RDF>
      <cc:Work
         rdf:about="">
        <dc:format>image/svg+xml</dc:format>
        <dc:type
           rdf:resource="http://purl.org/dc/dcmitype/StillImage" />
        <dc:title>Combined Shape</dc:title>
      </cc:Work>
    </rdf:RDF>
  </metadata>
  <sodipodi:namedview
     pagecolor="#ffffff"
     bordercolor="#666666"
     borderopacity="1"
     objecttolerance="10"
     gridtolerance="10"
     guidetolerance="10"
     inkscape:pageopacity="0"
     inkscape:pageshadow="2"
     inkscape:window-width="1920"
     inkscape:window-height="1015"
     id="namedview14"
     showgrid="false"
     inkscape:zoom="2.4540765"
     inkscape:cx="-27.256483"
     inkscape:cy="29.039204"
     inkscape:window-x="0"
     inkscape:window-y="0"
     inkscape:window-maximized="1"
     inkscape:current-layer="svg12" />
  <!-- Generator: Sketch 48.2 (47327) - http://www.bohemiancoding.com/sketch -->
  <title
     id="title2">Combined Shape</title>
  <desc
     id="desc4">Created with Sketch.</desc>
  <defs
     id="defs6" />
  <g
     id="Providers"
     transform="matrix(2.301925,0,0,2.301925,-2206.6711,-2067.3498)"
     style="fill:#000000;fill-rule:evenodd;stroke:none;stroke-width:1">
    <g
       id="Page-1"
       transform="translate(940,888)"
       style="fill:#000000">
      <g
         id="Group-3"
         style="fill:#000000">
        <path
           d="m 40.963,46.0626 c -0.016,0 -0.031,0 -0.046,0 -6.455,0 -10.917,-2.468 -10.917,-4.699 v -1.044 -1.851 c 1.678,1.807 5.273,3.065 9.575,3.284 v 0.352 1.757 c 0,0.741 0.495,1.507 1.388,2.201 z m -0.0459,-5.2212 c -6.456,0 -10.917,-2.467 -10.917,-4.699 v -1.757 -1.139 c 1.678,1.808 5.273,3.144 9.575,3.377 v 2.016 c 0,0.741 0.495,1.508 1.388,2.202 -0.015,0 -0.03,0 -0.046,0 z m 0,-10.4424 c -6.456,0 -10.917,-2.468 -10.917,-4.7 0,-2.23 4.461,-4.699 10.917,-4.699 6.455,0 10.917,2.469 10.917,4.699 0,1.066 -1.02,2.185 -2.785,3.064 -2.736,0.161 -5.039,0.771 -6.688,1.593 -0.469,0.027 -0.95,0.043 -1.444,0.043 z m 0,5.2207 c -6.456,0 -10.917,-2.468 -10.917,-4.699 v -2.848 c 1.821,1.964 5.901,3.325 10.694,3.366 -0.722,0.634 -1.119,1.317 -1.119,1.979 0,0.741 0.495,1.508 1.388,2.202 -0.016,0 -0.031,0 -0.046,0 z m 11.0113,3.5137 c -6.456,0 -10.917,-2.468 -10.917,-4.7 0,-2.23 4.461,-4.699 10.917,-4.699 6.455,0 10.917,2.469 10.917,4.699 0,2.232 -4.462,4.7 -10.917,4.7 z m -10.9175,8.0694 c 1.85,1.993 6.027,3.322 10.917,3.322 4.89,0 9.066,-1.376 10.917,-3.369 v 1.851 1.091 c 0,2.231 -4.462,4.7 -10.917,4.7 -6.455,0 -10.917,-2.469 -10.917,-4.7 v -1.044 z m 0,-5.2217 c 1.85,1.994 6.027,3.417 10.917,3.417 4.89,0 9.066,-1.375 10.917,-3.37 v 2.849 c 0,2.231 -4.462,4.699 -10.917,4.699 -6.455,0 -10.917,-2.468 -10.917,-4.699 v -1.757 z m 0,-5.1739 c 1.85,1.994 6.027,3.37 10.917,3.37 4.89,0 9.066,-1.376 10.917,-3.37 v 2.848 c 0,2.231 -4.462,4.699 -10.917,4.699 -6.455,0 -10.917,-2.468 -10.917,-4.699 z"
           id="Combined-Shape"
           inkscape:connector-curvature="0"
           style="fill:#000000" />
      </g>
    </g>
  </g>
</svg>
