<?xml version="1.0" encoding="UTF-8" standalone="no"?>
<!-- Created with Inkscape (http://www.inkscape.org/) -->

<svg
   xmlns:dc="http://purl.org/dc/elements/1.1/"
   xmlns:cc="http://creativecommons.org/ns#"
   xmlns:rdf="http://www.w3.org/1999/02/22-rdf-syntax-ns#"
   xmlns:svg="http://www.w3.org/2000/svg"
   xmlns="http://www.w3.org/2000/svg"
   xmlns:sodipodi="http://sodipodi.sourceforge.net/DTD/sodipodi-0.dtd"
   xmlns:inkscape="http://www.inkscape.org/namespaces/inkscape"
   width="128"
   height="128"
   viewBox="0 0 128 128"
   id="svg2"
   version="1.1"
   inkscape:version="0.91 r13725"
   sodipodi:docname="qos3.svg">
  <defs
     id="defs4">
    <marker
       inkscape:stockid="TriangleOutM"
       orient="auto"
       refY="0"
       refX="0"
       id="TriangleOutM"
       style="overflow:visible"
       inkscape:isstock="true">
      <path
         id="path4289"
         d="m 5.77,0 -8.65,5 0,-10 8.65,5 z"
         style="fill:#000000;fill-opacity:1;fill-rule:evenodd;stroke:#000000;stroke-width:1pt;stroke-opacity:1"
         transform="scale(0.4,0.4)"
         inkscape:connector-curvature="0" />
    </marker>
    <marker
       inkscape:stockid="TriangleOutL"
       orient="auto"
       refY="0"
       refX="0"
       id="TriangleOutL"
       style="overflow:visible"
       inkscape:isstock="true">
      <path
         id="path4286"
         d="m 5.77,0 -8.65,5 0,-10 8.65,5 z"
         style="fill:#000000;fill-opacity:1;fill-rule:evenodd;stroke:#000000;stroke-width:1pt;stroke-opacity:1"
         transform="scale(0.8,0.8)"
         inkscape:connector-curvature="0" />
    </marker>
    <marker
       inkscape:stockid="Arrow1Lend"
       orient="auto"
       refY="0"
       refX="0"
       id="Arrow1Lend"
       style="overflow:visible"
       inkscape:isstock="true">
      <path
         id="path4147"
         d="M 0,0 5,-5 -12.5,0 5,5 0,0 Z"
         style="fill:#000000;fill-opacity:1;fill-rule:evenodd;stroke:#000000;stroke-width:1pt;stroke-opacity:1"
         transform="matrix(-0.8,0,0,-0.8,-10,0)"
         inkscape:connector-curvature="0" />
    </marker>
  </defs>
  <sodipodi:namedview
     id="base"
     pagecolor="#ffffff"
     bordercolor="#666666"
     borderopacity="1.0"
     inkscape:pageopacity="0.0"
     inkscape:pageshadow="2"
     inkscape:zoom="0.70710678"
     inkscape:cx="356.22468"
     inkscape:cy="176.01752"
     inkscape:document-units="px"
     inkscape:current-layer="g5538"
     showgrid="false"
     showguides="false"
     inkscape:window-width="1280"
     inkscape:window-height="979"
     inkscape:window-x="197"
     inkscape:window-y="104"
     inkscape:window-maximized="0"
     units="px" />
  <metadata
     id="metadata7">
    <rdf:RDF>
      <cc:Work
         rdf:about="">
        <dc:format>image/svg+xml</dc:format>
        <dc:type
           rdf:resource="http://purl.org/dc/dcmitype/StillImage" />
        <dc:title></dc:title>
      </cc:Work>
    </rdf:RDF>
  </metadata>
  <g
     inkscape:label="Layer 1"
     inkscape:groupmode="layer"
     id="layer1"
     transform="translate(0,-924.3622)">
    <g
       id="g5538"
       transform="matrix(0.08097166,0,0,0.08097166,67.98381,624.02755)">
      <path
         style="fill:#000000;fill-opacity:1;stroke:none;stroke-width:21.2296505;stroke-linecap:round;stroke-miterlimit:4;stroke-dasharray:none;stroke-opacity:1"
         d="m -433.83021,4032.5883 c -45.5831,0 -82.26484,36.6818 -82.26484,82.2649 l 0,769.3596 c 0,45.5829 36.68174,82.2648 82.26484,82.2648 l 769.26031,0 c 45.58311,0 82.26484,-36.6819 82.26484,-82.2648 l 0,-769.3596 c 0,-45.5831 -36.68173,-82.2649 -82.26484,-82.2649 l -769.26031,0 z m 415.094907,191.3228 329.158573,0 0,97.8445 -329.158573,0 0,-97.8445 z m -156.293177,106.6763 84.745634,48.9223 -165.025844,285.7933 -158.67484,-118.3859 58.44873,-78.3947 70.55522,52.5938 109.9511,-190.5288 z m 159.468679,117.4928 329.158491,0 0,97.7453 -329.158491,0 0,-97.7453 z m -6.350929,224.07 329.15842,0 0,97.8445 -329.15842,0 0,-97.8445 z"
         id="rect5502"
         inkscape:connector-curvature="0" />
    </g>
  </g>
</svg>
