<?xml version="1.0" encoding="UTF-8" standalone="no"?>
<svg
   xmlns:dc="http://purl.org/dc/elements/1.1/"
   xmlns:cc="http://creativecommons.org/ns#"
   xmlns:rdf="http://www.w3.org/1999/02/22-rdf-syntax-ns#"
   xmlns:svg="http://www.w3.org/2000/svg"
   xmlns="http://www.w3.org/2000/svg"
   xmlns:sodipodi="http://sodipodi.sourceforge.net/DTD/sodipodi-0.dtd"
   xmlns:inkscape="http://www.inkscape.org/namespaces/inkscape"
   width="128"
   height="128"
   viewBox="0 0 128 128"
   version="1.1"
   id="svg2"
   inkscape:version="0.91 r13725"
   sodipodi:docname="refresh.svg">
  <metadata
     id="metadata17">
    <rdf:RDF>
      <cc:Work
         rdf:about="">
        <dc:format>image/svg+xml</dc:format>
        <dc:type
           rdf:resource="http://purl.org/dc/dcmitype/StillImage" />
        <dc:title>Combined Shape</dc:title>
      </cc:Work>
    </rdf:RDF>
  </metadata>
  <defs
     id="defs15" />
  <sodipodi:namedview
     pagecolor="#ffffff"
     bordercolor="#666666"
     borderopacity="1"
     objecttolerance="10"
     gridtolerance="10"
     guidetolerance="10"
     inkscape:pageopacity="0"
     inkscape:pageshadow="2"
     inkscape:window-width="1440"
     inkscape:window-height="855"
     id="namedview13"
     showgrid="false"
     inkscape:zoom="0.5"
     inkscape:cx="50.222305"
     inkscape:cy="66.416113"
     inkscape:window-x="0"
     inkscape:window-y="0"
     inkscape:window-maximized="0"
     inkscape:current-layer="svg2" />
  <!-- Generator: Sketch 64 (93537) - https://sketch.com -->
  <title
     id="title4">Combined Shape</title>
  <desc
     id="desc6">Created with Sketch.</desc>
  <g
     id="Nie-zaimplementowane"
     style="fill:#000000;fill-rule:evenodd;stroke:none;stroke-width:1"
     transform="matrix(3.4880407,0,0,3.4880407,20.663829,22.027244)">
    <g
       id="provider"
       transform="translate(-1501,-1858)"
       style="fill:#000000">
      <g
         id="Tabs"
         transform="translate(568,1790)"
         style="fill:#000000">
        <g
           id="Status"
           transform="translate(791,13)"
           style="fill:#000000">
          <path
             d="m 145.6093,65.261902 c 0.78908,0 1.45791,0.517767 1.60286,1.240472 0.63698,3.370612 3.6633,5.951011 7.3903,6.288555 l 0,0 0,-0.790816 c 0,-0.341763 0.2093,-0.653388 0.53819,-0.804077 0.32889,-0.154306 0.72213,-0.11814 1.01202,0.08499 l 0,0 4.41014,3.085508 c 0.24114,0.166964 0.38609,0.436999 0.38609,0.715472 0,0.282692 -0.14495,0.548508 -0.38609,0.715471 l 0,0 -4.41014,3.089126 c -0.28989,0.202526 -0.68313,0.239294 -1.01202,0.08438 -0.32889,-0.150086 -0.53819,-0.461711 -0.53819,-0.804076 l 0,0 0,-0.84627 c -6.22943,-0.351407 -11.3006,-4.710539 -12.21773,-10.332446 -0.0708,-0.436998 0.067,-0.876407 0.37894,-1.208526 0.30419,-0.330913 0.75333,-0.517767 1.22782,-0.517767 l 0,0 z m 7.08641,-10.080975 c 0.29314,-0.203731 0.68638,-0.239897 1.01527,-0.08559 0.32565,0.151292 0.53494,0.462917 0.53494,0.804077 l 0,0 0,0.846872 c 6.22879,0.351407 11.30061,4.71295 12.21773,10.33546 0.0702,0.433381 -0.0637,0.87701 -0.37504,1.204306 -0.30809,0.335736 -0.75788,0.519576 -1.23171,0.519576 l 0,0 -1.61846,0 c -0.78518,0 -1.45791,-0.519576 -1.59896,-1.241075 -0.64023,-3.371215 -3.66721,-5.951011 -7.39356,-6.288554 l 0,0 0,0.794432 c 0,0.337543 -0.20929,0.649168 -0.53494,0.804077 -0.32889,0.150689 -0.72213,0.11814 -1.01527,-0.08921 l 0,0 -4.41013,-3.084906 c -0.24115,-0.167566 -0.38609,-0.433382 -0.38609,-0.716074 0,-0.28209 0.14494,-0.547303 0.38609,-0.715472 l 0,0 z"
             id="Combined-Shape"
             inkscape:connector-curvature="0"
             style="fill:#000000" />
        </g>
      </g>
    </g>
  </g>
</svg>
