<?xml version="1.0" encoding="UTF-8" standalone="no"?>
<svg
   xmlns:dc="http://purl.org/dc/elements/1.1/"
   xmlns:cc="http://creativecommons.org/ns#"
   xmlns:rdf="http://www.w3.org/1999/02/22-rdf-syntax-ns#"
   xmlns:svg="http://www.w3.org/2000/svg"
   xmlns="http://www.w3.org/2000/svg"
   xmlns:sodipodi="http://sodipodi.sourceforge.net/DTD/sodipodi-0.dtd"
   xmlns:inkscape="http://www.inkscape.org/namespaces/inkscape"
   viewBox="0 0 128 127.99999"
   version="1.1"
   id="svg16"
   sodipodi:docname="replicate.svg"
   width="128"
   height="128"
   inkscape:version="0.92.2 5c3e80d, 2017-08-06">
  <metadata
     id="metadata20">
    <rdf:RDF>
      <cc:Work
         rdf:about="">
        <dc:format>image/svg+xml</dc:format>
        <dc:type
           rdf:resource="http://purl.org/dc/dcmitype/StillImage" />
        <dc:title>Zasób 38</dc:title>
      </cc:Work>
    </rdf:RDF>
  </metadata>
  <sodipodi:namedview
     pagecolor="#ffffff"
     bordercolor="#666666"
     borderopacity="1"
     objecttolerance="10"
     gridtolerance="10"
     guidetolerance="10"
     inkscape:pageopacity="0"
     inkscape:pageshadow="2"
     inkscape:window-width="1920"
     inkscape:window-height="1019"
     id="namedview18"
     showgrid="false"
     inkscape:zoom="2.7550781"
     inkscape:cx="42.454066"
     inkscape:cy="100.40262"
     inkscape:window-x="0"
     inkscape:window-y="0"
     inkscape:window-maximized="1"
     inkscape:current-layer="svg16" />
  <defs
     id="defs4">
    <style
       id="style2">.cls-1{fill:#5c5c5c;}</style>
  </defs>
  <title
     id="title6">Zasób 38</title>
  <g
     id="Warstwa_2"
     data-name="Warstwa 2"
     transform="matrix(2.2499524,0,0,2.2499524,23.010092,4.3830594)"
     style="fill:#000000">
    <g
       id="Warstwa_1-2"
       data-name="Warstwa 1"
       style="fill:#000000">
      <path
         class="cls-1"
         d="m 42.95,6.26 a 1.27,1.27 0 0 1 1.26,1.26 v 2.53 a 1.27,1.27 0 0 1 -1.26,1.26 H 38 v 5 a 1.27,1.27 0 0 1 -1.26,1.26 H 34.16 A 1.27,1.27 0 0 1 32.9,16.31 v -5 h -5 A 1.27,1.27 0 0 1 26.64,10.05 V 7.52 A 1.27,1.27 0 0 1 27.9,6.26 h 5 v -5 A 1.27,1.27 0 0 1 34.16,0 h 2.53 A 1.27,1.27 0 0 1 38,1.26 v 5 z"
         id="path8"
         inkscape:connector-curvature="0"
         style="fill:#000000" />
      <polygon
         class="cls-1"
         points="0,42.83 29.32,42.83 29.32,39.65 27.69,39.65 4.89,39.65 4.89,16.61 4.89,14.2 4.89,12.93 0,12.93 "
         id="polygon10"
         style="fill:#000000" />
      <path
         class="cls-1"
         d="m 34.94,19.58 h -2.53 a 1.27,1.27 0 0 1 -1.26,-1.26 v -5 h -5 A 1.27,1.27 0 0 1 24.89,12.06 V 9.52 A 1.25,1.25 0 0 1 25.5,8.47 H 6.5 V 38.38 H 35.83 V 19.21 a 1.26,1.26 0 0 1 -0.89,0.37 z"
         id="path12"
         inkscape:connector-curvature="0"
         style="fill:#000000" />
    </g>
  </g>
</svg>
