<?xml version="1.0" encoding="UTF-8" standalone="no"?>
<!-- Page 11 -->

<svg
   xmlns:dc="http://purl.org/dc/elements/1.1/"
   xmlns:cc="http://creativecommons.org/ns#"
   xmlns:rdf="http://www.w3.org/1999/02/22-rdf-syntax-ns#"
   xmlns:svg="http://www.w3.org/2000/svg"
   xmlns="http://www.w3.org/2000/svg"
   xmlns:xlink="http://www.w3.org/1999/xlink"
   xmlns:sodipodi="http://sodipodi.sourceforge.net/DTD/sodipodi-0.dtd"
   xmlns:inkscape="http://www.inkscape.org/namespaces/inkscape"
   x="0"
   y="0"
   width="128"
   height="128"
   viewBox="0 0 128 128"
   version="1.1"
   style="display:block"
   id="svg2"
   inkscape:version="0.91 r13725"
   sodipodi:docname="rerun.svg">
  <metadata
     id="metadata968">
    <rdf:RDF>
      <cc:Work
         rdf:about="">
        <dc:format>image/svg+xml</dc:format>
        <dc:type
           rdf:resource="http://purl.org/dc/dcmitype/StillImage" />
        <dc:title></dc:title>
      </cc:Work>
    </rdf:RDF>
  </metadata>
  <sodipodi:namedview
     pagecolor="#ffffff"
     bordercolor="#666666"
     borderopacity="1"
     objecttolerance="10"
     gridtolerance="10"
     guidetolerance="10"
     inkscape:pageopacity="0"
     inkscape:pageshadow="2"
     inkscape:window-width="1920"
     inkscape:window-height="1036"
     id="namedview966"
     showgrid="false"
     inkscape:zoom="1"
     inkscape:cx="-1.3296717"
     inkscape:cy="59.039426"
     inkscape:window-x="0"
     inkscape:window-y="0"
     inkscape:window-maximized="1"
     inkscape:current-layer="svg2" />
  <defs
     id="defs4">
    <clipPath
       id="c0_11">
      <path
         d="m 100.8,137.5 0,-64.2 550,0 0,64.2 z"
         id="path7"
         inkscape:connector-curvature="0" />
    </clipPath>
    <clipPath
       id="c1_11">
      <path
         d="m 100.8,174.2 0,-36.7 275,0 0,36.7 z"
         id="path10"
         inkscape:connector-curvature="0" />
    </clipPath>
    <clipPath
       id="c2_11">
      <path
         d="m 100.8,172.6 0,-33.6 48.9,0 0,33.6 z"
         id="path13"
         inkscape:connector-curvature="0" />
    </clipPath>
    <clipPath
       id="c3_11">
      <path
         d="m 375.8,174.2 0,-36.7 275,0 0,36.7 z"
         id="path16"
         inkscape:connector-curvature="0" />
    </clipPath>
    <clipPath
       id="c4_11">
      <path
         d="m 100.8,117.6 0,-44.3 44.3,0 0,44.3 z"
         id="path19"
         inkscape:connector-curvature="0" />
    </clipPath>
    <clipPath
       id="c5_11">
      <path
         d="m 139,126.8 0,-51.9 288.8,0 0,51.9 z"
         id="path22"
         inkscape:connector-curvature="0" />
    </clipPath>
    <clipPath
       id="c6_11">
      <path
         d="m 100.8,311.7 0,-64.2 550,0 0,64.2 z"
         id="path25"
         inkscape:connector-curvature="0" />
    </clipPath>
    <clipPath
       id="c7_11">
      <path
         d="m 100.8,348.3 0,-36.6 275,0 0,36.6 z"
         id="path28"
         inkscape:connector-curvature="0" />
    </clipPath>
    <clipPath
       id="c8_11">
      <path
         d="m 100.8,346.8 0,-33.6 48.9,0 0,33.6 z"
         id="path31"
         inkscape:connector-curvature="0" />
    </clipPath>
    <clipPath
       id="c9_11">
      <path
         d="m 375.8,348.3 0,-36.6 275,0 0,36.6 z"
         id="path34"
         inkscape:connector-curvature="0" />
    </clipPath>
    <clipPath
       id="c10_11">
      <path
         d="m 100.8,291.8 0,-44.3 44.3,0 0,44.3 z"
         id="path37"
         inkscape:connector-curvature="0" />
    </clipPath>
    <clipPath
       id="c11_11">
      <path
         d="m 139,301 0,-52 427.8,0 0,52 z"
         id="path40"
         inkscape:connector-curvature="0" />
    </clipPath>
    <clipPath
       id="c12_11">
      <path
         d="m 100.8,485.8 0,-64.1 550,0 0,64.1 z"
         id="path43"
         inkscape:connector-curvature="0" />
    </clipPath>
    <clipPath
       id="c13_11">
      <path
         d="m 100.8,522.5 0,-36.7 275,0 0,36.7 z"
         id="path46"
         inkscape:connector-curvature="0" />
    </clipPath>
    <clipPath
       id="c14_11">
      <path
         d="m 100.8,521 0,-33.6 48.9,0 0,33.6 z"
         id="path49"
         inkscape:connector-curvature="0" />
    </clipPath>
    <clipPath
       id="c15_11">
      <path
         d="m 375.8,522.5 0,-36.7 275,0 0,36.7 z"
         id="path52"
         inkscape:connector-curvature="0" />
    </clipPath>
    <clipPath
       id="c16_11">
      <path
         d="m 100.8,466 0,-44.3 44.3,0 0,44.3 z"
         id="path55"
         inkscape:connector-curvature="0" />
    </clipPath>
    <clipPath
       id="c17_11">
      <path
         d="m 139,475.1 0,-51.9 278.1,0 0,51.9 z"
         id="path58"
         inkscape:connector-curvature="0" />
    </clipPath>
    <clipPath
       id="c18_11">
      <path
         d="m 100.8,660 0,-64.2 550,0 0,64.2 z"
         id="path61"
         inkscape:connector-curvature="0" />
    </clipPath>
    <clipPath
       id="c19_11">
      <path
         d="m 100.8,696.7 0,-36.7 275,0 0,36.7 z"
         id="path64"
         inkscape:connector-curvature="0" />
    </clipPath>
    <clipPath
       id="c20_11">
      <path
         d="m 100.8,695.1 0,-33.6 48.9,0 0,33.6 z"
         id="path67"
         inkscape:connector-curvature="0" />
    </clipPath>
    <clipPath
       id="c21_11">
      <path
         d="m 375.8,696.7 0,-36.7 275,0 0,36.7 z"
         id="path70"
         inkscape:connector-curvature="0" />
    </clipPath>
    <clipPath
       id="c22_11">
      <path
         d="m 100.8,640.1 0,-44.3 44.3,0 0,44.3 z"
         id="path73"
         inkscape:connector-curvature="0" />
    </clipPath>
    <clipPath
       id="c23_11">
      <path
         d="m 139,649.3 0,-51.9 281.1,0 0,51.9 z"
         id="path76"
         inkscape:connector-curvature="0" />
    </clipPath>
    <clipPath
       id="c24_11">
      <path
         d="m 100.8,834.2 0,-64.2 550,0 0,64.2 z"
         id="path79"
         inkscape:connector-curvature="0" />
    </clipPath>
    <clipPath
       id="c25_11">
      <path
         d="m 100.8,870.8 0,-36.6 275,0 0,36.6 z"
         id="path82"
         inkscape:connector-curvature="0" />
    </clipPath>
    <clipPath
       id="c26_11">
      <path
         d="m 100.8,869.3 0,-33.6 48.9,0 0,33.6 z"
         id="path85"
         inkscape:connector-curvature="0" />
    </clipPath>
    <clipPath
       id="c27_11">
      <path
         d="m 375.8,870.8 0,-36.6 275,0 0,36.6 z"
         id="path88"
         inkscape:connector-curvature="0" />
    </clipPath>
    <clipPath
       id="c28_11">
      <path
         d="m 100.8,814.3 0,-44.3 44.3,0 0,44.3 z"
         id="path91"
         inkscape:connector-curvature="0" />
    </clipPath>
    <clipPath
       id="c29_11">
      <path
         d="m 139,823.5 0,-52 294.9,0 0,52 z"
         id="path94"
         inkscape:connector-curvature="0" />
    </clipPath>
    <clipPath
       id="c30_11">
      <path
         d="m 100.8,1008.3 0,-64.1 550,0 0,64.1 z"
         id="path97"
         inkscape:connector-curvature="0" />
    </clipPath>
    <clipPath
       id="c31_11">
      <path
         d="m 100.8,1045 0,-36.7 275,0 0,36.7 z"
         id="path100"
         inkscape:connector-curvature="0" />
    </clipPath>
    <clipPath
       id="c32_11">
      <path
         d="m 100.8,1043.5 0,-33.6 48.9,0 0,33.6 z"
         id="path103"
         inkscape:connector-curvature="0" />
    </clipPath>
    <clipPath
       id="c33_11">
      <path
         d="m 375.8,1045 0,-36.7 275,0 0,36.7 z"
         id="path106"
         inkscape:connector-curvature="0" />
    </clipPath>
    <clipPath
       id="c34_11">
      <path
         d="m 100.8,988.5 0,-44.3 44.3,0 0,44.3 z"
         id="path109"
         inkscape:connector-curvature="0" />
    </clipPath>
    <clipPath
       id="c35_11">
      <path
         d="m 139,997.6 0,-51.9 241.4,0 0,51.9 z"
         id="path112"
         inkscape:connector-curvature="0" />
    </clipPath>
    <clipPath
       id="c36_11">
      <path
         d="m 100.8,1182.5 0,-64.2 550,0 0,64.2 z"
         id="path115"
         inkscape:connector-curvature="0" />
    </clipPath>
    <clipPath
       id="c37_11">
      <path
         d="m 100.8,1162.6 0,-44.3 44.3,0 0,44.3 z"
         id="path118"
         inkscape:connector-curvature="0" />
    </clipPath>
    <clipPath
       id="c38_11">
      <path
         d="m 139,1171.8 0,-51.9 265.9,0 0,51.9 z"
         id="path121"
         inkscape:connector-curvature="0" />
    </clipPath>
    <clipPath
       id="c39_11">
      <path
         d="M 0,1286.4 0,0 l 909,0 0,1286.4 z"
         id="path124"
         inkscape:connector-curvature="0" />
    </clipPath>
    <style
       type="text/css"
       id="style126"><![CDATA[
text { white-space: pre; }
path, image { pointer-events: none; }
text::-moz-selection {
	color: transparent;
	background: rgba(0, 106, 173, 0.4);
}
text::selection {
	color: transparent;
	background: rgba(0, 106, 173, 0.4);
}

.s1_11{
font-size: 18.33px;
font-family: Helvetica_8;
fill: TRANSPARENT;
}
.s2_11{
font-size: 36.67px;
font-family: oneicons_a;
fill: TRANSPARENT;
}
.s3_11{
font-size: 36.67px;
font-family: Helvetica_8;
fill: TRANSPARENT;
}
.s4_11{
font-size: 15.28px;
font-family: Times-Roman_c;
fill: TRANSPARENT;
}

.g0_11{
fill: #FFFFFF;
}
.g1_11{
fill: #E7E7E7;
}
.g2_11{
fill: none;
stroke: #000000;
stroke-width: 1.5277778;
stroke-linecap: butt;
stroke-linejoin: miter;
}

]]></style>
  </defs>
  <g
     clip-path="url(#c34_11)"
     id="g586"
     transform="matrix(3.5140056,0,0,3.5140056,-354.6024,-3320.9573)">
    <g
       id="g588"
       style="fill:#000000">
      <use
         xlink:href="#f1_1z"
         transform="matrix(24,0,0,24,100.8,981.6)"
         id="use590"
         x="0"
         y="0"
         width="100%"
         height="100%" />
    </g>
  </g>
  <defs
     id="defs896">
    <path
       d="m 640,462 c 0,0 -8,88 -37,140 0,0 -55,97 -183,97 0,0 -92,0 -155,-67 0,0 -62,-66 -66,-170 z M 408,-27 c 0,0 -149,0 -252,107 0,0 -103,109 -103,304 0,0 0,192 104,312 0,0 104,120 271,120 0,0 85,0 164,-40 0,0 79,-39 121,-103 0,0 40,-60 53,-141 0,0 12,-55 12,-176 l -581,0 c 0,0 3,-122 57,-195 0,0 53,-74 165,-74 0,0 105,0 167,70 0,0 35,40 50,93 l 132,0 c 0,0 -6,-44 -35,-98 0,0 -30,-54 -66,-88 0,0 -61,-60 -150,-79 0,0 -49,-12 -109,-12 z"
       id="f0_v"
       transform="scale(0.001,-0.001)"
       inkscape:connector-curvature="0" />
    <path
       d="m 407,477 c 0,0 80,0 146,53 0,0 66,52 66,184 0,0 0,118 -59,176 0,0 -60,57 -151,57 0,0 -99,0 -157,-66 0,0 -57,-66 -57,-176 0,0 0,-105 50,-166 0,0 51,-62 162,-62 z M 387,-29 c 0,0 -157,0 -238,81 0,0 -82,82 -82,205 l 136,0 c 0,0 6,-111 86,-153 0,0 41,-23 93,-23 0,0 96,0 164,80 0,0 68,81 96,327 0,0 -45,-72 -111,-100 0,0 -66,-29 -142,-29 0,0 -154,0 -244,96 0,0 -90,96 -90,248 0,0 0,146 89,256 0,0 88,111 262,111 0,0 233,0 322,-211 0,0 49,-115 49,-289 0,0 0,-197 -59,-348 0,0 -97,-251 -331,-251 z"
       id="f0_g"
       transform="scale(0.001,-0.001)"
       inkscape:connector-curvature="0" />
    <path
       d="m 505,378 0,484 -342,-484 z m 2,-378 0,261 -468,0 0,132 489,679 113,0 0,-694 158,0 0,-117 -158,0 0,-261 z"
       id="f0_b"
       transform="scale(0.001,-0.001)"
       inkscape:connector-curvature="0" />
    <path
       d="m 412,94 c 0,0 104,0 166,92 0,0 62,93 62,345 0,0 0,182 -44,299 0,0 -45,117 -175,117 0,0 -118,0 -173,-111 0,0 -55,-111 -55,-328 0,0 0,-164 35,-263 0,0 54,-151 184,-151 z m 1,-121 c 0,0 -193,0 -287,166 0,0 -78,139 -78,374 0,0 0,182 47,313 0,0 88,243 319,243 0,0 207,0 300,-171 0,0 71,-132 71,-362 0,0 0,-218 -65,-360 0,0 -94,-203 -307,-203 z"
       id="f0_7"
       transform="scale(0.001,-0.001)"
       inkscape:connector-curvature="0" />
    <path
       d="m 764,300 c -90,0 -164,15 -164,15 -75,16 -128,41 -128,41 -53,24 -83,56 -83,56 -29,31 -29,62 -29,62 l 0,106 c 50,-55 159,-88 159,-88 109,-34 245,-34 245,-34 136,0 244,35 244,35 108,35 160,90 160,90 l 0,-109 c 0,-31 -30,-62 -30,-62 -29,-32 -82,-56 -82,-56 C 1003,331 928,315 928,315 853,300 764,300 764,300 Z m 0,192 c -90,0 -164,15 -164,15 -75,17 -128,41 -128,41 -53,25 -83,56 -83,56 -29,32 -29,61 -29,61 l 0,108 c 50,-55 159,-90 159,-90 109,-35 245,-35 245,-35 136,0 244,34 244,34 108,34 160,91 160,91 l 0,-108 c 0,-29 -30,-61 -30,-61 -29,-31 -82,-56 -82,-56 C 1003,524 928,507 928,507 853,492 764,492 764,492 Z m 0,193 c -90,0 -164,16 -164,16 -75,15 -128,41 -128,41 -53,25 -83,55 -83,55 -29,31 -29,62 -29,62 l 0,106 c 50,-55 159,-90 159,-90 109,-35 245,-35 245,-35 136,0 244,35 244,35 108,35 160,90 160,90 l 0,-106 c 0,-31 -30,-62 -30,-62 -29,-30 -82,-55 -82,-55 C 1003,716 928,701 928,701 853,685 764,685 764,685 Z m 0,195 c -90,0 -164,15 -164,15 -75,17 -129,41 -129,41 -53,25 -82,56 -82,56 -29,31 -29,61 -29,61 0,32 29,63 29,63 29,31 82,56 82,56 54,25 129,41 129,41 74,15 164,15 164,15 89,0 164,-15 164,-15 75,-16 128,-41 128,-41 54,-25 82,-56 82,-56 30,-31 30,-63 30,-63 0,-30 -30,-61 -30,-61 -28,-31 -82,-56 -82,-56 C 1003,912 928,895 928,895 853,880 764,880 764,880 Z"
       id="f1_1u"
       transform="scale(0.001,-0.001)"
       inkscape:connector-curvature="0" />
    <path
       d="m 413,87 c 0,0 132,0 181,101 0,0 49,101 49,224 0,0 0,112 -35,182 0,0 -56,110 -194,110 0,0 -121,0 -177,-94 0,0 -55,-94 -55,-226 0,0 0,-127 55,-212 0,0 56,-85 176,-85 z M 400,-27 c 0,0 -163,0 -260,110 0,0 -96,111 -96,299 0,0 0,201 101,320 0,0 102,119 273,119 0,0 153,0 259,-102 0,0 106,-103 106,-303 0,0 0,-193 -93,-318 0,0 -93,-125 -290,-125 z"
       id="f0_15"
       transform="scale(0.001,-0.001)"
       inkscape:connector-curvature="0" />
    <path
       d="m 99,0 0,799 127,0 0,-114 c 0,0 57,70 120,101 0,0 64,30 141,30 0,0 170,0 230,-118 0,0 33,-65 33,-186 l 0,-512 -137,0 0,503 c 0,0 0,73 -22,118 0,0 -35,74 -129,74 0,0 -48,0 -79,-9 0,0 -55,-17 -97,-66 0,0 -33,-40 -43,-82 0,0 -10,-42 -10,-120 L 233,0 Z"
       id="f0_14"
       transform="scale(0.001,-0.001)"
       inkscape:connector-curvature="0" />
    <path
       d="m 99,0 0,795 137,0 0,-795 z m 0,944 0,152 137,0 0,-152 z"
       id="f0_z"
       transform="scale(0.001,-0.001)"
       inkscape:connector-curvature="0" />
    <path
       d="m 387,-22 c 0,0 -156,0 -250,113 0,0 -93,114 -93,286 0,0 0,210 102,327 0,0 102,117 261,117 0,0 135,0 220,-65 0,0 84,-66 101,-226 l -131,0 c 0,0 -11,74 -54,122 0,0 -43,49 -137,49 0,0 -128,0 -183,-125 0,0 -36,-81 -36,-200 0,0 0,-120 51,-202 0,0 50,-82 159,-82 0,0 84,0 133,51 0,0 49,51 67,140 l 131,0 c 0,0 -22,-159 -112,-233 0,0 -89,-72 -229,-72 z"
       id="f0_t"
       transform="scale(0.001,-0.001)"
       inkscape:connector-curvature="0" />
    <path
       d="m 64,357 0,138 374,0 0,-138 z"
       id="f0_5"
       transform="scale(0.001,-0.001)"
       inkscape:connector-curvature="0" />
    <path
       d="m 435,91 c 0,0 94,0 157,79 0,0 62,78 62,234 0,0 0,96 -28,164 0,0 -52,132 -191,132 0,0 -140,0 -191,-139 0,0 -28,-75 -28,-189 0,0 0,-93 28,-157 0,0 52,-124 191,-124 z m -348,-409 0,1113 131,0 0,-106 c 0,0 40,55 88,84 0,0 68,45 160,45 0,0 136,0 231,-104 0,0 95,-104 95,-297 0,0 0,-261 -137,-373 0,0 -87,-69 -202,-69 0,0 -91,0 -152,38 0,0 -36,23 -80,77 l 0,-408 z"
       id="f0_16"
       transform="scale(0.001,-0.001)"
       inkscape:connector-curvature="0" />
    <path
       d="m 103,0 0,799 127,0 0,-139 c 0,0 15,41 77,99 0,0 61,57 141,57 0,0 4,0 13,0 0,0 9,-1 31,-3 l 0,-142 c 0,0 -12,2 -22,3 0,0 -10,1 -22,1 0,0 -102,0 -157,-66 0,0 -54,-65 -54,-150 L 237,0 Z"
       id="f0_18"
       transform="scale(0.001,-0.001)"
       inkscape:connector-curvature="0" />
    <path
       d="M 303,0 8,799 164,799 378,148 601,799 748,799 446,0 Z"
       id="f0_1c"
       transform="scale(0.001,-0.001)"
       inkscape:connector-curvature="0" />
    <path
       d="m 411,89 c 0,0 93,0 152,80 0,0 60,80 60,230 0,0 0,152 -62,224 0,0 -61,73 -151,73 0,0 -101,0 -164,-77 0,0 -62,-78 -62,-229 0,0 0,-128 54,-214 0,0 54,-87 173,-87 z M 369,-27 c 0,0 -133,0 -230,111 0,0 -97,112 -97,299 0,0 0,175 89,303 0,0 88,128 253,128 0,0 91,0 153,-39 0,0 36,-23 81,-79 l 0,404 129,0 0,-1100 -121,0 0,111 c 0,0 -47,-74 -111,-106 0,0 -63,-32 -146,-32 z"
       id="f0_u"
       transform="scale(0.001,-0.001)"
       inkscape:connector-curvature="0" />
    <path
       d="m 398,0 0,757 -251,0 0,102 c 0,0 145,15 202,48 0,0 58,33 86,157 l 106,0 0,-1064 z"
       id="f0_8"
       transform="scale(0.001,-0.001)"
       inkscape:connector-curvature="0" />
    <path
       d="m 755,422 c 78,0 148,8 148,8 70,9 125,24 125,24 58,16 78,32 78,32 20,17 20,24 20,24 l -1,0 0,114 c -15,-11 -37,-20 -37,-20 -21,-9 -50,-16 -50,-16 -56,-17 -129,-26 -129,-26 -73,-8 -154,-8 -154,-8 -81,0 -154,8 -154,8 -73,8 -131,24 -131,24 -27,8 -49,17 -49,17 -21,9 -38,19 -38,19 l 0,-112 c 0,-7 21,-24 21,-24 20,-16 78,-32 78,-32 55,-15 126,-24 126,-24 71,-8 147,-8 147,-8 z m 0,175 c 78,0 148,8 148,8 70,8 125,25 125,25 58,15 78,31 78,31 20,16 20,24 20,24 l -1,0 0,112 c -15,-11 -37,-20 -37,-20 -21,-9 -50,-16 -50,-16 -56,-17 -129,-25 -129,-25 -73,-8 -154,-8 -154,-8 -81,0 -154,9 -154,9 -73,9 -131,24 -131,24 -27,9 -49,18 -49,18 -21,9 -38,18 -38,18 l 0,-112 c 0,-8 21,-24 21,-24 20,-16 78,-31 78,-31 55,-17 124,-25 124,-25 70,-8 149,-8 149,-8 z m 0,176 c 78,0 148,7 148,7 70,8 125,23 125,23 58,16 78,33 78,33 20,16 20,23 20,23 l 0,112 c -16,-9 -38,-18 -38,-18 -21,-9 -48,-18 -48,-18 -58,-14 -131,-23 -131,-23 -73,-8 -154,-8 -154,-8 -81,0 -154,8 -154,8 -73,7 -130,23 -130,23 -26,9 -49,18 -49,18 -22,9 -37,18 -37,18 l 0,-112 c 0,-7 19,-24 19,-24 20,-16 79,-32 79,-32 54,-15 125,-23 125,-23 71,-7 147,-7 147,-7 z m 0,174 c 76,0 146,9 146,9 70,8 125,23 125,23 60,16 80,33 80,33 20,16 19,23 19,23 0,6 -19,23 -19,23 -20,16 -80,33 -80,33 -53,15 -124,23 -124,23 -71,8 -147,8 -147,8 -78,0 -148,-8 -148,-8 -70,-8 -125,-23 -125,-23 -58,-17 -78,-33 -78,-33 -21,-17 -21,-23 -21,-23 0,-7 21,-23 21,-23 20,-17 78,-33 78,-33 55,-15 125,-23 125,-23 70,-9 148,-9 148,-9 z m 0,-568 c -81,0 -154,8 -154,8 -73,8 -131,25 -131,25 -28,7 -52,17 -52,17 -23,10 -39,20 -39,20 -19,14 -30,28 -30,28 -10,15 -10,33 -10,33 l 0,525 c 0,17 10,32 10,32 11,15 30,28 30,28 16,12 40,21 40,21 23,9 51,16 51,16 58,15 131,24 131,24 73,9 154,9 154,9 81,0 154,-8 154,-8 73,-8 129,-25 129,-25 29,-7 52,-16 52,-16 23,-9 39,-21 39,-21 21,-13 31,-28 31,-28 10,-15 10,-32 10,-32 l 0,-525 c 0,-16 -10,-31 -10,-31 -10,-15 -31,-28 -31,-28 -16,-12 -39,-21 -39,-21 -23,-9 -52,-17 -52,-17 -56,-16 -129,-25 -129,-25 -73,-9 -154,-9 -154,-9 z"
       id="f1_1v"
       transform="scale(0.001,-0.001)"
       inkscape:connector-curvature="0" />
    <path
       d="m 385,-29 c 0,0 -181,0 -256,80 0,0 -75,81 -80,200 l 129,0 c 0,0 6,-67 34,-103 0,0 52,-65 180,-65 0,0 76,0 134,33 0,0 58,32 58,100 0,0 0,51 -46,78 0,0 -30,16 -117,38 l -109,27 c 0,0 -103,25 -153,56 0,0 -88,55 -88,151 0,0 0,113 83,183 0,0 83,70 223,70 0,0 183,0 264,-105 0,0 51,-67 49,-145 l -127,0 c 0,0 -4,45 -33,82 0,0 -47,53 -164,53 0,0 -78,0 -118,-29 0,0 -40,-29 -40,-77 0,0 0,-52 53,-83 0,0 30,-18 90,-33 l 90,-21 c 0,0 147,-35 197,-68 0,0 79,-51 79,-162 0,0 0,-106 -82,-184 0,0 -82,-76 -250,-76 z"
       id="f0_19"
       transform="scale(0.001,-0.001)"
       inkscape:connector-curvature="0" />
    <path
       d="m 357,-20 c 0,0 -167,0 -228,113 0,0 -33,61 -33,163 l 0,543 137,0 0,-531 c 0,0 0,-61 19,-100 0,0 34,-71 130,-71 0,0 136,0 186,125 0,0 27,67 27,184 l 0,393 133,0 0,-799 -126,0 2,118 c 0,0 -26,-46 -64,-77 0,0 -75,-61 -183,-61 z"
       id="f0_1b"
       transform="scale(0.001,-0.001)"
       inkscape:connector-curvature="0" />
    <path
       d="m 287,-12 c 0,0 -94,0 -127,47 0,0 -34,49 -34,125 l 0,529 -108,0 0,110 108,0 0,223 136,0 0,-223 127,0 0,-110 -127,0 0,-521 c 0,0 0,-42 28,-56 0,0 16,-8 52,-8 0,0 10,0 21,0 0,0 11,1 26,3 L 389,0 c 0,0 -23,-6 -48,-9 0,0 -25,-3 -54,-3 z"
       id="f0_1a"
       transform="scale(0.001,-0.001)"
       inkscape:connector-curvature="0" />
    <path
       d="m 103,0 0,1096 134,0 0,-1096 z"
       id="f0_12"
       transform="scale(0.001,-0.001)"
       inkscape:connector-curvature="0" />
    <path
       d="m 48,0 c 0,0 7,138 57,240 0,0 50,103 194,186 l 143,83 c 0,0 96,56 135,95 0,0 61,62 61,142 0,0 0,94 -56,149 0,0 -56,54 -149,54 0,0 -138,0 -191,-104 0,0 -28,-56 -31,-156 l -137,0 c 0,0 3,140 52,228 0,0 87,155 308,155 0,0 183,0 268,-99 0,0 84,-100 84,-221 0,0 0,-128 -90,-219 0,0 -52,-53 -187,-129 L 407,348 c 0,0 -73,-40 -115,-77 0,0 -75,-65 -94,-144 l 583,0 0,-127 z"
       id="f0_9"
       transform="scale(0.001,-0.001)"
       inkscape:connector-curvature="0" />
    <path
       d="m 637,418 36,3 -36,591 -36,-3 36,-591 z m 145,0 0,594 -36,0 0,-594 z m 112,0 36,594 -36,4 -36,-595 36,-3 z m -3,702 0,36 c 0,14 -10,25 -10,25 -10,11 -26,11 -26,11 l -185,0 c -14,0 -25,-10 -25,-10 -11,-9 -11,-26 -11,-26 l 0,-36 z M 559,306 c -29,0 -51,21 -51,21 -22,22 -22,52 -22,52 l -35,706 -39,0 0,35 188,0 0,36 c 0,32 21,53 21,53 22,20 52,20 52,20 l 185,0 c 31,0 52,-21 52,-21 21,-22 21,-52 21,-52 l 0,-36 182,0 0,-35 -36,0 -36,-706 c 0,-31 -21,-52 -21,-52 -22,-21 -50,-21 -50,-21 z"
       id="f1_1w"
       transform="scale(0.001,-0.001)"
       inkscape:connector-curvature="0" />
    <path
       d="m 99,0 0,799 132,0 0,-114 c 0,0 48,59 86,86 0,0 67,45 151,45 0,0 96,0 154,-47 0,0 33,-26 60,-78 0,0 45,64 106,95 0,0 60,30 135,30 0,0 162,0 220,-116 0,0 31,-63 31,-168 l 0,-532 -140,0 0,555 c 0,0 0,80 -39,109 0,0 -40,30 -98,30 0,0 -79,0 -136,-53 0,0 -57,-53 -57,-176 l 0,-465 -137,0 0,521 c 0,0 0,81 -19,118 0,0 -31,56 -115,56 0,0 -76,0 -138,-58 0,0 -62,-59 -62,-213 L 233,0 Z"
       id="f0_13"
       transform="scale(0.001,-0.001)"
       inkscape:connector-curvature="0" />
    <path
       d="m 397,-27 c 0,0 -190,0 -275,103 l -86,253 140,0 c 0,0 9,-104 39,-151 0,0 52,-84 189,-84 0,0 106,0 170,57 0,0 65,56 65,146 0,0 0,110 -68,154 0,0 -67,44 -187,44 0,0 -14,0 -28,-1 0,0 -13,0 -27,-1 l 0,118 c 0,0 20,-2 35,-2 0,0 14,-1 30,-1 0,0 75,0 124,24 0,0 84,42 84,149 0,0 0,80 -56,123 0,0 -57,43 -132,43 0,0 -135,0 -186,-89 0,0 -29,-50 -32,-141 l -133,0 c 0,0 0,119 47,203 0,0 83,150 289,150 0,0 164,0 254,-73 0,0 89,-73 89,-211 0,0 0,-98 -53,-159 0,0 -33,-38 -85,-60 0,0 84,-23 132,-89 0,0 47,-66 47,-161 0,0 0,-153 -101,-249 0,0 -100,-95 -285,-95 z"
       id="f0_a"
       transform="scale(0.001,-0.001)"
       inkscape:connector-curvature="0" />
    <path
       d="m 457,383 83,27 -97,96 -27,-82 41,-41 z M 346,313 428,567 600,397 346,313 Z m 290,124 -168,166 463,462 3,3 167,-167 -465,-464 z m 501,503 -167,166 21,19 c 24,25 57,25 57,25 34,0 58,-25 58,-25 l 52,-52 c 24,-23 24,-56 24,-56 0,-34 -26,-58 -26,-58 l -19,-19 z"
       id="f1_1x"
       transform="scale(0.001,-0.001)"
       inkscape:connector-curvature="0" />
    <path
       d="m 345,88 c 0,0 71,0 137,32 0,0 113,54 113,178 l 0,108 c 0,0 -25,-16 -64,-26 0,0 -39,-11 -76,-15 l -81,-10 c 0,0 -73,-10 -110,-30 0,0 -63,-35 -63,-112 0,0 0,-58 43,-92 0,0 43,-33 101,-33 z M 314,-25 c 0,0 -111,0 -182,66 0,0 -70,67 -70,169 0,0 0,111 69,172 0,0 69,61 182,75 l 214,27 c 0,0 47,6 62,38 0,0 9,18 9,52 0,0 0,69 -48,100 0,0 -49,31 -140,31 0,0 -105,0 -149,-57 0,0 -25,-31 -32,-94 l -125,0 c 0,0 3,148 95,206 0,0 92,58 214,58 0,0 140,0 228,-53 0,0 87,-54 87,-167 l 0,-461 c 0,0 0,-21 9,-33 0,0 9,-13 36,-13 0,0 9,0 20,1 0,0 12,1 24,3 l 0,-98 c 0,0 -31,-9 -47,-11 0,0 -17,-3 -45,-3 0,0 -69,0 -101,49 0,0 -16,26 -23,74 0,0 -41,-54 -118,-93 0,0 -77,-38 -169,-38 z"
       id="f0_r"
       transform="scale(0.001,-0.001)"
       inkscape:connector-curvature="0" />
    <path
       d="m 275,325 0,803 131,0 0,-718 656,0 0,-85 z m 174,120 0,802 510,0 c -7,-3 -12,-10 -12,-10 -4,-8 -4,-17 -4,-17 l 0,-68 c 0,-15 10,-25 10,-25 9,-10 24,-10 24,-10 l 135,0 0,-134 c 0,-13 9,-23 9,-23 10,-10 23,-10 23,-10 l 69,0 c 7,0 13,3 13,3 6,2 11,6 11,6 l 0,-514 z m 743,559 c 0,0 -13,0 -24,10 0,0 -10,9 -10,23 l 0,134 -135,0 c 0,0 -13,0 -23,11 0,0 -9,10 -9,24 l 0,68 c 0,0 0,14 9,23 0,0 10,10 23,10 l 135,0 0,134 c 0,0 0,15 10,25 0,0 11,10 24,10 l 69,0 c 0,0 15,0 24,-10 0,0 10,-10 10,-25 l 0,-134 133,0 c 0,0 15,0 24,-10 0,0 10,-9 10,-23 l 0,-68 c 0,0 0,-14 -10,-24 0,0 -9,-11 -24,-11 l -133,0 0,-134 c 0,0 0,-14 -10,-23 0,0 -9,-10 -24,-10 z"
       id="f1_1y"
       transform="scale(0.001,-0.001)"
       inkscape:connector-curvature="0" />
    <path
       d="m 392,-25 c 0,0 -131,0 -231,72 0,0 -100,74 -112,226 l 140,0 c 0,0 13,-115 106,-159 0,0 48,-22 111,-22 0,0 119,0 176,76 0,0 57,76 57,168 0,0 0,112 -68,173 0,0 -68,61 -163,61 0,0 -70,0 -119,-27 0,0 -50,-27 -85,-75 l -116,7 82,575 554,0 0,-130 -454,0 -46,-296 c 0,0 38,28 71,43 0,0 60,24 138,24 0,0 147,0 249,-94 0,0 102,-95 102,-241 0,0 0,-151 -93,-267 0,0 -94,-114 -299,-114 z"
       id="f0_c"
       transform="scale(0.001,-0.001)"
       inkscape:connector-curvature="0" />
    <path
       d="m 765,485 c 29,0 56,6 56,6 28,6 52,16 52,16 l 1,2 c 50,21 88,59 88,59 38,38 59,87 59,87 l 0,-2 c 10,26 16,54 16,54 6,29 6,57 6,57 0,30 -6,57 -6,57 -6,28 -16,52 -16,52 l 0,1 c -21,50 -60,88 -60,88 -39,38 -88,59 -88,59 l 1,0 c -25,10 -53,16 -53,16 -27,6 -57,6 -57,6 -28,0 -55,-5 -55,-5 -26,-6 -48,-16 -48,-16 l -2,0 c -25,-10 -47,-25 -47,-25 -21,-14 -41,-32 -41,-32 l -46,48 c -3,3 -7,5 -7,5 -5,3 -9,3 -9,3 -2,0 -5,-1 -5,-1 -3,-1 -4,-2 -4,-2 -6,-3 -11,-9 -11,-9 -4,-5 -4,-12 -4,-12 l 0,-163 c 0,-10 7,-17 7,-17 6,-7 17,-7 17,-7 l 162,0 c 8,0 14,5 14,5 6,4 7,10 7,10 2,2 3,4 3,4 0,2 0,5 0,5 0,4 -2,9 -2,9 -2,4 -5,7 -5,7 l -51,50 c 13,12 28,21 28,21 14,9 30,16 30,16 l -1,0 c 16,6 33,9 33,9 17,3 35,3 35,3 l 3,0 c 20,0 38,-4 38,-4 18,-4 34,-10 34,-10 l 0,-1 c 33,-13 58,-39 58,-39 26,-25 40,-59 40,-59 l 0,1 c 8,-16 12,-35 12,-35 3,-19 3,-38 3,-38 0,-20 -3,-38 -3,-38 -4,-19 -12,-34 -12,-34 l 0,-1 c -14,-33 -40,-58 -40,-58 -25,-26 -58,-41 -58,-41 -16,-6 -35,-10 -35,-10 -19,-5 -38,-5 -38,-5 -45,0 -83,21 -83,21 -38,20 -63,52 -63,52 -2,2 -4,3 -4,3 -2,2 -5,2 -5,2 -3,0 -6,-1 -6,-1 -2,-1 -3,-2 -3,-2 l -49,-51 c -2,-1 -3,-3 -3,-3 0,-1 0,-4 0,-4 0,-3 0,-5 0,-5 1,-1 1,-3 1,-3 l 2,-1 c 17,-23 41,-41 41,-41 24,-19 54,-32 54,-32 l -3,0 c 28,-12 58,-20 58,-20 30,-7 63,-7 63,-7 z m -1,-190 c -97,0 -182,38 -182,38 -85,37 -149,100 -149,100 -63,64 -100,149 -100,149 -38,85 -38,182 -38,182 0,97 38,182 38,182 37,85 100,148 100,148 64,64 149,101 149,101 85,37 182,37 182,37 97,0 182,-37 182,-37 85,-37 148,-101 148,-101 64,-63 101,-148 101,-148 37,-85 37,-182 37,-182 0,-97 -37,-182 -37,-182 C 1158,497 1094,433 1094,433 1031,370 946,333 946,333 861,295 764,295 764,295 Z"
       id="f1_1z"
       transform="scale(0.001,-0.001)"
       inkscape:connector-curvature="0" />
    <path
       d="m 655,522 c 70,0 131,26 131,26 61,26 107,72 107,72 45,45 71,107 71,107 27,61 27,129 27,129 0,71 -27,132 -27,132 -26,61 -71,106 -71,106 -46,46 -107,73 -107,73 -61,25 -130,25 -130,25 -70,0 -129,-25 -129,-25 -62,-27 -107,-73 -107,-73 -46,-45 -72,-106 -72,-106 -27,-61 -27,-132 -27,-132 0,-68 27,-129 27,-129 25,-62 71,-107 71,-107 45,-46 106,-72 106,-72 60,-26 130,-26 130,-26 z M 1162,298 894,567 C 844,525 784,503 784,503 724,480 655,480 655,480 c -78,0 -146,29 -146,29 -69,30 -120,80 -120,80 -50,51 -79,120 -79,120 -30,68 -30,146 -30,146 0,77 30,146 30,146 29,69 79,119 79,119 51,51 120,80 120,80 68,29 146,29 146,29 78,0 146,-29 146,-29 69,-29 120,-80 120,-80 50,-50 80,-119 80,-119 30,-69 30,-146 30,-146 0,-69 -23,-129 -23,-129 -23,-61 -64,-110 -64,-110 l 267,-268 -49,-50 z"
       id="f1_20"
       transform="scale(0.001,-0.001)"
       inkscape:connector-curvature="0" />
    <path
       d="m 99,0 0,1100 134,0 0,-409 c 0,0 47,60 86,85 0,0 64,42 162,42 0,0 173,0 235,-121 0,0 34,-67 34,-184 l 0,-513 -138,0 0,503 c 0,0 0,88 -22,130 0,0 -37,65 -138,65 0,0 -83,0 -151,-57 0,0 -68,-58 -68,-217 L 233,0 Z"
       id="f0_y"
       transform="scale(0.001,-0.001)"
       inkscape:connector-curvature="0" />
    <path
       d="m 24,0 0,28 c 0,0 94,7 121,28 0,0 28,21 28,109 l 0,681 c 0,0 0,84 -28,108 0,0 -27,24 -121,29 l 0,28 453,0 0,-28 c 0,0 -93,-5 -121,-29 0,0 -27,-24 -27,-108 l 0,-681 c 0,0 0,-88 27,-109 0,0 28,-21 121,-28 l 0,-28 z"
       id="f2_j"
       transform="scale(0.001,-0.001)"
       inkscape:connector-curvature="0" />
    <path
       d="m 331,-13 c 0,0 -117,0 -206,91 0,0 -90,92 -90,249 0,0 0,154 98,265 0,0 98,111 247,111 0,0 94,0 162,-48 0,0 67,-48 67,-105 0,0 0,-25 -17,-46 0,0 -17,-21 -53,-21 0,0 -26,0 -46,18 0,0 -20,18 -29,52 l -9,36 c 0,0 -10,40 -34,56 0,0 -24,16 -65,16 0,0 -85,0 -144,-74 0,0 -58,-74 -58,-198 0,0 0,-112 64,-202 0,0 65,-89 175,-89 0,0 77,0 138,50 0,0 34,30 78,93 l 21,-13 c 0,0 -43,-89 -90,-142 0,0 -90,-99 -209,-99 z"
       id="f2_n"
       transform="scale(0.001,-0.001)"
       inkscape:connector-curvature="0" />
    <path
       d="m 405,19 c 0,0 84,0 129,76 0,0 45,77 45,202 0,0 0,129 -58,243 0,0 -57,114 -166,114 0,0 -59,0 -102,-39 0,0 -75,-68 -75,-234 0,0 0,-133 60,-248 0,0 60,-114 167,-114 z m -24,-41 c 0,0 -144,0 -243,104 0,0 -99,105 -99,264 0,0 0,148 94,251 0,0 95,102 243,102 0,0 148,0 245,-97 0,0 97,-97 97,-258 0,0 0,-148 -94,-258 0,0 -94,-108 -243,-108 z"
       id="f2_w"
       transform="scale(0.001,-0.001)"
       inkscape:connector-curvature="0" />
    <path
       d="m 17,0 0,28 c 0,0 94,10 121,43 0,0 27,33 27,154 l 0,620 c 0,0 0,83 -26,108 0,0 -26,25 -118,30 l 0,28 301,0 351,-761 341,761 304,0 0,-28 c 0,0 -85,-6 -109,-31 0,0 -25,-25 -25,-107 l 0,-679 c 0,0 0,-83 25,-107 0,0 24,-23 109,-31 l 0,-28 -427,0 0,28 c 0,0 92,8 115,34 0,0 23,25 23,122 l 0,686 L 638,0 617,0 233,834 233,225 c 0,0 0,-125 36,-163 0,0 24,-25 106,-34 l 0,-28 z"
       id="f2_k"
       transform="scale(0.001,-0.001)"
       inkscape:connector-curvature="0" />
    <path
       d="m 27,0 0,21 c 0,0 54,6 75,26 0,0 21,20 21,89 l 0,378 c 0,0 0,48 -9,67 0,0 -14,28 -58,28 0,0 -7,0 -14,-1 0,0 -7,0 -18,-2 l 0,27 c 0,0 31,9 145,46 l 70,23 c 0,0 5,0 6,-4 0,0 1,-3 1,-10 l 0,-110 c 0,0 69,64 108,88 0,0 58,37 120,37 0,0 51,0 93,-29 0,0 80,-57 80,-202 l 0,-349 c 0,0 0,-54 22,-78 0,0 21,-24 71,-24 l 0,-21 -318,0 0,21 c 0,0 55,7 77,30 0,0 21,23 21,99 l 0,318 c 0,0 0,65 -24,107 0,0 -23,42 -87,42 0,0 -44,0 -89,-30 0,0 -26,-17 -66,-57 l 0,-418 c 0,0 0,-53 24,-72 0,0 24,-18 75,-19 l 0,-21 z"
       id="f2_v"
       transform="scale(0.001,-0.001)"
       inkscape:connector-curvature="0" />
    <path
       d="m 409,57 c 0,0 178,0 294,71 0,0 177,109 177,373 0,0 0,235 -146,354 0,0 -125,101 -331,101 0,0 -52,0 -70,-11 0,0 -18,-11 -18,-49 l 0,-778 c 0,0 0,-37 18,-49 0,0 18,-12 76,-12 z M 25,0 25,28 c 0,0 84,9 109,30 0,0 25,21 25,107 l 0,681 c 0,0 0,83 -24,107 0,0 -25,24 -110,30 l 0,28 412,0 c 0,0 208,0 352,-69 0,0 259,-123 259,-440 0,0 0,-114 -46,-217 0,0 -47,-103 -141,-174 0,0 -60,-45 -124,-68 C 737,43 620,0 450,0 Z"
       id="f2_i"
       transform="scale(0.001,-0.001)"
       inkscape:connector-curvature="0" />
    <path
       d="m 458,468 c 0,0 -9,75 -29,111 0,0 -36,65 -122,65 0,0 -85,0 -130,-75 0,0 -24,-40 -34,-101 z M 323,-17 c 0,0 -140,0 -216,105 0,0 -77,106 -77,244 0,0 0,150 89,258 0,0 89,109 231,109 0,0 105,0 184,-73 0,0 79,-72 79,-206 l -473,0 c 0,0 7,-172 78,-250 0,0 71,-79 168,-79 0,0 78,0 132,41 0,0 54,41 99,116 l 26,-9 c 0,0 -30,-95 -114,-176 0,0 -84,-80 -206,-80 z"
       id="f2_p"
       transform="scale(0.001,-0.001)"
       inkscape:connector-curvature="0" />
    <path
       d="m 24,0 0,20 c 0,0 59,5 78,19 0,0 30,21 30,86 l 0,387 c 0,0 0,55 -15,72 0,0 -14,17 -48,17 0,0 -15,0 -23,-1 0,0 -8,-2 -19,-5 l 0,26 54,18 c 0,0 29,9 96,35 0,0 66,25 70,25 0,0 4,0 5,-4 0,0 0,-3 0,-14 l 0,-101 c 0,0 74,67 128,93 0,0 53,26 110,26 0,0 77,0 122,-52 0,0 24,-29 40,-77 0,0 55,56 96,83 0,0 71,46 145,46 0,0 120,0 160,-98 0,0 24,-55 24,-175 l 0,-310 c 0,0 0,-53 23,-72 0,0 24,-19 85,-24 l 0,-20 -336,0 0,21 c 0,0 64,6 85,26 0,0 20,20 20,82 l 0,322 c 0,0 0,72 -15,107 0,0 -28,61 -109,61 0,0 -48,0 -96,-32 0,0 -28,-19 -68,-60 l 0,-382 c 0,0 0,-61 21,-92 0,0 22,-31 90,-33 l 0,-20 -342,0 0,20 c 0,0 71,8 90,34 0,0 20,25 20,125 l 0,209 c 0,0 0,115 -15,158 0,0 -25,73 -105,73 0,0 -45,0 -89,-25 0,0 -44,-25 -78,-65 l 0,-409 c 0,0 0,-56 20,-78 0,0 20,-22 86,-22 l 0,-20 z"
       id="f2_u"
       transform="scale(0.001,-0.001)"
       inkscape:connector-curvature="0" />
    <path
       d="m 49,0 0,21 c 0,0 58,2 81,22 0,0 24,20 24,100 l 0,493 -107,0 0,46 107,0 c 0,0 1,161 81,258 0,0 80,96 244,96 0,0 70,0 128,-32 0,0 58,-33 58,-78 0,0 0,-23 -16,-40 0,0 -16,-17 -41,-17 0,0 -34,0 -78,64 0,0 -44,64 -95,64 0,0 -52,0 -82,-18 0,0 -30,-18 -55,-68 0,0 -15,-38 -19,-78 0,0 -4,-41 -4,-151 l 210,0 c 0,0 27,0 61,0 0,0 33,1 56,5 0,0 7,0 35,7 0,0 27,6 34,6 0,0 3,0 7,-3 0,0 4,-3 4,-11 0,0 0,-7 -3,-44 l -1,-31 c 0,0 -1,-16 -1,-32 0,0 0,-16 0,-32 l 0,-398 c 0,0 0,-79 22,-100 0,0 22,-21 82,-28 l 0,-21 -335,0 0,22 c 0,0 71,7 88,27 0,0 17,20 17,100 l 0,402 c 0,0 0,53 -14,67 0,0 -15,13 -64,16 0,0 -35,1 -52,2 0,0 -51,0 -146,0 l 0,-502 c 0,0 0,-68 32,-93 0,0 20,-15 77,-20 l 0,-21 z"
       id="f2_14"
       transform="scale(0.001,-0.001)"
       inkscape:connector-curvature="0" />
    <path
       d="m 31,0 0,21 c 0,0 69,6 94,28 0,0 25,21 25,83 l 0,729 c 0,0 0,50 -9,68 0,0 -14,31 -60,31 0,0 -10,0 -23,-2 0,0 -12,-2 -31,-7 l 0,25 c 0,0 101,27 242,71 0,0 5,0 7,-4 0,0 1,-5 1,-20 l 0,-894 c 0,0 0,-65 22,-84 0,0 23,-19 93,-24 l 0,-21 z"
       id="f2_t"
       transform="scale(0.001,-0.001)"
       inkscape:connector-curvature="0" />
    <path
       d="m 203,-13 c 0,0 -31,0 -56,24 0,0 -24,25 -24,60 0,0 0,33 24,58 0,0 24,26 59,26 0,0 35,0 61,-25 0,0 26,-24 26,-58 0,0 0,-33 -24,-60 0,0 -25,-25 -66,-25 z m 2,549 c 0,0 -36,0 -59,25 0,0 -23,26 -23,58 0,0 0,35 24,59 0,0 24,24 58,24 0,0 33,0 59,-23 0,0 25,-24 25,-59 0,0 0,-37 -25,-61 0,0 -26,-23 -59,-23 z"
       id="f2_h"
       transform="scale(0.001,-0.001)"
       inkscape:connector-curvature="0" />
    <path
       d="m 3,-24 332,1057 75,0 L 79,-24 Z"
       id="f2_6"
       transform="scale(0.001,-0.001)"
       inkscape:connector-curvature="0" />
    <path
       d="m 393,37 c 0,0 80,0 137,80 0,0 57,80 57,223 0,0 0,137 -59,205 0,0 -60,68 -138,68 0,0 -55,0 -100,-34 0,0 -46,-34 -46,-67 l 0,-374 c 0,0 20,-51 58,-76 0,0 38,-25 91,-25 z M 8,-331 l 0,24 c 0,0 70,4 88,30 0,0 19,25 19,80 l 0,715 c 0,0 0,57 -13,73 0,0 -14,16 -52,16 0,0 -9,0 -16,-1 0,0 -7,0 -20,-3 l 0,25 71,23 c 0,0 3,1 150,51 0,0 4,0 6,-3 0,0 2,-4 2,-8 l 0,-101 c 0,0 49,49 86,73 0,0 67,42 138,42 0,0 102,0 177,-88 0,0 74,-87 74,-239 0,0 0,-150 -89,-271 0,0 -89,-121 -224,-121 0,0 -42,0 -73,11 0,0 -47,15 -88,57 l 0,-244 c 0,0 0,-75 25,-92 0,0 25,-17 107,-23 l 0,-26 z"
       id="f2_x"
       transform="scale(0.001,-0.001)"
       inkscape:connector-curvature="0" />
    <path
       d="m 7,0 0,24 c 0,0 69,6 91,25 0,0 22,18 22,78 l 0,336 c 0,0 0,75 -14,106 0,0 -13,32 -50,32 0,0 -7,0 -20,-2 0,0 -12,-1 -25,-4 l 0,24 c 0,0 42,15 87,31 0,0 44,15 61,22 0,0 38,14 77,32 0,0 5,0 6,-4 0,0 1,-4 1,-16 l 0,-122 c 0,0 48,66 93,104 0,0 44,37 92,37 0,0 38,0 61,-23 0,0 24,-23 24,-57 0,0 0,-31 -18,-52 0,0 -18,-20 -46,-20 0,0 -28,0 -56,26 0,0 -29,26 -45,26 0,0 -27,0 -65,-42 0,0 -38,-43 -38,-87 l 0,-337 c 0,0 0,-64 30,-89 0,0 28,-24 94,-24 2,0 3,0 5,0 l 0,-24 z"
       id="f2_y"
       transform="scale(0.001,-0.001)"
       inkscape:connector-curvature="0" />
    <path
       d="m 30,0 0,21 c 0,0 80,7 101,27 0,0 21,20 21,107 l 0,356 c 0,0 0,49 -7,67 0,0 -11,31 -47,31 0,0 -8,0 -16,-2 0,0 -8,-1 -45,-12 l 0,24 32,10 c 0,0 130,43 181,64 0,0 21,9 27,9 0,0 2,-5 2,-11 l 0,-536 c 0,0 0,-85 20,-107 0,0 21,-21 93,-27 l 0,-21 z m 173,886 c 0,0 -33,0 -55,23 0,0 -23,22 -23,54 0,0 0,32 23,55 0,0 22,23 55,23 0,0 32,0 55,-22 0,0 23,-23 23,-56 0,0 0,-32 -23,-54 0,0 -23,-23 -55,-23 z"
       id="f2_s"
       transform="scale(0.001,-0.001)"
       inkscape:connector-curvature="0" />
    <path
       d="m 393,-13 c 0,0 -7,0 -12,9 0,0 -5,7 -11,20 L 141,562 c 0,0 -28,66 -59,90 0,0 -19,13 -55,18 l 0,23 301,0 0,-23 c 0,0 -39,-5 -55,-12 0,0 -16,-8 -16,-33 0,0 0,-12 4,-23 0,0 3,-10 11,-31 L 429,196 562,527 c 0,0 10,24 18,51 0,0 9,27 9,41 0,0 0,29 -28,42 0,0 -16,7 -44,9 l 0,23 211,0 0,-23 c 0,0 -36,-3 -52,-24 0,0 -16,-22 -47,-98 L 414,11 c 0,0 -6,-13 -10,-18 0,0 -4,-6 -11,-6 z"
       id="f2_12"
       transform="scale(0.001,-0.001)"
       inkscape:connector-curvature="0" />
    <path
       d="m 298,79 c 0,0 50,0 95,28 0,0 45,27 45,70 l 0,237 c 0,0 -86,-29 -142,-63 0,0 -107,-67 -107,-151 0,0 0,-68 44,-100 0,0 30,-21 65,-21 z m -84,-89 c 0,0 -64,0 -111,44 0,0 -47,45 -47,115 0,0 0,108 108,180 0,0 69,45 274,122 l 0,63 c 0,0 0,76 -15,106 0,0 -25,50 -106,50 0,0 -38,0 -72,-20 0,0 -35,-20 -35,-55 0,0 0,-9 4,-30 0,0 4,-21 4,-27 0,0 0,-42 -28,-58 0,0 -15,-10 -37,-10 0,0 -33,0 -51,22 0,0 -18,22 -18,49 0,0 0,52 65,109 0,0 64,57 189,57 0,0 145,0 197,-94 0,0 27,-51 27,-150 l 0,-299 c 0,0 0,-43 6,-59 0,0 10,-30 40,-30 0,0 18,0 29,6 0,0 11,5 39,25 l 0,-39 c 0,0 -24,-29 -52,-48 0,0 -42,-27 -85,-27 0,0 -51,0 -74,32 0,0 -23,33 -25,78 0,0 -57,-49 -97,-73 0,0 -68,-39 -129,-39 z"
       id="f2_l"
       transform="scale(0.001,-0.001)"
       inkscape:connector-curvature="0" />
    <path
       d="m 244,-13 c 0,0 -88,0 -119,78 0,0 -17,42 -17,117 l 0,452 -82,0 c 0,0 -4,2 -6,4 0,0 -1,2 -1,6 0,0 0,8 3,12 0,0 3,4 21,19 0,0 52,42 74,69 0,0 23,26 108,140 0,0 10,0 12,-2 0,0 2,-1 2,-11 l 0,-184 150,0 0,-53 -152,0 -2,-429 c 0,0 0,-57 10,-86 0,0 18,-52 70,-52 0,0 27,0 47,13 0,0 20,13 45,40 l 19,-16 -16,-22 c 0,0 -39,-53 -82,-74 0,0 -44,-21 -84,-21 z"
       id="f2_10"
       transform="scale(0.001,-0.001)"
       inkscape:connector-curvature="0" />
    <path
       d="m 60,297 0,96 377,0 0,-96 z"
       id="f2_4"
       transform="scale(0.001,-0.001)"
       inkscape:connector-curvature="0" />
    <path
       d="m 382,-247 c 0,0 124,0 201,43 0,0 78,42 78,105 0,0 0,50 -63,66 0,0 -39,10 -147,12 0,0 -28,0 -58,1 0,0 -31,2 -56,3 0,0 -17,1 -54,6 0,0 -36,5 -54,9 0,0 -9,0 -44,-47 0,0 -35,-48 -35,-88 0,0 0,-63 70,-86 0,0 71,-24 162,-24 z m 6,513 c 0,0 41,0 69,22 0,0 45,36 45,125 0,0 0,71 -36,159 0,0 -37,89 -121,89 0,0 -73,0 -100,-69 0,0 -14,-37 -14,-91 0,0 0,-90 44,-163 0,0 44,-72 113,-72 z m -82,-597 c 0,0 -123,0 -194,49 0,0 -72,50 -72,104 0,0 0,27 19,53 0,0 19,25 75,76 l 49,44 9,8 c 0,0 -34,13 -51,26 0,0 -30,23 -30,53 0,0 0,28 26,61 0,0 26,33 110,108 0,0 -68,22 -106,80 0,0 -37,57 -37,128 0,0 0,88 69,166 0,0 69,78 196,78 0,0 55,0 120,-26 0,0 66,-25 126,-25 0,0 16,0 48,1 0,0 32,1 46,1 l 9,0 0,-60 -130,0 c 0,0 14,-32 21,-55 0,0 13,-43 13,-82 0,0 0,-85 -71,-156 0,0 -70,-71 -189,-71 0,0 -19,0 -67,7 0,0 -22,0 -58,-37 0,0 -36,-37 -36,-60 0,0 0,-24 53,-35 0,0 34,-7 76,-7 0,0 192,0 260,-22 0,0 113,-35 113,-149 0,0 0,-118 -132,-188 0,0 -131,-70 -265,-70 z"
       id="f2_r"
       transform="scale(0.001,-0.001)"
       inkscape:connector-curvature="0" />
    <path
       d="m 289,-13 c 0,0 -65,0 -122,46 0,0 -58,45 -58,152 l 0,387 c 0,0 0,60 -26,80 0,0 -16,13 -70,18 l 0,20 223,0 0,-476 c 0,0 0,-51 14,-81 0,0 28,-57 102,-57 0,0 51,0 99,34 0,0 28,18 56,51 l 0,408 c 0,0 0,57 -22,75 0,0 -22,18 -89,22 l 0,24 241,0 0,-524 c 0,0 0,-51 18,-70 0,0 16,-17 68,-17 3,0 6,0 9,0 l 0,-20 c 0,0 -41,-12 -60,-17 0,0 -20,-6 -65,-21 0,0 -20,-6 -85,-31 0,0 -4,0 -5,4 0,0 -1,3 -1,6 l 0,121 c 0,0 -50,-61 -92,-90 0,0 -64,-44 -135,-44 z"
       id="f2_11"
       transform="scale(0.001,-0.001)"
       inkscape:connector-curvature="0" />
    <path
       d="m 389,67 c 0,0 58,0 94,34 0,0 36,34 36,65 l 0,320 c 0,0 0,97 -52,137 0,0 -52,40 -101,40 0,0 -94,0 -146,-83 0,0 -53,-84 -53,-205 0,0 0,-120 56,-214 0,0 56,-94 166,-94 z m -68,-80 c 0,0 -127,0 -206,97 0,0 -79,98 -79,227 0,0 0,162 95,278 0,0 94,116 231,116 0,0 54,0 100,-24 0,0 30,-15 57,-43 l 0,236 c 0,0 0,46 -10,63 0,0 -10,17 -48,17 0,0 -9,0 -16,-1 0,0 -6,0 -29,-3 l 0,25 61,16 c 0,0 33,9 67,18 0,0 33,10 58,19 0,0 12,4 40,14 l 4,-1 -1,-78 c 0,0 -1,-43 -1,-88 0,0 -1,-45 -1,-89 l -2,-609 c 0,0 0,-49 12,-68 0,0 12,-19 64,-19 0,0 8,0 17,0 0,0 8,0 16,2 l 0,-25 c 0,0 -5,-1 -108,-37 l -118,-43 -5,7 0,90 c 0,0 -42,-45 -72,-64 0,0 -55,-33 -126,-33 z"
       id="f2_o"
       transform="scale(0.001,-0.001)"
       inkscape:connector-curvature="0" />
    <path
       d="m 30,0 0,21 c 0,0 79,3 104,29 0,0 25,26 25,109 l 0,479 -127,0 0,49 127,0 c 0,0 0,118 32,199 0,0 62,156 225,156 0,0 66,0 118,-26 0,0 52,-26 52,-70 0,0 0,-24 -18,-44 0,0 -18,-19 -43,-19 0,0 -22,0 -37,13 0,0 -16,13 -37,46 l -13,19 c 0,0 -10,16 -25,27 0,0 -14,10 -39,10 0,0 -56,0 -76,-56 0,0 -12,-29 -12,-78 l 0,-177 186,0 0,-49 -186,0 0,-479 c 0,0 0,-84 23,-108 0,0 23,-24 119,-30 l 0,-21 z"
       id="f2_q"
       transform="scale(0.001,-0.001)"
       inkscape:connector-curvature="0" />
    <path
       d="m 293,-13 c 0,0 -44,0 -101,14 0,0 -57,15 -67,15 0,0 -9,0 -16,-6 0,0 -7,-7 -10,-15 l -20,0 0,240 25,0 c 0,0 17,-85 46,-130 0,0 52,-83 153,-83 0,0 56,0 88,30 0,0 32,31 32,81 0,0 0,31 -18,60 0,0 -19,29 -66,57 l -84,47 c 0,0 -91,49 -135,99 0,0 -43,50 -43,118 0,0 0,84 60,137 0,0 60,54 151,54 0,0 40,0 87,-15 0,0 48,-15 54,-15 0,0 13,0 19,4 0,0 6,3 11,11 l 17,0 5,-208 -23,0 c 0,0 -15,73 -40,113 0,0 -47,75 -134,75 0,0 -53,0 -83,-32 0,0 -30,-32 -30,-76 0,0 0,-68 103,-122 l 99,-53 c 0,0 159,-86 159,-201 0,0 0,-88 -66,-144 0,0 -66,-55 -173,-55 z"
       id="f2_z"
       transform="scale(0.001,-0.001)"
       inkscape:connector-curvature="0" />
    <path
       d="m 379,38 c 0,0 104,0 154,78 0,0 50,78 50,189 0,0 0,111 -47,205 0,0 -47,94 -152,94 0,0 -52,0 -103,-32 0,0 -50,-32 -50,-82 l 0,-380 c 0,0 6,-38 58,-55 0,0 51,-17 90,-17 z m -31,-51 c 0,0 -83,0 -163,32 0,0 -79,33 -79,66 l 0,787 c 0,0 0,44 -12,62 0,0 -12,18 -56,18 l -33,-4 0,26 c 0,0 85,19 153,43 0,0 68,24 73,24 0,0 2,-4 2,-9 l 0,-454 c 0,0 19,36 58,68 0,0 69,56 158,56 0,0 110,0 187,-92 0,0 78,-93 78,-240 0,0 0,-159 -101,-271 0,0 -101,-112 -265,-112 z"
       id="f2_m"
       transform="scale(0.001,-0.001)"
       inkscape:connector-curvature="0" />
    <path
       d="m 249,-17 c 0,0 -36,0 -60,24 0,0 -25,25 -25,60 0,0 0,35 25,60 0,0 25,25 60,25 0,0 35,0 60,-25 0,0 24,-25 24,-60 0,0 0,-35 -24,-60 0,0 -24,-24 -60,-24 z"
       id="f2_5"
       transform="scale(0.001,-0.001)"
       inkscape:connector-curvature="0" />
    <path
       d="m 180,0 0,22 c 0,0 90,5 118,25 0,0 28,20 28,87 l 0,690 c 0,0 0,37 -9,55 0,0 -9,19 -39,19 0,0 -19,0 -50,-11 0,0 -31,-11 -58,-23 l 0,21 274,140 9,0 c 0,0 3,-4 3,-6 0,0 1,-2 1,-8 l 0,-899 c 0,0 0,-57 30,-73 0,0 31,-15 115,-18 l 0,-21 z"
       id="f2_8"
       transform="scale(0.001,-0.001)"
       inkscape:connector-curvature="0" />
    <path
       d="m 39,0 0,17 408,622 -201,0 c 0,0 -80,0 -105,-27 0,0 -24,-28 -34,-107 l -26,0 2,180 536,0 0,-18 -414,-620 211,0 c 0,0 110,0 139,28 0,0 29,28 58,137 L 639,206 618,0 Z"
       id="f2_13"
       transform="scale(0.001,-0.001)"
       inkscape:connector-curvature="0" />
    <path
       d="m 384,25 c 0,0 85,0 129,48 0,0 44,48 44,119 0,0 0,82 -46,132 0,0 -47,50 -192,153 0,0 -64,-41 -93,-105 0,0 -28,-64 -28,-124 0,0 0,-102 52,-162 0,0 53,-61 134,-61 z m 9,570 c 0,0 70,49 97,83 0,0 46,57 46,139 0,0 0,70 -44,120 0,0 -43,50 -132,50 0,0 -68,0 -113,-44 0,0 -45,-43 -45,-105 0,0 0,-70 53,-130 0,0 52,-60 138,-113 z M 376,-16 c 0,0 -121,0 -208,67 0,0 -87,67 -87,178 0,0 0,95 60,167 0,0 40,47 137,113 0,0 -98,79 -134,126 0,0 -55,71 -55,158 0,0 0,98 82,167 0,0 81,69 212,69 0,0 120,0 191,-65 0,0 70,-65 70,-151 0,0 0,-87 -72,-157 0,0 -42,-39 -135,-91 0,0 127,-94 182,-163 0,0 55,-70 55,-165 0,0 0,-107 -81,-181 0,0 -81,-72 -217,-72 z"
       id="f2_f"
       transform="scale(0.001,-0.001)"
       inkscape:connector-curvature="0" />
    <path
       d="m 46,0 0,17 c 0,0 273,283 371,416 0,0 97,133 97,258 0,0 0,111 -59,168 0,0 -60,58 -143,58 0,0 -102,0 -165,-74 0,0 -35,-41 -67,-126 l -33,6 c 0,0 38,172 127,239 0,0 89,67 191,67 0,0 126,0 204,-80 0,0 78,-79 78,-194 0,0 0,-122 -84,-235 0,0 -84,-114 -366,-404 l 342,0 c 0,0 72,0 101,17 0,0 29,18 65,84 L 725,208 642,0 Z"
       id="f2_9"
       transform="scale(0.001,-0.001)"
       inkscape:connector-curvature="0" />
    <path
       d="m 232,-10 c 0,0 -92,0 -129,26 0,0 -37,28 -37,59 0,0 0,19 13,37 0,0 12,18 40,18 0,0 41,0 108,-43 0,0 68,-43 115,-43 0,0 104,0 155,71 0,0 51,70 51,153 0,0 0,80 -41,140 0,0 -70,102 -234,102 0,0 -10,0 -19,0 0,0 -9,0 -21,-2 l -1,20 c 0,0 119,43 187,99 0,0 69,56 69,147 0,0 0,82 -54,124 0,0 -54,43 -124,43 0,0 -82,0 -144,-61 0,0 -35,-32 -74,-101 l -23,5 c 0,0 30,114 111,182 0,0 81,68 188,68 0,0 114,0 176,-63 0,0 62,-63 62,-145 0,0 0,-73 -51,-133 0,0 -29,-35 -90,-77 0,0 71,-31 115,-72 0,0 81,-78 81,-198 0,0 0,-141 -112,-249 0,0 -111,-107 -317,-107 z"
       id="f2_a"
       transform="scale(0.001,-0.001)"
       inkscape:connector-curvature="0" />
    <path
       d="m 366,28 c 0,0 109,0 150,120 0,0 41,120 41,348 0,0 0,181 -24,289 0,0 -46,202 -173,202 0,0 -127,0 -174,-208 0,0 -25,-110 -25,-291 0,0 0,-169 26,-270 0,0 47,-190 179,-190 z m -9,-41 c 0,0 -147,0 -242,133 0,0 -101,142 -101,387 0,0 0,192 68,331 0,0 91,189 281,189 0,0 172,0 267,-180 0,0 75,-146 75,-334 0,0 0,-149 -46,-280 0,0 -88,-246 -302,-246 z"
       id="f2_7"
       transform="scale(0.001,-0.001)"
       inkscape:connector-curvature="0" />
    <path
       d="m 219,-217 -19,30 c 0,0 99,41 137,88 0,0 7,8 15,21 -7,-15 -15,-30 -27,-45 0,0 -49,-65 -106,-94 z m 133,139 0,0 c 11,25 17,48 20,66 2,-4 2,-9 2,-9 0,-18 -11,-40 -22,-57 z m 20,66 c -2,2 -4,3 -7,4 0,0 -9,3 -19,3 l -70,-5 c 0,0 -43,0 -79,20 0,0 -37,20 -37,59 0,0 0,30 22,58 0,0 22,28 71,28 0,0 47,0 84,-36 0,0 37,-37 37,-103 0,0 0,-12 -2,-28 z"
       id="f2_3"
       transform="scale(0.001,-0.001)"
       inkscape:connector-curvature="0" />
    <path
       d="M 446,353 446,869 80,353 Z m 2,-353 0,254 -430,0 0,99 477,672 71,0 0,-672 156,0 0,-99 -156,0 0,-254 z"
       id="f2_b"
       transform="scale(0.001,-0.001)"
       inkscape:connector-curvature="0" />
    <path
       d="m 242,-16 c 0,0 -74,0 -118,15 0,0 -75,22 -75,81 0,0 0,22 16,39 0,0 16,17 50,17 0,0 42,0 111,-48 0,0 70,-48 107,-48 0,0 86,0 150,76 0,0 65,75 65,186 0,0 0,193 -207,278 0,0 -114,47 -212,47 0,0 -17,0 -21,1 0,0 -4,1 -10,8 0,0 1,6 3,10 0,0 1,4 2,8 l 164,357 318,0 c 0,0 24,0 37,8 0,0 13,8 34,31 l 12,-11 -57,-138 c 0,0 -3,-7 -17,-8 0,0 -13,-2 -29,-2 l -289,0 -63,-131 c 0,0 122,-21 179,-40 0,0 93,-31 156,-92 0,0 54,-53 81,-119 0,0 28,-66 28,-140 0,0 0,-165 -118,-275 0,0 -117,-110 -297,-110 z"
       id="f2_c"
       transform="scale(0.001,-0.001)"
       inkscape:connector-curvature="0" />
  </defs>
  <!-- Any embedded fonts defined here -->
  <style
     type="text/css"
     id="style964"><![CDATA[

@font-face {
	font-family: oneicons_a;
	src: url("fonts/oneicons_a.woff") format("woff");
}

@font-face {
	font-family: Times-Roman_c;
	src: url("fonts/Times-Roman_c.woff") format("woff");
}

@font-face {
	font-family: Helvetica_8;
	src: url("fonts/Helvetica_8.woff") format("woff");
}

]]></style>
</svg>
