<?xml version="1.0" encoding="UTF-8" standalone="no"?>
<!-- Page 11 -->

<svg
   xmlns:dc="http://purl.org/dc/elements/1.1/"
   xmlns:cc="http://creativecommons.org/ns#"
   xmlns:rdf="http://www.w3.org/1999/02/22-rdf-syntax-ns#"
   xmlns:svg="http://www.w3.org/2000/svg"
   xmlns="http://www.w3.org/2000/svg"
   xmlns:sodipodi="http://sodipodi.sourceforge.net/DTD/sodipodi-0.dtd"
   xmlns:inkscape="http://www.inkscape.org/namespaces/inkscape"
   x="0"
   y="0"
   width="128"
   height="128"
   viewBox="0 0 128 128"
   version="1.1"
   style="display:block"
   id="svg2"
   inkscape:version="0.92.5 (2060ec1f9f, 2020-04-08)"
   sodipodi:docname="rerun.svg">
  <metadata
     id="metadata968">
    <rdf:RDF>
      <cc:Work
         rdf:about="">
        <dc:format>image/svg+xml</dc:format>
        <dc:type
           rdf:resource="http://purl.org/dc/dcmitype/StillImage" />
        <dc:title />
      </cc:Work>
    </rdf:RDF>
  </metadata>
  <sodipodi:namedview
     pagecolor="#ffffff"
     bordercolor="#666666"
     borderopacity="1"
     objecttolerance="10"
     gridtolerance="10"
     guidetolerance="10"
     inkscape:pageopacity="0"
     inkscape:pageshadow="2"
     inkscape:window-width="1920"
     inkscape:window-height="1036"
     id="namedview966"
     showgrid="false"
     inkscape:zoom="1.8101934"
     inkscape:cx="-14.984291"
     inkscape:cy="-41.969468"
     inkscape:window-x="0"
     inkscape:window-y="0"
     inkscape:window-maximized="1"
     inkscape:current-layer="svg2" />
  <path
     d="m 64.12649,87.487631 c 2.44575,0 4.72283,-0.50601 4.72283,-0.50601 2.36141,-0.50602 4.38548,-1.34938 4.38548,-1.34938 l 0.0843,-0.16867 c 4.21681,-1.771032 7.42158,-4.975842 7.42158,-4.975842 3.20478,-3.20477 4.97583,-7.33721 4.97583,-7.33721 v 0.16868 c 0.84337,-2.19274 1.34938,-4.55416 1.34938,-4.55416 0.50602,-2.44574 0.50602,-4.80716 0.50602,-4.80716 0,-2.53011 -0.50602,-4.80716 -0.50602,-4.80716 -0.50601,-2.36144 -1.34938,-4.38551 -1.34938,-4.38551 v -0.0843 c -1.77105,-4.2168 -5.06016,-7.42158 -5.06016,-7.42158 -3.28911,-3.20481 -7.42158,-4.97583 -7.42158,-4.97583 h 0.0843 c -2.1084,-0.84336 -4.46981,-1.34941 -4.46981,-1.34941 -2.27708,-0.50598 -4.80716,-0.50598 -4.80716,-0.50598 -2.36142,0 -4.63849,0.42168 -4.63849,0.42168 -2.19278,0.50601 -4.04817,1.34934 -4.04817,1.34934 h -0.16867 c -2.10841,0.8434 -3.9638,2.10844 -3.9638,2.10844 -1.77106,1.1807 -3.45778,2.69872 -3.45778,2.69872 l -3.87947,-4.04813 c -0.25301,-0.25301 -0.59035,-0.42165 -0.59035,-0.42165 -0.42168,-0.25301 -0.75903,-0.25301 -0.75903,-0.25301 -0.16867,0 -0.42168,0.0843 -0.42168,0.0843 -0.253,0.0843 -0.33734,0.16867 -0.33734,0.16867 -0.50602,0.25301 -0.9277,0.75902 -0.9277,0.75902 -0.33734,0.42165 -0.33734,1.01204 -0.33734,1.01204 v 13.74679 c 0,0.84336 0.59035,1.43371 0.59035,1.43371 0.50602,0.59036 1.43371,0.59036 1.43371,0.59036 H 56.1988 c 0.67469,0 1.18071,-0.42168 1.18071,-0.42168 0.50605,-0.33735 0.59038,-0.84337 0.59038,-0.84337 0.16868,-0.16867 0.25301,-0.33734 0.25301,-0.33734 0,-0.16867 0,-0.42168 0,-0.42168 0,-0.33734 -0.16867,-0.75903 -0.16867,-0.75903 -0.16867,-0.33734 -0.42172,-0.59035 -0.42172,-0.59035 l -4.30114,-4.21681 c 1.09637,-1.01206 2.36141,-1.77109 2.36141,-1.77109 1.18071,-0.75899 2.53012,-1.34934 2.53012,-1.34934 h -0.0843 c 1.34937,-0.50606 2.78309,-0.75903 2.78309,-0.75903 1.43371,-0.25301 2.95176,-0.25301 2.95176,-0.25301 h 0.25301 c 1.68672,0 3.20478,0.33735 3.20478,0.33735 1.51805,0.33734 2.86742,0.84339 2.86742,0.84339 v 0.0843 c 2.7831,1.09637 4.8915,3.28911 4.8915,3.28911 2.19274,2.10844 3.37345,4.97583 3.37345,4.97583 v -0.0843 c 0.67469,1.34937 1.01203,2.95176 1.01203,2.95176 0.25301,1.60239 0.25301,3.20477 0.25301,3.20477 0,1.68673 -0.25301,3.20478 -0.25301,3.20478 -0.33734,1.60238 -1.01203,2.86743 -1.01203,2.86743 v 0.0843 c -1.18071,2.7831 -3.37345,4.89153 -3.37345,4.89153 -2.1084,2.19274 -4.8915,3.45775 -4.8915,3.45775 -1.34937,0.50605 -2.95176,0.8434 -2.95176,0.8434 -1.60239,0.42164 -3.20477,0.42164 -3.20477,0.42164 -3.79513,0 -6.99994,-1.77102 -6.99994,-1.77102 -3.20477,-1.68672 -5.31318,-4.38548 -5.31318,-4.38548 -0.16867,-0.16867 -0.33734,-0.25301 -0.33734,-0.25301 -0.16867,-0.16867 -0.42168,-0.16867 -0.42168,-0.16867 -0.25301,0 -0.50602,0.0843 -0.50602,0.0843 -0.16867,0.0843 -0.25301,0.16867 -0.25301,0.16867 l -4.13247,4.30114 c -0.16867,0.0843 -0.25301,0.25301 -0.25301,0.25301 0,0.0843 0,0.33734 0,0.33734 0,0.25301 0,0.42168 0,0.42168 0.0843,0.0843 0.0843,0.25301 0.0843,0.25301 l 0.16867,0.0843 c 1.43372,1.9397 3.45778,3.45775 3.45778,3.45775 2.02407,1.60238 4.55416,2.698752 4.55416,2.698752 h -0.25301 c 2.36141,1.01204 4.89153,1.68673 4.89153,1.68673 2.53008,0.59035 5.31318,0.59035 5.31318,0.59035 z m -0.0843,16.023869 c -8.18065,0 -15.34922,-3.20477 -15.34922,-3.20477 C 41.5244,97.186291 36.12689,91.873111 36.12689,91.873111 30.81371,86.475601 27.69327,79.307029 27.69327,79.307029 24.4885,72.138419 24.4885,63.957849 24.4885,63.957849 c 0,-8.18061 3.20477,-15.34918 3.20477,-15.34918 3.12044,-7.16861 8.43362,-12.48178 8.43362,-12.48178 5.39751,-5.39752 12.56608,-8.51795 12.56608,-8.51795 7.16857,-3.12044 15.34922,-3.12044 15.34922,-3.12044 8.1806,0 15.34917,3.12044 15.34917,3.12044 7.16858,3.12043 12.48175,8.51795 12.48175,8.51795 5.39752,5.31317 8.51795,12.48178 8.51795,12.48178 3.12044,7.16857 3.12044,15.34918 3.12044,15.34918 0,8.18057 -3.12044,15.34918 -3.12044,15.34918 -3.12043,7.168572 -8.51795,12.566082 -8.51795,12.566082 -5.31317,5.31318 -12.48175,8.433619 -12.48175,8.433619 -7.16857,3.20477 -15.34917,3.20477 -15.34917,3.20477 z"
     inkscape:connector-curvature="0" />
</svg>
