<?xml version="1.0" encoding="UTF-8" standalone="no"?>
<svg
   xmlns:dc="http://purl.org/dc/elements/1.1/"
   xmlns:cc="http://creativecommons.org/ns#"
   xmlns:rdf="http://www.w3.org/1999/02/22-rdf-syntax-ns#"
   xmlns:svg="http://www.w3.org/2000/svg"
   xmlns="http://www.w3.org/2000/svg"
   xmlns:sodipodi="http://sodipodi.sourceforge.net/DTD/sodipodi-0.dtd"
   xmlns:inkscape="http://www.inkscape.org/namespaces/inkscape"
   width="128"
   height="128"
   viewBox="0 0 33.866666 33.866666"
   version="1.1"
   id="svg116"
   inkscape:version="0.92.5 (2060ec1f9f, 2020-04-08)"
   sodipodi:docname="rest.svg">
  <metadata
     id="metadata9">
    <rdf:RDF>
      <cc:Work
         rdf:about="">
        <dc:format>image/svg+xml</dc:format>
        <dc:type
           rdf:resource="http://purl.org/dc/dcmitype/StillImage" />
      </cc:Work>
    </rdf:RDF>
  </metadata>
  <sodipodi:namedview
     id="namedview118"
     pagecolor="#ffffff"
     bordercolor="#666666"
     borderopacity="1.0"
     objecttolerance="10.0"
     gridtolerance="10.0"
     guidetolerance="10.0"
     inkscape:pageshadow="2"
     inkscape:pageopacity="0.0"
     inkscape:pagecheckerboard="0"
     inkscape:document-units="mm"
     showgrid="false"
     width="128mm"
     units="px"
     inkscape:zoom="2.6832492"
     inkscape:cx="-102.115"
     inkscape:cy="70.623334"
     inkscape:window-width="1365"
     inkscape:window-height="1045"
     inkscape:window-x="0"
     inkscape:window-y="23"
     inkscape:window-maximized="0"
     inkscape:current-layer="svg116" />
  <defs
     id="defs113" />
  <path
     d="m 8.5263102,20.85934 q 0,-1.601109 -0.7895881,-2.215233 Q 6.9471341,18.029983 5.45569,18.029983 v -2.1933 q 1.5133771,0 2.2810321,-0.636057 0.7895881,-0.65799 0.7895881,-2.105568 v -2.807425 q 0,-1.6669077 0.855387,-2.6100272 0.8773198,-0.9431191 2.5880938,-0.9431191 h 3.289951 v 2.4126307 h -1.75464 q -0.636057,0 -1.074718,0.087732 -0.416727,0.087732 -0.679923,0.328995 -0.263196,0.241263 -0.372861,0.6799226 -0.109665,0.416727 -0.109665,1.096651 v 2.500362 q 0,1.447578 -0.789588,2.149434 -0.7895877,0.679923 -2.0617018,0.789588 v 0.21933 q 1.2501811,0.08773 2.0397688,0.855387 0.811521,0.745722 0.811521,2.171367 v 2.500362 q 0,0.679923 0.109665,1.09665 0.109665,0.43866 0.372861,0.679923 0.263196,0.241264 0.701856,0.328996 0.438661,0.08773 1.074718,0.08773 h 1.732707 v 2.41263 h -3.289951 q -1.644975,0 -2.5442277,-0.87732 -0.8992531,-0.87732 -0.8992531,-2.653894 z"
     id="path3400"
     inkscape:connector-curvature="0" />
  <path
     d="m 25.340355,23.600965 q 0,1.776574 -0.899253,2.653894 -0.899253,0.87732 -2.544229,0.87732 h -3.28995 v -2.41263 h 1.732707 q 0.636057,0 1.074717,-0.08773 0.43866,-0.08773 0.701856,-0.328996 Q 22.3794,24.06156 22.489065,23.6229 22.59873,23.206173 22.59873,22.52625 v -2.500362 q 0,-1.425645 0.789588,-2.171367 0.811521,-0.767655 2.061702,-0.855387 v -0.21933 Q 24.177906,16.670137 23.388318,15.990214 22.59873,15.288358 22.59873,13.84078 v -2.500362 q 0,-0.679924 -0.131598,-1.096651 Q 22.357467,9.8051074 22.09427,9.5638444 21.831074,9.3225814 21.392414,9.2348494 20.975687,9.1471174 20.361563,9.1471174 h -1.75464 V 6.7344867 h 3.28995 q 1.710775,0 2.566162,0.9431191 0.87732,0.9431195 0.87732,2.6100272 v 2.807425 q 0,1.447578 0.767655,2.105568 0.789588,0.636057 2.302965,0.636057 v 2.1933 q -1.491444,0 -2.281032,0.614124 -0.789588,0.614124 -0.789588,2.215233 z"
     id="path3402"
     inkscape:connector-curvature="0" />
</svg>
