<?xml version="1.0" encoding="UTF-8" standalone="no"?>
<svg
   xmlns:dc="http://purl.org/dc/elements/1.1/"
   xmlns:cc="http://creativecommons.org/ns#"
   xmlns:rdf="http://www.w3.org/1999/02/22-rdf-syntax-ns#"
   xmlns:svg="http://www.w3.org/2000/svg"
   xmlns="http://www.w3.org/2000/svg"
   xmlns:sodipodi="http://sodipodi.sourceforge.net/DTD/sodipodi-0.dtd"
   xmlns:inkscape="http://www.inkscape.org/namespaces/inkscape"
   viewBox="0 0 128.00001 128"
   version="1.1"
   id="svg8"
   sodipodi:docname="role-holder.svg"
   width="128"
   height="128"
   inkscape:version="0.92.2 2405546, 2018-03-11">
  <metadata
     id="metadata14">
    <rdf:RDF>
      <cc:Work
         rdf:about="">
        <dc:format>image/svg+xml</dc:format>
        <dc:type
           rdf:resource="http://purl.org/dc/dcmitype/StillImage" />
        <dc:title>role holder</dc:title>
      </cc:Work>
    </rdf:RDF>
  </metadata>
  <defs
     id="defs12" />
  <sodipodi:namedview
     pagecolor="#ffffff"
     bordercolor="#666666"
     borderopacity="1"
     objecttolerance="10"
     gridtolerance="10"
     guidetolerance="10"
     inkscape:pageopacity="0"
     inkscape:pageshadow="2"
     inkscape:window-width="1920"
     inkscape:window-height="1015"
     id="namedview10"
     showgrid="false"
     inkscape:zoom="3.4207857"
     inkscape:cx="34.509998"
     inkscape:cy="34.494999"
     inkscape:window-x="0"
     inkscape:window-y="0"
     inkscape:window-maximized="1"
     inkscape:current-layer="svg8" />
  <title
     id="title2">role holder</title>
  <g
     id="Warstwa_2"
     data-name="Warstwa 2"
     transform="matrix(1.1304348,0,0,1.1304348,24.999999,24.999999)">
    <g
       id="Layer_1"
       data-name="Layer 1">
      <path
         d="M 61.92,29.4 A 27.68,27.68 0 0 0 57.49,18.69 L 61.73,13 56,7.24 50.3,11.46 A 28.06,28.06 0 0 0 39.58,7 l -1,-7 H 30.46 L 29.4,7 A 27.84,27.84 0 0 0 18.68,11.45 L 13,7.26 11.26,9 l -4,4 4.24,5.74 A 27.71,27.71 0 0 0 7.08,29.44 L 0,30.46 v 8.07 l 7.09,1.07 a 27.56,27.56 0 0 0 4.43,10.65 L 7.26,56 13,61.75 18.79,57.47 A 27.76,27.76 0 0 0 29.4,61.86 L 30.47,69 h 8.07 l 1.08,-7.13 a 27.78,27.78 0 0 0 10.63,-4.39 l 5.8,4.28 1.7,-1.76 2.31,-2.3 1.7,-1.7 -4.27,-5.78 A 27.73,27.73 0 0 0 61.93,39.6 L 69,38.53 V 30.46 Z M 51,49.06 A 0.14,0.14 0 0 1 51,49 c 0,-0.09 -0.09,-0.09 -0.09,-0.18 L 50.73,48.64 50.56,48.47 50.38,48.29 C 50.38,48.2 50.29,48.2 50.2,48.11 50.11,48.02 50.11,48 50,48 49.89,48 49.73,47.83 49.55,47.74 49.37,47.65 49.02,47.47 48.75,47.38 48.13,47.12 47.42,46.85 46.63,46.59 H 46.54 C 46.36,46.5 46.18,46.5 46.01,46.41 H 46 c -0.09,-0.09 -0.27,-0.09 -0.36,-0.18 -0.09,-0.09 -0.18,-0.09 -0.26,-0.09 -0.08,0 -0.18,-0.09 -0.27,-0.09 -0.09,0 -0.27,-0.09 -0.44,-0.17 A 0.28,0.28 0 0 0 44.49,45.79 C 43.25,45.34 41.92,44.9 40.77,44.55 40.59,44.46 40.41,44.46 40.23,44.37 H 40 c -0.09,-0.09 -0.09,-0.27 -0.09,-1 V 42.58 A 1,1 0 0 0 40,42.13 v -0.26 c 0,-0.18 0.08,-0.27 0.08,-0.45 v -0.09 c 0.09,-0.17 0.09,-0.26 0.18,-0.44 a 4.21,4.21 0 0 0 0.27,-0.62 c 0,-0.09 0.09,-0.27 0.09,-0.36 0,-0.09 0.08,-0.26 0.17,-0.44 a 0.32,0.32 0 0 0 0.09,-0.26 9.44,9.44 0 0 0 0.36,-1.51 c 0.09,0 0.09,-0.09 0.17,-0.18 a 8,8 0 0 0 1.25,-3.19 c 0,-0.18 0.08,-0.36 0.08,-0.53 v -1.03 c -0.08,-0.35 -0.17,-0.71 -0.26,-1.06 -0.09,-0.09 -0.09,-0.09 -0.09,-0.18 v -1.68 a 10.65,10.65 0 0 1 0.18,-1.69 c 0,-0.18 0.09,-0.26 0.09,-0.44 V 27.63 A 7.17,7.17 0 0 0 41.15,22.4 1.43,1.43 0 0 0 40.8,22 L 40.71,21.91 A 1.17,1.17 0 0 0 40.36,21.55 L 40.18,21.37 A 1.37,1.37 0 0 0 39.83,21.11 C 39.74,21.02 39.65,21.02 39.56,20.93 A 1,1 0 0 0 39.21,20.67 C 39.12,20.58 38.94,20.58 38.85,20.49 38.76,20.4 38.59,20.4 38.41,20.31 38.23,20.22 38.14,20.22 37.97,20.13 37.8,20.04 37.7,20.04 37.52,19.96 c -0.18,-0.08 -0.35,-0.09 -0.53,-0.09 -0.18,0 -0.35,-0.09 -0.53,-0.09 a 1.12,1.12 0 0 0 -0.53,-0.09 c -0.18,0 -0.45,-0.09 -0.62,-0.09 h -1.78 a 4.22,4.22 0 0 0 -1.06,0.09 h -0.18 c -0.26,0.09 -0.53,0.09 -0.8,0.18 -0.08,0.09 -0.08,0.09 -0.17,0.09 -0.27,0.08 -0.45,0.17 -0.71,0.26 h -0.09 a 5.17,5.17 0 0 0 -0.71,0.36 H 29.72 A 3.8,3.8 0 0 0 29.1,20.93 L 29,21 c -0.18,0.09 -0.27,0.27 -0.44,0.35 l -0.18,0.18 -0.27,0.27 c -0.17,0.18 -0.26,0.35 -0.44,0.53 a 11.05,11.05 0 0 0 -1.06,2 8.26,8.26 0 0 0 -0.45,2.75 0.78,0.78 0 0 1 0.09,0.44 v 0.09 c 0,0.18 0.09,0.35 0.09,0.53 v 0.18 a 0.66,0.66 0 0 1 0.09,0.44 13.83,13.83 0 0 1 0.18,2.49 v 0.17 a 0.28,0.28 0 0 0 -0.09,0.18 v 0.09 c -0.09,0.09 -0.09,0.09 -0.09,0.18 a 0.3,0.3 0 0 0 -0.09,0.26 v 1.24 a 0.54,0.54 0 0 1 0.09,0.36 v 0.09 c 0,0.17 0.09,0.35 0.09,0.53 0,0.18 0.09,0.53 0.18,0.71 0.09,0.18 0.08,0.35 0.17,0.53 0.09,0.18 0.09,0.27 0.18,0.44 0.09,0.17 0.09,0.36 0.18,0.45 0.09,0.09 0.09,0.17 0.09,0.26 a 0.33,0.33 0 0 0 0.08,0.18 3.24,3.24 0 0 0 0.54,0.8 0.32,0.32 0 0 1 0.06,0.28 1.42,1.42 0 0 0 0.08,0.62 c 0.09,0.18 0.09,0.36 0.18,0.54 0.09,0.18 0.09,0.17 0.09,0.26 0,0.09 0.09,0.36 0.18,0.53 0.09,0.17 0.09,0.18 0.09,0.27 a 6.12,6.12 0 0 0 0.26,0.71 c 0.09,0.27 0.27,0.53 0.36,0.8 0.09,0.27 0.09,0.26 0.09,0.35 0,0.09 0.08,0.09 0.08,0.18 0,0.09 0.09,0.27 0.09,0.35 a 1.53,1.53 0 0 1 0.09,0.63 c 0,1 0,1 -0.26,1.06 l -0.89,0.27 h -0.09 a 3.48,3.48 0 0 1 -1,0.35 c -2.75,0.89 -6,2 -7.45,2.66 A 3.45,3.45 0 0 0 18.04,49.24 22.06,22.06 0 1 1 51,49.06 Z"
         id="path4"
         inkscape:connector-curvature="0" />
    </g>
  </g>
</svg>
