<?xml version="1.0" encoding="UTF-8" standalone="no"?>
<svg
   xmlns:dc="http://purl.org/dc/elements/1.1/"
   xmlns:cc="http://creativecommons.org/ns#"
   xmlns:rdf="http://www.w3.org/1999/02/22-rdf-syntax-ns#"
   xmlns:svg="http://www.w3.org/2000/svg"
   xmlns="http://www.w3.org/2000/svg"
   xmlns:sodipodi="http://sodipodi.sourceforge.net/DTD/sodipodi-0.dtd"
   xmlns:inkscape="http://www.inkscape.org/namespaces/inkscape"
   width="128"
   height="128"
   viewBox="0 0 128 128"
   version="1.1"
   id="svg16"
   sodipodi:docname="settings-circle.svg"
   inkscape:version="0.92.2 2405546, 2018-03-11">
  <metadata
     id="metadata20">
    <rdf:RDF>
      <cc:Work
         rdf:about="">
        <dc:format>image/svg+xml</dc:format>
        <dc:type
           rdf:resource="http://purl.org/dc/dcmitype/StillImage" />
        <dc:title>Group 4</dc:title>
      </cc:Work>
    </rdf:RDF>
  </metadata>
  <sodipodi:namedview
     pagecolor="#ffffff"
     bordercolor="#666666"
     borderopacity="1"
     objecttolerance="10"
     gridtolerance="10"
     guidetolerance="10"
     inkscape:pageopacity="0"
     inkscape:pageshadow="2"
     inkscape:window-width="1920"
     inkscape:window-height="1015"
     id="namedview18"
     showgrid="false"
     inkscape:zoom="3.2777778"
     inkscape:cx="4.4954311"
     inkscape:cy="62.310655"
     inkscape:window-x="0"
     inkscape:window-y="0"
     inkscape:window-maximized="1"
     inkscape:current-layer="svg16" />
  <!-- Generator: Sketch 50.2 (55047) - http://www.bohemiancoding.com/sketch -->
  <title
     id="title2">Group 4</title>
  <desc
     id="desc4">Created with Sketch.</desc>
  <defs
     id="defs6" />
  <path
     style="fill:#000000;fill-rule:evenodd;stroke:#ffffff;stroke-width:0;stroke-miterlimit:4;stroke-dasharray:none;stroke-opacity:1"
     d="M 64 25 A 39.495499 39 0 0 0 24.503906 64 A 39.495499 39 0 0 0 64 103 A 39.495499 39 0 0 0 103.49609 64 A 39.495499 39 0 0 0 64 25 z M 60.179688 37.316406 L 67.820312 37.316406 L 70.025391 43.828125 C 71.481885 44.249735 72.88868 44.822965 74.220703 45.539062 L 80.449219 42.46875 L 85.853516 47.792969 L 82.736328 53.931641 C 83.463143 55.241142 84.045383 56.627166 84.474609 58.066406 L 91.083984 60.236328 L 91.083984 67.763672 L 84.474609 69.933594 C 84.045383 71.372834 83.463143 72.758858 82.736328 74.068359 L 85.853516 80.207031 L 80.449219 85.529297 L 74.220703 82.460938 C 72.88868 83.177036 71.481885 83.750424 70.025391 84.171875 L 67.820312 90.683594 L 60.179688 90.683594 L 57.974609 84.171875 C 56.516681 83.750265 55.111319 83.177035 53.779297 82.460938 L 47.550781 85.529297 L 42.146484 80.207031 L 45.263672 74.068359 C 44.536854 72.758858 43.954615 71.372834 43.525391 69.933594 L 36.916016 67.763672 L 36.916016 60.236328 L 43.525391 58.066406 C 43.954613 56.627166 44.536854 55.241142 45.263672 53.931641 L 42.146484 47.792969 L 47.550781 42.46875 L 53.779297 45.539062 C 55.111319 44.822966 56.516681 44.249575 57.974609 43.828125 L 60.179688 37.316406 z M 64 51.412109 C 56.955016 51.412109 51.222656 57.05901 51.222656 64 C 51.222656 70.940991 56.955016 76.587891 64 76.587891 C 71.04498 76.587891 76.777344 70.940991 76.777344 64 C 76.777344 57.059009 71.04498 51.412109 64 51.412109 z "
     id="Oval-4-Copy" />
</svg>
