<?xml version="1.0" encoding="UTF-8" standalone="no"?>
<svg
   xmlns:dc="http://purl.org/dc/elements/1.1/"
   xmlns:cc="http://creativecommons.org/ns#"
   xmlns:rdf="http://www.w3.org/1999/02/22-rdf-syntax-ns#"
   xmlns:svg="http://www.w3.org/2000/svg"
   xmlns="http://www.w3.org/2000/svg"
   xmlns:sodipodi="http://sodipodi.sourceforge.net/DTD/sodipodi-0.dtd"
   xmlns:inkscape="http://www.inkscape.org/namespaces/inkscape"
   width="128"
   height="128"
   viewBox="0 0 128 128"
   version="1.1"
   id="svg2"
   inkscape:version="0.92.2 2405546, 2018-03-11"
   sodipodi:docname="sign-warning-rounded.svg">
  <metadata
     id="metadata15">
    <rdf:RDF>
      <cc:Work
         rdf:about="">
        <dc:format>image/svg+xml</dc:format>
        <dc:type
           rdf:resource="http://purl.org/dc/dcmitype/StillImage" />
        <dc:title>Fill 1</dc:title>
      </cc:Work>
    </rdf:RDF>
  </metadata>
  <sodipodi:namedview
     pagecolor="#ffffff"
     bordercolor="#666666"
     borderopacity="1"
     objecttolerance="10"
     gridtolerance="10"
     guidetolerance="10"
     inkscape:pageopacity="0"
     inkscape:pageshadow="2"
     inkscape:window-width="1920"
     inkscape:window-height="1006"
     id="namedview13"
     showgrid="false"
     inkscape:zoom="1.84375"
     inkscape:cx="-37.152542"
     inkscape:cy="51.085792"
     inkscape:window-x="1920"
     inkscape:window-y="0"
     inkscape:window-maximized="1"
     inkscape:current-layer="svg2" />
  <!-- Generator: Sketch 51.3 (57544) - http://www.bohemiancoding.com/sketch -->
  <title
     id="title4">Fill 1</title>
  <desc
     id="desc6">Created with Sketch.</desc>
  <defs
     id="defs8" />
  <g
     id="Login"
     transform="matrix(3.6398779,0,0,3.6398779,7.1987077e-5,5.9660416)"
     style="fill:#000000;fill-rule:evenodd;stroke:none;stroke-width:1">
    <g
       id="LOGIN-Desktop-full-Hb-1920x1080--Copy-12"
       transform="translate(-690,-368)"
       style="fill:#000000">
      <path
         d="m 709.37027,382.47195 c -0.0864,1.51962 -0.18102,3.03302 -0.2678,4.55306 -0.0432,0.49201 -0.0432,0.94084 -0.0432,1.42579 -0.0436,0.80341 -0.67345,1.42621 -1.47686,1.42621 -0.80341,0 -1.42579,-0.57962 -1.47645,-1.38261 -0.13037,-2.36704 -0.26822,-4.69091 -0.39817,-7.05754 -0.0436,-0.6228 -0.0868,-1.25265 -0.13743,-1.87504 0,-1.02761 0.57878,-1.87462 1.52004,-2.14242 0.94084,-0.22462 1.8742,0.22379 2.27985,1.11481 0.13743,0.31098 0.18103,0.62238 0.18103,0.98443 -0.0436,0.9915 -0.13743,1.97593 -0.18103,2.95331 m -1.78784,12.68223 c -1.07121,0 -1.9614,-0.8906 -1.9614,-1.96181 0,-1.07163 0.89019,-1.96181 1.9614,-1.96181 1.07121,0 1.96181,0.89018 1.91821,2.01205 0.0507,1.02097 -0.89018,1.91157 -1.91821,1.91157 m 16.88072,-3.17087 -12.32018,-21.33953 c -2.01247,-3.52504 -7.10156,-3.52504 -9.10655,0 l -12.32682,21.33953 c -2.01289,3.52504 0.492,7.90455 4.55264,7.90455 h 24.60383 c 4.06147,0 6.60913,-4.42269 4.59708,-7.90455"
         id="Fill-1"
         inkscape:connector-curvature="0"
         style="fill:#000000" />
    </g>
  </g>
</svg>
