<?xml version="1.0" encoding="UTF-8" standalone="no"?>
<svg
   xmlns:dc="http://purl.org/dc/elements/1.1/"
   xmlns:cc="http://creativecommons.org/ns#"
   xmlns:rdf="http://www.w3.org/1999/02/22-rdf-syntax-ns#"
   xmlns:svg="http://www.w3.org/2000/svg"
   xmlns="http://www.w3.org/2000/svg"
   xmlns:sodipodi="http://sodipodi.sourceforge.net/DTD/sodipodi-0.dtd"
   xmlns:inkscape="http://www.inkscape.org/namespaces/inkscape"
   width="128"
   height="128"
   viewBox="0 0 128 128"
   version="1.1"
   id="svg15"
   sodipodi:docname="store-tree-forest.svg"
   inkscape:version="0.92.5 (2060ec1f9f, 2020-04-08)">
  <metadata
     id="metadata19">
    <rdf:RDF>
      <cc:Work
         rdf:about="">
        <dc:format>image/svg+xml</dc:format>
        <dc:type
           rdf:resource="http://purl.org/dc/dcmitype/StillImage" />
        <dc:title>Group</dc:title>
      </cc:Work>
    </rdf:RDF>
  </metadata>
  <sodipodi:namedview
     pagecolor="#ffffff"
     bordercolor="#666666"
     borderopacity="1"
     objecttolerance="10"
     gridtolerance="10"
     guidetolerance="10"
     inkscape:pageopacity="0"
     inkscape:pageshadow="2"
     inkscape:window-width="1270"
     inkscape:window-height="848"
     id="namedview17"
     showgrid="false"
     inkscape:zoom="3.7926637"
     inkscape:cx="66.486857"
     inkscape:cy="46.445084"
     inkscape:window-x="698"
     inkscape:window-y="98"
     inkscape:window-maximized="0"
     inkscape:current-layer="g825" />
  <!-- Generator: Sketch 51 (57462) - http://www.bohemiancoding.com/sketch -->
  <title
     id="title2">Group</title>
  <desc
     id="desc4">Created with Sketch.</desc>
  <defs
     id="defs6" />
  <path
     style="color:#000000;font-style:normal;font-variant:normal;font-weight:normal;font-stretch:normal;font-size:medium;line-height:normal;font-family:sans-serif;font-variant-ligatures:normal;font-variant-position:normal;font-variant-caps:normal;font-variant-numeric:normal;font-variant-alternates:normal;font-feature-settings:normal;text-indent:0;text-align:start;text-decoration:none;text-decoration-line:none;text-decoration-style:solid;text-decoration-color:#000000;letter-spacing:normal;word-spacing:normal;text-transform:none;writing-mode:lr-tb;direction:ltr;text-orientation:mixed;dominant-baseline:auto;baseline-shift:baseline;text-anchor:start;white-space:normal;shape-padding:0;clip-rule:nonzero;display:inline;overflow:visible;visibility:visible;opacity:1;isolation:auto;mix-blend-mode:normal;color-interpolation:sRGB;color-interpolation-filters:linearRGB;solid-color:#000000;solid-opacity:1;vector-effect:none;fill:#000000;fill-opacity:1;fill-rule:evenodd;stroke:none;stroke-width:7.12727261;stroke-linecap:butt;stroke-linejoin:miter;stroke-miterlimit:4;stroke-dasharray:none;stroke-dashoffset:0;stroke-opacity:1;color-rendering:auto;image-rendering:auto;shape-rendering:auto;text-rendering:auto;enable-background:accumulate"
     d="M 42.618182,24.799999 C 32.80855,24.799999 24.8,32.808559 24.8,42.618181 V 85.381817 C 24.8,95.191439 32.80855,103.2 42.618182,103.2 H 85.381818 C 95.19145,103.2 103.2,95.191439 103.2,85.381817 V 42.618181 c 0,-9.809622 -8.00855,-17.818182 -17.818182,-17.818182 z m 0,7.127273 h 42.763636 c 5.984404,0 10.690909,4.706494 10.690909,10.690909 v 42.763636 c 0,5.984414 -4.706505,10.690909 -10.690909,10.690909 H 42.618182 c -5.984405,0 -10.690909,-4.706495 -10.690909,-10.690909 V 42.618181 c 0,-5.984415 4.706504,-10.690909 10.690909,-10.690909 z"
     id="Rectangle-15"
     inkscape:connector-curvature="0" />
  <g
     id="g1328">
    <g
       id="g825">
      <path
         style="opacity:1;vector-effect:none;fill:#000000;fill-opacity:1;stroke:none;stroke-width:0;stroke-linecap:butt;stroke-linejoin:round;stroke-miterlimit:4;stroke-dasharray:none;stroke-dashoffset:0;stroke-opacity:1;paint-order:normal"
         d="M 47.183594,42.5 C 44.865814,42.5 43,44.365814 43,46.683594 v 2.632812 C 43,51.634185 44.865814,53.5 47.183594,53.5 h 4.820312 l 0.04102,28.625 14.037109,0.02148 C 66.465032,84.063969 68.15017,85.5 70.183594,85.5 H 80.816406 C 83.134186,85.5 85,83.634186 85,81.316406 V 78.683594 C 85,76.365814 83.134186,74.5 80.816406,74.5 H 70.183594 c -2.287701,0 -4.128215,1.819812 -4.175782,4.095703 l -10.417968,-0.01563 -0.01758,-12.917969 10.46289,0.01563 C 66.219967,67.822261 67.989574,69.5 70.183594,69.5 H 80.816406 C 83.134186,69.5 85,67.634186 85,65.316406 V 62.683594 C 85,60.365814 83.134186,58.5 80.816406,58.5 H 70.183594 c -2.127105,0 -3.855938,1.576858 -4.128906,3.626953 L 55.587891,62.111328 55.560547,53.5 H 80.816406 C 83.134186,53.5 85,51.634185 85,49.316406 V 46.683594 C 85,44.365814 83.134186,42.5 80.816406,42.5 Z"
         id="rect935"
         inkscape:connector-curvature="0" />
    </g>
  </g>
</svg>
