<?xml version="1.0" encoding="UTF-8" standalone="no"?>
<svg
   xmlns:dc="http://purl.org/dc/elements/1.1/"
   xmlns:cc="http://creativecommons.org/ns#"
   xmlns:rdf="http://www.w3.org/1999/02/22-rdf-syntax-ns#"
   xmlns:svg="http://www.w3.org/2000/svg"
   xmlns="http://www.w3.org/2000/svg"
   xmlns:sodipodi="http://sodipodi.sourceforge.net/DTD/sodipodi-0.dtd"
   xmlns:inkscape="http://www.inkscape.org/namespaces/inkscape"
   width="128"
   height="128"
   viewBox="0 0 128 128"
   version="1.1"
   id="svg15"
   sodipodi:docname="store-audit-log.svg"
   inkscape:version="0.92.5 (2060ec1f9f, 2020-04-08)">
  <metadata
     id="metadata19">
    <rdf:RDF>
      <cc:Work
         rdf:about="">
        <dc:format>image/svg+xml</dc:format>
        <dc:type
           rdf:resource="http://purl.org/dc/dcmitype/StillImage" />
        <dc:title>Group</dc:title>
      </cc:Work>
    </rdf:RDF>
  </metadata>
  <sodipodi:namedview
     pagecolor="#ffffff"
     bordercolor="#666666"
     borderopacity="1"
     objecttolerance="10"
     gridtolerance="10"
     guidetolerance="10"
     inkscape:pageopacity="0"
     inkscape:pageshadow="2"
     inkscape:window-width="1270"
     inkscape:window-height="848"
     id="namedview17"
     showgrid="false"
     inkscape:zoom="1.3409091"
     inkscape:cx="93.360574"
     inkscape:cy="120.73481"
     inkscape:window-x="1035"
     inkscape:window-y="198"
     inkscape:window-maximized="0"
     inkscape:current-layer="svg15" />
  <!-- Generator: Sketch 51 (57462) - http://www.bohemiancoding.com/sketch -->
  <title
     id="title2">Group</title>
  <desc
     id="desc4">Created with Sketch.</desc>
  <defs
     id="defs6" />
  <path
     style="color:#000000;font-style:normal;font-variant:normal;font-weight:normal;font-stretch:normal;font-size:medium;line-height:normal;font-family:sans-serif;font-variant-ligatures:normal;font-variant-position:normal;font-variant-caps:normal;font-variant-numeric:normal;font-variant-alternates:normal;font-feature-settings:normal;text-indent:0;text-align:start;text-decoration:none;text-decoration-line:none;text-decoration-style:solid;text-decoration-color:#000000;letter-spacing:normal;word-spacing:normal;text-transform:none;writing-mode:lr-tb;direction:ltr;text-orientation:mixed;dominant-baseline:auto;baseline-shift:baseline;text-anchor:start;white-space:normal;shape-padding:0;clip-rule:nonzero;display:inline;overflow:visible;visibility:visible;opacity:1;isolation:auto;mix-blend-mode:normal;color-interpolation:sRGB;color-interpolation-filters:linearRGB;solid-color:#000000;solid-opacity:1;vector-effect:none;fill:#000000;fill-opacity:1;fill-rule:evenodd;stroke:none;stroke-width:7.12727261;stroke-linecap:butt;stroke-linejoin:miter;stroke-miterlimit:4;stroke-dasharray:none;stroke-dashoffset:0;stroke-opacity:1;color-rendering:auto;image-rendering:auto;shape-rendering:auto;text-rendering:auto;enable-background:accumulate"
     d="M 42.618182,24.799998 C 32.80855,24.799998 24.8,32.808558 24.8,42.61818 V 85.381816 C 24.8,95.191438 32.80855,103.2 42.618182,103.2 H 85.381818 C 95.19145,103.2 103.2,95.191438 103.2,85.381816 V 42.61818 c 0,-9.809622 -8.00855,-17.818182 -17.818182,-17.818182 z m 0,7.127273 h 42.763636 c 5.984404,0 10.690909,4.706494 10.690909,10.690909 v 42.763636 c 0,5.984414 -4.706505,10.690909 -10.690909,10.690909 H 42.618182 c -5.984405,0 -10.690909,-4.706495 -10.690909,-10.690909 V 42.61818 c 0,-5.984415 4.706504,-10.690909 10.690909,-10.690909 z"
     id="Rectangle-15"
     inkscape:connector-curvature="0" />
  <rect
     style="opacity:1;vector-effect:none;fill:#000000;fill-opacity:1;stroke:none;stroke-width:0;stroke-linecap:butt;stroke-linejoin:round;stroke-miterlimit:4;stroke-dasharray:none;stroke-dashoffset:0;stroke-opacity:1;paint-order:normal"
     id="rect935"
     width="42"
     height="8.3999996"
     x="43"
     y="43.000019"
     ry="3.1948388" />
  <rect
     style="opacity:1;vector-effect:none;fill:#000000;fill-opacity:1;stroke:none;stroke-width:0;stroke-linecap:butt;stroke-linejoin:round;stroke-miterlimit:4;stroke-dasharray:none;stroke-dashoffset:0;stroke-opacity:1;paint-order:normal"
     id="rect935-1"
     width="9.0416346"
     height="8.3999996"
     x="43"
     y="59.800026"
     ry="3.1948388" />
  <rect
     style="opacity:1;vector-effect:none;fill:#000000;fill-opacity:1;stroke:none;stroke-width:0;stroke-linecap:butt;stroke-linejoin:round;stroke-miterlimit:4;stroke-dasharray:none;stroke-dashoffset:0;stroke-opacity:1;paint-order:normal"
     id="rect935-2"
     width="11.678303"
     height="8.3999996"
     x="43"
     y="76.599998"
     ry="3.1948388" />
  <path
     style="opacity:1;vector-effect:none;fill:#000000;fill-opacity:1;stroke:none;stroke-width:0;stroke-linecap:butt;stroke-linejoin:round;stroke-miterlimit:4;stroke-dasharray:none;stroke-dashoffset:0;stroke-opacity:1;paint-order:normal"
     d="M 70.021658,57.384642 A 13.955756,13.528946 0 0 0 56.064879,70.912339 13.955756,13.528946 0 0 0 70.021658,84.44227 13.955756,13.528946 0 0 0 83.978424,70.912339 13.955756,13.528946 0 0 0 70.021658,57.384642 Z m 0,5.539638 a 8.2415881,7.989535 0 0 1 8.242371,7.988059 8.2415881,7.989535 0 0 1 -8.242371,7.990293 8.2415881,7.989535 0 0 1 -8.242372,-7.990293 8.2415881,7.989535 0 0 1 8.242372,-7.988059 z"
     id="path1164"
     inkscape:connector-curvature="0" />
  <rect
     style="opacity:1;vector-effect:none;fill:#000000;fill-opacity:1;stroke:none;stroke-width:0;stroke-linecap:butt;stroke-linejoin:round;stroke-miterlimit:4;stroke-dasharray:none;stroke-dashoffset:0;stroke-opacity:1;paint-order:normal"
     id="rect935-2-5"
     width="15.29365"
     height="6.0499539"
     x="110.3874"
     y="3.9448924"
     ry="2.5421538"
     transform="matrix(0.75256922,0.65851315,-0.68144462,0.73186968,0,0)" />
</svg>
