<?xml version="1.0" encoding="UTF-8" standalone="no"?>
<svg
   xmlns:dc="http://purl.org/dc/elements/1.1/"
   xmlns:cc="http://creativecommons.org/ns#"
   xmlns:rdf="http://www.w3.org/1999/02/22-rdf-syntax-ns#"
   xmlns:svg="http://www.w3.org/2000/svg"
   xmlns="http://www.w3.org/2000/svg"
   xmlns:sodipodi="http://sodipodi.sourceforge.net/DTD/sodipodi-0.dtd"
   xmlns:inkscape="http://www.inkscape.org/namespaces/inkscape"
   width="128"
   height="128"
   viewBox="0 0 128 128"
   version="1.1"
   id="svg15"
   sodipodi:docname="store-exceptionsvg.svg"
   inkscape:version="0.92.5 (2060ec1f9f, 2020-04-08)">
  <metadata
     id="metadata19">
    <rdf:RDF>
      <cc:Work
         rdf:about="">
        <dc:format>image/svg+xml</dc:format>
        <dc:type
           rdf:resource="http://purl.org/dc/dcmitype/StillImage" />
        <dc:title>Group</dc:title>
      </cc:Work>
    </rdf:RDF>
  </metadata>
  <sodipodi:namedview
     pagecolor="#ffffff"
     bordercolor="#666666"
     borderopacity="1"
     objecttolerance="10"
     gridtolerance="10"
     guidetolerance="10"
     inkscape:pageopacity="0"
     inkscape:pageshadow="2"
     inkscape:window-width="1300"
     inkscape:window-height="852"
     id="namedview17"
     showgrid="false"
     inkscape:zoom="1.3409091"
     inkscape:cx="1.4427991"
     inkscape:cy="78.972094"
     inkscape:window-x="842"
     inkscape:window-y="334"
     inkscape:window-maximized="0"
     inkscape:current-layer="svg15" />
  <!-- Generator: Sketch 51 (57462) - http://www.bohemiancoding.com/sketch -->
  <title
     id="title2">Group</title>
  <desc
     id="desc4">Created with Sketch.</desc>
  <defs
     id="defs6" />
  <path
     style="color:#000000;font-style:normal;font-variant:normal;font-weight:normal;font-stretch:normal;font-size:medium;line-height:normal;font-family:sans-serif;font-variant-ligatures:normal;font-variant-position:normal;font-variant-caps:normal;font-variant-numeric:normal;font-variant-alternates:normal;font-feature-settings:normal;text-indent:0;text-align:start;text-decoration:none;text-decoration-line:none;text-decoration-style:solid;text-decoration-color:#000000;letter-spacing:normal;word-spacing:normal;text-transform:none;writing-mode:lr-tb;direction:ltr;text-orientation:mixed;dominant-baseline:auto;baseline-shift:baseline;text-anchor:start;white-space:normal;shape-padding:0;clip-rule:nonzero;display:inline;overflow:visible;visibility:visible;opacity:1;isolation:auto;mix-blend-mode:normal;color-interpolation:sRGB;color-interpolation-filters:linearRGB;solid-color:#000000;solid-opacity:1;vector-effect:none;fill:#000000;fill-opacity:1;fill-rule:evenodd;stroke:none;stroke-width:7.12727261;stroke-linecap:butt;stroke-linejoin:miter;stroke-miterlimit:4;stroke-dasharray:none;stroke-dashoffset:0;stroke-opacity:1;color-rendering:auto;image-rendering:auto;shape-rendering:auto;text-rendering:auto;enable-background:accumulate"
     d="M 42.618182,24.799998 C 32.80855,24.799998 24.8,32.808558 24.8,42.61818 V 85.381816 C 24.8,95.191438 32.80855,103.2 42.618182,103.2 H 85.381818 C 95.19145,103.2 103.2,95.191438 103.2,85.381816 V 42.61818 c 0,-9.809622 -8.00855,-17.818182 -17.818182,-17.818182 z m 0,7.127273 h 42.763636 c 5.984404,0 10.690909,4.706494 10.690909,10.690909 v 42.763636 c 0,5.984414 -4.706505,10.690909 -10.690909,10.690909 H 42.618182 c -5.984405,0 -10.690909,-4.706495 -10.690909,-10.690909 V 42.61818 c 0,-5.984415 4.706504,-10.690909 10.690909,-10.690909 z"
     id="Rectangle-15"
     inkscape:connector-curvature="0" />
  <g
     id="Login"
     transform="matrix(1.3171157,0,0,1.3171157,40.841171,42.999999)"
     style="fill:#000000;fill-rule:evenodd;stroke:none;stroke-width:1">
    <g
       id="LOGIN-Desktop-full-Hb-1920x1080--Copy-12"
       transform="translate(-690,-368)"
       style="fill:#000000">
      <path
         d="m 709.37027,382.47195 c -0.0864,1.51962 -0.18102,3.03302 -0.2678,4.55306 -0.0432,0.49201 -0.0432,0.94084 -0.0432,1.42579 -0.0436,0.80341 -0.67345,1.42621 -1.47686,1.42621 -0.80341,0 -1.42579,-0.57962 -1.47645,-1.38261 -0.13037,-2.36704 -0.26822,-4.69091 -0.39817,-7.05754 -0.0436,-0.6228 -0.0868,-1.25265 -0.13743,-1.87504 0,-1.02761 0.57878,-1.87462 1.52004,-2.14242 0.94084,-0.22462 1.8742,0.22379 2.27985,1.11481 0.13743,0.31098 0.18103,0.62238 0.18103,0.98443 -0.0436,0.9915 -0.13743,1.97593 -0.18103,2.95331 m -1.78784,12.68223 c -1.07121,0 -1.9614,-0.8906 -1.9614,-1.96181 0,-1.07163 0.89019,-1.96181 1.9614,-1.96181 1.07121,0 1.96181,0.89018 1.91821,2.01205 0.0507,1.02097 -0.89018,1.91157 -1.91821,1.91157 m 16.88072,-3.17087 -12.32018,-21.33953 c -2.01247,-3.52504 -7.10156,-3.52504 -9.10655,0 l -12.32682,21.33953 c -2.01289,3.52504 0.492,7.90455 4.55264,7.90455 h 24.60383 c 4.06147,0 6.60913,-4.42269 4.59708,-7.90455"
         id="Fill-1"
         inkscape:connector-curvature="0"
         style="fill:#000000" />
    </g>
  </g>
</svg>
