<?xml version="1.0" encoding="UTF-8" standalone="no"?>
<svg
   xmlns:dc="http://purl.org/dc/elements/1.1/"
   xmlns:cc="http://creativecommons.org/ns#"
   xmlns:rdf="http://www.w3.org/1999/02/22-rdf-syntax-ns#"
   xmlns:svg="http://www.w3.org/2000/svg"
   xmlns="http://www.w3.org/2000/svg"
   xmlns:sodipodi="http://sodipodi.sourceforge.net/DTD/sodipodi-0.dtd"
   xmlns:inkscape="http://www.inkscape.org/namespaces/inkscape"
   viewBox="0 0 128 128"
   version="1.1"
   id="svg12"
   sodipodi:docname="team.svg"
   width="128"
   height="128"
   inkscape:version="0.92.2 2405546, 2018-03-11">
  <metadata
     id="metadata18">
    <rdf:RDF>
      <cc:Work
         rdf:about="">
        <dc:format>image/svg+xml</dc:format>
        <dc:type
           rdf:resource="http://purl.org/dc/dcmitype/StillImage" />
        <dc:title>team</dc:title>
      </cc:Work>
    </rdf:RDF>
  </metadata>
  <defs
     id="defs16" />
  <sodipodi:namedview
     pagecolor="#ffffff"
     bordercolor="#666666"
     borderopacity="1"
     objecttolerance="10"
     gridtolerance="10"
     guidetolerance="10"
     inkscape:pageopacity="0"
     inkscape:pageshadow="2"
     inkscape:window-width="1920"
     inkscape:window-height="1015"
     id="namedview14"
     showgrid="false"
     inkscape:zoom="1.0956555"
     inkscape:cx="-117.91517"
     inkscape:cy="-58.744755"
     inkscape:window-x="0"
     inkscape:window-y="0"
     inkscape:window-maximized="1"
     inkscape:current-layer="svg12" />
  <title
     id="title2">team</title>
  <g
     id="Warstwa_2"
     data-name="Warstwa 2"
     transform="matrix(1.1732145,0,0,1.1732145,17.775349,36.505237)">
    <g
       id="Layer_1"
       data-name="Layer 1">
      <path
         d="m 60.55,38 c 0,-0.11 -0.11,-0.22 -0.11,-0.34 a 0.11,0.11 0 0 1 -0.12,-0.11 0.38,0.38 0 0 1 -0.11,-0.22 c 0,-0.12 -0.11,-0.12 -0.11,-0.23 l -0.23,-0.22 -0.22,-0.23 -0.23,-0.23 c 0,-0.11 -0.11,-0.11 -0.22,-0.22 -0.11,-0.11 -0.11,-0.11 -0.23,-0.11 -0.12,0 -0.33,-0.23 -0.56,-0.34 -0.23,-0.11 -0.67,-0.34 -1,-0.45 -0.79,-0.34 -1.69,-0.68 -2.7,-1 H 54.59 C 54.37,34.18 54.14,34.18 53.92,34.07 H 53.8 c -0.12,-0.11 -0.34,-0.11 -0.45,-0.22 -0.11,-0.11 -0.23,-0.12 -0.34,-0.12 -0.11,0 -0.23,-0.11 -0.34,-0.11 -0.11,0 -0.34,-0.11 -0.56,-0.22 A 0.34,0.34 0 0 0 51.88,33.28 C 50.31,32.72 48.62,32.16 47.16,31.71 46.93,31.6 46.71,31.6 46.48,31.48 h -0.22 c -0.12,-0.11 -0.12,-0.33 -0.12,-1.24 v -1 a 1.14,1.14 0 0 0 0.12,-0.56 v -0.34 c 0,-0.22 0.11,-0.34 0.11,-0.56 v -0.11 c 0.11,-0.23 0.11,-0.34 0.22,-0.57 a 4.52,4.52 0 0 0 0.34,-0.78 c 0,-0.12 0.11,-0.34 0.11,-0.45 0,-0.11 0.12,-0.34 0.23,-0.57 a 0.4,0.4 0 0 0 0.11,-0.33 11.12,11.12 0 0 0 0.45,-1.92 c 0.11,0 0.11,-0.11 0.23,-0.22 a 10.37,10.37 0 0 0 1.57,-4.05 c 0,-0.23 0.11,-0.45 0.11,-0.68 v -1.33 l -0.33,-1.35 c -0.12,-0.11 -0.12,-0.11 -0.12,-0.23 v -2.13 a 14,14 0 0 1 0.23,-2.14 c 0,-0.23 0.11,-0.34 0.11,-0.57 V 10.24 A 9,9 0 0 0 47.72,3.6 2,2 0 0 0 47.27,3 L 47.16,2.89 C 47.04,2.77 46.93,2.55 46.71,2.44 L 46.48,2.21 A 1.63,1.63 0 0 0 46,1.91 C 45.89,1.8 45.78,1.8 45.66,1.69 A 1.46,1.46 0 0 0 45.21,1.35 C 45.1,1.24 44.88,1.24 44.76,1.13 44.64,1.02 44.46,1 44.23,0.9 44,0.8 43.89,0.79 43.67,0.68 43.45,0.57 43.33,0.56 43.1,0.45 42.87,0.34 42.65,0.34 42.43,0.34 42.21,0.34 42,0.23 41.75,0.23 A 1.33,1.33 0 0 0 41.08,0.11 C 40.85,0.11 40.52,0 40.29,0 H 38 a 5.6,5.6 0 0 0 -1.35,0.11 h -0.23 c -0.33,0.12 -0.67,0.12 -1,0.23 -0.11,0.11 -0.11,0.11 -0.22,0.11 -0.34,0.11 -0.57,0.23 -0.9,0.34 h -0.12 a 7.52,7.52 0 0 0 -0.9,0.45 H 33.2 A 5,5 0 0 0 32.41,1.69 L 32.3,1.8 c -0.22,0.11 -0.34,0.34 -0.56,0.45 l -0.23,0.23 -0.34,0.33 c -0.22,0.23 -0.33,0.45 -0.56,0.68 a 14.6,14.6 0 0 0 -1.35,2.59 10.66,10.66 0 0 0 -0.56,3.49 1,1 0 0 1 0.11,0.56 v 0.11 c 0,0.23 0.11,0.45 0.11,0.68 v 0.22 c 0.12,0.11 0.12,0.34 0.12,0.56 a 18.22,18.22 0 0 1 0.22,3.16 v 0.22 a 0.35,0.35 0 0 0 -0.11,0.23 v 0.11 c -0.11,0.11 -0.11,0.11 -0.11,0.22 a 0.41,0.41 0 0 0 -0.12,0.34 v 1.58 A 0.63,0.63 0 0 1 29,18 v 0.11 c 0,0.22 0.11,0.45 0.11,0.67 0,0.22 0.11,0.68 0.22,0.91 0.11,0.23 0.12,0.45 0.23,0.67 0.11,0.22 0.11,0.34 0.22,0.56 0.11,0.22 0.12,0.45 0.23,0.57 0.11,0.12 0.11,0.22 0.11,0.33 a 0.39,0.39 0 0 0 0.11,0.23 3.82,3.82 0 0 0 0.68,1 0.42,0.42 0 0 1 0.11,0.34 1.59,1.59 0 0 0 0.12,0.79 c 0.11,0.22 0.11,0.45 0.22,0.67 0.11,0.22 0.11,0.23 0.11,0.34 0,0.11 0.12,0.45 0.23,0.68 0.11,0.23 0.11,0.22 0.11,0.33 a 7.23,7.23 0 0 0 0.34,0.9 c 0.11,0.34 0.34,0.68 0.45,1 0.11,0.32 0.11,0.33 0.11,0.45 0,0.12 0.11,0.11 0.11,0.22 0,0.11 0.12,0.34 0.12,0.45 a 2,2 0 0 1 0.11,0.79 c 0,1.24 0,1.24 -0.34,1.35 l -1.12,0.34 h -0.12 a 3.94,3.94 0 0 1 -1.24,0.45 c -3.48,1.12 -7.54,2.59 -9.45,3.37 a 4.91,4.91 0 0 0 -2.93,3.61 v 5.74 a 2,2 0 0 0 2.14,2 h 38.53 a 2,2 0 0 0 2.14,-2.14 v -6.3 a 0.41,0.41 0 0 1 -0.11,-0.34 z"
         id="path4"
         inkscape:connector-curvature="0" />
      <path
         d="M 26.56,31 C 25.32,30.55 24.2,30.21 23.18,29.87 23,29.71 23,29.71 23,28.7 a 6.4,6.4 0 0 1 0.45,-2.48 8.46,8.46 0 0 0 1,-3.26 7.34,7.34 0 0 0 1.47,-3.49 4.9,4.9 0 0 0 0,-2.93 C 25.8,16.43 25.8,16.43 25.8,16.32 a 15.14,15.14 0 0 1 0.34,-4.05 7.58,7.58 0 0 0 -1.57,-5.4 8,8 0 0 0 -6.08,-2.93 h -1.8 a 8.18,8.18 0 0 0 -6.19,2.93 7.1,7.1 0 0 0 -1.58,5.4 14.89,14.89 0 0 1 0.34,4.05 c -0.11,0.11 -0.11,0.11 -0.11,0.22 a 4.73,4.73 0 0 0 0,2.93 8.71,8.71 0 0 0 1.43,3.53 18,18 0 0 0 1,3.26 6.24,6.24 0 0 1 0.68,2.48 c 0,1 -0.12,1 -0.34,1.12 -2.81,0.9 -7.54,2.59 -9.57,3.38 A 3.9,3.9 0 0 0 0,35.9 v 4.5 a 1.75,1.75 0 0 0 1.8,1.8 h 14 v -3.26 a 6.19,6.19 0 0 1 3.94,-5.51 c 1.42,-0.57 4.12,-1.58 6.82,-2.43 z"
         id="path6"
         inkscape:connector-curvature="0" />
      <path
         d="m 76.36,33.2 c -2,-0.79 -6.75,-2.48 -9.57,-3.38 -0.22,-0.11 -0.33,-0.11 -0.33,-1.12 a 6.23,6.23 0 0 1 0.67,-2.48 18,18 0 0 0 1,-3.26 8.68,8.68 0 0 0 1.47,-3.49 4.9,4.9 0 0 0 0,-2.93 c 0,-0.11 0,-0.11 -0.12,-0.22 a 14.89,14.89 0 0 1 0.34,-4.05 7.08,7.08 0 0 0 -1.57,-5.4 8.22,8.22 0 0 0 -6.19,-2.93 h -1.8 a 7.91,7.91 0 0 0 -6.08,2.93 7.6,7.6 0 0 0 -1.58,5.4 15.14,15.14 0 0 1 0.4,4.05 c 0,0.11 0,0.11 -0.11,0.22 a 4.73,4.73 0 0 0 0,2.93 7.36,7.36 0 0 0 1.41,3.53 8.46,8.46 0 0 0 1,3.26 6.4,6.4 0 0 1 0.45,2.48 c 0,1 0,1 -0.22,1.12 -1,0.34 -2.14,0.68 -3.38,1.13 2.7,0.9 5.4,1.91 6.87,2.48 A 6.21,6.21 0 0 1 63,38.94 v 3.26 h 14 a 1.75,1.75 0 0 0 1.8,-1.8 v -4.5 a 3.88,3.88 0 0 0 -2.44,-2.7 z"
         id="path8"
         inkscape:connector-curvature="0" />
    </g>
  </g>
</svg>
