<?xml version="1.0" encoding="UTF-8" standalone="no"?>
<svg
   xmlns:dc="http://purl.org/dc/elements/1.1/"
   xmlns:cc="http://creativecommons.org/ns#"
   xmlns:rdf="http://www.w3.org/1999/02/22-rdf-syntax-ns#"
   xmlns:svg="http://www.w3.org/2000/svg"
   xmlns="http://www.w3.org/2000/svg"
   xmlns:sodipodi="http://sodipodi.sourceforge.net/DTD/sodipodi-0.dtd"
   xmlns:inkscape="http://www.inkscape.org/namespaces/inkscape"
   width="128"
   height="128"
   viewBox="0 0 128 128"
   version="1.1"
   id="svg4712"
   sodipodi:docname="text-clear-formatting.svg"
   inkscape:version="0.92.3 (2405546, 2018-03-11)">
  <metadata
     id="metadata4718">
    <rdf:RDF>
      <cc:Work
         rdf:about="">
        <dc:format>image/svg+xml</dc:format>
        <dc:type
           rdf:resource="http://purl.org/dc/dcmitype/StillImage" />
        <dc:title>Shape</dc:title>
      </cc:Work>
    </rdf:RDF>
  </metadata>
  <defs
     id="defs4716" />
  <sodipodi:namedview
     pagecolor="#ffffff"
     bordercolor="#666666"
     borderopacity="1"
     objecttolerance="10"
     gridtolerance="10"
     guidetolerance="10"
     inkscape:pageopacity="0"
     inkscape:pageshadow="2"
     inkscape:window-width="2560"
     inkscape:window-height="1414"
     id="namedview4714"
     showgrid="false"
     inkscape:zoom="5.9599"
     inkscape:cx="32.896154"
     inkscape:cy="44.937623"
     inkscape:window-x="0"
     inkscape:window-y="0"
     inkscape:window-maximized="1"
     inkscape:current-layer="ic_format_italic-1" />
  <!-- Generator: Sketch 57.1 (83088) - https://sketch.com -->
  <title
     id="title4703">Shape</title>
  <desc
     id="desc4705">Created with Sketch.</desc>
  <g
     style="fill:#000000;fill-rule:evenodd;stroke:none;stroke-width:1"
     id="Page-1-4"
     transform="matrix(5.5714286,0,0,5.5714286,33.357146,25)">
    <g
       style="fill:#000000"
       id="Editor-8"
       transform="translate(-453,-148)">
      <g
         id="ic_format_italic-1"
         transform="translate(432,144)"
         style="fill:#000000">
        <path
           inkscape:connector-curvature="0"
           d="m 32.241505,4.1073855 c -0.05378,-0.06849 -0.135061,-0.109083 -0.221811,-0.109083 h -8.983808 c -0.130301,0 -0.243851,0.090128 -0.274178,0.2187025 l -0.310676,1.3041679 c -0.02063,0.08512 -0.0014,0.1752481 0.05237,0.2444532 0.05378,0.06849 0.135061,0.1089042 0.221811,0.1089042 h 3.370332 l -2.067546,9.1706207 h 2.44362 l 2.066838,-9.1706207 h 3.170561 c 0.130301,0 0.243146,-0.090128 0.274178,-0.2185237 l 0.310676,-1.3041678 c 0.02063,-0.085299 0.0014,-0.175427 -0.05237,-0.2444533"
           id="Fill-1"
           style="fill:#000000"
           sodipodi:nodetypes="csscccsccccsccc" />
        <path
           style="fill:#000000;fill-rule:evenodd;stroke:none;stroke-width:0.77777779"
           d="m 20.139841,16.446142 v 1.555555 h 7.299146 v -1.555555 z"
           id="Shape"
           inkscape:connector-curvature="0"
           sodipodi:nodetypes="ccccc" />
        <g
           id="ZONE--"
           style="fill:#000000;fill-rule:evenodd;stroke:none;stroke-width:1"
           transform="matrix(0.68888969,0,0,0.68888969,28.286404,11.781238)">
          <g
             id="Data_V2-Copy"
             transform="translate(-230,-402)"
             style="fill:#000000;fill-rule:nonzero">
            <g
               id="sub-menu"
               transform="translate(204)"
               style="fill:#000000">
              <polygon
                 id="Shape-2"
                 points="35,403.98138 32.481375,406.5 35,409.01862 33.018625,411 30.5,408.48138 27.981375,411 26,409.01862 28.518625,406.5 26,403.98138 27.981375,402 30.5,404.51862 33.018625,402 "
                 style="fill:#000000" />
            </g>
          </g>
        </g>
      </g>
    </g>
  </g>
</svg>
