<?xml version="1.0" encoding="UTF-8" standalone="no"?>
<svg
   xmlns:dc="http://purl.org/dc/elements/1.1/"
   xmlns:cc="http://creativecommons.org/ns#"
   xmlns:rdf="http://www.w3.org/1999/02/22-rdf-syntax-ns#"
   xmlns:svg="http://www.w3.org/2000/svg"
   xmlns="http://www.w3.org/2000/svg"
   xmlns:sodipodi="http://sodipodi.sourceforge.net/DTD/sodipodi-0.dtd"
   xmlns:inkscape="http://www.inkscape.org/namespaces/inkscape"
   width="128"
   height="128"
   viewBox="0 0 128 128"
   version="1.1"
   id="svg8953"
   sodipodi:docname="text-link-bold.svg"
   inkscape:version="0.92.3 (2405546, 2018-03-11)">
  <metadata
     id="metadata8959">
    <rdf:RDF>
      <cc:Work
         rdf:about="">
        <dc:format>image/svg+xml</dc:format>
        <dc:type
           rdf:resource="http://purl.org/dc/dcmitype/StillImage" />
        <dc:title>0204-link</dc:title>
      </cc:Work>
    </rdf:RDF>
  </metadata>
  <defs
     id="defs8957" />
  <sodipodi:namedview
     pagecolor="#ffffff"
     bordercolor="#666666"
     borderopacity="1"
     objecttolerance="10"
     gridtolerance="10"
     guidetolerance="10"
     inkscape:pageopacity="0"
     inkscape:pageshadow="2"
     inkscape:window-width="2560"
     inkscape:window-height="1414"
     id="namedview8955"
     showgrid="false"
     inkscape:zoom="6.418354"
     inkscape:cx="-1.5541028"
     inkscape:cy="38.449497"
     inkscape:window-x="0"
     inkscape:window-y="0"
     inkscape:window-maximized="1"
     inkscape:current-layer="svg8953" />
  <!-- Generator: Sketch 57.1 (83088) - https://sketch.com -->
  <title
     id="title8944">0204-link</title>
  <desc
     id="desc8946">Created with Sketch.</desc>
  <g
     id="g897"
     transform="translate(1.106371,0.08966605)">
    <path
       sodipodi:nodetypes="ccccssscsssscccccc"
       d="M 43.298747,103 C 38.411378,103 33.037932,101.92824 29.57911,98.38676 22.445382,91.063706 22.004704,76.724245 29.138432,69.40735 l 7.029697,-6.977 c 1.524583,-1.563729 4.983051,-0.682373 6.507634,0.881356 1.523082,1.56219 1.828336,5.177634 0.330508,6.764054 l -6.583017,6.972382 c -4.02864,4.266922 -3.766057,9.385904 0.330509,13.581497 1.980757,2.039313 3.73741,2.275346 6.544984,2.275346 2.803071,0 4.617856,-1.167913 6.656654,-3.156702 L 63.915728,76.130378 c 4.202229,-4.099156 4.318408,-10.869274 0.220339,-15.072565 -1.523082,-1.56219 -1.302743,-4.534692 1.87288,-6.427389 3.066957,-1.673898 4.878887,-0.351864 6.403469,1.211864 C 79.546143,63.1638 78.885126,76.396949 71.751399,83.72 L 57.135918,97.596671 C 53.678595,101.13816 48.187616,103 43.292744,103 Z"
       id="Fill-2"
       inkscape:connector-curvature="0"
       style="fill:#000000;fill-rule:evenodd;stroke:none;stroke-width:3" />
    <path
       sodipodi:nodetypes="ccccssscsssscccccc"
       d="m 81.772227,24.842328 c 4.884138,-0.177687 10.292997,0.698006 13.878287,4.111392 7.395256,7.058857 8.356966,21.372817 1.493972,28.94423 l -6.771392,7.227962 c -1.466723,1.618123 -4.954948,0.863087 -6.535374,-0.64418 -1.578871,-1.505783 -2.015367,-5.107739 -0.576206,-6.747566 l 6.325175,-7.207107 c 3.870847,-4.410567 3.42233,-9.516619 -0.824064,-13.560502 -2.053589,-1.965952 -3.817662,-2.137963 -6.62338,-2.03589 -2.801218,0.101909 -4.572342,1.335029 -6.537487,3.396626 L 62.145757,52.443742 c -4.050421,4.249223 -3.920386,11.019089 0.327789,15.070611 1.578871,1.505783 1.466747,4.484331 -1.637965,6.491231 -3.004073,1.784294 -4.862869,0.529009 -6.443295,-0.978257 C 46.997092,65.970012 47.176564,52.721579 54.039335,45.144013 L 68.140649,30.745151 c 3.326282,-3.664843 8.745941,-5.725082 13.637577,-5.903041 z"
       id="Fill-2-5"
       inkscape:connector-curvature="0"
       style="fill:#000000;fill-rule:evenodd;stroke:none;stroke-width:3" />
  </g>
</svg>
