<?xml version="1.0" encoding="utf-8"?>
<!-- Generator: Adobe Illustrator 23.0.6, SVG Export Plug-In . SVG Version: 6.00 Build 0)  -->
<svg version="1.1"
	 id="svg7132" xmlns:cc="http://creativecommons.org/ns#" xmlns:dc="http://purl.org/dc/elements/1.1/" xmlns:inkscape="http://www.inkscape.org/namespaces/inkscape" xmlns:rdf="http://www.w3.org/1999/02/22-rdf-syntax-ns#" xmlns:sodipodi="http://sodipodi.sourceforge.net/DTD/sodipodi-0.dtd" xmlns:svg="http://www.w3.org/2000/svg"
	 xmlns="http://www.w3.org/2000/svg" xmlns:xlink="http://www.w3.org/1999/xlink" x="0px" y="0px" viewBox="0 0 128 128"
	 style="enable-background:new 0 0 128 128;" xml:space="preserve">
<sodipodi:namedview  bordercolor="#666666" borderopacity="1" gridtolerance="10" guidetolerance="10" id="namedview7134" inkscape:current-layer="svg7132" inkscape:cx="-99.119712" inkscape:cy="66.650854" inkscape:guide-bbox="true" inkscape:pageopacity="0" inkscape:pageshadow="2" inkscape:window-height="1052" inkscape:window-maximized="1" inkscape:window-width="1920" inkscape:window-x="1920" inkscape:window-y="0" inkscape:zoom="2.95" objecttolerance="10" pagecolor="#ffffff" showgrid="false" showguides="true">
	</sodipodi:namedview>
<title  id="title7125">Combined Shape</title>
<desc  id="desc7127">Created with Sketch.</desc>
<path id="Combined-Shape" inkscape:connector-curvature="0" d="M50.2,29v27.4h27.7V29h14.8v70H77.9V68.8H50.2V99H35.3V29H50.2z"/>
<g>
	<path d="M121,114.2H97.6v-4.9l8.4-8.5c2.5-2.6,4.1-4.3,4.9-5.3c0.8-1,1.3-1.9,1.7-2.7c0.3-0.8,0.5-1.7,0.5-2.6c0-1.3-0.4-2.3-1.1-3
		c-0.7-0.7-1.7-1-3-1c-1.3,0-2.6,0.3-3.8,0.9s-2.5,1.4-3.8,2.5l-3.9-4.6c1.7-1.4,3-2.4,4.1-3c1.1-0.6,2.3-1,3.6-1.3
		c1.3-0.3,2.7-0.5,4.3-0.5c2.1,0,3.9,0.4,5.6,1.1c1.6,0.8,2.9,1.8,3.7,3.2s1.3,3,1.3,4.7c0,1.5-0.3,3-0.8,4.3
		c-0.5,1.4-1.4,2.7-2.5,4.2s-3.1,3.5-6,6.1l-4.3,4.1v0.3H121V114.2z"/>
</g>
</svg>
