<?xml version="1.0" encoding="UTF-8" standalone="no"?>
<svg
   xmlns:dc="http://purl.org/dc/elements/1.1/"
   xmlns:cc="http://creativecommons.org/ns#"
   xmlns:rdf="http://www.w3.org/1999/02/22-rdf-syntax-ns#"
   xmlns:svg="http://www.w3.org/2000/svg"
   xmlns="http://www.w3.org/2000/svg"
   xmlns:sodipodi="http://sodipodi.sourceforge.net/DTD/sodipodi-0.dtd"
   xmlns:inkscape="http://www.inkscape.org/namespaces/inkscape"
   width="128"
   height="128"
   viewBox="0 0 128 128"
   version="1.1"
   id="svg8346"
   sodipodi:docname="number list.svg"
   inkscape:version="0.92.3 (2405546, 2018-03-11)">
  <metadata
     id="metadata8352">
    <rdf:RDF>
      <cc:Work
         rdf:about="">
        <dc:format>image/svg+xml</dc:format>
        <dc:type
           rdf:resource="http://purl.org/dc/dcmitype/StillImage" />
        <dc:title>Shape</dc:title>
      </cc:Work>
    </rdf:RDF>
  </metadata>
  <defs
     id="defs8350" />
  <sodipodi:namedview
     pagecolor="#ffffff"
     bordercolor="#666666"
     borderopacity="1"
     objecttolerance="10"
     gridtolerance="10"
     guidetolerance="10"
     inkscape:pageopacity="0"
     inkscape:pageshadow="2"
     inkscape:window-width="1920"
     inkscape:window-height="1052"
     id="namedview8348"
     showgrid="false"
     inkscape:zoom="1.84375"
     inkscape:cx="-207.08378"
     inkscape:cy="7.5121183"
     inkscape:window-x="0"
     inkscape:window-y="0"
     inkscape:window-maximized="1"
     inkscape:current-layer="svg8346" />
  <!-- Generator: Sketch 57.1 (83088) - https://sketch.com -->
  <title
     id="title8337">Shape</title>
  <desc
     id="desc8339">Created with Sketch.</desc>
  <g
     id="Page-1"
     style="fill:none;fill-rule:evenodd;stroke:none;stroke-width:1"
     transform="matrix(4.375,0,0,4.375,22.4375,29)">
    <g
       id="Editor"
       transform="translate(-146,-196)"
       style="fill:#000000">
      <g
         id="ic_format_list_numbered"
         transform="translate(144,192)">
        <g
           id="Icon-24px">
          <path
             d="m 2,17 h 2 v 0.5 H 3 v 1 H 4 V 19 H 2 v 1 H 5 V 16 H 2 Z M 3,8 H 4 V 4 H 2 V 5 H 3 Z M 2,11 H 3.8 L 2,13.1 V 14 H 5 V 13 H 3.2 L 5,10.9 V 10 H 2 Z M 7,5 V 7 H 21 V 5 Z M 7,19 H 21 V 17 H 7 Z M 7,13 H 21 V 11 H 7 Z"
             id="Shape"
             inkscape:connector-curvature="0" />
        </g>
      </g>
    </g>
  </g>
</svg>
