<?xml version="1.0" encoding="UTF-8" standalone="no"?>
<svg
   xmlns:dc="http://purl.org/dc/elements/1.1/"
   xmlns:cc="http://creativecommons.org/ns#"
   xmlns:rdf="http://www.w3.org/1999/02/22-rdf-syntax-ns#"
   xmlns:svg="http://www.w3.org/2000/svg"
   xmlns="http://www.w3.org/2000/svg"
   xmlns:sodipodi="http://sodipodi.sourceforge.net/DTD/sodipodi-0.dtd"
   xmlns:inkscape="http://www.inkscape.org/namespaces/inkscape"
   width="128"
   height="128"
   viewBox="0 0 128 128"
   version="1.1"
   id="svg4712"
   sodipodi:docname="text-italic.svg"
   inkscape:version="0.92.3 (2405546, 2018-03-11)">
  <metadata
     id="metadata4718">
    <rdf:RDF>
      <cc:Work
         rdf:about="">
        <dc:format>image/svg+xml</dc:format>
        <dc:type
           rdf:resource="http://purl.org/dc/dcmitype/StillImage" />
        <dc:title>Shape</dc:title>
      </cc:Work>
    </rdf:RDF>
  </metadata>
  <defs
     id="defs4716" />
  <sodipodi:namedview
     pagecolor="#ffffff"
     bordercolor="#666666"
     borderopacity="1"
     objecttolerance="10"
     gridtolerance="10"
     guidetolerance="10"
     inkscape:pageopacity="0"
     inkscape:pageshadow="2"
     inkscape:window-width="1920"
     inkscape:window-height="1052"
     id="namedview4714"
     showgrid="false"
     inkscape:zoom="2.97995"
     inkscape:cx="-63.451607"
     inkscape:cy="14.041124"
     inkscape:window-x="1920"
     inkscape:window-y="0"
     inkscape:window-maximized="1"
     inkscape:current-layer="svg4712" />
  <!-- Generator: Sketch 57.1 (83088) - https://sketch.com -->
  <title
     id="title4703">Shape</title>
  <desc
     id="desc4705">Created with Sketch.</desc>
  <g
     style="fill:#000000;fill-rule:evenodd;stroke:none;stroke-width:1"
     id="Page-1-4"
     transform="matrix(5.5714286,0,0,5.5714286,33.357146,25)">
    <g
       style="fill:#000000"
       id="Editor-8"
       transform="translate(-453,-148)">
      <g
         id="ic_format_italic-1"
         transform="translate(432,144)"
         style="fill:#000000">
        <g
           id="Icon-24px-0"
           style="fill:#000000">
          <g
             id="Group-3"
             transform="translate(21,4)"
             style="fill:#000000">
            <path
               inkscape:connector-curvature="0"
               d="M 10.939529,0.10908301 C 10.885751,0.04059319 10.804468,0 10.717718,0 H 3.1698079 C 3.0395074,0 2.9259573,0.0901276 2.8956302,0.2187025 l -0.310676,1.3041679 c -0.020629,0.08512 -0.00141,0.1752481 0.052367,0.2444532 0.053778,0.06849 0.1350612,0.1089042 0.2218106,0.1089042 H 5.511515 L 3.084998,12.123772 H 0.59306619 c -0.13012423,0 -0.24385068,0.09013 -0.27400142,0.218703 L 0.0076835,13.646643 c -0.01992417,0.08512 -7.0528e-4,0.175248 0.05307235,0.244453 C 0.11382819,13.959586 0.19564071,14 0.28256652,14 H 7.8304768 c 0.1301242,0 0.2431454,-0.09084 0.2741777,-0.218345 l 0.310676,-1.304168 c 0.02063,-0.08548 0.00123,-0.175605 -0.052367,-0.244811 -0.053778,-0.06813 -0.1350611,-0.108904 -0.2218106,-0.108904 H 5.5286181 L 7.9544298,1.8762278 h 2.4526122 c 0.130301,0 0.243146,-0.090128 0.274178,-0.2185237 l 0.310676,-1.30416784 c 0.02063,-0.0852993 0.0014,-0.17542695 -0.05237,-0.24445325"
               id="Fill-1"
               style="fill:#000000" />
          </g>
        </g>
      </g>
    </g>
  </g>
</svg>
