<?xml version="1.0" encoding="UTF-8" standalone="no"?>
<svg
   xmlns:dc="http://purl.org/dc/elements/1.1/"
   xmlns:cc="http://creativecommons.org/ns#"
   xmlns:rdf="http://www.w3.org/1999/02/22-rdf-syntax-ns#"
   xmlns:svg="http://www.w3.org/2000/svg"
   xmlns="http://www.w3.org/2000/svg"
   xmlns:sodipodi="http://sodipodi.sourceforge.net/DTD/sodipodi-0.dtd"
   xmlns:inkscape="http://www.inkscape.org/namespaces/inkscape"
   width="128"
   height="128"
   viewBox="0 0 128 128"
   version="1.1"
   id="svg7739"
   sodipodi:docname="order list.svg"
   inkscape:version="0.92.3 (2405546, 2018-03-11)">
  <metadata
     id="metadata7745">
    <rdf:RDF>
      <cc:Work
         rdf:about="">
        <dc:format>image/svg+xml</dc:format>
        <dc:type
           rdf:resource="http://purl.org/dc/dcmitype/StillImage" />
        <dc:title>Shape</dc:title>
      </cc:Work>
    </rdf:RDF>
  </metadata>
  <defs
     id="defs7743" />
  <sodipodi:namedview
     pagecolor="#ffffff"
     bordercolor="#666666"
     borderopacity="1"
     objecttolerance="10"
     gridtolerance="10"
     guidetolerance="10"
     inkscape:pageopacity="0"
     inkscape:pageshadow="2"
     inkscape:window-width="1920"
     inkscape:window-height="1052"
     id="namedview7741"
     showgrid="false"
     inkscape:zoom="1.84375"
     inkscape:cx="-145.991"
     inkscape:cy="1.6126198"
     inkscape:window-x="0"
     inkscape:window-y="0"
     inkscape:window-maximized="1"
     inkscape:current-layer="svg7739" />
  <!-- Generator: Sketch 57.1 (83088) - https://sketch.com -->
  <title
     id="title7730">Shape</title>
  <desc
     id="desc7732">Created with Sketch.</desc>
  <g
     id="Page-1"
     style="fill:none;fill-rule:evenodd;stroke:none;stroke-width:1"
     transform="matrix(4.7201618,0,0,4.7201618,17.978422,26.639919)">
    <g
       id="Editor"
       transform="translate(-98,-196)"
       style="fill:#000000">
      <g
         id="ic_format_list_bulleted"
         transform="translate(96,192)">
        <g
           id="Icon-24px">
          <path
             d="m 4,10.5 c -0.83,0 -1.5,0.67 -1.5,1.5 0,0.83 0.67,1.5 1.5,1.5 0.83,0 1.5,-0.67 1.5,-1.5 0,-0.83 -0.67,-1.5 -1.5,-1.5 z m 0,-6 C 3.17,4.5 2.5,5.17 2.5,6 2.5,6.83 3.17,7.5 4,7.5 4.83,7.5 5.5,6.83 5.5,6 5.5,5.17 4.83,4.5 4,4.5 Z m 0,12.17 c -0.74,0 -1.33,0.6 -1.33,1.33 0,0.73 0.6,1.33 1.33,1.33 0.73,0 1.33,-0.6 1.33,-1.33 C 5.33,17.27 4.74,16.67 4,16.67 Z M 7,19 H 21 V 17 H 7 Z M 7,13 H 21 V 11 H 7 Z M 7,5 V 7 H 21 V 5 Z"
             id="Shape"
             inkscape:connector-curvature="0" />
        </g>
      </g>
    </g>
  </g>
</svg>
