<?xml version="1.0" encoding="utf-8"?>
<!-- Generator: Adobe Illustrator 23.0.6, SVG Export Plug-In . SVG Version: 6.00 Build 0)  -->
<svg version="1.1"
	 id="svg7132" xmlns:cc="http://creativecommons.org/ns#" xmlns:dc="http://purl.org/dc/elements/1.1/" xmlns:inkscape="http://www.inkscape.org/namespaces/inkscape" xmlns:rdf="http://www.w3.org/1999/02/22-rdf-syntax-ns#" xmlns:sodipodi="http://sodipodi.sourceforge.net/DTD/sodipodi-0.dtd" xmlns:svg="http://www.w3.org/2000/svg"
	 xmlns="http://www.w3.org/2000/svg" xmlns:xlink="http://www.w3.org/1999/xlink" x="0px" y="0px" viewBox="0 0 128 128"
	 style="enable-background:new 0 0 128 128;" xml:space="preserve">
<sodipodi:namedview  bordercolor="#666666" borderopacity="1" gridtolerance="10" guidetolerance="10" id="namedview7134" inkscape:current-layer="svg7132" inkscape:cx="-99.119712" inkscape:cy="66.650854" inkscape:guide-bbox="true" inkscape:pageopacity="0" inkscape:pageshadow="2" inkscape:window-height="1052" inkscape:window-maximized="1" inkscape:window-width="1920" inkscape:window-x="1920" inkscape:window-y="0" inkscape:zoom="2.95" objecttolerance="10" pagecolor="#ffffff" showgrid="false" showguides="true">
	</sodipodi:namedview>
<title  id="title7125">Combined Shape</title>
<desc  id="desc7127">Created with Sketch.</desc>
<path id="Combined-Shape" inkscape:connector-curvature="0" d="M50.2,29v27.4h27.7V29h14.8v70H77.9V68.8H50.2V99H35.3V29H50.2z"/>
<g>
	<path d="M119.9,87.9c0,2.1-0.6,3.9-1.9,5.3c-1.3,1.5-3.1,2.5-5.3,3v0.1c2.7,0.3,4.8,1.2,6.2,2.5c1.4,1.3,2.1,3.1,2.1,5.3
		c0,3.2-1.2,5.7-3.5,7.5s-5.7,2.7-10,2.7c-3.6,0-6.9-0.6-9.7-1.8v-6c1.3,0.7,2.7,1.2,4.3,1.6s3.1,0.6,4.6,0.6c2.3,0,4.1-0.4,5.2-1.2
		c1.1-0.8,1.7-2.1,1.7-3.8c0-1.6-0.6-2.7-1.9-3.4c-1.3-0.7-3.3-1-6.2-1h-2.5V94h2.6c2.6,0,4.5-0.3,5.7-1c1.2-0.7,1.8-1.8,1.8-3.5
		c0-2.5-1.6-3.8-4.8-3.8c-1.1,0-2.2,0.2-3.4,0.6c-1.1,0.4-2.4,1-3.8,1.9l-3.3-4.9c3.1-2.2,6.7-3.3,10.9-3.3c3.5,0,6.2,0.7,8.2,2.1
		C118.9,83.4,119.9,85.4,119.9,87.9z"/>
</g>
</svg>
