<?xml version="1.0" encoding="UTF-8" standalone="no"?>
<svg
   xmlns:dc="http://purl.org/dc/elements/1.1/"
   xmlns:cc="http://creativecommons.org/ns#"
   xmlns:rdf="http://www.w3.org/1999/02/22-rdf-syntax-ns#"
   xmlns:svg="http://www.w3.org/2000/svg"
   xmlns="http://www.w3.org/2000/svg"
   xmlns:sodipodi="http://sodipodi.sourceforge.net/DTD/sodipodi-0.dtd"
   xmlns:inkscape="http://www.inkscape.org/namespaces/inkscape"
   width="128"
   height="128"
   viewBox="0 0 128 128"
   version="1.1"
   id="svg4648"
   sodipodi:docname="bold.svg"
   inkscape:version="0.92.3 (2405546, 2018-03-11)">
  <metadata
     id="metadata4654">
    <rdf:RDF>
      <cc:Work
         rdf:about="">
        <dc:format>image/svg+xml</dc:format>
        <dc:type
           rdf:resource="http://purl.org/dc/dcmitype/StillImage" />
        <dc:title>Shape</dc:title>
      </cc:Work>
    </rdf:RDF>
  </metadata>
  <defs
     id="defs4652" />
  <sodipodi:namedview
     pagecolor="#ffffff"
     bordercolor="#666666"
     borderopacity="1"
     objecttolerance="10"
     gridtolerance="10"
     guidetolerance="10"
     inkscape:pageopacity="0"
     inkscape:pageshadow="2"
     inkscape:window-width="1920"
     inkscape:window-height="1052"
     id="namedview4650"
     showgrid="false"
     inkscape:zoom="3.8883929"
     inkscape:cx="28.27075"
     inkscape:cy="52.373572"
     inkscape:window-x="1920"
     inkscape:window-y="0"
     inkscape:window-maximized="1"
     inkscape:current-layer="svg4648" />
  <!-- Generator: Sketch 57.1 (83088) - https://sketch.com -->
  <title
     id="title4639">Shape</title>
  <desc
     id="desc4641">Created with Sketch.</desc>
  <g
     id="Page-1"
     style="fill:none;fill-rule:evenodd;stroke:none;stroke-width:1"
     transform="matrix(5.5714286,0,0,5.5714286,34.053571,25)">
    <g
       id="Editor"
       transform="translate(-103,-148)"
       style="fill:#000000">
      <g
         id="ic_format_bold"
         transform="translate(96,144)">
        <g
           id="Icon-24px">
          <path
             d="m 15.6,10.79 c 0.97,-0.67 1.65,-1.77 1.65,-2.79 0,-2.26 -1.75,-4 -4,-4 H 7 v 14 h 7.04 c 2.09,0 3.71,-1.7 3.71,-3.79 0,-1.52 -0.86,-2.82 -2.15,-3.42 z M 10,6.5 h 3 c 0.83,0 1.5,0.67 1.5,1.5 0,0.83 -0.67,1.5 -1.5,1.5 h -3 z m 3.5,9 H 10 v -3 h 3.5 c 0.83,0 1.5,0.67 1.5,1.5 0,0.83 -0.67,1.5 -1.5,1.5 z"
             id="Shape"
             inkscape:connector-curvature="0" />
        </g>
      </g>
    </g>
  </g>
</svg>
