<?xml version="1.0" encoding="UTF-8" standalone="no"?>
<svg
   xmlns:dc="http://purl.org/dc/elements/1.1/"
   xmlns:cc="http://creativecommons.org/ns#"
   xmlns:rdf="http://www.w3.org/1999/02/22-rdf-syntax-ns#"
   xmlns:svg="http://www.w3.org/2000/svg"
   xmlns="http://www.w3.org/2000/svg"
   xmlns:sodipodi="http://sodipodi.sourceforge.net/DTD/sodipodi-0.dtd"
   xmlns:inkscape="http://www.inkscape.org/namespaces/inkscape"
   viewBox="0 0 128 128"
   version="1.1"
   id="svg14"
   sodipodi:docname="token-identity.svg"
   width="128"
   height="128"
   inkscape:version="0.92.3 (2405546, 2018-03-11)">
  <metadata
     id="metadata18">
    <rdf:RDF>
      <cc:Work
         rdf:about="">
        <dc:format>image/svg+xml</dc:format>
        <dc:type
           rdf:resource="http://purl.org/dc/dcmitype/StillImage" />
        <dc:title>Zasób 6</dc:title>
      </cc:Work>
    </rdf:RDF>
  </metadata>
  <sodipodi:namedview
     pagecolor="#ffffff"
     bordercolor="#666666"
     borderopacity="1"
     objecttolerance="10"
     gridtolerance="10"
     guidetolerance="10"
     inkscape:pageopacity="0"
     inkscape:pageshadow="2"
     inkscape:window-width="2493"
     inkscape:window-height="1385"
     id="namedview16"
     showgrid="false"
     inkscape:zoom="3.8663171"
     inkscape:cx="-40.760326"
     inkscape:cy="37.399562"
     inkscape:window-x="67"
     inkscape:window-y="27"
     inkscape:window-maximized="1"
     inkscape:current-layer="svg14" />
  <defs
     id="defs4">
    <style
       id="style2">.cls-1{fill:#fff;}</style>
  </defs>
  <title
     id="title6">Zasób 6</title>
  <g
     id="g1578">
    <path
       id="path8"
       d="m 64,20.142578 c -17.738272,1e-6 -33.729823,10.686483 -40.517578,27.074219 -6.787747,16.387704 -3.03499,35.250168 9.507812,47.792969 12.542801,12.542814 31.405267,16.295564 47.792969,9.507814 C 97.170938,97.72983 107.85742,81.738278 107.85742,64 107.84858,39.782478 88.217528,20.151619 64,20.142578 Z m 0.06055,16.753906 c 6.38501,0 11.960952,1.615162 18.076172,4.873047 0.734431,0.386007 1.019235,1.327417 0.644531,2.083985 -0.26979,0.524972 -0.794408,0.833984 -1.333984,0.833984 -0.239812,0 -0.464627,-0.06176 -0.689454,-0.169922 -5.74051,-3.057161 -10.731922,-4.533203 -16.697265,-4.533203 -5.950353,0 -11.556284,1.63025 -16.697266,4.517578 -0.734417,0.401442 -1.634368,0.139379 -2.039062,-0.617187 -0.389697,-0.756568 -0.134819,-1.682718 0.599609,-2.09961 C 51.51447,38.6508 57.615593,36.896484 64.06055,36.896484 Z m -0.134766,7.361328 c 13.624361,0 24.714844,10.854979 24.714844,24.195313 0,5.018071 -4.151393,9.09375 -9.232422,9.09375 -5.081029,0 -9.232422,-4.075679 -9.232422,-9.09375 0,-3.304204 -2.804008,-6.007812 -6.236328,-6.007813 -3.432326,0 -6.234375,2.68816 -6.234375,6.007813 0,5.265113 1.993294,10.220137 5.605469,13.925781 2.832783,2.902776 5.589707,4.508357 9.816406,5.697266 0.794383,0.231603 1.275607,1.082051 1.050781,1.90039 -0.17986,0.679369 -0.779965,1.126954 -1.439453,1.126954 -0.134889,0 -0.270718,-0.01632 -0.390625,-0.0625 C 67.566387,89.697705 64.450367,87.876284 61.212891,84.556641 57.031164,80.264265 54.722656,74.536389 54.722656,68.4375 c 0,-5.018059 4.136401,-9.095703 9.232422,-9.095703 5.09602,0 9.232422,4.077644 9.232422,9.095703 0,3.304217 2.804012,6.005859 6.236328,6.005859 3.432322,0 6.234375,-2.686208 6.234375,-6.005859 0,-11.641905 -9.743107,-21.107422 -21.71875,-21.107422 -8.528334,0 -16.307198,4.879614 -19.814453,12.445313 -1.169089,2.501317 -1.753906,5.419671 -1.753906,8.662109 0,2.408672 0.210532,6.207374 1.99414,11.132812 0.284774,0.802888 -0.105356,1.681432 -0.884765,1.990235 -0.77939,0.293362 -1.633819,-0.107344 -1.933594,-0.910156 -1.468852,-4.060773 -2.1875,-8.044026 -2.1875,-12.212891 0,-3.70565 0.688791,-7.072037 2.052734,-9.990234 4.001873,-8.615654 12.846239,-14.189453 22.513672,-14.189454 z m 0.103516,7.519532 c 9.367684,0 16.982422,7.457622 16.982422,16.644531 0,0.849209 -0.673692,1.542969 -1.498047,1.542969 -0.824354,0 -1.5,-0.69376 -1.5,-1.542969 0,-7.473055 -6.265405,-13.556641 -13.984375,-13.556641 -7.703984,0 -13.984375,6.083586 -13.984375,13.556641 0,4.446793 0.959848,8.553756 2.773437,11.904297 1.933484,3.551249 3.223057,5.079413 5.53125,7.472656 0.584547,0.602164 0.583922,1.591016 -0.01563,2.177734 -0.269783,0.324248 -0.658492,0.462891 -1.033203,0.462891 -0.389699,0 -0.764691,-0.154088 -1.064453,-0.462891 -2.592978,-2.702039 -4.00197,-4.415634 -6.02539,-8.136718 -2.068383,-3.798308 -3.16211,-8.446205 -3.16211,-13.417969 0,-9.17147 7.612797,-16.644531 16.980469,-16.644531 z m -0.164063,15.115234 c 0.824358,0 1.498047,0.695708 1.498047,1.544922 0,4.338707 2.174247,8.444547 5.816407,10.992188 2.113346,1.482257 4.60195,2.208984 7.599609,2.208984 0.719434,0 1.931795,-0.0768 3.130859,-0.292969 0.809371,-0.154403 1.590353,0.416244 1.740235,1.25 0.149886,0.833786 -0.405479,1.636604 -1.214844,1.791016 -1.753632,0.324253 -3.236583,0.339843 -3.65625,0.339843 -3.567211,0 -6.699995,-0.925908 -9.292969,-2.732421 -4.45153,-3.118919 -7.11914,-8.183436 -7.11914,-13.556641 0,-0.849214 0.673681,-1.544922 1.498046,-1.544922 z"
       clip-path="none"
       style="fill:#000000;stroke-width:1.63827002"
       inkscape:connector-curvature="0" />
    <path
       style="fill:#000000;stroke-width:1.63827002"
       inkscape:connector-curvature="0"
       id="path10"
       d="M 64.065487,113.99996 A 50,50 0 1 1 113.99996,64.065482 50.049148,50.049148 0 0 1 64.065487,113.99996 Z m 0,-98.083228 A 48.083223,48.083223 0 1 0 112.14872,64.065482 48.148757,48.148757 0 0 0 64.065487,15.982259 Z"
       class="cls-1" />
  </g>
</svg>
