<?xml version="1.0" encoding="UTF-8" standalone="no"?>
<svg
   xmlns:dc="http://purl.org/dc/elements/1.1/"
   xmlns:cc="http://creativecommons.org/ns#"
   xmlns:rdf="http://www.w3.org/1999/02/22-rdf-syntax-ns#"
   xmlns:svg="http://www.w3.org/2000/svg"
   xmlns="http://www.w3.org/2000/svg"
   xmlns:sodipodi="http://sodipodi.sourceforge.net/DTD/sodipodi-0.dtd"
   xmlns:inkscape="http://www.inkscape.org/namespaces/inkscape"
   viewBox="0 0 128 128"
   version="1.1"
   id="svg14"
   sodipodi:docname="token-invite.svg"
   width="128"
   height="128"
   inkscape:version="0.92.3 (2405546, 2018-03-11)">
  <metadata
     id="metadata18">
    <rdf:RDF>
      <cc:Work
         rdf:about="">
        <dc:format>image/svg+xml</dc:format>
        <dc:type
           rdf:resource="http://purl.org/dc/dcmitype/StillImage" />
        <dc:title>Zasób 6</dc:title>
      </cc:Work>
    </rdf:RDF>
  </metadata>
  <sodipodi:namedview
     pagecolor="#ffffff"
     bordercolor="#666666"
     borderopacity="1"
     objecttolerance="10"
     gridtolerance="10"
     guidetolerance="10"
     inkscape:pageopacity="0"
     inkscape:pageshadow="2"
     inkscape:window-width="1920"
     inkscape:window-height="1052"
     id="namedview16"
     showgrid="false"
     inkscape:zoom="3.8663171"
     inkscape:cx="-20.174238"
     inkscape:cy="30.52"
     inkscape:window-x="0"
     inkscape:window-y="0"
     inkscape:window-maximized="1"
     inkscape:current-layer="svg14" />
  <defs
     id="defs4">
    <style
       id="style2">.cls-1{fill:#fff;}</style>
  </defs>
  <title
     id="title6">Zasób 6</title>
  <g
     id="Warstwa_2"
     data-name="Warstwa 2"
     transform="matrix(1.474443,0,0,1.474443,19.058939,19.058939)"
     style="fill:#000000">
    <g
       id="Layer_1"
       data-name="Layer 1"
       style="fill:#000000">
      <path
         class="cls-1"
         d="M 30.52,3.75 A 26.77,26.77 0 1 0 57.29,30.52 26.78,26.78 0 0 0 30.52,3.75 Z m 14,36.76 h -28 V 24.39 l 14,10 14,-10 z m 0,-18.51 -14,10.15 -14,-10.09 v -1.53 h 28 z"
         id="path8"
         inkscape:connector-curvature="0"
         style="fill:#000000" />
      <path
         class="cls-1"
         d="M 30.52,61 A 30.52,30.52 0 1 1 61,30.52 30.55,30.55 0 0 1 30.52,61 Z m 0,-59.87 A 29.35,29.35 0 1 0 59.87,30.52 29.39,29.39 0 0 0 30.52,1.17 Z"
         id="path10"
         inkscape:connector-curvature="0"
         style="fill:#000000" />
    </g>
  </g>
</svg>
