<?xml version="1.0" encoding="UTF-8" standalone="no"?>
<svg
   xmlns:dc="http://purl.org/dc/elements/1.1/"
   xmlns:cc="http://creativecommons.org/ns#"
   xmlns:rdf="http://www.w3.org/1999/02/22-rdf-syntax-ns#"
   xmlns:svg="http://www.w3.org/2000/svg"
   xmlns="http://www.w3.org/2000/svg"
   xmlns:sodipodi="http://sodipodi.sourceforge.net/DTD/sodipodi-0.dtd"
   xmlns:inkscape="http://www.inkscape.org/namespaces/inkscape"
   viewBox="0 0 128 128"
   version="1.1"
   id="svg17"
   sodipodi:docname="unit.svg"
   width="128"
   height="128"
   inkscape:version="0.92.5 (2060ec1f9f, 2020-04-08)">
  <metadata
     id="metadata21">
    <rdf:RDF>
      <cc:Work
         rdf:about="">
        <dc:format>image/svg+xml</dc:format>
        <dc:type
           rdf:resource="http://purl.org/dc/dcmitype/StillImage" />
        <dc:title>unit</dc:title>
      </cc:Work>
    </rdf:RDF>
  </metadata>
  <sodipodi:namedview
     pagecolor="#ffffff"
     bordercolor="#666666"
     borderopacity="1"
     objecttolerance="10"
     gridtolerance="10"
     guidetolerance="10"
     inkscape:pageopacity="0"
     inkscape:pageshadow="2"
     inkscape:window-width="1920"
     inkscape:window-height="1015"
     id="namedview19"
     showgrid="false"
     showguides="true"
     inkscape:guide-bbox="true"
     inkscape:zoom="4.5107034"
     inkscape:cx="-47.886101"
     inkscape:cy="61.631186"
     inkscape:window-x="0"
     inkscape:window-y="0"
     inkscape:window-maximized="1"
     inkscape:current-layer="svg17">
    <sodipodi:guide
       position="63.848135,136.34237"
       orientation="1,0"
       id="guide831"
       inkscape:locked="false" />
    <sodipodi:guide
       position="-7.9810169,68.060339"
       orientation="0,1"
       inkscape:locked="false"
       id="guide833" />
  </sodipodi:namedview>
  <defs
     id="defs7" />
  <path
     d="M 88.050186,97 H 61.527405 l 2.882261,-6.585893 a 7.2877913,7.2877913 0 0 0 0.627228,-2.9868 7.4669993,7.4669993 0 1 0 -14.396374,2.9868 L 53.537715,97 H 27 V 35.949814 h 24.252814 a 0.35841596,0.35841596 0 0 0 0.0896,-0.209076 v 0 c -0.238944,-0.209076 -0.418152,-0.358416 -0.657096,-0.59736 a 9.4830891,9.4830891 0 0 1 -2.777724,-6.690431 9.587627,9.587627 0 1 1 19.16032,0 9.4084191,9.4084191 0 0 1 -2.732922,6.645629 l -0.59736,0.537624 c 0,0 0,0.0896 0,0.104538 a 0.40321796,0.40321796 0 0 0 0.07467,0.209076 h 24.23788 v 24.23788 a 0.49282195,0.49282195 0 0 0 0.238944,0 c 0.14934,-0.164274 0.328548,-0.37335 0.582426,-0.627228 a 9.587627,9.587627 0 1 1 0,13.70941 l -0.53762,-0.582426 a 0.58242594,0.58242594 0 0 0 -0.313614,0 z"
     id="path11"
     inkscape:connector-curvature="0"
     style="stroke-width:1.49339986" />
</svg>
