<?xml version="1.0" encoding="UTF-8" standalone="no"?>
<svg
   xmlns:dc="http://purl.org/dc/elements/1.1/"
   xmlns:cc="http://creativecommons.org/ns#"
   xmlns:rdf="http://www.w3.org/1999/02/22-rdf-syntax-ns#"
   xmlns:svg="http://www.w3.org/2000/svg"
   xmlns="http://www.w3.org/2000/svg"
   xmlns:sodipodi="http://sodipodi.sourceforge.net/DTD/sodipodi-0.dtd"
   xmlns:inkscape="http://www.inkscape.org/namespaces/inkscape"
   viewBox="0 0 128 128"
   version="1.1"
   id="svg17"
   sodipodi:docname="unit.svg"
   width="128"
   height="128"
   inkscape:version="0.92.2 2405546, 2018-03-11">
  <metadata
     id="metadata21">
    <rdf:RDF>
      <cc:Work
         rdf:about="">
        <dc:format>image/svg+xml</dc:format>
        <dc:type
           rdf:resource="http://purl.org/dc/dcmitype/StillImage" />
        <dc:title>unit</dc:title>
      </cc:Work>
    </rdf:RDF>
  </metadata>
  <sodipodi:namedview
     pagecolor="#ffffff"
     bordercolor="#666666"
     borderopacity="1"
     objecttolerance="10"
     gridtolerance="10"
     guidetolerance="10"
     inkscape:pageopacity="0"
     inkscape:pageshadow="2"
     inkscape:window-width="1920"
     inkscape:window-height="1015"
     id="namedview19"
     showgrid="false"
     showguides="true"
     inkscape:guide-bbox="true"
     inkscape:zoom="4.5107034"
     inkscape:cx="26.16"
     inkscape:cy="61.631186"
     inkscape:window-x="0"
     inkscape:window-y="0"
     inkscape:window-maximized="1"
     inkscape:current-layer="svg17">
    <sodipodi:guide
       position="63.848135,136.34237"
       orientation="1,0"
       id="guide831"
       inkscape:locked="false" />
    <sodipodi:guide
       position="-7.9810169,68.060339"
       orientation="0,1"
       inkscape:locked="false"
       id="guide833" />
  </sodipodi:namedview>
  <defs
     id="defs7">
    <style
       id="style2">.cls-1{fill:none;}.cls-2{clip-path:url(#clip-path);}</style>
    <clipPath
       id="clip-path">
      <rect
         class="cls-1"
         y="0.090000004"
         width="52.23"
         height="52.349998"
         id="rect4"
         x="0"
         style="fill:none" />
    </clipPath>
  </defs>
  <title
     id="title9">unit</title>
  <g
     id="Warstwa_2"
     data-name="Warstwa 2"
     transform="matrix(1.4933946,0,0,1.4933946,27.110628,18.617432)">
    <g
       id="Layer_1"
       data-name="Layer 1">
      <g
         class="cls-2"
         clip-path="url(#clip-path)"
         id="g13">
        <path
           d="M 40.88,52.32 H 23.12 l 1.93,-4.41 a 4.88,4.88 0 0 0 0.42,-2 5,5 0 1 0 -9.64,2 l 1.94,4.41 H 0 V 11.44 H 16.24 A 0.24,0.24 0 0 0 16.3,11.3 v 0 C 16.14,11.16 16.02,11.06 15.86,10.9 A 6.35,6.35 0 0 1 14,6.42 6.42,6.42 0 1 1 26.83,6.42 6.3,6.3 0 0 1 25,10.87 l -0.4,0.36 c 0,0 0,0.06 0,0.07 a 0.27,0.27 0 0 0 0.05,0.14 h 16.23 v 16.23 a 0.33,0.33 0 0 0 0.16,0 c 0.1,-0.11 0.22,-0.25 0.39,-0.42 a 6.42,6.42 0 1 1 0,9.18 l -0.36,-0.39 a 0.39,0.39 0 0 0 -0.21,0 z"
           id="path11"
           inkscape:connector-curvature="0" />
      </g>
    </g>
  </g>
</svg>
