<?xml version="1.0" encoding="UTF-8" standalone="no"?>
<svg
   xmlns:dc="http://purl.org/dc/elements/1.1/"
   xmlns:cc="http://creativecommons.org/ns#"
   xmlns:rdf="http://www.w3.org/1999/02/22-rdf-syntax-ns#"
   xmlns:svg="http://www.w3.org/2000/svg"
   xmlns="http://www.w3.org/2000/svg"
   xmlns:sodipodi="http://sodipodi.sourceforge.net/DTD/sodipodi-0.dtd"
   xmlns:inkscape="http://www.inkscape.org/namespaces/inkscape"
   inkscape:version="1.0 (4035a4f, 2020-05-01)"
   sodipodi:docname="view.svg"
   id="svg17"
   version="1.1"
   viewBox="0 0 128 128"
   height="128"
   width="128">
  <metadata
     id="metadata23">
    <rdf:RDF>
      <cc:Work
         rdf:about="">
        <dc:format>image/svg+xml</dc:format>
        <dc:type
           rdf:resource="http://purl.org/dc/dcmitype/StillImage" />
        <dc:title>Shape</dc:title>
      </cc:Work>
    </rdf:RDF>
  </metadata>
  <defs
     id="defs21" />
  <sodipodi:namedview
     inkscape:current-layer="svg17"
     inkscape:window-maximized="0"
     inkscape:window-y="23"
     inkscape:window-x="0"
     inkscape:cy="69.132585"
     inkscape:cx="62.293209"
     inkscape:zoom="7.1003811"
     showgrid="false"
     id="namedview19"
     inkscape:window-height="1395"
     inkscape:window-width="2560"
     inkscape:pageshadow="2"
     inkscape:pageopacity="0"
     guidetolerance="10"
     gridtolerance="10"
     objecttolerance="10"
     borderopacity="1"
     bordercolor="#666666"
     pagecolor="#ffffff" />
  <title
     id="title10">Shape</title>
  <g
     transform="matrix(6.0307692,0,0,6.0307692,24.8,37.272729)"
     style="fill:#000000"
     fill-rule="evenodd"
     fill="none"
     stroke-width="1"
     stroke="none"
     id="Share-New-2020">
    <g
       style="fill:#000000"
       fill="#555d72"
       transform="translate(-1667,-287)"
       id="Shared_description">
      <g
         style="fill:#000000"
         transform="translate(592,277)"
         id="Group-3">
        <g
           style="fill:#000000"
           transform="translate(1075,5)"
           id="Preview">
          <path
             style="fill:#000000"
             id="Shape"
             d="M 6.5,5 C 3.5454546,5 1.0222727,6.8377273 0,9.4318182 c 1.0222727,2.5940908 3.5454546,4.4318178 6.5,4.4318178 2.9545455,0 5.477727,-1.837727 6.5,-4.4318178 C 11.977727,6.8377273 9.4545455,5 6.5,5 Z m 0,7.386364 c -1.6309091,0 -2.9545454,-1.323637 -2.9545454,-2.9545458 0,-1.6309091 1.3236363,-2.9545455 2.9545454,-2.9545455 1.6309091,0 2.9545455,1.3236364 2.9545455,2.9545455 0,1.6309088 -1.3236364,2.9545458 -2.9545455,2.9545458 z m 0,-4.7272731 c -0.9809091,0 -1.7727273,0.7918182 -1.7727273,1.7727273 0,0.9809088 0.7918182,1.7727278 1.7727273,1.7727278 0.9809091,0 1.7727273,-0.791819 1.7727273,-1.7727278 C 8.2727273,8.4509091 7.4809091,7.6590909 6.5,7.6590909 Z" />
        </g>
      </g>
    </g>
  </g>
</svg>
