<?xml version="1.0" encoding="UTF-8" standalone="no"?>
<svg
   xmlns:dc="http://purl.org/dc/elements/1.1/"
   xmlns:cc="http://creativecommons.org/ns#"
   xmlns:rdf="http://www.w3.org/1999/02/22-rdf-syntax-ns#"
   xmlns:svg="http://www.w3.org/2000/svg"
   xmlns="http://www.w3.org/2000/svg"
   xmlns:sodipodi="http://sodipodi.sourceforge.net/DTD/sodipodi-0.dtd"
   xmlns:inkscape="http://www.inkscape.org/namespaces/inkscape"
   inkscape:version="1.0 (4035a4f, 2020-05-01)"
   sodipodi:docname="visual-editor.svg"
   id="svg78"
   version="1.1"
   viewBox="0 0 16 13"
   height="128px"
   width="128px">
  <metadata
     id="metadata84">
    <rdf:RDF>
      <cc:Work
         rdf:about="">
        <dc:format>image/svg+xml</dc:format>
        <dc:type
           rdf:resource="http://purl.org/dc/dcmitype/StillImage" />
      </cc:Work>
    </rdf:RDF>
  </metadata>
  <defs
     id="defs82" />
  <sodipodi:namedview
     inkscape:current-layer="svg78"
     inkscape:window-maximized="0"
     inkscape:window-y="23"
     inkscape:window-x="0"
     inkscape:cy="64"
     inkscape:cx="64"
     inkscape:zoom="1"
     showgrid="false"
     id="namedview80"
     inkscape:window-height="1395"
     inkscape:window-width="2560"
     inkscape:pageshadow="2"
     inkscape:pageopacity="0"
     guidetolerance="10"
     gridtolerance="10"
     objecttolerance="10"
     borderopacity="1"
     bordercolor="#666666"
     pagecolor="#ffffff" />
  <title
     id="title73">Shape</title>
  <g
     transform="matrix(0.67578125,0,0,0.67578125,2.59375,2.175)"
     fill-rule="evenodd"
     fill="none"
     stroke-width="1"
     stroke="none"
     id="Share-New-2020">
    <g
       fill="#000000"
       transform="translate(-1682,-280)"
       id="Shared_open-data-v2">
      <path
         id="Shape"
         d="m 1696.4,280 h -12.8 c -0.88,0 -1.6,0.72 -1.6,1.6 v 9.6 c 0,0.88 0.72,1.6 1.6,1.6 h 12.8 c 0.88,0 1.6,-0.72 1.6,-1.6 v -9.6 c 0,-0.88 -0.72,-1.6 -1.6,-1.6 z m -12.8,6.4 h 3.2 v 1.6 h -3.2 z m 8,4.8 h -8 v -1.6 h 8 z m 4.8,0 h -3.2 v -1.6 h 3.2 z m 0,-3.2 h -8 v -1.6 h 8 z" />
    </g>
  </g>
</svg>
