<?xml version="1.0" encoding="UTF-8" standalone="no"?>
<svg
   xmlns:dc="http://purl.org/dc/elements/1.1/"
   xmlns:cc="http://creativecommons.org/ns#"
   xmlns:rdf="http://www.w3.org/1999/02/22-rdf-syntax-ns#"
   xmlns:svg="http://www.w3.org/2000/svg"
   xmlns="http://www.w3.org/2000/svg"
   xmlns:sodipodi="http://sodipodi.sourceforge.net/DTD/sodipodi-0.dtd"
   xmlns:inkscape="http://www.inkscape.org/namespaces/inkscape"
   inkscape:version="1.0 (4035a4f, 2020-05-01)"
   sodipodi:docname="xml-file.svg"
   id="svg65"
   version="1.1"
   viewBox="0 0 21 21"
   height="123px"
   width="128px">
  <metadata
     id="metadata71">
    <rdf:RDF>
      <cc:Work
         rdf:about="">
        <dc:format>image/svg+xml</dc:format>
        <dc:type
           rdf:resource="http://purl.org/dc/dcmitype/StillImage" />
      </cc:Work>
    </rdf:RDF>
  </metadata>
  <defs
     id="defs69" />
  <sodipodi:namedview
     inkscape:current-layer="svg65"
     inkscape:window-maximized="0"
     inkscape:window-y="136"
     inkscape:window-x="918"
     inkscape:cy="61.5"
     inkscape:cx="64"
     inkscape:zoom="2"
     showgrid="false"
     id="namedview67"
     inkscape:window-height="763"
     inkscape:window-width="1179"
     inkscape:pageshadow="2"
     inkscape:pageopacity="0"
     guidetolerance="10"
     gridtolerance="10"
     objecttolerance="10"
     borderopacity="1"
     bordercolor="#666666"
     pagecolor="#ffffff" />
  <title
     id="title59">Group 10</title>
  <g
     transform="matrix(0.69918729,0,0,0.69918729,4.5243871,3.1585304)"
     fill-rule="evenodd"
     fill="none"
     stroke-width="1"
     stroke="none"
     id="Share-New-2020">
    <g
       fill="#000000"
       transform="translate(-1743,-276)"
       id="Shared_open-data-v1">
      <g
         transform="translate(1743,276)"
         id="Group-10">
        <path
           id="Combined-Shape"
           d="M 12.423077,-1.0471255e-5 C 12.596877,-9.84375e-4 12.763935,0.0674707 12.887308,0.1903125 v 0 l 3.923077,3.9375 c 0.122391,0.1238672 0.190596,0.291498 0.189625,0.4659375 v 0 2.625 H 15.692308 V 5.25 h -2.615385 c -0.722214,0 -1.307692,-0.5876309 -1.307692,-1.3125 v 0 -2.625 H 1.9615385 c -0.3610866,0 -0.6538462,0.2938359 -0.6538462,0.65625 v 0 17.0625 c 0,0.362455 0.2927596,0.65625 0.6538462,0.65625 v 0 h 4.576923 V 21 H 1.9615385 C 0.87819711,21 0,20.118574 0,19.03125 v 0 -17.0625 C 0,0.88142578 0.87819711,-1.0471255e-5 1.9615385,-1.0471255e-5 v 0 z M 6.25,10 c 0.2353516,7.88e-4 0.4503516,0.149625 0.55625,0.385 v 0 L 7.5,11.932 8.19375,10.385 C 8.2996484,10.149625 8.5146484,10.000788 8.75,10 v 0 H 10 v 1.4 H 9.1375 L 8.2,13.5 9.1375,15.6 H 10 V 17 H 8.75 C 8.5146484,16.999212 8.2996484,16.850375 8.19375,16.615 v 0 L 7.5,15.068 6.80625,16.615 C 6.7003516,16.850375 6.4853516,16.999212 6.25,17 v 0 H 5 V 15.6 H 5.8625 L 6.8,13.5 5.8625,11.4 H 5 V 10 Z m 12.083333,0 v 5.6 H 21 V 17 H 17.666667 C 17.298458,17 17,16.686619 17,16.3 v 0 -6.3 z m -7.148489,0.203086 c 0.245117,-0.2723707 0.640859,-0.2705325 0.883906,0.0041 v 0 L 13.5,11.810827 14.93125,10.207156 c 0.17832,-0.201159 0.447266,-0.2619534 0.68125,-0.154064 0.233398,0.107407 0.38625,0.36157 0.3875,0.644269 v 0 V 17 h -1.25 v -4.614976 l -0.8125,0.903422 c -0.243789,0.271495 -0.637461,0.271495 -0.88125,0 v 0 L 12.25,12.385024 V 17 H 11 v -6.302639 c 6.64e-4,-0.185709 0.06719,-0.363496 0.184844,-0.494275 z" />
      </g>
    </g>
  </g>
</svg>
